<svg width="24" height="24" viewBox="0 0 24 24" fill="none" xmlns="http://www.w3.org/2000/svg">
<g id="swimmingpool32">
<path id="Vector 177" d="M2.25 15.3652H21.75" stroke="#292929" stroke-width="1.5"/>
<path id="Vector 180" d="M2.25 18.6699H8.0127" stroke="#292929" stroke-width="1.5"/>
<path id="Vector 179" d="M17.0127 12.6699V7.41992" stroke="#292929" stroke-width="1.5"/>
<path id="Vector 178" d="M2.25 12.3652H21.75" stroke="#292929" stroke-width="1.5"/>
<path id="Ellipse 44" d="M21.5127 7.41992C21.5127 6.82897 21.3963 6.24381 21.1702 5.69785C20.944 5.15188 20.6125 4.6558 20.1947 4.23794C19.7768 3.82008 19.2807 3.48861 18.7348 3.26246C18.1888 3.03632 17.6036 2.91992 17.0127 2.91992C16.4217 2.91992 15.8366 3.03632 15.2906 3.26246C14.7447 3.48861 14.2486 3.82008 13.8307 4.23794C13.4129 4.65581 13.0814 5.15188 12.8552 5.69785C12.6291 6.24381 12.5127 6.82897 12.5127 7.41992L17.0127 7.41992H21.5127Z" stroke="#292929" stroke-width="1.5"/>
<path id="Rectangle 156" d="M8.0127 20.9199V11.5449C8.0127 10.5094 8.85216 9.66992 9.8877 9.66992V9.66992C10.9232 9.66992 11.7627 10.5094 11.7627 11.5449V12.4824" stroke="#292929" stroke-width="1.5"/>
<path id="Rectangle 157" d="M2.7627 20.9199V11.5449C2.7627 10.5094 3.60216 9.66992 4.6377 9.66992V9.66992C5.67323 9.66992 6.5127 10.5094 6.5127 11.5449V12.4824" stroke="#292929" stroke-width="1.5"/>
</g>
</svg>
