<svg width="24" height="24" viewBox="0 0 24 24" fill="none" xmlns="http://www.w3.org/2000/svg">
<path d="M4.13867 20.7355V10.6904H19.8614V20.7355H4.13867Z" stroke="#292929" stroke-width="1.5"/>
<path d="M6.75925 14.0607V13.3107H6.00925L6.00925 14.0607H6.75925ZM10.6899 14.0607H11.4399V13.3107H10.6899V14.0607ZM13.7581 14.0607V13.3107H13.0081V14.0607H13.7581ZM13.7581 17.9914H13.0081V18.7414H13.7581V17.9914ZM17.2411 17.9914V18.7414H17.9911V17.9914H17.2411ZM17.2411 14.0607H17.9911V13.3107H17.2411V14.0607ZM12.0002 3.26562L12.4588 2.67216L12.0002 2.3178L11.5416 2.67216L12.0002 3.26562ZM2.39182 10.6903L1.93324 10.0968L2.39182 11.4403V10.6903ZM21.6085 10.6903V11.4403L22.0671 10.0968L21.6085 10.6903ZM7.50925 20.7354V14.0607H6.00925V20.7354H7.50925ZM6.75925 14.8107H10.6899V13.3107H6.75925V14.8107ZM9.93994 14.0607V20.7354H11.4399V14.0607H9.93994ZM13.0081 14.0607V17.9914H14.5081V14.0607H13.0081ZM13.7581 18.7414H17.2411V17.2414H13.7581V18.7414ZM17.9911 17.9914V14.0607H16.4911V17.9914H17.9911ZM17.2411 13.3107H13.7581V14.8107H17.2411V13.3107ZM1.95508 21.4854H22.0453V19.9854H1.95508V21.4854ZM11.5416 2.67216L1.93324 10.0968L2.85041 11.2837L12.4588 3.85909L11.5416 2.67216ZM2.39182 11.4403H5.01228V9.94026H2.39182V11.4403ZM5.01228 11.4403H21.6085V9.94026H5.01228V11.4403ZM22.0671 10.0968L12.4588 2.67216L11.5416 3.85909L21.1499 11.2837L22.0671 10.0968Z" fill="#292929"/>
</svg>
