<svg width="24" height="24" viewBox="0 0 24 24" fill="none" xmlns="http://www.w3.org/2000/svg">
<g id="watering32">
<path id="Vector 168" d="M9.12988 21.0023C9.12988 20.8838 9.14788 15.13 9.12988 12.2646H14.955V21.0023" stroke="#292929" stroke-width="1.5"/>
<path id="Vector 199" d="M10.7969 12.3308C10.7969 12.297 10.8046 10.1774 10.7969 9.36035H13.2885V12.3308" stroke="#292929" stroke-width="1.5"/>
<path id="Ellipse 49" d="M14.955 9.36079C14.955 8.9783 14.8796 8.59957 14.7333 8.2462C14.5869 7.89284 14.3724 7.57176 14.1019 7.30131C13.8314 7.03085 13.5104 6.81632 13.157 6.66995C12.8036 6.52358 12.4249 6.44824 12.0424 6.44824C11.6599 6.44824 11.2812 6.52358 10.9278 6.66995C10.5745 6.81632 10.2534 7.03085 9.98295 7.30131C9.71249 7.57176 9.49796 7.89284 9.35159 8.2462C9.20522 8.59957 9.12988 8.9783 9.12988 9.36079L12.0424 9.36079H14.955Z" stroke="#292929" stroke-width="1.5"/>
<path id="Vector 252" d="M16.084 7.36448C16.5735 6.63859 17.9983 4.99438 19.7808 4.22461" stroke="#292929" stroke-width="1.5"/>
<path id="Vector 256" d="M16.8998 11.2473C17.6918 11.6205 19.5341 12.7778 20.5666 14.4222" stroke="#292929" stroke-width="1.5"/>
<path id="Vector 257" d="M7.63245 11.2473C6.8404 11.6205 4.99817 12.7778 3.96559 14.4222" stroke="#292929" stroke-width="1.5"/>
<path id="Vector 254" d="M7.66211 7.36448C7.17256 6.63859 5.74783 4.99438 3.96526 4.22461" stroke="#292929" stroke-width="1.5"/>
<path id="Vector 253" d="M18.7334 8.97613C19.797 8.87485 22.1572 8.8951 23.0888 9.78642" stroke="#292929" stroke-width="1.5"/>
<path id="Vector 255" d="M5.0127 8.97613C3.94905 8.87485 1.58887 8.8951 0.657263 9.78642" stroke="#292929" stroke-width="1.5"/>
</g>
</svg>
