<svg width="24" height="24" viewBox="0 0 24 24" fill="none" xmlns="http://www.w3.org/2000/svg">
<g id="technic32">
<circle id="Ellipse 57" cx="16.5449" cy="16.8369" r="2.625" stroke="#292929" stroke-width="1.5"/>
<path id="Subtract" fill-rule="evenodd" clip-rule="evenodd" d="M20.25 8.58691H18.5482H5.82376H4.28027L4.64409 10.0869L6.28125 16.8369H14.2766C14.2591 16.7144 14.25 16.5892 14.25 16.4619C14.25 16.0593 14.3406 15.6779 14.5026 15.3369H7.46093L6.18758 10.0869H17.7444L15.5393 14.2016C15.9306 13.9699 16.3873 13.8369 16.875 13.8369C17.0575 13.8369 17.2356 13.8555 17.4076 13.891L19.4462 10.0869L20.25 8.58691Z" fill="#292929"/>
<path id="Vector 217" d="M9.75 16.4619V19.4619H7.5L4.125 5.58691H0.75" stroke="#292929" stroke-width="1.5"/>
<path id="Vector 192" d="M11.0873 7.56186C11.3439 7.25123 11.7828 6.79015 12.2867 6.3875M12.2867 6.3875C12.8412 5.94451 13.4743 5.57223 14.0301 5.5488C15.0909 5.50408 15.78 6.46235 15.9919 6.94708C16.1857 6.78868 16.7549 6.56691 17.4815 6.94708C18.2081 7.32725 18.5689 8.56866 18.6584 9.14185H5.84766C6.12278 8.52214 6.82563 7.2156 7.43599 6.94708C8.19894 6.61143 9.21621 4.85033 9.87016 4.59874C10.5241 4.34716 11.0873 4.9347 11.4687 5.32606C11.7739 5.63914 12.1412 6.16414 12.2867 6.3875Z" stroke="#292929" stroke-width="1.5"/>
</g>
</svg>
