<svg width="24" height="24" viewBox="0 0 24 24" fill="none" xmlns="http://www.w3.org/2000/svg">
<g id="tools32">
<path id="Vector 205" d="M16.5 16.5V2.25" stroke="#292929" stroke-width="1.5"/>
<path id="Vector 206" d="M7.5 21.75L7.5 2.25" stroke="#292929" stroke-width="1.5"/>
<path id="Vector 141" d="M5.25 2.25H9.75" stroke="#292929" stroke-width="1.5"/>
<path id="Vector 207" d="M14.25 2.25H18.75" stroke="#292929" stroke-width="1.5"/>
<path id="Vector 168" d="M5.25 21.75C5.25 21.6788 5.2639 18.2217 5.25 16.5H9.75V21.75" stroke="#292929" stroke-width="1.5"/>
<path id="Ellipse 57" d="M18.75 16.5C18.75 16.9762 18.6916 18.5355 18.5785 18.9754C18.4654 19.4154 18.2997 19.8151 18.0908 20.1518C17.8818 20.4885 17.6338 20.7556 17.3608 20.9379C17.0878 21.1201 16.7953 21.2139 16.4998 21.2139C16.2043 21.2139 15.9117 21.1201 15.6387 20.9379C15.3658 20.7556 15.1177 20.4885 14.9088 20.1518C14.6999 19.8151 14.5341 19.4154 14.421 18.9754C14.308 18.5355 14.25 16.9762 14.25 16.5L16.5 16.5H18.75Z" stroke="#292929" stroke-width="1.5"/>
</g>
</svg>
