<svg width="24" height="24" viewBox="0 0 24 24" fill="none" xmlns="http://www.w3.org/2000/svg">
<g id="fireplace32">
<path id="Vector 141" d="M1.875 21.8818H22.1256" stroke="#292929" stroke-width="1.5"/>
<path id="Vector 142" d="M1.875 2.16309H22.1256" stroke="#292929" stroke-width="1.5"/>
<path id="Vector 147" d="M11.3418 10.3545V7.3169" stroke="#292929" stroke-width="1.5"/>
<path id="Vector 148" d="M13.3955 11.3662V9.34115" stroke="#292929" stroke-width="1.5"/>
<rect id="Rectangle 151" x="4.64941" y="4.64941" width="14.7005" height="14.7005" stroke="#292929" stroke-width="1.5"/>
<path id="Union" d="M13.611 13.3542L13.2184 13.738C13.0075 13.402 12.7714 13.0958 12.5245 12.8544L12.0002 12.3417L11.4758 12.8544C11.2289 13.0958 10.9928 13.4021 10.7819 13.7382L10.3892 13.3542L9.86484 13.8669C9.55031 14.1745 9.27334 14.6101 9.07593 15.036C8.88164 15.4552 8.71875 15.963 8.71875 16.4282C8.71875 16.6624 8.75705 16.9066 8.87135 17.1334C8.99132 17.3714 9.17186 17.5438 9.37849 17.6568C9.73696 17.8528 10.1576 17.8532 10.3892 17.8532C10.43 17.8532 10.4735 17.853 10.5189 17.852C10.7104 17.9863 10.9188 18.0645 11.1114 18.1107C11.4132 18.183 11.7352 18.1908 12.0002 18.1908C12.2652 18.1908 12.5872 18.183 12.889 18.1107C13.0815 18.0646 13.29 17.9864 13.4815 17.852C13.5268 17.853 13.5702 17.8532 13.611 17.8532C13.8426 17.8532 14.2632 17.8528 14.6217 17.6568C14.8283 17.5438 15.0088 17.3714 15.1288 17.1334C15.2431 16.9066 15.2814 16.6624 15.2814 16.4282C15.2814 15.963 15.1185 15.4552 14.9242 15.036C14.7268 14.6101 14.4499 14.1745 14.1353 13.8669L13.611 13.3542Z" stroke="#292929" stroke-width="1.5"/>
</g>
</svg>
