<svg width="24" height="24" viewBox="0 0 24 24" fill="none" xmlns="http://www.w3.org/2000/svg">
<g id="Landscaping">
<rect id="Rectangle 1727" x="1.69141" y="14.2969" width="10.0945" height="2.02875" stroke="#292929" stroke-width="1.5"/>
<path id="Vector 112" d="M3.20996 16.7295V18.7104M3.20996 21.6022V19.6363M10.5195 16.7295V18.7104M10.5195 21.8543V19.6363" stroke="#292929" stroke-width="1.5"/>
<path id="Vector 251" d="M0.980469 19.1484H12.5314" stroke="#323232" stroke-width="1.5"/>
<path id="Vector 113" d="M1.01172 22.0803H14.0477M20.8531 22.0803H20.349M14.0477 22.0803C13.9636 21.8283 13.9973 21.1729 14.8038 20.568C15.4186 20.1069 15.9748 20.1047 16.3161 20.2041M14.0477 22.0803H20.349M20.349 22.0803C20.517 21.5762 20.349 20.1359 19.3408 19.5598C17.9293 18.7533 16.9043 19.7278 16.5682 20.316C16.5083 20.276 16.4227 20.2351 16.3161 20.2041M16.3161 20.2041V14.5187M16.3161 14.5187C16.5682 14.5187 17.274 14.6195 18.0805 14.0146C18.8871 13.4097 18.8267 12.8947 19.0887 12.2502C20.0129 12.8383 22.228 13.0064 22.8695 11.242C23.6761 9.02393 21.6933 7.96531 20.6011 7.71325C20.8531 5.78084 19.9701 1.91602 16.3161 1.91602C12.2833 1.91602 11.6111 5.44477 11.7792 7.20914C11.2751 7.20914 10.0652 7.56202 9.25864 8.97352C8.53849 10.2338 8.34552 12.2502 10.2022 14.0146M16.3161 14.5187C15.2886 14.5187 14.7217 14.1846 14.0477 13.5105C13.5861 13.7931 13.3765 14.0146 12.1187 14.1824" stroke="#292929" stroke-width="1.5"/>
</g>
</svg>
