<svg width="24" height="22" viewBox="0 0 24 22" fill="none" xmlns="http://www.w3.org/2000/svg">
<g id="Goods for pets">
<path id="Vector 206" d="M20.7579 8.7037V21.8436H18.2964M3.52832 8.7037V21.8436H5.98944M5.98944 21.8436V18.3361C5.98944 14.9376 8.74444 12.1826 12.1429 12.1826V12.1826C15.5414 12.1826 18.2964 14.9376 18.2964 18.3361V21.8436M5.98944 21.8436H9.18557H15.2105H18.2964M16.544 5.32324V13.9543M7.4683 5.32324V14.3934" stroke="#292929" stroke-width="1.5"/>
<path id="Vector 207" d="M1.50684 10.0298L12.1718 2.15625L22.494 10.0298" stroke="#292929" stroke-width="1.5"/>
<path id="Vector 208" d="M12.96 8.29937H11.2842L10.87 7.78109C10.6511 7.50712 10.2478 7.47121 9.98387 7.70217C9.72914 7.92509 9.70222 8.31187 9.92361 8.56793L10.2106 8.89985L9.90716 9.26501C9.69327 9.52242 9.72228 9.90312 9.97269 10.1252C10.2409 10.363 10.6543 10.3244 10.874 10.0411L11.2842 9.51202H12.96L13.3869 10.0485C13.6093 10.328 14.0215 10.3614 14.286 10.1215C14.5299 9.90035 14.5576 9.5269 14.3492 9.27211L14.0446 8.89985L14.3331 8.56101C14.549 8.3074 14.5232 7.92789 14.2751 7.70576C14.0147 7.47273 13.6127 7.50368 13.3911 7.77381L12.96 8.29937Z" fill="#292929"/>
</g>
</svg>
