<svg width="24" height="24" viewBox="0 0 24 24" fill="none" xmlns="http://www.w3.org/2000/svg">
<g id="garden_lantern32">
<path id="Vector 205" d="M14.25 17.0264L14.25 6.99465" stroke="#292929" stroke-width="1.5"/>
<path id="Vector 168" d="M13.4961 18.8832C13.4961 18.9119 13.4869 21.738 13.4961 22.4316H10.5056V18.8832" stroke="#292929" stroke-width="1.5"/>
<path id="Ellipse 49" d="M14.25 3.81836C14.25 3.52289 14.1918 3.2303 14.0787 2.95732C13.9657 2.68434 13.7999 2.4363 13.591 2.22737C13.3821 2.01844 13.134 1.8527 12.861 1.73963C12.5881 1.62656 12.2955 1.56836 12 1.56836C11.7045 1.56836 11.4119 1.62656 11.139 1.73963C10.866 1.8527 10.6179 2.01844 10.409 2.22737C10.2001 2.4363 10.0343 2.68434 9.92127 2.95732C9.8082 3.2303 9.75 3.52289 9.75 3.81836L12 3.81836H14.25Z" stroke="#292929" stroke-width="1.5"/>
<path id="Rectangle 150" d="M6.7127 3.99268L5.84388 6.58691H18.1571L17.2882 3.99268H6.7127Z" stroke="#292929" stroke-width="1.5" stroke-linejoin="round"/>
<path id="Vector 204" d="M17.4375 7.33691V15.8678L16.2492 16.8841H7.74447L6.5625 15.8678V7.33691" stroke="#292929" stroke-width="1.5"/>
<path id="Rectangle 139" d="M8.00583 17.0608L8.00108 17.0479L15.9552 17.0479C15.4943 18.322 14.2792 19.1907 12.8994 19.1907H11.0567C9.69375 19.1907 8.47558 18.3402 8.00583 17.0608Z" stroke="#292929" stroke-width="1.5"/>
</g>
</svg>
