<svg width="24" height="24" viewBox="0 0 24 24" fill="none" xmlns="http://www.w3.org/2000/svg">
<g id="sauna32">
<path id="Vector 82" d="M4.13867 19.2355V9.19043H19.8614V19.2355H4.13867Z" stroke="#292929" stroke-width="1.5"/>
<path id="Vector 83" d="M12.0002 1.76562L12.4588 1.17216L12.0002 0.8178L11.5416 1.17216L12.0002 1.76562ZM2.39182 9.19026L1.93324 8.59679L2.39182 9.94026V9.19026ZM21.6085 9.19026V9.94026L22.0671 8.59679L21.6085 9.19026ZM1.95508 19.9854H22.0453V18.4854H1.95508V19.9854ZM11.5416 1.17216L1.93324 8.59679L2.85041 9.78372L12.4588 2.35909L11.5416 1.17216ZM2.39182 9.94026H5.01228V8.44026H2.39182V9.94026ZM5.01228 9.94026H21.6085V8.44026H5.01228V9.94026ZM22.0671 8.59679L12.4588 1.17216L11.5416 2.35909L21.1499 9.78372L22.0671 8.59679Z" fill="#292929"/>
<path id="Vector 248" d="M12.4443 11.25L11.8329 12.2754C11.4746 12.8762 11.4811 13.6266 11.8498 14.2211V14.2211C12.2155 14.8108 12.2251 15.5545 11.8747 16.1534L11.2497 17.2217" stroke="#292929" stroke-width="1.5"/>
<path id="Vector 249" d="M15.75 12.75L15.3652 13.5246C15.1356 13.9867 15.1399 14.5305 15.3768 14.9889V14.9889C15.6116 15.4435 15.6179 15.9823 15.3937 16.4422L15 17.25" stroke="#292929" stroke-width="1.5"/>
<path id="Vector 250" d="M9 12.75L8.61518 13.5246C8.38562 13.9867 8.38992 14.5305 8.62676 14.9889V14.9889C8.86162 15.4435 8.86792 15.9823 8.64373 16.4422L8.25 17.25" stroke="#292929" stroke-width="1.5"/>
</g>
</svg>
