<svg width="32" height="32" viewBox="0 0 32 32" fill="none" xmlns="http://www.w3.org/2000/svg">
<path d="M1.36523 5.83691C1.36523 5.14656 1.92488 4.58691 2.61523 4.58691H26.6152C27.3056 4.58691 27.8652 5.14656 27.8652 5.83691V22.8369C27.8652 23.5273 27.3056 24.0869 26.6152 24.0869H2.61524C1.92488 24.0869 1.36523 23.5273 1.36523 22.8369V5.83691Z" stroke="#A25C52" stroke-width="1.5"/>
<path d="M21.1055 16.3448C21.1055 16.0956 21.3075 15.8936 21.5568 15.8936H30.1825C30.4317 15.8936 30.6338 16.0956 30.6338 16.3448V26.3643C30.6338 26.6136 30.4317 26.8156 30.1825 26.8156H21.5568C21.3075 26.8156 21.1055 26.6136 21.1055 26.3643V16.3448Z" fill="#FFEBED" stroke="#A25C52" stroke-width="1.5"/>
<line x1="22.8691" y1="19.0518" x2="28.8691" y2="19.0518" stroke="#A25C52" stroke-width="1.5"/>
<line x1="22.8691" y1="21.5518" x2="28.8691" y2="21.5518" stroke="#A25C52" stroke-width="1.5"/>
<line x1="22.8691" y1="24.0518" x2="28.8691" y2="24.0518" stroke="#A25C52" stroke-width="1.5"/>
</svg>
