<svg width="32" height="32" viewBox="0 0 32 32" fill="none" xmlns="http://www.w3.org/2000/svg">
<g id="mail">
<g id="Group 2200">
<path id="Rectangle 1854" d="M4.86719 14.9751V14.9751C4.86719 8.9887 9.72015 4.13574 15.7066 4.13574H15.9825C22.1213 4.13574 27.0978 9.11224 27.0978 15.2511V15.2511C27.0978 21.3899 22.0735 26.3664 15.9347 26.3664V26.3664" stroke="#477D94" stroke-width="1.5"/>
<path id="Rectangle 1856" d="M26.8736 18.3711C27.1844 16.3026 27.1846 14.1996 26.8743 12.1318H29.9042C30.0356 12.1318 30.1422 12.2384 30.1422 12.3699V18.133C30.1422 18.2645 30.0356 18.3711 29.9042 18.3711H26.8736Z" fill="#DAF4FF" stroke="#477D94" stroke-width="1.5"/>
<path id="Rectangle 1858" d="M5.12831 12.1328C4.81752 14.2013 4.81739 16.3043 5.12761 18.3721L2.09776 18.3721C1.9663 18.3721 1.85974 18.2655 1.85974 18.134L1.85973 12.3709C1.85973 12.2394 1.9663 12.1328 2.09776 12.1328L5.12831 12.1328Z" fill="#DAF4FF" stroke="#477D94" stroke-width="1.5"/>
<rect id="Rectangle 1857" x="16.0977" y="24.1797" width="3.80259" height="3.45178" rx="1.72589" fill="#DAF4FF" stroke="#477D94" stroke-width="1.5"/>
<path id="Vector 404" d="M15.9727 6.53223V15.7588H24.3237" stroke="#477D94" stroke-width="1.5"/>
</g>
</g>
</svg>
