<svg width="32" height="32" viewBox="0 0 32 32" fill="none" xmlns="http://www.w3.org/2000/svg">
<path d="M14.7148 19.4658C14.7148 18.7755 15.2745 18.2158 15.9648 18.2158H16.0371C16.7275 18.2158 17.2871 18.7755 17.2871 19.4658V26.2549C17.2871 26.9452 16.7275 27.5049 16.0371 27.5049H15.9648C15.2745 27.5049 14.7148 26.9452 14.7148 26.2549V19.4658Z" fill="#FFE8C6" stroke="#967545" stroke-width="1.5"/>
<path d="M2.75 3.73145C2.75 3.04109 3.30964 2.48145 4 2.48145H28C28.6904 2.48145 29.25 3.04109 29.25 3.73145V20.7314C29.25 21.4218 28.6904 21.9814 28 21.9814H4C3.30964 21.9814 2.75 21.4218 2.75 20.7314V3.73145Z" fill="#FFE8C6" stroke="#967545" stroke-width="1.5"/>
<path d="M8.68359 29.5186L8.68359 27.1377L23.3164 27.1377L23.3164 29.5186L8.68359 29.5186Z" fill="#FFE8C6" stroke="#967545" stroke-width="1.5"/>
<path d="M6.33984 18.5674L6.33984 5.81348L25.6367 5.81348L25.6367 18.5674L6.33984 18.5674Z" fill="#FFE8C6" stroke="#967545" stroke-width="1.5"/>
</svg>
