<svg width="48" height="48" viewBox="0 0 48 48" fill="none" xmlns="http://www.w3.org/2000/svg">
<rect width="48" height="48" rx="4" fill="#E8FCDD"/>
<path d="M29.6324 30.704V30.5693C29.6324 25.5988 25.6029 21.5693 20.6324 21.5693H19.2324C14.2619 21.5693 10.2324 25.5988 10.2324 30.5693V30.705V34.8065" stroke="#466330" stroke-width="1.5"/>
<circle cx="19.9319" cy="14.2639" r="4.52954" fill="#E8FCDD" stroke="#466330" stroke-width="1.5"/>
<rect x="17.207" y="26.6016" width="20.5117" height="11.6641" fill="#E8FCDD" stroke="#466330" stroke-width="1.5"/>
<path d="M22.3069 35.5296C21.8749 35.5296 21.4722 35.4603 21.0989 35.3216C20.7309 35.1776 20.4109 34.9749 20.1389 34.7136C19.8669 34.4523 19.6536 34.1456 19.4989 33.7936C19.3496 33.4416 19.2749 33.0549 19.2749 32.6336C19.2749 32.2123 19.3496 31.8256 19.4989 31.4736C19.6536 31.1216 19.8669 30.8149 20.1389 30.5536C20.4162 30.2923 20.7389 30.0923 21.1069 29.9536C21.4749 29.8096 21.8776 29.7376 22.3149 29.7376C22.8002 29.7376 23.2376 29.8229 23.6269 29.9936C24.0216 30.1589 24.3522 30.4043 24.6189 30.7296L23.7869 31.4976C23.5949 31.2789 23.3816 31.1163 23.1469 31.0096C22.9122 30.8976 22.6562 30.8416 22.3789 30.8416C22.1176 30.8416 21.8776 30.8843 21.6589 30.9696C21.4402 31.0549 21.2509 31.1776 21.0909 31.3376C20.9309 31.4976 20.8056 31.6869 20.7149 31.9056C20.6296 32.1243 20.5869 32.3669 20.5869 32.6336C20.5869 32.9003 20.6296 33.1429 20.7149 33.3616C20.8056 33.5803 20.9309 33.7696 21.0909 33.9296C21.2509 34.0896 21.4402 34.2123 21.6589 34.2976C21.8776 34.3829 22.1176 34.4256 22.3789 34.4256C22.6562 34.4256 22.9122 34.3723 23.1469 34.2656C23.3816 34.1536 23.5949 33.9856 23.7869 33.7616L24.6189 34.5296C24.3522 34.8549 24.0216 35.1029 23.6269 35.2736C23.2376 35.4443 22.7976 35.5296 22.3069 35.5296ZM26.1556 32.0896H28.8516V33.0976H26.1556V32.0896ZM26.2516 34.3936H29.2996V35.4336H24.9636V29.8336H29.1956V30.8736H26.2516V34.3936ZM32.5264 35.5296C32.0837 35.5296 31.6731 35.4576 31.2944 35.3136C30.9211 35.1696 30.5957 34.9669 30.3184 34.7056C30.0464 34.4443 29.8331 34.1376 29.6784 33.7856C29.5291 33.4336 29.4544 33.0496 29.4544 32.6336C29.4544 32.2176 29.5291 31.8336 29.6784 31.4816C29.8331 31.1296 30.0491 30.8229 30.3264 30.5616C30.6037 30.3003 30.9291 30.0976 31.3024 29.9536C31.6757 29.8096 32.0811 29.7376 32.5184 29.7376C32.9611 29.7376 33.3664 29.8096 33.7344 29.9536C34.1077 30.0976 34.4304 30.3003 34.7024 30.5616C34.9797 30.8229 35.1957 31.1296 35.3504 31.4816C35.5051 31.8283 35.5824 32.2123 35.5824 32.6336C35.5824 33.0496 35.5051 33.4363 35.3504 33.7936C35.1957 34.1456 34.9797 34.4523 34.7024 34.7136C34.4304 34.9696 34.1077 35.1696 33.7344 35.3136C33.3664 35.4576 32.9637 35.5296 32.5264 35.5296ZM32.5184 34.4256C32.7691 34.4256 32.9984 34.3829 33.2064 34.2976C33.4197 34.2123 33.6064 34.0896 33.7664 33.9296C33.9264 33.7696 34.0491 33.5803 34.1344 33.3616C34.2251 33.1429 34.2704 32.9003 34.2704 32.6336C34.2704 32.3669 34.2251 32.1243 34.1344 31.9056C34.0491 31.6869 33.9264 31.4976 33.7664 31.3376C33.6117 31.1776 33.4277 31.0549 33.2144 30.9696C33.0011 30.8843 32.7691 30.8416 32.5184 30.8416C32.2677 30.8416 32.0357 30.8843 31.8224 30.9696C31.6144 31.0549 31.4304 31.1776 31.2704 31.3376C31.1104 31.4976 30.9851 31.6869 30.8944 31.9056C30.8091 32.1243 30.7664 32.3669 30.7664 32.6336C30.7664 32.8949 30.8091 33.1376 30.8944 33.3616C30.9851 33.5803 31.1077 33.7696 31.2624 33.9296C31.4224 34.0896 31.6091 34.2123 31.8224 34.2976C32.0357 34.3829 32.2677 34.4256 32.5184 34.4256Z" fill="#466330"/>
</svg>
