<svg width="32" height="33" viewBox="0 0 32 33" fill="none" xmlns="http://www.w3.org/2000/svg">
<g id="mail">
<g id="Group 2202">
<path id="Rectangle 1861" d="M1.54297 14.7874C1.54297 13.2992 2.7494 12.0928 4.2376 12.0928H7.23942V17.482H4.2376C2.7494 17.482 1.54297 16.2756 1.54297 14.7874Z" fill="#FFEBED" stroke="#A25C52" stroke-width="1.5"/>
<path id="Rectangle 1863" d="M24.7598 12.0938H27.7616C29.2498 12.0938 30.4562 13.3002 30.4562 14.7884C30.4562 16.2766 29.2498 17.483 27.7616 17.483H24.7598V12.0938Z" fill="#FFEBED" stroke="#A25C52" stroke-width="1.5"/>
<path id="Rectangle 1862" d="M8.05859 14.0039H10.3791V28.468C10.3791 29.1088 9.85963 29.6283 9.21885 29.6283C8.57806 29.6283 8.05859 29.1088 8.05859 28.468V14.0039Z" fill="#FFEBED" stroke="#A25C52" stroke-width="1.5"/>
<rect id="Rectangle 1859" x="4.83398" y="9.08789" width="8.76811" height="11.401" fill="#FFEBED" stroke="#A25C52" stroke-width="1.5"/>
<line id="Line 6" x1="6.88086" y1="12.7334" x2="11.5556" y2="12.7334" stroke="#A25C52" stroke-width="1.5"/>
<line id="Line 7" x1="6.88086" y1="14.7334" x2="11.5556" y2="14.7334" stroke="#A25C52" stroke-width="1.5"/>
<line id="Line 8" x1="6.88086" y1="16.7334" x2="11.5556" y2="16.7334" stroke="#A25C52" stroke-width="1.5"/>
<g id="Rectangle 1860">
<mask id="path-8-inside-1_5712_29228" fill="white">
<path d="M12.8809 8.33826L28.1655 2.98438V26.8555L12.8809 21.2393V8.33826Z"/>
</mask>
<path d="M12.8809 8.33826L28.1655 2.98438V26.8555L12.8809 21.2393V8.33826Z" fill="#FFEBED"/>
<path d="M12.8809 8.33826L12.385 6.92259L11.3809 7.27432V8.33826H12.8809ZM28.1655 2.98438H29.6655L27.6696 1.56871L28.1655 2.98438ZM28.1655 26.8555L27.6482 28.2635L29.6655 26.8555H28.1655ZM12.8809 21.2393H11.3809V22.2862L12.3635 22.6472L12.8809 21.2393ZM13.3767 9.75392L28.6614 4.40004L27.6696 1.56871L12.385 6.92259L13.3767 9.75392ZM26.6655 2.98438V26.8555H29.6655V2.98438H26.6655ZM28.6829 25.4475L13.3982 19.8313L12.3635 22.6472L27.6482 28.2635L28.6829 25.4475ZM14.3809 21.2393V8.33826H11.3809V21.2393H14.3809Z" fill="#A25C52" mask="url(#path-8-inside-1_5712_29228)"/>
</g>
</g>
</g>
</svg>
