<svg width="32" height="32" viewBox="0 0 32 32" fill="none" xmlns="http://www.w3.org/2000/svg">
<g id="mail" clip-path="url(#clip0_5712_19793)">
<path id="Star 4" d="M7.94562 23.9185L9.7954 23.0728C10.909 22.5638 12.1618 23.431 12.0773 24.6525L11.883 27.463L14.699 28.5357L16.5711 25.8511C17.2072 24.939 18.5533 24.9279 19.2043 25.8294L21.1585 28.5354L23.9446 27.4107L23.6716 24.1965C23.5778 23.0926 24.5983 22.2244 25.6729 22.4938L28.9126 23.3061L30.3429 20.7584L28.041 18.3949C27.2681 17.6013 27.5057 16.2829 28.507 15.8091L31.4603 14.4114L30.8793 11.2947L27.7474 11.0672C26.6242 10.9856 25.9275 9.80822 26.3966 8.78443L27.7505 5.82961L25.4278 3.86294L22.7425 5.74253C21.8252 6.38457 20.5488 5.92075 20.2577 4.83959L19.3921 1.625L16.3805 1.62522L15.4937 4.85727C15.1985 5.93288 13.9276 6.39237 13.0129 5.75418L10.317 3.87329L8.02417 5.81962L9.3658 8.79168C9.82756 9.81459 9.13058 10.9849 8.01124 11.0662L4.86563 11.2947L4.29492 14.3624L7.21989 15.7783C8.22445 16.2646 8.44443 17.5991 7.64909 18.382L5.49258 20.505" stroke="#967545" stroke-width="1.5"/>
<path id="Vector" d="M2.94736 27.0053L2.74262 26.9677C2.02282 26.7883 1.41138 26.2765 1.0877 25.6063C0.566081 24.4767 0.961585 23.093 2.01189 22.3699L13.5652 14.416C13.4091 12.5784 14.2296 10.803 15.7647 9.74612C17.1113 8.81909 18.7773 8.58514 20.351 9.10932C20.6611 9.21338 20.8924 9.49072 20.925 9.82561C20.9803 10.1647 20.8265 10.4887 20.5573 10.6742L17.945 12.4726L18.0886 14.3785L19.8211 15.1904L22.4334 13.392C22.7028 13.2065 23.0607 13.1784 23.3584 13.3507C23.656 13.5229 23.8376 13.8147 23.8246 14.1412C23.7597 15.7737 22.9667 17.2723 21.5973 18.1952C20.0621 19.252 18.1087 19.3861 16.4445 18.5869L4.85591 26.6044C4.29027 26.9938 3.60727 27.1266 2.94748 27.0053L2.94736 27.0053ZM19.427 9.7851C18.3349 9.58431 17.2088 9.82365 16.2663 10.4725C14.9198 11.3995 14.2322 12.9645 14.4797 14.5605L14.5247 14.8272L2.51349 23.0963C1.81334 23.5783 1.55093 24.4933 1.91184 25.2173C2.13665 25.658 2.50015 25.9833 2.99659 26.098C3.46611 26.2313 3.97727 26.1374 4.35846 25.855L16.3966 17.5673L16.6302 17.7042C18.0627 18.4844 19.7719 18.3993 21.0915 17.4908C22.2226 16.7121 22.8704 15.4921 22.9307 14.1406L20.3142 15.9617C20.0448 16.1472 19.7138 16.1568 19.4306 16.0342L17.6981 15.2223C17.419 15.077 17.2105 14.8037 17.1966 14.4957L17.0529 12.5899C17.0163 12.2777 17.1657 11.9763 17.4351 11.791L20.0555 9.94749C19.8323 9.88301 19.6317 9.8227 19.4268 9.78502L19.427 9.7851Z" fill="#967545" stroke="#967545" stroke-width="0.6" stroke-linejoin="bevel"/>
</g>
<defs>
<clipPath id="clip0_5712_19793">
<rect width="32" height="32" fill="white"/>
</clipPath>
</defs>
</svg>
