<svg width="32" height="32" viewBox="0 0 32 32" fill="none" xmlns="http://www.w3.org/2000/svg">
<path d="M2.75 7C2.75 6.30964 3.30964 5.75 4 5.75H28C28.6904 5.75 29.25 6.30964 29.25 7V24C29.25 24.6904 28.6904 25.25 28 25.25H4C3.30964 25.25 2.75 24.6904 2.75 24V7Z" stroke="#967545" stroke-width="1.5"/>
<rect x="21.375" y="14.8574" width="10.625" height="13.5273" fill="#FFE8C6"/>
<path d="M25.1282 26.8646V21.9051M25.1282 21.9051V21.8988M25.1282 21.9051C25.1282 21.9035 26.2072 21.902 27.2952 21.9008C28.5227 21.8994 29.5173 20.9042 29.5173 19.6767V19.6767C29.5173 18.4487 28.5217 17.4531 27.2936 17.4531H25.1282V21.8988M23.2207 24.449H28.4544M25.1282 21.8988H23.2207" stroke="#967545" stroke-width="1.5"/>
</svg>
