<svg width="580" height="735" viewBox="0 0 580 735" fill="none" xmlns="http://www.w3.org/2000/svg">
<g opacity="0.6">
<path d="M487.057 534.045C402.418 399.577 251.205 310.019 78.752 310.019C78.6876 310.019 78.6231 310.019 78.5586 310.019V352.356C78.6231 352.356 78.6876 352.356 78.752 352.356C243.83 352.356 387.532 442.49 461.886 575.513C472.073 562.963 480.575 549.03 487.057 534.045Z" fill="#F5F5F5"/>
<path d="M429.819 606.33C364.584 480.697 231.865 394.693 78.7488 394.693C78.6854 394.693 78.622 394.693 78.5586 394.693V437.03C78.622 437.03 78.6854 437.03 78.7488 437.03C216.065 437.03 334.967 514.67 392.667 627.808C405.957 622.098 418.417 614.864 429.819 606.33Z" fill="#F5F5F5"/>
<path d="M348.053 640.533C295.6 546.53 195.155 482.17 79.214 479.457C80.4924 494.299 83.6153 508.623 88.3562 522.206C176.531 527.484 253.374 574.093 299.169 642.616H320.286C329.728 642.616 339.001 641.904 348.053 640.533Z" fill="#F5F5F5"/>
<path d="M247.243 642.197C213.399 603.747 165.942 576.571 111.951 567.422C142.524 609.792 191.411 638.449 247.243 642.197Z" fill="#F5F5F5"/>
<path d="M495.786 508.616C493.508 517.368 490.573 525.86 487.035 534.039C483.261 528.043 479.354 522.135 475.319 516.321C481.917 513.325 488.752 510.745 495.786 508.616Z" fill="#F5F5F5"/>
<path d="M501.452 421.861V464.167C501.452 464.553 501.451 464.939 501.449 465.324C483.839 469.77 467.163 476.511 451.769 485.204C442.573 474.037 432.87 463.29 422.696 452.999C446.51 438.374 473.076 427.686 501.452 421.861Z" fill="#F5F5F5"/>
<path d="M501.452 335.921V378.866C461.254 386.016 423.864 401.641 391.218 423.885C379.899 414.317 368.121 405.259 355.923 396.748C397.922 365.563 447.541 344.171 501.452 335.921Z" fill="#F5F5F5"/>
<path d="M501.474 335.925V270.67C501.474 268.128 501.42 265.6 501.313 263.084C487.476 296.077 467.458 325.724 442.763 350.59C461.611 343.968 481.24 339.021 501.474 335.925Z" fill="#F5F5F5"/>
<path d="M478.215 183.14C467.785 273.486 406.432 348.021 324.091 376.339C304.407 364.79 283.814 354.589 262.441 345.864C358.695 339.594 436.798 257.997 436.798 155.733C436.798 148.007 436.352 140.399 435.486 132.932C452.673 146.891 467.203 163.909 478.215 183.14Z" fill="#F5F5F5"/>
<path d="M384.263 103.669C390.436 119.867 393.812 137.411 393.812 155.733C393.812 237.571 326.448 303.914 243.351 303.914C172.786 303.914 113.566 256.072 97.3095 191.527C107.265 171.745 120.837 154.042 137.174 139.255C136.322 144.624 135.879 150.128 135.879 155.733C135.879 214.188 183.996 261.576 243.351 261.576C302.706 261.576 350.823 214.188 350.823 155.733C350.823 132.007 342.897 110.105 329.51 92.4541C348.699 93.4017 367.102 97.2895 384.263 103.669Z" fill="#F5F5F5"/>
<path d="M81.8251 236.765C96.5462 268.761 119.702 295.752 148.214 314.93C125.545 311.694 102.363 310.018 78.7841 310.016C78.7088 309.93 78.6337 309.844 78.5586 309.757V270.67C78.5586 259.077 79.6812 247.742 81.8251 236.765Z" fill="#F5F5F5"/>
<path fill-rule="evenodd" clip-rule="evenodd" d="M308.156 156.95C308.156 192.023 279.286 220.456 243.673 220.456C208.06 220.456 179.19 192.023 179.19 156.95C179.19 121.876 208.06 93.4436 243.673 93.4436C279.286 93.4436 308.156 121.876 308.156 156.95ZM265.168 156.95C265.168 168.641 255.544 178.119 243.673 178.119C231.802 178.119 222.179 168.641 222.179 156.95C222.179 145.259 231.802 135.781 243.673 135.781C255.544 135.781 265.168 145.259 265.168 156.95Z" fill="#F5F5F5"/>
<path fill-rule="evenodd" clip-rule="evenodd" d="M305.104 0H274.896C123.075 0 0 121.21 0 270.731V464.11C0 613.63 123.075 734.841 274.896 734.841H305.104C456.925 734.841 580 613.63 580 464.11V270.731C580 121.21 456.925 0 305.104 0ZM274.892 32.7259C141.423 32.7259 33.2253 139.284 33.2253 270.731V464.11C33.2253 595.557 141.423 702.115 274.892 702.115H305.1C438.569 702.115 546.767 595.557 546.767 464.11V270.731C546.767 139.284 438.569 32.7259 305.1 32.7259H274.892Z" fill="#F5F5F5"/>
</g>
</svg>
