<svg width="545" height="691" viewBox="0 0 545 691" fill="none" xmlns="http://www.w3.org/2000/svg">
<g opacity="0.6">
<path d="M457.666 501.818C378.135 375.465 236.046 291.311 74.0001 291.311C73.9395 291.311 73.8789 291.311 73.8184 291.311V331.093C73.8789 331.093 73.9395 331.093 74.0001 331.093C229.116 331.093 364.147 415.788 434.014 540.783C443.586 528.991 451.575 515.899 457.666 501.818Z" fill="#F1F1F1"/>
<path d="M403.882 569.741C342.584 451.689 217.873 370.875 73.9971 370.875C73.9375 370.875 73.8779 370.875 73.8184 370.875V410.658C73.8779 410.658 73.9375 410.658 73.9971 410.658C203.027 410.658 314.754 483.613 368.972 589.923C381.46 584.558 393.168 577.76 403.882 569.741Z" fill="#F1F1F1"/>
<path d="M327.05 601.88C277.763 513.549 183.379 453.074 74.4342 450.525C75.6354 464.471 78.5699 477.93 83.0247 490.694C165.879 495.653 238.085 539.449 281.116 603.837H300.959C309.831 603.837 318.544 603.169 327.05 601.88Z" fill="#F1F1F1"/>
<path d="M232.323 603.444C200.522 567.314 155.928 541.778 105.196 533.181C133.924 572.994 179.86 599.922 232.323 603.444Z" fill="#F1F1F1"/>
<path d="M465.868 477.923C463.727 486.146 460.969 494.126 457.645 501.811C454.098 496.177 450.427 490.626 446.635 485.163C452.836 482.347 459.257 479.923 465.868 477.923Z" fill="#F1F1F1"/>
<path d="M471.192 396.402V436.155C471.192 436.518 471.191 436.881 471.188 437.243C454.641 441.421 438.972 447.755 424.507 455.923C415.866 445.43 406.748 435.332 397.188 425.661C419.565 411.919 444.527 401.876 471.192 396.402Z" fill="#F1F1F1"/>
<path d="M471.192 315.648V356.002C433.42 362.721 398.285 377.403 367.61 398.305C356.973 389.314 345.907 380.802 334.444 372.805C373.909 343.502 420.534 323.4 471.192 315.648Z" fill="#F1F1F1"/>
<path d="M471.213 315.653V254.336C471.213 251.948 471.162 249.572 471.062 247.208C458.06 278.21 439.25 306.068 416.045 329.434C433.756 323.212 452.2 318.563 471.213 315.653Z" fill="#F1F1F1"/>
<path d="M449.358 172.089C439.557 256.983 381.906 327.02 304.534 353.629C286.038 342.777 266.687 333.191 246.605 324.993C337.05 319.101 410.44 242.429 410.44 146.335C410.44 139.075 410.021 131.927 409.207 124.911C425.357 138.027 439.01 154.018 449.358 172.089Z" fill="#F1F1F1"/>
<path d="M361.075 97.4135C366.875 112.634 370.048 129.119 370.048 146.335C370.048 223.235 306.749 285.574 228.666 285.574C162.359 285.574 106.713 240.619 91.4377 179.969C100.793 161.381 113.546 144.746 128.896 130.851C128.096 135.897 127.68 141.068 127.68 146.335C127.68 201.263 172.893 245.792 228.666 245.792C284.44 245.792 329.653 201.263 329.653 146.335C329.653 124.041 322.205 103.461 309.626 86.875C327.657 87.7654 344.949 91.4186 361.075 97.4135Z" fill="#F1F1F1"/>
<path d="M76.8877 222.477C90.7205 252.543 112.479 277.905 139.27 295.925C117.969 292.885 96.1864 291.31 74.0302 291.309C73.9595 291.228 73.8889 291.146 73.8184 291.065V254.336C73.8184 243.443 74.8732 232.792 76.8877 222.477Z" fill="#F1F1F1"/>
<path fill-rule="evenodd" clip-rule="evenodd" d="M289.561 147.479C289.561 180.436 262.433 207.153 228.969 207.153C195.505 207.153 168.377 180.436 168.377 147.479C168.377 114.522 195.505 87.8048 228.969 87.8048C262.433 87.8048 289.561 114.522 289.561 147.479ZM249.166 147.479C249.166 158.464 240.124 167.37 228.969 167.37C217.814 167.37 208.772 158.464 208.772 147.479C208.772 136.493 217.814 127.587 228.969 127.587C240.124 127.587 249.166 136.493 249.166 147.479Z" fill="#F1F1F1"/>
<path fill-rule="evenodd" clip-rule="evenodd" d="M286.693 0H258.307C115.648 0 0 113.896 0 254.394V436.103C0 576.601 115.648 690.497 258.307 690.497H286.693C429.352 690.497 545 576.601 545 436.103V254.394C545 113.896 429.352 0 286.693 0ZM258.304 30.7511C132.889 30.7511 31.2203 130.879 31.2203 254.394V436.103C31.2203 559.618 132.889 659.746 258.304 659.746H286.689C412.104 659.746 513.772 559.618 513.772 436.103V254.394C513.772 130.879 412.104 30.7511 286.689 30.7511H258.304Z" fill="#F1F1F1"/>
</g>
</svg>
