<svg width="48" height="48" viewBox="0 0 48 48" fill="none" xmlns="http://www.w3.org/2000/svg">
<g id="icon/stock">
<path id="Vector 372" d="M7.75989 18.3898V41.7557H12.9276V33.3579M23.1277 22.4788H12.9276V30.0727M40.1129 18.3898V28.8146M23.3219 30.0727H19.3981V41.7557H30.9491M23.3219 30.0727V34.2856H26.9941V30.0727M23.3219 30.0727H25.158M26.9941 30.0727H25.158M26.9941 30.0727H30.9491M34.9042 30.0727V34.2856H38.478V30.0727M34.9042 30.0727H36.6621M34.9042 30.0727H30.9491M38.478 30.0727H42.5393V41.7557H30.9491M38.478 30.0727H36.6621M25.158 30.0727V18.3898H29.1678M36.6621 30.0727V18.3898H32.6768M29.1678 18.3898V22.4788H32.6768V18.3898M29.1678 18.3898H32.6768M5.14502 17.6225L23.9285 6.24512L42.8548 17.3721M30.9491 30.0727V41.7557" stroke="#466330" stroke-linecap="round" stroke-linejoin="round"/>
<rect id="Rectangle 1835" x="19.9565" y="12.6484" width="8.12305" height="2.5778" rx="1.2889" stroke="#466330" stroke-linecap="round" stroke-linejoin="round"/>
</g>
</svg>
