<svg width="49" height="48" viewBox="0 0 49 48" fill="none" xmlns="http://www.w3.org/2000/svg">
<path d="M17.2949 27.1998H21.0288L24.8202 20.4664C24.99 19.2971 25.5106 16.8225 26.2348 16.2793C27.1401 15.6004 30.818 16.5601 30.818 19.6177C30.818 20.7852 29.9354 23.3199 29.2019 24.6172M26.2348 24.6172H32.046" stroke="#466330" stroke-linecap="round"/>
<mask id="path-2-inside-1_3737_66041" fill="white">
<path fill-rule="evenodd" clip-rule="evenodd" d="M25.9844 8.31516C25.5955 7.67099 24.6612 7.67099 24.2723 8.31516L22.7449 10.8448C22.6055 11.0758 22.3787 11.2406 22.1159 11.3018L19.2381 11.9727C18.5052 12.1436 18.2165 13.0321 18.709 13.6011L20.6429 15.8354C20.8194 16.0394 20.9061 16.306 20.8832 16.5748L20.6319 19.5191C20.5679 20.2689 21.3238 20.818 22.017 20.5255L24.7396 19.3767C24.8858 19.315 25.043 19.2896 25.1983 19.3005C25.4559 18.1535 25.8573 16.8685 26.355 16.4953C26.8711 16.1082 28.2882 16.2537 29.4113 17.0168L29.3736 16.5748C29.3506 16.306 29.4373 16.0394 29.6138 15.8354L31.5477 13.6011C32.0402 13.0321 31.7515 12.1436 31.0186 11.9727L28.1408 11.3018C27.8781 11.2406 27.6512 11.0758 27.5118 10.8448L25.9844 8.31516Z"/>
</mask>
<path d="M24.2723 8.31516L23.4162 7.79829L23.4162 7.79829L24.2723 8.31516ZM25.9844 8.31516L26.8405 7.79829L25.9844 8.31516ZM22.7449 10.8448L23.601 11.3617L23.601 11.3617L22.7449 10.8448ZM22.1159 11.3018L21.8889 10.328V10.328L22.1159 11.3018ZM19.2381 11.9727L19.011 10.9988H19.011L19.2381 11.9727ZM18.709 13.6011L19.4651 12.9466L19.4651 12.9466L18.709 13.6011ZM20.6429 15.8354L19.8868 16.4898H19.8868L20.6429 15.8354ZM20.8832 16.5748L21.8795 16.6599V16.6599L20.8832 16.5748ZM20.6319 19.5191L19.6355 19.4341L20.6319 19.5191ZM22.017 20.5255L21.6283 19.6042H21.6283L22.017 20.5255ZM24.7396 19.3767L24.3508 18.4554L24.3508 18.4554L24.7396 19.3767ZM25.1983 19.3005L25.1284 20.2981C25.6214 20.3326 26.0657 20.0018 26.174 19.5196L25.1983 19.3005ZM26.355 16.4953L25.755 15.6953L26.355 16.4953ZM29.4113 17.0168L28.8493 17.8439C29.1683 18.0607 29.5836 18.0747 29.9164 17.8798C30.2493 17.685 30.4405 17.3161 30.4077 16.9318L29.4113 17.0168ZM29.3736 16.5748L30.37 16.4898L29.3736 16.5748ZM29.6138 15.8354L30.37 16.4898L29.6138 15.8354ZM31.5477 13.6011L32.3038 14.2555L31.5477 13.6011ZM31.0186 11.9727L30.7916 12.9466L31.0186 11.9727ZM28.1408 11.3018L28.3678 10.328L28.1408 11.3018ZM27.5118 10.8448L28.3678 10.328L27.5118 10.8448ZM25.1284 8.83203L25.1284 8.83203L26.8405 7.79829C26.0626 6.50995 24.1941 6.50994 23.4162 7.79829L25.1284 8.83203ZM23.601 11.3617L25.1284 8.83203L23.4162 7.79829L21.8889 10.328L23.601 11.3617ZM22.343 12.2757C22.8684 12.1532 23.3221 11.8236 23.601 11.3617L21.8889 10.328H21.8889L22.343 12.2757ZM19.4651 12.9466L22.343 12.2757L21.8889 10.328L19.011 10.9988L19.4651 12.9466ZM19.4651 12.9466L19.4651 12.9466L19.011 10.9988C17.5454 11.3405 16.968 13.1176 17.9529 14.2555L19.4651 12.9466ZM21.399 15.1809L19.4651 12.9466L17.9529 14.2555L19.8868 16.4898L21.399 15.1809ZM21.8795 16.6599C21.9254 16.1223 21.7521 15.5889 21.399 15.1809L19.8868 16.4898L19.8868 16.4898L21.8795 16.6599ZM21.6283 19.6042L21.8795 16.6599L19.8868 16.4898L19.6355 19.4341L21.6283 19.6042ZM21.6283 19.6042L21.6283 19.6042L19.6355 19.4341C19.5076 20.9336 21.0192 22.0319 22.4058 21.4468L21.6283 19.6042ZM24.3508 18.4554L21.6283 19.6042L22.4058 21.4468L25.1284 20.2981L24.3508 18.4554ZM25.2682 18.303C24.9577 18.2812 24.6433 18.332 24.3508 18.4554L25.1284 20.2981L25.1284 20.2981L25.2682 18.303ZM25.755 15.6953C25.4778 15.9032 25.2791 16.1826 25.1373 16.4249C24.9886 16.6792 24.8613 16.9651 24.7521 17.2518C24.5337 17.8252 24.3567 18.4843 24.2226 19.0814L26.174 19.5196C26.2975 18.9697 26.45 18.4128 26.6211 17.9637C26.7067 17.7391 26.7891 17.5621 26.8637 17.4346C26.9453 17.2952 26.9833 17.274 26.955 17.2953L25.755 15.6953ZM29.9733 16.1896C29.2815 15.7196 28.5034 15.4401 27.803 15.3357C27.4517 15.2833 27.0964 15.2714 26.7639 15.3144C26.4444 15.3558 26.0718 15.4577 25.755 15.6953L26.955 17.2953C26.8962 17.3394 26.8942 17.3143 27.0207 17.2979C27.1342 17.2832 27.3001 17.2828 27.508 17.3138C27.9259 17.3761 28.418 17.5509 28.8493 17.8439L29.9733 16.1896ZM28.3772 16.6599L28.4149 17.1018L30.4077 16.9318L30.37 16.4898L28.3772 16.6599ZM28.8577 15.1809C28.5046 15.5889 28.3313 16.1223 28.3772 16.6599L30.37 16.4898V16.4898L28.8577 15.1809ZM30.7916 12.9466L28.8577 15.1809L30.37 16.4898L32.3038 14.2555L30.7916 12.9466ZM30.7916 12.9466L30.7916 12.9466L32.3038 14.2555C33.2887 13.1176 32.7113 11.3405 31.2457 10.9989L30.7916 12.9466ZM27.9138 12.2757L30.7916 12.9466L31.2457 10.9989L28.3678 10.328L27.9138 12.2757ZM26.6557 11.3617C26.9346 11.8236 27.3883 12.1532 27.9138 12.2757L28.3678 10.328V10.328L26.6557 11.3617ZM25.1284 8.83203L26.6557 11.3617L28.3678 10.328L26.8405 7.79829L25.1284 8.83203Z" fill="#466330" mask="url(#path-2-inside-1_3737_66041)"/>
<path d="M34.1318 24.5996H36.8626C38.3434 24.5996 39.5439 25.8001 39.5439 27.2809V27.2809C39.5439 28.7618 38.3434 29.9622 36.8626 29.9622H34.1318" stroke="#466330" stroke-linecap="round"/>
<path d="M34.1314 29.9619H37.3459C38.5596 29.9619 39.5435 30.9458 39.5435 32.1595V32.1595C39.5435 33.3732 38.5596 34.3571 37.3459 34.3571H33.7046" stroke="#466330" stroke-linecap="round"/>
<path d="M34.1306 34.3574H36.6128C37.7034 34.3574 38.5875 35.2415 38.5875 36.3321V36.3321C38.5875 37.4226 37.7034 38.3067 36.6128 38.3067H32.8979" stroke="#466330" stroke-linecap="round"/>
<path d="M34.1328 38.3066H36.0209C37.1115 38.3066 37.9956 39.1907 37.9956 40.2813V40.2813C37.9956 41.3719 37.1115 42.2559 36.0209 42.2559H25.7054C24.5484 42.2559 23.4411 41.7858 22.6376 40.9533L22.2963 40.5998H17.291" stroke="#466330" stroke-linecap="round"/>
<path d="M9.78906 25.7725H17.2755V30.1322M9.78906 42.2938H17.2755V32.9145M11.9115 40.1999H13.7759" stroke="#466330" stroke-linecap="round"/>
<path d="M15.4002 5.70703L18.2638 8.66174M11.7144 10.5808L15.4002 11.8906M11.7144 16.7948L15.7961 15.9115" stroke="#466330" stroke-linecap="round"/>
<path d="M34.094 5.70703L31.2304 8.66174M37.7798 10.5808L34.094 11.8906M37.7798 16.7948L33.698 15.9115" stroke="#466330" stroke-linecap="round"/>
</svg>
