<svg width="48" height="48" viewBox="0 0 48 48" fill="none" xmlns="http://www.w3.org/2000/svg">
<path d="M11.4138 41.4375H9.88525C8.78068 41.4375 7.88525 40.5421 7.88525 39.4375V35.2441C7.88525 34.1396 8.78068 33.2441 9.88525 33.2441H40.7804C41.885 33.2441 42.7804 34.1396 42.7804 35.2441V39.4375C42.7804 40.5421 41.885 41.4375 40.7804 41.4375H14.8037" stroke="#466330" stroke-linecap="round" stroke-linejoin="round"/>
<path d="M17.0662 7.93303V7.93303C17.0662 6.96431 16.2809 6.179 15.3121 6.179L10.1627 6.179C9.05816 6.179 8.16273 7.07443 8.16272 8.179L8.16271 10.7126M8.1626 33.459L8.16269 14.1468" stroke="#466330" stroke-linecap="round" stroke-linejoin="round"/>
<path d="M9.16992 33.2559L16.9905 8.03167C17.3111 6.99763 18.3963 6.4064 19.4389 6.6977L24.2339 8.03728C25.2904 8.33243 25.912 9.42347 25.6271 10.4828L25.2709 11.8077" stroke="#466330" stroke-linecap="round" stroke-linejoin="round"/>
<path d="M10.2291 33.1751L25.7765 11.1057C26.4425 10.1604 27.769 9.97514 28.6685 10.7019L32.3715 13.694C33.2326 14.3897 33.3646 15.6527 32.6661 16.5116L31.4544 18.0014" stroke="#466330" stroke-linecap="round" stroke-linejoin="round"/>
<path d="M37.6384 24.3711L38.0251 24.0918C38.9231 23.4433 39.123 22.1885 38.4709 21.2931L35.6205 17.3788C34.9581 16.4693 33.6761 16.2849 32.7843 16.971L11.615 33.2563" stroke="#466330" stroke-linecap="round" stroke-linejoin="round"/>
<path d="M13.1651 33.1595L38.0243 24.2589C39.0811 23.8805 40.2423 24.4458 40.5964 25.511L42.1372 30.1464C42.4822 31.1842 41.9295 32.3067 40.8966 32.6662L39.4788 33.1595" stroke="#466330" stroke-linecap="round" stroke-linejoin="round"/>
<path d="M16.748 33.2441L16.748 41.1566" stroke="#466330" stroke-linecap="round" stroke-linejoin="round"/>
<path d="M23.4253 33.5254V41.1569" stroke="#466330" stroke-linecap="round" stroke-linejoin="round"/>
<path d="M29.7852 33.5254V41.1569" stroke="#466330" stroke-linecap="round" stroke-linejoin="round"/>
<path d="M36.1445 33.5254V41.1569" stroke="#466330" stroke-linecap="round" stroke-linejoin="round"/>
<circle cx="11.3421" cy="37.201" r="0.947056" stroke="#466330" stroke-linecap="round" stroke-linejoin="round"/>
</svg>
