<svg width="48" height="48" viewBox="0 0 48 48" fill="none" xmlns="http://www.w3.org/2000/svg">
<g id="icon/logistics">
<path id="Vector 371" d="M5.66895 14.6802L20.3879 6.04883L26.0412 9.37326M5.66895 14.6802V33.0687L13.0284 37.426L13.9484 37.9707M5.66895 14.6802L11.2749 17.9199M35.0656 14.6802V25.6049M35.0656 14.6802L29.9369 11.6642M35.0656 14.6802L33.2309 15.7434L31.3962 16.8067L30.4788 17.3384M20.3879 41.7834L29.9369 36.1126M20.3879 41.7834V23.1864M20.3879 41.7834L16.7082 39.6047M20.3879 23.1864L15.2594 20.2226M20.3879 23.1864L27.7268 18.9333M26.0412 9.37326L11.2749 17.9199M26.0412 9.37326L29.9369 11.6642M11.2749 17.9199V30.4L13.3413 29.3576L15.2594 31.9845V20.2226M11.2749 17.9199L15.2594 20.2226M15.2594 20.2226L29.9369 11.6642" stroke="#466330" stroke-linecap="round" stroke-linejoin="round"/>
<circle id="Ellipse 117" cx="35.3156" cy="31.7561" r="4.23264" stroke="#466330" stroke-linecap="round" stroke-linejoin="round"/>
<path id="Ellipse 118" d="M41.8313 32.2248C41.8313 33.1731 41.4416 34.228 40.8046 35.3065C40.1716 36.3784 39.3201 37.4305 38.4567 38.3625C37.5949 39.2928 36.7314 40.0926 36.0826 40.6603C35.7612 40.9414 35.4934 41.1649 35.3056 41.3183C35.1189 41.1749 34.8548 40.9671 34.5388 40.7047C33.8914 40.1672 33.0299 39.4038 32.1702 38.4987C31.309 37.5921 30.4598 36.5539 29.8283 35.4678C29.1947 34.3781 28.7998 33.2736 28.7998 32.2248C28.7998 28.6262 31.717 25.709 35.3156 25.709C38.9141 25.709 41.8313 28.6262 41.8313 32.2248Z" stroke="#466330" stroke-linecap="round" stroke-linejoin="round"/>
</g>
</svg>
