<svg width="49" height="48" viewBox="0 0 49 48" fill="none" xmlns="http://www.w3.org/2000/svg">
<path d="M12.0809 12.5522H6.21533V8.97768C6.21533 7.35796 7.52837 6.04492 9.14809 6.04492V6.04492C10.7678 6.04492 12.0809 7.35796 12.0809 8.97768V39.2104C12.0809 40.7996 13.3691 42.0879 14.9583 42.0879V42.0879C16.5475 42.0879 17.8358 40.7996 17.8358 39.2104V36.7755H41.9997V37.0879C41.9997 39.8493 39.7611 42.0879 36.9997 42.0879H34.0836M14.4951 42.0879H30.8062" stroke="#466330" stroke-linecap="round" stroke-linejoin="round"/>
<path d="M8.97168 6.03613H14.6201M39.353 36.725V15.0361C39.353 10.0656 35.3235 6.03613 30.353 6.03613H18.3657" stroke="#466330" stroke-linecap="round"/>
<path d="M26.4985 27.9062L27.2441 29.5387M30.7501 26.4886L33.6519 33.0065L30.7501 31.908L29.6515 34.8097L27.9592 31.1043" stroke="#466330" stroke-linecap="round" stroke-linejoin="round"/>
<path d="M26.0908 28.042L23.0332 34.8092L21.9347 31.9074L19.0329 33.0059L21.9346 26.5158" stroke="#466330" stroke-linecap="round" stroke-linejoin="round"/>
<path d="M25.4155 12.9728C25.8966 12.3848 26.7958 12.3848 27.277 12.9728C27.8517 13.6752 28.7983 13.9531 29.6615 13.673C30.3842 13.4385 31.1406 13.9246 31.2275 14.6794C31.3313 15.5809 31.9773 16.3266 32.855 16.5576C33.5897 16.751 33.9632 17.5689 33.6282 18.2509C33.2281 19.0654 33.3685 20.042 33.9819 20.7108C34.4955 21.2707 34.3675 22.1607 33.717 22.5533C32.94 23.0222 32.5302 23.9197 32.6846 24.814C32.8139 25.5627 32.2251 26.2422 31.4656 26.2208C30.5585 26.1952 29.7285 26.7286 29.3749 27.5644C29.0789 28.2641 28.2162 28.5175 27.5888 28.0888C26.8395 27.5769 25.8529 27.5769 25.1036 28.0888C24.4762 28.5175 23.6135 28.2641 23.3175 27.5644C22.9639 26.7286 22.134 26.1952 21.2268 26.2208C20.4673 26.2422 19.8785 25.5627 20.0078 24.814C20.1622 23.9197 19.7524 23.0222 18.9754 22.5533C18.3249 22.1607 18.1969 21.2707 18.7105 20.7108C19.3239 20.042 19.4643 19.0654 19.0642 18.2509C18.7292 17.5689 19.1027 16.751 19.8375 16.5576C20.7151 16.3266 21.3612 15.5809 21.4649 14.6794C21.5518 13.9246 22.3082 13.4385 23.0309 13.673C23.8941 13.9531 24.8407 13.6752 25.4155 12.9728Z" stroke="#466330"/>
<path d="M26.3472 16.7617L27.3635 19.1545L29.9532 19.3816L27.9916 21.0876L28.5759 23.6207L26.3472 22.2822L24.1186 23.6207L24.7029 21.0876L22.7412 19.3816L25.331 19.1545L26.3472 16.7617Z" stroke="#466330" stroke-linejoin="round"/>
</svg>
