<svg width="48" height="48" viewBox="0 0 48 48" fill="none" xmlns="http://www.w3.org/2000/svg">
<g id="icon/plot">
<path id="Vector 377" d="M34.9023 17.9849L30.4598 18.9125L31.2409 14.3236M34.9023 17.9849L33.0716 16.1543M34.9023 17.9849L42.7132 10.174M31.2409 14.3236L33.0716 16.1543M31.2409 14.3236L39.0518 6.51266M33.0716 16.1543L37.807 11.4189M38.8077 10.4181L40.8825 8.34334M39.0518 6.51266L39.9061 5.65836C40.9172 4.6473 42.5564 4.6473 43.5675 5.65836V5.65836C44.5785 6.66941 44.5785 8.30866 43.5675 9.31971L42.7132 10.174M39.0518 6.51266L42.7132 10.174" stroke="#466330" stroke-linecap="round" stroke-linejoin="round"/>
<path id="Vector 373" d="M9.48682 41.9017H25.169H29.0896H31.0499M40.8512 11.9679V41.9017H36.5399H34.775M37.9532 7.48926H12.1977" stroke="#466330" stroke-linecap="round" stroke-linejoin="round"/>
<path id="Vector 374" d="M24.9515 22.2201H15.0283L20.0438 14.832M24.9515 22.2201L20.0438 14.832M24.9515 22.2201H38.3792L36.7074 19.4698M20.0438 14.832H30.2361M16.161 24.4851V34.3539H23.603M23.603 34.3539V24.4851M23.603 34.3539H36.7074V24.4851" stroke="#466330" stroke-linecap="round" stroke-linejoin="round"/>
<path id="Vector 375" d="M16.4849 38.0208H36.9771M16.4849 38.0208L17.9139 36.5918M16.4849 38.0208L17.9139 39.4498M36.9771 38.0208L35.5481 36.5918M36.9771 38.0208L35.5481 39.4498" stroke="#466330" stroke-linecap="round" stroke-linejoin="round"/>
<path id="Vector 376" d="M20.0166 11.1653H30.909M20.0166 11.1653L21.4456 9.73633M20.0166 11.1653L21.4456 12.5943M30.909 11.1653L29.48 9.73633M30.909 11.1653L29.48 12.5943" stroke="#466330" stroke-linecap="round" stroke-linejoin="round"/>
<path id="Rectangle 1836" d="M6.74365 12.5709V8.12989C6.74365 6.61542 7.97137 5.3877 9.48585 5.3877V5.3877C11.0003 5.3877 12.228 6.61542 12.228 8.12989V39.16C12.228 40.6745 11.0003 41.9022 9.48585 41.9022V41.9022C7.97137 41.9022 6.74365 40.6745 6.74365 39.16V15.0226" stroke="#466330" stroke-linecap="round" stroke-linejoin="round"/>
<rect id="Rectangle 1837" x="7.10107" y="37.0918" width="4.77018" height="4.66073" rx="2.33036" stroke="#466330" stroke-linecap="round" stroke-linejoin="round"/>
</g>
</svg>
