<svg width="69" height="48" viewBox="0 0 69 48" fill="none" xmlns="http://www.w3.org/2000/svg">
<g id="icon/development">
<path id="Vector 378" d="M10.6453 9.74805L7.37109 12.0814M10.6453 9.74805L13.9195 12.0814M10.6453 9.74805V25.0814M64.9034 40.4147L62.0969 38.4147M64.9034 40.4147L62.0969 42.4147M64.9034 40.4147H53.6775H42.2964H30.7982H19.3H12.6453C11.5407 40.4147 10.6453 39.5193 10.6453 38.4147V32.748V28.9147" stroke="#466330" stroke-linecap="round" stroke-linejoin="round"/>
<path id="Rectangle 1840" d="M17.8711 28.2285C17.8711 27.4001 18.5427 26.7285 19.3711 26.7285H24.1398C24.9682 26.7285 25.6398 27.4001 25.6398 28.2285V40.2514H17.8711V28.2285Z" stroke="#466330" stroke-linecap="round" stroke-linejoin="round"/>
<path id="Rectangle 1841" d="M32.252 20.1455C32.252 19.3171 32.9235 18.6455 33.752 18.6455H38.5206C39.3491 18.6455 40.0206 19.3171 40.0206 20.1455V40.2521H32.252V20.1455Z" stroke="#466330" stroke-linecap="round" stroke-linejoin="round"/>
<path id="Rectangle 1842" d="M46.6328 10.1797C46.6328 9.35126 47.3044 8.67969 48.1328 8.67969H52.9015C53.7299 8.67969 54.4015 9.35126 54.4015 10.1797V40.2516H46.6328V10.1797Z" stroke="#466330" stroke-linecap="round" stroke-linejoin="round"/>
</g>
</svg>
