<svg width="48" height="48" viewBox="0 0 48 48" fill="none" xmlns="http://www.w3.org/2000/svg">
<g id="icon/stability">
<path id="Vector 379" d="M5.46094 9.25195H20.3514M42.4393 9.25195H27.2983" stroke="#466330" stroke-linecap="round" stroke-linejoin="round"/>
<path id="Ellipse 119" d="M27.0598 9.09145C27.0598 10.904 25.5905 12.3733 23.778 12.3733C21.9654 12.3733 20.4961 10.904 20.4961 9.09145C20.4961 7.27892 21.9654 5.80957 23.778 5.80957C25.5905 5.80957 27.0598 7.27892 27.0598 9.09145Z" stroke="#466330" stroke-linecap="round" stroke-linejoin="round"/>
<path id="Ellipse 122" d="M24.856 9.09206C24.856 9.6871 24.3736 10.1695 23.7786 10.1695C23.1835 10.1695 22.7012 9.6871 22.7012 9.09206C22.7012 8.49702 23.1835 8.01465 23.7786 8.01465C24.3736 8.01465 24.856 8.49702 24.856 9.09206Z" stroke="#466330" stroke-linecap="round" stroke-linejoin="round"/>
<path id="Ellipse 120" d="M36.3068 10.4907L41.9376 23.6491C41.8839 26.9669 39.1777 29.6398 35.8471 29.6398C32.5166 29.6398 29.8104 26.9669 29.7567 23.6491L35.3875 10.4907C35.5605 10.0863 36.1338 10.0863 36.3068 10.4907Z" stroke="#466330" stroke-linecap="round" stroke-linejoin="round"/>
<path id="Ellipse 121" d="M12.1681 10.4907L17.7989 23.6491C17.7452 26.9669 15.039 29.6398 11.7085 29.6398C8.37794 29.6398 5.67171 26.9669 5.618 23.6491L11.2488 10.4907C11.4218 10.0863 11.9951 10.0863 12.1681 10.4907Z" stroke="#466330" stroke-linecap="round" stroke-linejoin="round"/>
<path id="Vector 380" d="M22.2904 12.3408L20.4667 37.8578" stroke="#466330" stroke-linecap="round" stroke-linejoin="round"/>
<path id="Vector 381" d="M25.3547 12.2578L26.6669 29.5309M27.2891 37.7195L26.9261 32.9417" stroke="#466330" stroke-linecap="round" stroke-linejoin="round"/>
<path id="Rectangle 1843" d="M33.4207 43.0907H14.5006C14.6899 40.2659 17.0413 38.0332 19.9141 38.0332H28.0072C30.88 38.0332 33.2314 40.2659 33.4207 43.0907Z" stroke="#466330" stroke-linecap="round" stroke-linejoin="round"/>
</g>
</svg>
