<svg width="48" height="48" viewBox="0 0 48 48" fill="none" xmlns="http://www.w3.org/2000/svg">
<g id="icon/Architecture">
<g id="Vector 366">
<path d="M4.32459 24.9899V39.9496C4.32459 41.9271 5.92771 43.5302 7.90527 43.5302V39.6312V28.7298C6.07481 28.3762 4.65504 26.9253 4.34128 25.0876L4.32459 24.9899Z" stroke="#466330" stroke-linecap="round" stroke-linejoin="round"/>
<path d="M39.7303 25.6148V10.3369C41.8835 10.3369 43.6291 12.0825 43.6291 14.2357V28.9443C43.4386 27.2737 42.1396 25.945 40.4738 25.7167L39.7303 25.6148Z" stroke="#466330" stroke-linecap="round" stroke-linejoin="round"/>
</g>
<path id="Vector 367" d="M4.37158 25.2625V21.3244C4.37158 18.894 6.3418 16.9238 8.77219 16.9238V16.9238H10.9725M39.5764 16.9238H28.4947M43.6279 29.1112V34.6949C43.6279 37.4563 41.3893 39.6949 38.6279 39.6949H8.15629M15.3731 16.9238H17.5734H18.7299" stroke="#466330" stroke-linecap="round" stroke-linejoin="round"/>
<path id="Ellipse 115" d="M28.7131 14.9952C28.7131 17.7917 26.446 20.0588 23.6495 20.0588C20.853 20.0588 18.5859 17.7917 18.5859 14.9952C18.5859 12.1987 20.853 9.93164 23.6495 9.93164C26.446 9.93164 28.7131 12.1987 28.7131 14.9952Z" stroke="#466330" stroke-linecap="round" stroke-linejoin="round"/>
<path id="Ellipse 116" d="M25.3563 14.9948C25.3563 15.9374 24.5922 16.7015 23.6496 16.7015C22.707 16.7015 21.9429 15.9374 21.9429 14.9948C21.9429 14.0522 22.707 13.2881 23.6496 13.2881C24.5922 13.2881 25.3563 14.0522 25.3563 14.9948Z" stroke="#466330" stroke-linecap="round" stroke-linejoin="round"/>
<path id="Vector 368" d="M20.0878 18.8848L18.0034 29.9949C17.6244 32.0149 18.1699 34.0984 19.49 35.6735V35.6735M19.1973 37.5029L22.4856 20.1297" stroke="#466330" stroke-linecap="round" stroke-linejoin="round"/>
<path id="Vector 369" d="M27.4887 18.6533L29.7318 30C30.1299 32.0137 29.5947 34.0994 28.2761 35.6726V35.6726M28.5688 37.502L25.2062 20.1058" stroke="#466330" stroke-linecap="round" stroke-linejoin="round"/>
<rect id="Rectangle 1832" x="23.1001" y="24.3438" width="1.56573" height="4.49031" rx="0.5" stroke="#466330" stroke-linecap="round" stroke-linejoin="round"/>
<path id="Rectangle 1833" d="M30.7568 27.7949L36.2472 27.7949L36.2472 25.2292L30.7568 25.2292" stroke="#466330" stroke-linecap="round" stroke-linejoin="round"/>
<path id="Rectangle 1834" d="M17.4048 27.7949L11.9145 27.7949L11.9145 25.2292L17.4048 25.2292" stroke="#466330" stroke-linecap="round" stroke-linejoin="round"/>
<path id="Vector 370" d="M24.9625 5.71391V4.13477H22.4302V8.66371H24.9625V7.56127" stroke="#466330" stroke-linecap="round" stroke-linejoin="round"/>
</g>
</svg>
