<svg width="48" height="48" viewBox="0 0 48 48" fill="none" xmlns="http://www.w3.org/2000/svg">
<path d="M14.3901 17.654L29.7233 26.4415M14.3901 17.654L19.9988 14.3288M14.3901 17.654H2.24316M14.3901 17.654V26.4718M29.7233 8.56348L44.8136 17.654M29.7233 8.56348L24.3061 11.7752M29.7233 8.56348H20.4076M44.8136 17.654V35.2896L35.7675 40.7026M44.8136 17.654L39.4532 20.7755M29.7233 44.3195L14.3901 35.2896M29.7233 44.3195V26.4415M29.7233 44.3195L32.8061 42.4748M14.3901 35.2896V26.4718M14.3901 35.2896H2.24316M29.7233 26.4415L35.2514 23.2224M24.3061 11.7752L39.4532 20.7755M24.3061 11.7752L19.9988 14.3288M39.4532 20.7755L35.2514 23.2224M39.4532 20.7755V27.3896L35.2514 29.8689V23.2224M19.9988 14.3288L35.2514 23.2224M16.714 22.7853L24 27.0861M16.714 26.0741L20.4076 28.1486M17.2008 8.56348H6.08799M14.3901 26.4718H6.08799" stroke="#466330" stroke-linecap="round"/>
</svg>
