<svg width="49" height="48" viewBox="0 0 49 48" fill="none" xmlns="http://www.w3.org/2000/svg">
<path d="M34.8664 38.0148L33.0323 34.8866L31.2007 35.92L31.4721 29.0957L37.2544 32.4249L35.6101 33.3983L37.4984 36.4952L34.8664 38.0148Z" stroke="#466330" stroke-linecap="round" stroke-linejoin="round"/>
<path d="M10.0785 6.98047H7.21582C6.11125 6.98047 5.21582 7.8759 5.21582 8.98047V15.2064V39.0189C5.21582 40.1235 6.11125 41.0189 7.21582 41.0189H14.369M13.7969 6.98047H42.1169C43.2214 6.98047 44.1169 7.8759 44.1169 8.98047V15.2064V39.0189C44.1169 40.1234 43.2214 41.0189 42.1169 41.0189H18.0875" stroke="#466330" stroke-linecap="round"/>
<path d="M5.21582 14.2744H34.6077M44.1169 14.2744H38.6419" stroke="#466330" stroke-linecap="round"/>
<rect x="23.9507" y="9.30469" width="18.4505" height="2.64697" rx="0.5" stroke="#466330"/>
<circle cx="18.5881" cy="10.6282" r="1.32349" stroke="#466330"/>
<circle cx="13.7258" cy="10.6282" r="1.32349" stroke="#466330"/>
<path d="M10.1865 10.6282C10.1865 11.3591 9.59398 11.9517 8.86304 11.9517C8.1321 11.9517 7.53955 11.3591 7.53955 10.6282C7.53955 9.89723 8.1321 9.30469 8.86304 9.30469C9.59398 9.30469 10.1865 9.89723 10.1865 10.6282Z" stroke="#466330"/>
<ellipse cx="37.4311" cy="26.4311" rx="0.60783" ry="0.607829" fill="#466330"/>
<path d="M13.7261 20.6572L15.2456 26.7355L16.7652 20.6572L18.5887 26.7355L19.8044 20.6572" stroke="#466330" stroke-linecap="round" stroke-linejoin="round"/>
<path d="M21.9316 20.6572L23.4512 26.7355L24.9708 20.6572L26.7943 26.7355L28.0099 20.6572" stroke="#466330" stroke-linecap="round" stroke-linejoin="round"/>
<path d="M29.8335 20.6572L31.3531 26.7355L32.8726 20.6572L34.6961 26.7355L35.9118 20.6572" stroke="#466330" stroke-linecap="round" stroke-linejoin="round"/>
</svg>
