<svg width="48" height="48" viewBox="0 0 48 48" fill="none" xmlns="http://www.w3.org/2000/svg">
<g id="icon/Marketing department">
<rect id="Rectangle 1827" x="38.062" y="21.4668" width="3.43662" height="13.3242" stroke="#466330" stroke-linecap="round"/>
<rect id="Rectangle 1828" x="31.7871" y="26.917" width="3.43661" height="7.87338" stroke="#466330" stroke-linecap="round"/>
<rect id="Rectangle 1829" x="25.5122" y="24.1279" width="3.43662" height="10.6622" stroke="#466330" stroke-linecap="round"/>
<path id="Vector 365" d="M7.43701 31.5381H20.6526M7.43701 34.7034H16.6957" stroke="#466330" stroke-linecap="round"/>
<path id="Ellipse 111" d="M28.148 18.8194C28.148 19.4833 27.6098 20.0215 26.9458 20.0215C26.2819 20.0215 25.7437 19.4833 25.7437 18.8194C25.7437 18.1554 26.2819 17.6172 26.9458 17.6172C27.6098 17.6172 28.148 18.1554 28.148 18.8194Z" stroke="#466330" stroke-linecap="round"/>
<path id="Ellipse 112" d="M34.7076 23.2891C34.7076 23.953 34.1694 24.4913 33.5054 24.4913C32.8415 24.4913 32.3032 23.953 32.3032 23.2891C32.3032 22.6251 32.8415 22.0869 33.5054 22.0869C34.1694 22.0869 34.7076 22.6251 34.7076 23.2891Z" stroke="#466330" stroke-linecap="round"/>
<path id="Ellipse 113" d="M40.9825 16.6534C40.9825 17.3173 40.4443 17.8555 39.7803 17.8555C39.1164 17.8555 38.5781 17.3173 38.5781 16.6534C38.5781 15.9894 39.1164 15.4512 39.7803 15.4512C40.4443 15.4512 40.9825 15.9894 40.9825 16.6534Z" stroke="#466330" stroke-linecap="round"/>
<path id="Vector 364" d="M38.6534 17.8389L34.5462 22.2697M32.0171 22.5841L28.0972 19.5581" stroke="#466330" stroke-linecap="round"/>
<path id="Ellipse 114" d="M20.3601 22.5275C20.3601 25.9939 17.5501 28.804 14.0836 28.804C10.6172 28.804 7.80713 25.9939 7.80713 22.5275C7.80713 20.2548 9.01474 18.2637 10.8257 17.1616C11.775 16.5839 12.8897 16.251 14.0836 16.251C16.3216 16.251 18.2864 17.4219 19.3983 19.1869C20.0076 20.154 20.3601 21.2988 20.3601 22.5275Z" stroke="#466330" stroke-linecap="round"/>
<path id="Rectangle 1830" d="M13.017 39.9856H10.7056C6.28729 39.9856 2.70557 36.4038 2.70557 31.9856V19.3242C2.70557 14.9059 6.28729 11.3242 10.7056 11.3242H37.2938C41.7121 11.3242 45.2939 14.9059 45.2939 19.3242V31.9856C45.2939 36.4039 41.7121 39.9856 37.2939 39.9856H18.2038" stroke="#466330" stroke-linecap="round" stroke-linejoin="round"/>
<path id="Rectangle 1831" d="M20.1206 9.71777C20.1206 8.88935 20.7922 8.21777 21.6206 8.21777H26.6478C27.4762 8.21777 28.1478 8.88935 28.1478 9.71777V11.1527H20.1206V9.71777Z" stroke="#466330" stroke-linecap="round"/>
</g>
</svg>
