<svg width="49" height="48" viewBox="0 0 49 48" fill="none" xmlns="http://www.w3.org/2000/svg">
<path d="M37.1079 12.5964L37.8677 11.8352C39.127 10.5734 41.2832 11.4653 41.2832 13.248L41.2832 40.1787C41.2832 41.2832 40.3878 42.1787 39.2832 42.1787L35.8582 42.1787M37.1079 12.5964L38.2364 13.7249M37.1079 12.5964L34.7319 14.9769M32.3602 17.3361L34.524 19.4998M25.6626 24.0635L27.8115 26.2124M25.6626 24.0635L23.3493 26.3813M25.6626 24.0635L27.8357 21.8864M18.7695 30.9699L20.9117 33.1121M18.7695 30.9699L16.5029 33.2407M18.7695 30.9699L21.036 28.699M11.9698 37.7825L10.9884 38.7658C9.73031 40.0263 10.6231 42.1787 12.404 42.1787L32.3602 42.1787M11.9698 37.7825L14.1056 39.9183M11.9698 37.7825L14.2364 35.5116M14.2364 35.5116L15.3431 36.6183M14.2364 35.5116L16.5029 33.2407M16.5029 33.2407L17.6118 34.3496M21.036 28.699L22.1492 29.8122M21.036 28.699L23.3493 26.3813M23.3493 26.3813L24.4647 27.4967M27.8357 21.8864L28.9553 23.006M27.8357 21.8864L30.1022 19.6155M30.1022 19.6155L31.2241 20.7373M30.1022 19.6155L34.7319 14.9769M34.7319 14.9769L35.8582 16.1032" stroke="#466330" stroke-linecap="round" stroke-linejoin="round"/>
<path d="M35.5799 34.8943L35.5799 25.4748C35.5799 24.5839 34.5027 24.1377 33.8728 24.7677L24.4532 34.1872C23.8232 34.8172 24.2694 35.8943 25.1603 35.8943L34.5799 35.8943C35.1322 35.8943 35.5799 35.4466 35.5799 34.8943Z" stroke="#466330"/>
<path d="M17.2974 26.9423L33.8267 10.4131C34.6077 9.63201 34.6077 8.36568 33.8267 7.58463L30.4677 4.22566C29.6867 3.44461 28.4203 3.44461 27.6393 4.22566L25.6618 6.2031M17.2974 26.9423L12.9663 27.9735M17.2974 26.9423C17.2974 26.1173 16.9262 24.0961 15.4412 22.6111C13.9562 21.1262 11.7975 20.8924 10.9038 20.9612M10.9038 20.9612L10.0788 25.0861M10.9038 20.9612L22.8661 8.99885M10.0788 25.0861L12.9663 27.9735M10.0788 25.0861L8.10142 27.6567C7.19527 28.8347 7.98762 30.5453 9.47213 30.616V30.616C9.98988 30.6407 10.494 30.4458 10.8605 30.0793L10.9554 29.9844M12.9663 27.9735L12.296 28.6438" stroke="#466330" stroke-linecap="round"/>
</svg>
