<svg width="48" height="48" viewBox="0 0 48 48" fill="none" xmlns="http://www.w3.org/2000/svg">
<g id="icon/Sales Department">
<path id="Vector 361" d="M9.744 6.84863H3.75696C3.14258 6.84863 2.64453 7.34669 2.64453 7.96106C2.64453 8.57544 3.14258 9.07349 3.75696 9.07349H9.8631C10.2711 9.07349 10.6209 9.36493 10.6946 9.76625L15.0192 33.3219C15.1836 34.2171 15.964 34.8672 16.8742 34.8672H38.9502C39.604 34.8672 40.1341 34.3372 40.1341 33.6834C40.1341 33.0295 39.604 32.4995 38.9502 32.4995H18.424C17.6744 32.4995 17.0301 31.9679 16.8877 31.2319L12.6326 9.23205C12.3649 7.84823 11.1535 6.84863 9.744 6.84863Z" stroke="#466330" stroke-linecap="round" stroke-linejoin="round"/>
<path id="Vector 362" d="M13.6372 14.0645H26.6599M31.0572 14.0645H41.6558C42.403 14.0645 43.0088 14.6702 43.0088 15.4175V15.4175C43.0088 16.1647 42.403 16.7705 41.6558 16.7705V16.7705M14.2009 16.7705H18.8801M41.6558 16.7705H36.9202M41.6558 16.7705L40.7256 23.5355M16.8321 30.3006H20.2895M18.8801 16.7705L20.2895 30.3006M18.8801 16.7705H23.3901M20.2895 30.3006H24.0666M23.3901 16.7705L24.0666 30.3006M23.3901 16.7705H27.8438M24.0666 30.3006H27.8438M27.8438 16.7705V30.3006M27.8438 16.7705H32.1847M27.8438 30.3006H31.7337M32.1847 16.7705L31.7337 30.3006M32.1847 16.7705H36.9202M31.7337 30.3006H35.7645M36.9202 16.7705L35.7645 30.3006M35.7645 30.3006H39.7954L40.7256 23.5355M40.7256 23.5355H15.5331" stroke="#466330" stroke-linecap="round" stroke-linejoin="round"/>
<path id="Ellipse 107" d="M23.2288 39.039C23.2288 41.0669 21.5849 42.7108 19.557 42.7108C17.5292 42.7108 15.8853 41.0669 15.8853 39.039C15.8853 37.0111 17.5292 35.3672 19.557 35.3672C21.5849 35.3672 23.2288 37.0111 23.2288 39.039Z" stroke="#466330" stroke-linecap="round" stroke-linejoin="round"/>
<path id="Ellipse 108" d="M21.0301 39.0385C21.0301 39.852 20.3706 40.5115 19.557 40.5115C18.7435 40.5115 18.084 39.852 18.084 39.0385C18.084 38.2249 18.7435 37.5654 19.557 37.5654C20.3706 37.5654 21.0301 38.2249 21.0301 39.0385Z" stroke="#466330" stroke-linecap="round" stroke-linejoin="round"/>
<path id="Ellipse 109" d="M38.45 39.039C38.45 41.0669 36.8061 42.7108 34.7782 42.7108C32.7504 42.7108 31.1064 41.0669 31.1064 39.039C31.1064 37.0111 32.7504 35.3672 34.7782 35.3672C36.8061 35.3672 38.45 37.0111 38.45 39.039Z" stroke="#466330" stroke-linecap="round" stroke-linejoin="round"/>
<circle id="Ellipse 110" cx="34.7782" cy="39.0385" r="1.47304" stroke="#466330" stroke-linecap="round" stroke-linejoin="round"/>
</g>
</svg>
