<svg width="48" height="48" viewBox="0 0 48 48" fill="none" xmlns="http://www.w3.org/2000/svg">
<g id="icon/Production">
<rect id="Rectangle 1826" x="4.5" y="34.5" width="39" height="8.33333" rx="4.16667" stroke="#466330" stroke-linecap="round" stroke-linejoin="round"/>
<path id="Ellipse 102" d="M10.1665 38.667C10.1665 39.4954 9.49493 40.167 8.6665 40.167C7.83808 40.167 7.1665 39.4954 7.1665 38.667C7.1665 37.8386 7.83808 37.167 8.6665 37.167C9.49493 37.167 10.1665 37.8386 10.1665 38.667Z" stroke="#466330" stroke-linecap="round" stroke-linejoin="round"/>
<path id="Ellipse 104" d="M16.8332 21.3333C16.8332 24.0027 14.6692 26.1667 11.9998 26.1667C9.33046 26.1667 7.1665 24.0027 7.1665 21.3333C7.1665 18.664 9.33046 16.5 11.9998 16.5C14.6692 16.5 16.8332 18.664 16.8332 21.3333Z" stroke="#466330" stroke-linecap="round" stroke-linejoin="round"/>
<circle id="Ellipse 105" cx="24.6665" cy="8.66699" r="3.5" stroke="#466330" stroke-linecap="round" stroke-linejoin="round"/>
<path id="Ellipse 106" d="M35.5002 16.6663C35.5002 18.2311 34.2316 19.4997 32.6668 19.4997C31.102 19.4997 29.8335 18.2311 29.8335 16.6663C29.8335 15.1015 31.102 13.833 32.6668 13.833C34.2316 13.833 35.5002 15.1015 35.5002 16.6663Z" stroke="#466330" stroke-linecap="round" stroke-linejoin="round"/>
<path id="Vector 358" d="M30.3333 19L25 23.3333L29 27.6667" stroke="#466330" stroke-linecap="round" stroke-linejoin="round"/>
<path id="Vector 359" d="M35.0353 19L40.3687 23.3333L36.3687 27.6667" stroke="#466330" stroke-linecap="round" stroke-linejoin="round"/>
<path id="Vector 360" d="M32 24.333H29V32.333H36.3333V24.333H33.6667" stroke="#466330" stroke-linecap="round" stroke-linejoin="round"/>
<path id="Vector 356" d="M25.9907 12.2051L29.6696 15.8581" stroke="#466330" stroke-linecap="round" stroke-linejoin="round"/>
<path id="Vector 357" d="M28.1578 10.1299L31.6078 13.7291" stroke="#466330" stroke-linecap="round" stroke-linejoin="round"/>
<path id="Vector 354" d="M13.6665 16.3338L20.9591 9.38475" stroke="#466330" stroke-linecap="round" stroke-linejoin="round"/>
<path id="Vector 355" d="M16.7212 19.4575L24.1843 12.333" stroke="#466330" stroke-linecap="round" stroke-linejoin="round"/>
<circle id="Ellipse 103" cx="39.3335" cy="38.667" r="1.5" stroke="#466330" stroke-linecap="round" stroke-linejoin="round"/>
<path id="Vector 351" d="M13.3335 38.667H15.3335M17.3335 38.667H19.3335M21.0002 38.667H23.0002M25.0002 38.667H27.0002M29.0002 38.667H31.3335M33.3335 38.667H35.3335" stroke="#466330" stroke-linecap="round" stroke-linejoin="round"/>
<path id="Vector 352" d="M8.6665 34.2885V30.6672M8.6665 25.333V27.8338" stroke="#466330" stroke-linecap="round" stroke-linejoin="round"/>
<path id="Vector 353" d="M14.6665 34.2877V30.6664V25.5918" stroke="#466330" stroke-linecap="round" stroke-linejoin="round"/>
</g>
</svg>
