<svg width="48" height="48" viewBox="0 0 48 48" fill="none" xmlns="http://www.w3.org/2000/svg">
<g id="icon/team">
<path id="Vector 382" d="M18.9656 29.6289C18.7868 29.6647 15.9085 30.9514 13.8704 31.8569C13.1457 32.1789 12.6777 32.897 12.6777 33.69V39.3285" stroke="#466330" stroke-linecap="round" stroke-linejoin="round"/>
<path id="Vector 383" d="M29.0582 29.7168C29.2367 29.7525 32.0072 30.975 34.0095 31.8588C34.735 32.179 35.2031 32.8971 35.2031 33.6902V39.3287" stroke="#466330" stroke-linecap="round" stroke-linejoin="round"/>
<path id="Vector 384" d="M20.401 28.8213L23.2617 30.948L21.7805 32.3722C21.5509 32.5929 21.1762 32.5456 21.0087 32.2748L19.441 29.7406C19.3227 29.5493 19.3467 29.3026 19.4996 29.1376L19.736 28.8826C19.9096 28.6954 20.1962 28.669 20.401 28.8213ZM26.3264 32.4098L24.8135 30.955L27.765 28.8359C27.9786 28.6825 28.2746 28.7209 28.4421 28.9236L28.7321 29.2747C28.8738 29.4463 28.8851 29.6909 28.7598 29.8747L27.0861 32.3309C26.9119 32.5867 26.5495 32.6243 26.3264 32.4098Z" stroke="#466330" stroke-linecap="round" stroke-linejoin="round"/>
<path id="Vector 393" d="M19.9414 28.3604V25.1914" stroke="#466330" stroke-linecap="round" stroke-linejoin="round"/>
<path id="Vector 394" d="M28.1426 28.5547V25.3857" stroke="#466330" stroke-linecap="round" stroke-linejoin="round"/>
<path id="Vector 392" d="M24.0898 31.2412L24.0898 33.4124M24.0898 39.6026L24.0898 35.171" stroke="#466330" stroke-linecap="round" stroke-linejoin="round"/>
<path id="Vector 385" d="M33.6523 31.653L36.1353 30.7199M36.1353 30.7199L38.317 32.9807M36.1353 30.7199V29.2236M38.317 32.9807L40.6137 30.7199M38.317 32.9807V39.263M40.6137 30.7199L43.6221 31.8481C44.4027 32.1408 44.9199 32.8871 44.9199 33.7208V39.5118M40.6137 30.7199V29.2236" stroke="#466330" stroke-linecap="round" stroke-linejoin="round"/>
<path id="Vector 391" d="M35.9082 22.1668C36.3012 22.1043 37.3337 22.0168 38.3196 22.1668C39.3055 22.3169 40.2308 22.676 40.5702 22.8367" stroke="#466330" stroke-linecap="round" stroke-linejoin="round"/>
<path id="Vector 386" d="M13.0882 32.4064L11.4019 31.1504C11.2465 31.6887 10.5482 32.7652 8.99798 32.7652C7.44775 32.7652 6.86885 31.6887 6.77319 31.1504L4.31855 32.4526C3.66468 32.7995 3.25586 33.4792 3.25586 34.2194V39.5475" stroke="#466330" stroke-linecap="round" stroke-linejoin="round"/>
<path id="Vector 387" d="M7.08984 31.5556V29.543" stroke="#466330" stroke-linecap="round" stroke-linejoin="round"/>
<path id="Vector 388" d="M11.0781 31.5556V29.543" stroke="#466330" stroke-linecap="round" stroke-linejoin="round"/>
<path id="Ellipse 123" d="M4.85352 25.4587C4.85352 27.8919 6.82602 29.8644 9.25922 29.8644C11.4563 29.8644 13.2777 28.2562 13.6106 26.1527C13.6811 25.7071 13.5217 25.2588 13.2251 24.9188C12.7744 24.402 12.0811 23.7438 11.0077 23.2668C9.95143 22.7973 8.89816 22.6081 8.23509 22.5687C7.83738 22.545 7.485 22.7495 7.22002 23.047L6.29742 24.0829" stroke="#466330" stroke-linecap="round" stroke-linejoin="round"/>
<path id="Vector 389" d="M6.6943 31.0316C6.39867 30.9228 5.61158 30.5326 4.82816 29.8424C4.7054 29.7342 4.59477 29.633 4.49531 29.5388C3.95641 29.0286 4.08514 28.2826 4.23442 27.5556C4.2532 27.4642 4.26521 27.371 4.26823 27.2773C4.29155 26.5545 4.01231 23.1733 4.82816 21.541C5.64402 19.9087 6.83325 18.6729 9.28168 18.6729C11.7301 18.6729 13.1059 20.4217 13.5723 21.541C14.0386 22.6603 13.9454 26.3913 14.1552 27.2773C14.1937 27.4397 14.2377 27.6002 14.2842 27.7542C14.5029 28.4784 14.4263 29.2976 13.8481 29.7853C13.6695 29.936 13.4739 30.0846 13.2691 30.2154C12.5976 30.6445 11.7301 30.9383 11.3803 31.0316" stroke="#466330" stroke-linecap="round" stroke-linejoin="round"/>
<path id="Ellipse 124" d="M28.7484 8.84961C28.9522 8.84961 29.1588 8.84961 29.3685 8.84961C30.4573 8.84961 31.3465 9.72017 31.3605 10.8089C31.3859 12.7834 31.3959 15.1582 31.3285 15.9463C31.2637 16.7031 31.0841 17.3657 30.9293 17.8028C30.8269 18.0922 30.753 18.394 30.753 18.701V19.8825C30.753 23.5557 27.7802 26.5334 24.1129 26.5334C20.4457 26.5334 17.4728 23.5557 17.4728 19.8825V18.4541C17.4728 18.308 17.4568 18.1624 17.4251 18.0198L17.1595 16.8257C17.1327 16.7052 17.1191 16.5821 17.1191 16.4586V16.4586C17.1191 12.2563 20.5257 8.84961 24.7281 8.84961C25.3556 8.84961 25.987 8.84961 26.6372 8.84961" stroke="#466330" stroke-linecap="round" stroke-linejoin="round"/>
<path id="Ellipse 125" d="M42.4568 25.3933C42.4568 27.6199 40.6518 29.4249 38.4253 29.4249C36.1987 29.4249 34.3937 27.6199 34.3937 25.3933V24.4904C34.3937 24.3075 34.3736 24.1252 34.3339 23.9467L34.1882 23.2931C34.1644 23.186 34.1523 23.0766 34.1523 22.9669V22.876C34.1523 20.3907 36.1671 18.376 38.6523 18.376H41.3897C42.2076 18.376 42.8707 19.0293 42.8784 19.8403C42.8897 21.0372 42.8879 22.2425 42.8514 22.6687C42.8175 23.0642 42.7318 23.4202 42.6482 23.683C42.5499 23.9922 42.4568 24.353 42.4568 24.7376V25.3933Z" stroke="#466330" stroke-linecap="round" stroke-linejoin="round"/>
<path id="Vector 390" d="M19.291 17.1675V15.9467C19.291 15.1856 19.7341 14.4996 20.4842 14.3706C21.3719 14.2179 22.6848 14.1333 24.3917 14.3188C27.2249 14.6268 28.5877 15.6533 28.9149 16.1281" stroke="#466330" stroke-linecap="round" stroke-linejoin="round"/>
</g>
</svg>
