<svg width="363" height="235" viewBox="0 0 363 235" fill="none" xmlns="http://www.w3.org/2000/svg">
<g opacity="0.6">
<path d="M289.213 297.653V236.336C289.213 233.948 289.162 231.572 289.062 229.208C276.06 260.21 257.25 288.068 234.045 311.434C251.756 305.212 270.2 300.563 289.213 297.653Z" fill="#F5F5F5"/>
<path d="M267.358 154.089C257.557 238.983 199.906 309.02 122.534 335.629C104.038 324.777 84.6875 315.191 64.6048 306.993C155.05 301.101 228.44 224.429 228.44 128.335C228.44 121.075 228.021 113.927 227.207 106.911C243.357 120.027 257.01 136.018 267.358 154.089Z" fill="#F5F5F5"/>
<path d="M179.075 79.4135C184.875 94.6335 188.048 111.119 188.048 128.335C188.048 205.235 124.749 267.574 46.6665 267.574C-19.6407 267.574 -75.2866 222.619 -90.5623 161.969C-81.2071 143.381 -68.4543 126.746 -53.1035 112.851C-53.9044 117.897 -54.3201 123.068 -54.3201 128.335C-54.3201 183.263 -9.10686 227.792 46.6665 227.792C102.44 227.792 147.653 183.263 147.653 128.335C147.653 106.041 140.205 85.4606 127.626 68.875C145.657 69.7654 162.949 73.4186 179.075 79.4135Z" fill="#F5F5F5"/>
<path d="M-105.112 204.477C-91.2795 234.543 -69.5207 259.905 -42.7297 277.925C-64.0307 274.885 -85.8136 273.31 -107.97 273.309C-108.04 273.228 -108.111 273.146 -108.182 273.065V236.336C-108.182 225.443 -107.127 214.792 -105.112 204.477Z" fill="#F5F5F5"/>
<path fill-rule="evenodd" clip-rule="evenodd" d="M107.561 129.479C107.561 162.436 80.4331 189.153 46.9691 189.153C13.5051 189.153 -13.6228 162.436 -13.6228 129.479C-13.6228 96.5217 13.5051 69.8048 46.9691 69.8048C80.4331 69.8048 107.561 96.5217 107.561 129.479ZM67.1665 129.479C67.1665 140.464 58.1238 149.37 46.9691 149.37C35.8144 149.37 26.7718 140.464 26.7718 129.479C26.7718 118.493 35.8144 109.587 46.9691 109.587C58.1238 109.587 67.1665 118.493 67.1665 129.479Z" fill="#F5F5F5"/>
<path fill-rule="evenodd" clip-rule="evenodd" d="M104.693 -18H76.3073C-66.3519 -18 -182 95.8959 -182 236.394V418.103C-182 558.601 -66.3519 672.497 76.3073 672.497H104.693C247.352 672.497 363 558.601 363 418.103V236.394C363 95.8959 247.352 -18 104.693 -18ZM76.3036 12.7511C-49.111 12.7511 -150.78 112.879 -150.78 236.394V418.103C-150.78 541.618 -49.111 641.746 76.3036 641.746H104.689C230.104 641.746 331.772 541.618 331.772 418.103V236.394C331.772 112.879 230.104 12.7511 104.689 12.7511H76.3036Z" fill="#F5F5F5"/>
</g>
</svg>
