<svg width="162" height="260" viewBox="0 0 162 260" fill="none" xmlns="http://www.w3.org/2000/svg">
<g opacity="0.6">
<path d="M218.438 233.834C161.885 143.986 60.8481 84.1455 -54.38 84.1455C-54.4231 84.1455 -54.4662 84.1455 -54.5093 84.1455V112.434C-54.4662 112.434 -54.4231 112.434 -54.38 112.434C55.9203 112.434 151.938 172.659 201.619 261.541C208.426 253.156 214.107 243.846 218.438 233.834Z" fill="#F5F5F5"/>
<path d="M180.193 282.132C136.605 198.188 47.9256 140.723 -54.3822 140.723C-54.4245 140.723 -54.4669 140.723 -54.5093 140.723V169.011C-54.4669 169.011 -54.4245 169.011 -54.3822 169.011C37.3683 169.011 116.816 220.888 155.369 296.484C164.249 292.668 172.574 287.835 180.193 282.132Z" fill="#F5F5F5"/>
<path d="M125.559 304.986C90.5118 242.176 23.3975 199.172 -54.0714 197.36C-53.2172 207.277 -51.1305 216.848 -47.9628 225.923C10.9533 229.45 62.2976 260.593 92.8964 306.378H107.006C113.315 306.378 119.511 305.902 125.559 304.986Z" fill="#F5F5F5"/>
<path d="M58.2007 306.098C35.5873 280.407 3.8777 262.248 -32.1972 256.135C-11.7694 284.446 20.8954 303.594 58.2007 306.098Z" fill="#F5F5F5"/>
<path d="M224.27 216.842C222.748 222.69 220.787 228.364 218.423 233.829C215.901 229.822 213.291 225.875 210.594 221.991C215.003 219.988 219.57 218.265 224.27 216.842Z" fill="#F5F5F5"/>
<path d="M228.056 158.875V187.143C228.056 187.401 228.055 187.658 228.054 187.916C216.287 190.887 205.145 195.391 194.859 201.199C188.715 193.737 182.232 186.557 175.433 179.68C191.345 169.908 209.096 162.767 228.056 158.875Z" fill="#F5F5F5"/>
<path d="M228.056 101.452V130.147C201.197 134.924 176.214 145.365 154.401 160.227C146.837 153.834 138.968 147.782 130.817 142.095C158.88 121.258 192.034 106.964 228.056 101.452Z" fill="#F5F5F5"/>
<path d="M228.071 101.456V57.854C228.071 56.156 228.035 54.4664 227.963 52.7856C218.718 74.8306 205.342 94.6399 188.842 111.255C201.436 106.83 214.551 103.524 228.071 101.456Z" fill="#F5F5F5"/>
<path d="M212.53 -0.630802C205.561 59.7361 164.566 109.538 109.549 128.459C96.3966 120.743 82.6365 113.926 68.3561 108.097C132.67 103.907 184.856 49.3868 184.856 -18.9435C184.856 -24.1058 184.558 -29.1892 183.98 -34.1781C195.464 -24.8515 205.172 -13.4805 212.53 -0.630802Z" fill="#F5F5F5"/>
<path d="M149.754 -53.7309C153.878 -42.9082 156.134 -31.1854 156.134 -18.9436C156.134 35.7383 111.124 80.0668 55.6005 80.0668C8.45063 80.0668 -31.1182 48.1003 -41.9805 4.97289C-35.3282 -8.24464 -26.2599 -20.0735 -15.3442 -29.9538C-15.9137 -26.366 -16.2093 -22.6888 -16.2093 -18.9436C-16.2093 20.1149 15.941 51.7781 55.6005 51.7781C95.2599 51.7781 127.41 20.1149 127.41 -18.9436C127.41 -34.7964 122.114 -49.4309 113.169 -61.2246C125.991 -60.5914 138.287 -57.9937 149.754 -53.7309Z" fill="#F5F5F5"/>
<path d="M-52.3267 35.1998C-42.4905 56.579 -27.0182 74.6136 -7.96758 87.4273C-23.1143 85.2652 -38.6038 84.1455 -54.3586 84.1445C-54.4089 84.0868 -54.4591 84.0291 -54.5093 83.9714V57.8541C-54.5093 50.1079 -53.7592 42.5343 -52.3267 35.1998Z" fill="#F5F5F5"/>
<path fill-rule="evenodd" clip-rule="evenodd" d="M98.9015 -18.1304C98.9015 5.30473 79.6113 24.3027 55.8157 24.3027C32.02 24.3027 12.7298 5.30473 12.7298 -18.1304C12.7298 -41.5655 32.02 -60.5634 55.8157 -60.5634C79.6113 -60.5634 98.9015 -41.5655 98.9015 -18.1304ZM70.1776 -18.1304C70.1776 -10.3187 63.7476 -3.98603 55.8157 -3.98603C47.8838 -3.98603 41.4537 -10.3187 41.4537 -18.1304C41.4537 -25.9421 47.8838 -32.2747 55.8157 -32.2747C63.7476 -32.2747 70.1776 -25.9421 70.1776 -18.1304Z" fill="#F5F5F5"/>
<path fill-rule="evenodd" clip-rule="evenodd" d="M96.8621 -123H76.6777C-24.7647 -123 -107 -42.0106 -107 57.8948V187.105C-107 287.011 -24.7647 368 76.6777 368H96.8621C198.304 368 280.54 287.011 280.54 187.105V57.8947C280.54 -42.0107 198.304 -123 96.8621 -123ZM76.6751 -101.133C-12.505 -101.133 -84.7998 -29.934 -84.7998 57.8949V187.105C-84.7998 274.934 -12.505 346.134 76.6751 346.134H96.8595C186.04 346.134 258.334 274.934 258.334 187.105V57.8949C258.334 -29.934 186.04 -101.133 96.8595 -101.133H76.6751Z" fill="#F5F5F5"/>
</g>
</svg>
