<?xml version="1.0" encoding="utf-8"?><svg xmlns="http://www.w3.org/2000/svg" xmlns:xlink="http://www.w3.org/1999/xlink"><symbol fill="none" viewBox="0 0 24 24" id="MapPin" xmlns="http://www.w3.org/2000/svg"><g stroke-width="1.5" stroke-linecap="round" stroke-linejoin="round"><path d="M12 12.75a3 3 0 1 0 0-6 3 3 0 0 0 0 6Z" stroke="#FF8B49"/><path d="M19.5 9.75c0 6.75-7.5 12-7.5 12s-7.5-5.25-7.5-12a7.5 7.5 0 0 1 15 0v0Z" stroke="#466330"/></g></symbol><symbol fill="none" viewBox="0 0 24 24" id="PhoneCall" xmlns="http://www.w3.org/2000/svg"><g stroke-width="1.5" stroke-linecap="round" stroke-linejoin="round"><path d="M14.945 3.75a7.514 7.514 0 0 1 5.305 5.305m-6.082-2.407a4.509 4.509 0 0 1 3.183 3.183" stroke="#FF8B49"/><path d="M8.67 11.701a7.908 7.908 0 0 0 3.66 3.645.743.743 0 0 0 .735-.056l2.347-1.565a.75.75 0 0 1 .711-.065l4.391 1.882a.748.748 0 0 1 .45.778 4.5 4.5 0 0 1-4.464 3.93A12.75 12.75 0 0 1 3.75 7.5a4.5 4.5 0 0 1 3.93-4.464.747.747 0 0 1 .778.45l1.884 4.394a.751.751 0 0 1-.062.706L8.72 10.97a.743.743 0 0 0-.05.731v0Z" stroke="#466330"/></g></symbol><symbol fill="none" viewBox="0 0 16 16" id="alert" xmlns="http://www.w3.org/2000/svg"><path fill-rule="evenodd" clip-rule="evenodd" d="M15.333 13.999 8 1.332.667 13.999h14.666Zm-8-2v-1.334h1.334V12H7.333Zm0-2.667h1.334V6.665H7.333v2.667Z" fill="#DF331B"/></symbol><symbol fill="none" viewBox="0 0 24 24" id="catalog-icon-1" xmlns="http://www.w3.org/2000/svg"><path d="M4.139 20.735V10.69H19.86v10.045H4.14Z" stroke="#292929" stroke-width="1.5"/><path d="M6.76 14.06v-.75h-.75v.75h.75Zm3.93 0h.75v-.75h-.75v.75Zm3.068 0v-.75h-.75v.75h.75Zm0 3.931h-.75v.75h.75v-.75Zm3.483 0v.75h.75v-.75h-.75Zm0-3.93h.75v-.75h-.75v.75Zm-5.24-10.795.458-.594L12 2.318l-.458.354.458.594ZM2.39 10.69l-.458-.593.459 1.343v-.75Zm19.218 0v.75l.458-1.343-.459.593Zm-14.1 10.045v-6.674h-1.5v6.674h1.5Zm-.75-5.924h3.93v-1.5H6.76v1.5Zm3.18-.75v6.674h1.5v-6.674h-1.5Zm3.07 0v3.93h1.5v-3.93h-1.5Zm.75 4.68h3.482v-1.5h-3.483v1.5Zm4.232-.75v-3.93h-1.5v3.93h1.5Zm-.75-4.68h-3.483v1.5h3.483v-1.5ZM1.955 21.485h20.09v-1.5H1.955v1.5Zm9.587-18.813-9.609 7.425.917 1.187 9.609-7.425-.917-1.187Zm-9.15 8.768h2.62v-1.5h-2.62v1.5Zm2.62 0h16.596v-1.5H5.012v1.5Zm17.055-1.343L12.46 2.672l-.917 1.187 9.608 7.425.917-1.187Z" fill="#292929"/></symbol><symbol fill="none" viewBox="0 0 38 35" id="dislike" xmlns="http://www.w3.org/2000/svg"><path d="M37.402 17.282a.873.873 0 0 0-.009-.055L34.642 3.058a1.217 1.217 0 0 0-.009-.04c-.26-1.084-1.583-3.103-4.72-3.014L19.667 0a.958.958 0 0 0-.221.026L10.99 2.044A2.098 2.098 0 0 0 8.942.382H2.594A2.099 2.099 0 0 0 .5 2.481v2.626a.953.953 0 1 0 1.904 0V2.481c0-.103.087-.19.19-.19h6.348c.104 0 .19.087.19.19v16.351a.192.192 0 0 1-.19.191H2.594a.193.193 0 0 1-.19-.19V8.45a.953.953 0 1 0-1.904 0v10.381a2.1 2.1 0 0 0 2.094 2.1h6.348c.833 0 1.553-.492 1.89-1.2l3.885 1.017 2.989 5.34 1.113 7.906a.953.953 0 0 0 .688.786c.059.016.809.22 1.8.219.922 0 2.053-.175 3.032-.838 1.171-.791 1.864-2.072 2.06-3.806a.944.944 0 0 0 .005-.132c0-.05-.114-4.514.07-7.477l2.903.035h.011a.953.953 0 0 0 .011-1.909l-3.794-.044a.94.94 0 0 0-.959.862c-.273 2.828-.163 7.836-.146 8.514-.138 1.116-.548 1.913-1.218 2.37-.855.583-1.991.56-2.674.474l-1.043-7.405a.955.955 0 0 0-.113-.334l-3.274-5.849a.953.953 0 0 0-.59-.456l-4.552-1.192V3.993l8.741-2.085 10.163.004c2.282-.072 2.78 1.343 2.839 1.54l2.74 14.112c.19 1.44.025 2.508-.463 3.008-.418.427-1.01.365-1.02.365a.95.95 0 0 0-.127-.01l-1.174-.014h-.012a.953.953 0 0 0-.01 1.908l1.125.013c.065.007.163.014.285.014.516 0 1.467-.122 2.257-.905.965-.956 1.309-2.524 1.022-4.66Z" fill="#C73843"/></symbol><symbol fill="none" viewBox="0 0 20 20" id="info" xmlns="http://www.w3.org/2000/svg"><g clip-path="url(#ada)"><circle cx="10" cy="10" r="8.333" stroke="#292929" stroke-width="2" stroke-linecap="round" stroke-linejoin="round"/><path d="M7.63 7.529c0-1.289 1.12-2.334 2.5-2.334 1.381 0 2.5 1.045 2.5 2.334 0 1.288-1.238 1.477-2.122 2.302-.625.583-.703 1.484-.703 1.484" stroke="#292929" stroke-width="2" stroke-linecap="round" stroke-linejoin="round"/><ellipse cx="9.797" cy="13.848" rx="1.453" ry="1.211" fill="#292929"/></g><defs><clipPath id="ada"><path fill="#fff" transform="matrix(-1 0 0 1 20 0)" d="M0 0h20v20H0z"/></clipPath></defs></symbol><symbol fill="none" viewBox="0 0 38 35" id="like" xmlns="http://www.w3.org/2000/svg"><path d="M36.38 13.058c-.977-.968-2.199-.925-2.542-.892l-1.125.014a.953.953 0 0 0-.941.965.96.96 0 0 0 .963.943l1.173-.014a.95.95 0 0 0 .127-.01c.006-.001.594-.058 1.008.352.499.494.667 1.566.475 3.02l-2.74 14.113c-.042.146-.524 1.612-2.866 1.54l-10.135.003-8.741-2.085v-13.82l4.553-1.192a.95.95 0 0 0 .59-.456l3.274-5.85a.95.95 0 0 0 .112-.333l1.044-7.405c.68-.084 1.815-.107 2.666.469.675.456 1.087 1.256 1.225 2.376-.016.677-.126 5.686.146 8.513a.966.966 0 0 0 .959.862l3.794-.044a.953.953 0 0 0-.022-1.908l-2.903.034c-.183-2.964-.07-7.427-.069-7.476a.962.962 0 0 0-.006-.133c-.195-1.734-.888-3.014-2.06-3.806-2.033-1.376-4.718-.65-4.831-.619a.953.953 0 0 0-.688.786l-1.114 7.907-2.988 5.34-3.886 1.016a2.094 2.094 0 0 0-1.889-1.2h-6.35a2.099 2.099 0 0 0-2.093 2.1v10.381a.953.953 0 1 0 1.904 0V16.168c0-.103.087-.19.19-.19h6.348c.104 0 .19.087.19.19v16.351a.192.192 0 0 1-.19.191H2.594a.193.193 0 0 1-.19-.19v-2.627a.953.953 0 1 0-1.904 0v2.626a2.1 2.1 0 0 0 2.094 2.1h6.348a2.098 2.098 0 0 0 2.048-1.662l8.456 2.017a.95.95 0 0 0 .22.026l10.219-.004c3.165.09 4.489-1.93 4.748-3.014l.009-.04 2.751-14.17a.966.966 0 0 0 .01-.054c.286-2.136-.058-3.704-1.022-4.66Z" fill="#6E9545"/></symbol><symbol fill="none" viewBox="0 0 80 32" id="logo" xmlns="http://www.w3.org/2000/svg"><g fill="#fff"><path d="M17.371 22.134c-2.98-4.734-8.303-7.887-14.374-7.887H2.99v1.49h.007c5.812 0 10.87 3.174 13.488 7.857a6.26 6.26 0 0 0 .886-1.46Z"/><path d="M15.356 24.679c-2.296-4.423-6.969-7.45-12.36-7.45H2.99v1.49h.007c4.834 0 9.02 2.733 11.051 6.716a6.393 6.393 0 0 0 1.308-.756Z"/><path d="M12.478 25.883a11.119 11.119 0 0 0-9.465-5.67 6.17 6.17 0 0 0 .322 1.504 9.607 9.607 0 0 1 7.422 4.24h.743c.332 0 .659-.026.978-.074Zm-3.549.059a8.155 8.155 0 0 0-4.763-2.633 6.395 6.395 0 0 0 4.763 2.633Z"/></g><path d="M17.679 21.239c-.08.308-.184.607-.308.895-.133-.211-.27-.42-.413-.624.233-.105.473-.196.72-.271Zm.199-3.054v1.53a7.076 7.076 0 0 0-1.749.7 16.8 16.8 0 0 0-1.023-1.134 8.6 8.6 0 0 1 2.772-1.096Zm0-3.025v1.511a9.997 9.997 0 0 0-3.88 1.585 16.926 16.926 0 0 0-1.243-.955 11.503 11.503 0 0 1 5.123-2.142Z" fill="#fff"/><g fill="#C4A28F"><path d="M17.879 15.16v-2.298c0-.09-.002-.178-.006-.267a9.693 9.693 0 0 1-2.061 3.08 11.466 11.466 0 0 1 2.067-.516Zm-.819-5.38c-.367 3.181-2.527 5.805-5.426 6.802a16.939 16.939 0 0 0-2.17-1.073c3.388-.22 6.138-3.093 6.138-6.693 0-.272-.016-.54-.046-.803a6.335 6.335 0 0 1 1.504 1.768Z"/><path d="M13.752 6.983a5.12 5.12 0 0 1 .337 1.833c0 2.88-2.372 5.216-5.297 5.216-2.485 0-4.57-1.684-5.142-3.956.35-.696.829-1.32 1.404-1.84a3.7 3.7 0 0 0-.046.58c0 2.058 1.694 3.726 3.784 3.726s3.783-1.668 3.783-3.726c0-.835-.279-1.606-.75-2.228.675.033 1.323.17 1.927.395ZM3.105 11.668a6.685 6.685 0 0 0 2.337 2.752 17.308 17.308 0 0 0-2.444-.173.74.74 0 0 1-.008-.009v-1.376c0-.408.04-.807.115-1.194Z"/><path fill-rule="evenodd" clip-rule="evenodd" d="M11.073 8.859c0 1.234-1.016 2.235-2.27 2.235s-2.27-1-2.27-2.235c0-1.235 1.016-2.236 2.27-2.236s2.27 1 2.27 2.236Zm-1.513 0a.751.751 0 0 1-.757.745.751.751 0 0 1-.757-.745c0-.412.34-.746.757-.746.418 0 .757.334.757.746Z"/></g><path fill-rule="evenodd" clip-rule="evenodd" d="M10.966 3.333H9.902C4.557 3.333.225 7.6.225 12.864v6.808c0 5.264 4.332 9.531 9.677 9.531h1.064c5.345 0 9.677-4.267 9.677-9.53v-6.809c0-5.264-4.332-9.53-9.677-9.53ZM9.902 4.485c-4.699 0-8.508 3.752-8.508 8.38v6.807c0 4.628 3.81 8.379 8.508 8.379h1.064c4.698 0 8.507-3.751 8.507-8.379v-6.808c0-4.627-3.809-8.379-8.507-8.379H9.902Z" fill="#fff"/><mask id="afa" maskUnits="userSpaceOnUse" x="21.339" y="3" width="59" height="28" fill="#000"><path fill="#fff" d="M21.339 3h59v28h-59z"/><path fill-rule="evenodd" clip-rule="evenodd" d="M24.71 7.736c0-1.537-.058-2.733-.175-3.59a.061.061 0 0 1 .01-.042.064.064 0 0 1 .063-.027c.217.03.513.046.888.046.185 0 .616-.02 1.295-.061A31.068 31.068 0 0 1 28.059 4c1.637 0 4.102 1.205 4.04 4.124-.063 2.918-2.617 4.333-5.817 3.913.017.478.159 1.888.23 2.377.04.275.161.679.268 1.031.083.274.156.518.175.646a.06.06 0 0 1-.01.043.064.064 0 0 1-.063.027c-.217-.03-.704-.077-1.582-.074-.38 0-.677.016-.889.047-.133.02-.118.012-.092-.001.016-.008.035-.018.03-.026a.06.06 0 0 1-.01-.043c.032-.221.077-.372.125-.532.129-.428.286-1.277.247-3.381V7.736Zm1.572-2.168v5.694c2.536.775 4.26-1.51 4.331-2.698.071-1.188.071-4.145-3.983-3.595-.232.124-.348.323-.348.6Z"/><path d="M44.483 15.04c-3.203 0-3.3-6.476-.107-6.476.671 0 1.263.413 1.774 1.237.035.057.099.09.166.086a.175.175 0 0 0 .156-.126l.395-1.364-.045-.053c-.655-.335-1.464-.502-2.428-.502-1.012 0-1.914.373-2.705 1.119-.792.746-1.188 1.703-1.188 2.872 0 1.252.33 2.25.991 2.996.667.74 1.56 1.11 2.679 1.11 1.056 0 1.92-.383 2.59-1.15a.186.186 0 0 0-.006-.249l-.208-.225a.098.098 0 0 0-.137-.008c-.564.49-1.207.734-1.927.734Zm7.607 0c-3.204 0-3.282-6.476-.106-6.476.671 0 1.262.413 1.773 1.237.035.057.1.09.167.086a.176.176 0 0 0 .156-.126l.395-1.364-.045-.053c-.655-.335-1.464-.502-2.428-.502-1.012 0-1.914.373-2.705 1.119-.792.746-1.188 1.703-1.188 2.872 0 1.252.33 2.25.991 2.996.667.74 1.56 1.11 2.678 1.11 1.057 0 1.92-.383 2.59-1.15a.186.186 0 0 0-.005-.249l-.208-.225a.098.098 0 0 0-.072-.032.1.1 0 0 0-.065.024c-.565.49-1.207.734-1.927.734Zm4.277-6.998c.122.722.183 1.792.183 3.21v1.277c-.006 1.418-.067 2.488-.183 3.21a.06.06 0 0 0 .01.044c.013.02.037.03.06.027.216-.031.495-.047.836-.047.348 0 .629.016.844.047a.064.064 0 0 0 .062-.027.061.061 0 0 0 .01-.043c-.116-.757-.175-1.827-.175-3.21v-.459c.131.006.253.02.366.044.113.024.215.047.304.07.09.024.175.066.259.124.089.053.16.094.214.124.06.023.125.079.196.167a3.5 3.5 0 0 0 .152.167c.036.03.086.103.152.22a9.852 9.852 0 0 1 .277.476l.143.265c.305.554.551 1 .74 1.338.257.46.767.71 1.3.7.106-.002.218-.003.334-.003.453 0 .77.018.955.053l.036-.053a14.81 14.81 0 0 1-1.187-1.445 18.397 18.397 0 0 0-1.098-1.41c-.357-.393-.658-.675-.902-.845-.238-.17-.565-.291-.982-.362v-.035c.196-.082.41-.376.643-.881.238-.505.443-.86.616-1.066.31-.376.646-.564 1.009-.564.45 0 .785.072 1.008.217a.152.152 0 0 0 .119.022.136.136 0 0 0 .099-.096l.327-1.196a.118.118 0 0 0-.084-.145 2.78 2.78 0 0 0-.72-.115c-.44 0-.877.15-1.312.45a4.02 4.02 0 0 0-1.062 1.083c-.113.17-.247.4-.402.687a9.8 9.8 0 0 1-.366.661 1.366 1.366 0 0 1-1.134.617v-.088c.024-1.498.082-2.568.175-3.21a.06.06 0 0 0-.01-.044.064.064 0 0 0-.062-.027 6.12 6.12 0 0 1-.844.047c-.342 0-.62-.016-.835-.047a.063.063 0 0 0-.062.027.06.06 0 0 0-.01.044Z"/><path fill-rule="evenodd" clip-rule="evenodd" d="M69.01 14.9h.07c.102.34.278.599.528.775.255.176.556.264.901.264.567 0 1.025-.158 1.373-.475a.18.18 0 0 0 .048-.189l-.047-.146c-.033-.106-.15-.16-.258-.134a1.265 1.265 0 0 1-.295.037c-.255 0-.434-.044-.535-.132-.203-.182-.304-.652-.304-1.41 0-.2.01-.693.027-1.48l.027-1.243c0-1.95-1.006-2.925-3.018-2.925-.947 0-1.838.346-2.674 1.037a.148.148 0 0 0-.05.15l.256 1.013a.18.18 0 0 0 .163.136.185.185 0 0 0 .168-.084c.62-.961 1.205-1.442 1.95-1.442.768 0 1.397.357 1.625 1.128.089.282.134.617.134 1.005 0 .117-.042.188-.125.211l-1.706.38c-1.306.285-3.035 1.063-3.035 2.616 0 .652.203 1.14.607 1.463.757.595 2.053.643 2.928.273.34-.14.753-.417 1.241-.828Zm-1.483-2.785 1.554-.414-.072 2.15a.54.54 0 0 1-.258.467c-.717.534-1.865 1.08-2.66.37-.554-.493-.447-1.34.026-1.859.268-.294.738-.532 1.41-.714Zm7.419.15a1.52 1.52 0 0 1 .134-.009 6.95 6.95 0 0 0-.598.652c-.304.365-.658.84-1.063 1.428-.39.569-.75 1.036-1.084 1.402a.042.042 0 0 0-.004.053c.01.015.03.022.047.018.153-.03.44-.046.863-.046a24.053 24.053 0 0 1 .205.001h.036c.553.008 1.088-.256 1.346-.739.18-.337.406-.77.68-1.297.137-.276.241-.476.313-.6.077-.123.181-.258.312-.405a1.2 1.2 0 0 1 .473-.317c.179-.07.4-.123.661-.159v.467c-.006 1.261-.067 2.269-.183 3.024a.065.065 0 0 0 .01.047c.013.02.036.03.06.029l.845-.05c.39 0 .672.014.85.044a.052.052 0 0 0 .057-.033.048.048 0 0 0 .002-.024c-.124-.722-.186-1.79-.186-3.204v-1.313c.006-1.405.067-2.469.184-3.19a.065.065 0 0 0-.01-.047.067.067 0 0 0-.06-.03l-.837.051c-.31 0-.708-.009-1.196-.026a32.299 32.299 0 0 0-1.036-.027c-.625 0-1.145.065-1.562.194-.41.123-.714.3-.91.529-.197.229-.33.458-.402.687-.072.23-.107.493-.107.793 0 .605.19 1.107.571 1.507.387.393.872.59 1.455.59h.134Zm2.321-3.031v2.38h-1.464c-.5 0-.869-.154-1.107-.46-.238-.305-.357-.698-.357-1.18 0-.47.119-.82.357-1.048.238-.23.672-.344 1.303-.344.417 0 .732.044.947.132.214.082.321.256.321.52ZM24.42 18.045c.046.319.084.702.113 1.149.006 1.55-.218 3.322-.67 5.313-.107.458-.41.717-.91.775-.334.036-.506.168-.518.397l-.096 2.142c-.006.14.105.26.247.264a.264.264 0 0 0 .264-.198c.362-1.413 1.066-2.12 2.111-2.12h3.143c.464 0 .872.15 1.223.45.357.3.607.605.75.916.117.25.207.499.268.745a.26.26 0 0 0 .25.198.245.245 0 0 0 .246-.256l-.104-2.159c0-.205-.151-.332-.455-.379-.488-.088-.732-.384-.732-.89v-2.757c.006-1.63.067-2.824.183-3.583a.067.067 0 0 0-.015-.053.07.07 0 0 0-.064-.024 6.027 6.027 0 0 1-.836.047h-3.49a6.03 6.03 0 0 1-.836-.047.064.064 0 0 0-.062.027.062.062 0 0 0-.01.043Zm.762 7.017c-.232.006-.348-.064-.348-.211 0-.035.038-.241.116-.617.083-.376.184-1.01.303-1.903.125-.9.223-1.95.295-3.155 0-.082.039-.179.116-.29.077-.118.208-.177.393-.177h1.297c.321 0 .524.065.607.194.083.13.125.361.125.696v4.582c0 .335-.045.567-.134.696-.083.124-.283.185-.598.185h-2.172Zm12.69-1.093a.085.085 0 0 1-.018.028c-.618.654-1.433.889-2.48.889-1.918 0-2.603-1.701-2.428-3.322h4.972c.22 0 .33-.103.33-.308 0-1.878-1.332-3.41-3.3-3.41-2.23 0-3.61 2.117-3.61 4.15 0 1.187.268 2.088.815 2.74.667.793 1.64 1.207 2.908 1.207 1.199 0 2.372-.513 3.09-1.468a.585.585 0 0 1 .115-.103l.004-.003c.017-.012.02-.033.007-.05a.052.052 0 0 0-.011-.013 1.24 1.24 0 0 1-.176-.162 1.183 1.183 0 0 1-.124-.213.042.042 0 0 0-.029-.023.047.047 0 0 0-.053.029l-.012.032Zm-1.507-3.128h-3.366c0-1.166.66-2.273 1.9-2.273 1.066 0 1.725 1.12 1.725 2.018 0 .17-.087.256-.26.256Zm5.096-1.374-.035-.053v-1.313c-.006-.123-.045-.185-.117-.185a5.45 5.45 0 0 1-1.434.056.066.066 0 0 0-.06.029.063.063 0 0 0-.01.045c.104.68.156 1.84.156 3.483v4.82c0 1.582-.052 2.776-.157 3.58a.06.06 0 0 0 .01.043c.014.02.038.03.063.027.209-.03.478-.046.808-.046.335 0 .61.015.825.046a.064.064 0 0 0 .063-.027.061.061 0 0 0 .01-.042c-.105-.85-.157-2.044-.157-3.581v-.802c.5.264 1.103.396 1.812.396 1.19 0 2.133-.402 2.83-1.207.696-.805 1.044-1.85 1.044-3.137 0-1.022-.288-1.903-.866-2.643-.571-.74-1.345-1.11-2.32-1.11-.923 0-1.745.54-2.465 1.621Zm-.035 4.943v-3.947c1.181-2.828 4.07-1.512 4.07 1.374 0 .406-.032.793-.098 1.163a4.42 4.42 0 0 1-.348 1.084c-.16.353-.408.632-.74.837-.328.206-.724.309-1.188.309-.667-.006-1.232-.28-1.697-.82Zm15.349 1.407.85-.05a74.461 74.461 0 0 0 2.616.035c1.72 0 2.519-.616 2.58-2.238 0-1.148-.947-1.679-1.83-1.93V21.6c.761-.115 1.57-.885 1.57-1.665 0-.623-.204-1.102-.615-1.436-.41-.341-1.196-.511-2.357-.511-.232 0-.553.006-.964.017-.41.012-.744.018-1 .018-.389 0-.672-.015-.85-.045a.051.051 0 0 0-.057.034.048.048 0 0 0-.002.023c.136.879.204 1.959.204 3.24v1.242c0 1.332-.068 2.411-.203 3.238a.054.054 0 0 0 .002.026.056.056 0 0 0 .056.037Zm2.645-4.579h-1.045V19.22c0-.282.048-.455.143-.52.101-.064.401-.097.901-.097.548 0 .953.091 1.215.274.261.176.392.528.392 1.057 0 .376-.14.687-.42.934-.279.247-.675.37-1.187.37Zm-1.045 3.137v-2.52h1.214c.512 0 .914.161 1.205.485.292.323.438.725.438 1.207 0 1.092-.604 1.639-1.813 1.639-.44 0-.726-.05-.856-.15-.126-.106-.188-.326-.188-.661Z"/><path d="M64.338 18.046c.123.722.184 1.792.184 3.21v1.277c-.006 1.418-.067 2.488-.184 3.21a.06.06 0 0 0 .01.044c.014.02.037.03.062.027.215-.031.493-.047.835-.047.347 0 .629.016.844.047a.063.063 0 0 0 .062-.027.06.06 0 0 0 .01-.043c-.123-.757-.184-1.827-.184-3.21v-.538h4.026v.537c-.006 1.414-.067 2.482-.182 3.204a.066.066 0 0 0 .015.054.07.07 0 0 0 .063.023 5.86 5.86 0 0 1 .827-.047c.348 0 .63.016.845.047a.064.064 0 0 0 .061-.027.061.061 0 0 0 .01-.043c-.116-.757-.175-1.827-.175-3.21v-1.278c.024-1.498.082-2.568.175-3.21a.06.06 0 0 0-.01-.044.064.064 0 0 0-.062-.027 6.031 6.031 0 0 1-.835.047c-.342 0-.621-.016-.837-.047a.07.07 0 0 0-.062.023.066.066 0 0 0-.015.054c.121.722.182 1.79.182 3.204v.035h-4.026v-.035c.03-1.498.09-2.568.184-3.21a.06.06 0 0 0-.01-.044.064.064 0 0 0-.062-.027 6.12 6.12 0 0 1-.844.047 6.02 6.02 0 0 1-.836-.047.063.063 0 0 0-.06.027.06.06 0 0 0-.01.044Z"/><path fill-rule="evenodd" clip-rule="evenodd" d="M75.238 22.269a1.47 1.47 0 0 1 .134-.009 6.948 6.948 0 0 0-.598.652c-.304.364-.658.84-1.063 1.428-.39.568-.75 1.036-1.084 1.402a.043.043 0 0 0-.004.053c.01.015.029.022.047.018.152-.03.44-.046.863-.046.084 0 .164 0 .241.002.553.006 1.089-.257 1.346-.74.18-.337.406-.77.68-1.297.137-.276.242-.476.313-.6.077-.123.181-.258.312-.405.137-.147.295-.252.474-.317.178-.07.398-.123.66-.159v.467c-.006 1.261-.067 2.269-.183 3.024a.065.065 0 0 0 .01.046c.013.02.036.031.06.03l.845-.05c.39 0 .673.014.85.044a.05.05 0 0 0 .06-.047v-.005l-.001-.003v-.002c-.124-.722-.186-1.79-.186-3.204v-1.313c.006-1.405.067-2.469.184-3.19a.065.065 0 0 0-.01-.048.067.067 0 0 0-.06-.029l-.837.05c-.31 0-.708-.008-1.196-.026a32.369 32.369 0 0 0-1.036-.026c-.625 0-1.145.065-1.562.194-.41.123-.714.3-.91.529-.197.229-.33.458-.402.687a2.647 2.647 0 0 0-.107.793c0 .605.19 1.107.571 1.507.387.393.872.59 1.455.59h.134Zm2.321-3.031v2.379h-1.464c-.5 0-.869-.153-1.107-.458-.238-.306-.357-.7-.357-1.181 0-.47.119-.82.357-1.049.238-.229.673-.343 1.303-.343.417 0 .733.044.947.132.214.082.321.256.321.52Zm-22.651 4.763a.086.086 0 0 1-.017.028c-.618.655-1.434.89-2.48.89-1.919 0-2.603-1.702-2.429-3.323h4.973c.22 0 .33-.102.33-.308 0-1.877-1.332-3.41-3.3-3.41-2.23 0-3.61 2.118-3.61 4.15 0 1.187.268 2.088.815 2.74.667.793 1.64 1.208 2.908 1.208 1.199 0 2.384-.54 3.102-1.495a.7.7 0 0 1 .085-.065l.02-.014c.018-.012.02-.035.008-.053a.05.05 0 0 0-.005-.006v-.001l-.002-.001-.002-.002a1.627 1.627 0 0 1-.174-.172 1.417 1.417 0 0 1-.126-.205.043.043 0 0 0-.03-.022.048.048 0 0 0-.054.03l-.012.031Zm-1.507-3.127h-3.365c0-1.167.66-2.274 1.9-2.274 1.066 0 1.724 1.12 1.724 2.018 0 .17-.086.256-.258.256Z"/><path d="M33.676 8.101c-.423 0-.713-.016-.87-.047 1.93 4.218 3.008 6.618 3.236 7.202-.266.626-.477.917-.973 1.546.566-.07 1.061.07 1.415.21.059-.187.1-.337.14-.483.148-.541.14-.832 1.11-2.976 1.235-2.722 2.092-4.555 2.569-5.5-.109.032-.347.048-.716.048-.325 0-.542-.016-.65-.047-.71 2.186-1.44 4.059-2.188 5.618h-.032c-1.117-2.637-1.86-4.51-2.228-5.618-.14.031-.412.047-.813.047Z"/></mask><path fill-rule="evenodd" clip-rule="evenodd" d="M24.71 7.736c0-1.537-.058-2.733-.175-3.59a.061.061 0 0 1 .01-.042.064.064 0 0 1 .063-.027c.217.03.513.046.888.046.185 0 .616-.02 1.295-.061A31.068 31.068 0 0 1 28.059 4c1.637 0 4.102 1.205 4.04 4.124-.063 2.918-2.617 4.333-5.817 3.913.017.478.159 1.888.23 2.377.04.275.161.679.268 1.031.083.274.156.518.175.646a.06.06 0 0 1-.01.043.064.064 0 0 1-.063.027c-.217-.03-.704-.077-1.582-.074-.38 0-.677.016-.889.047-.133.02-.118.012-.092-.001.016-.008.035-.018.03-.026a.06.06 0 0 1-.01-.043c.032-.221.077-.372.125-.532.129-.428.286-1.277.247-3.381V7.736Zm1.572-2.168v5.694c2.536.775 4.26-1.51 4.331-2.698.071-1.188.071-4.145-3.983-3.595-.232.124-.348.323-.348.6Z" fill="#fff"/><path d="M44.483 15.04c-3.203 0-3.3-6.476-.107-6.476.671 0 1.263.413 1.774 1.237.035.057.099.09.166.086a.175.175 0 0 0 .156-.126l.395-1.364-.045-.053c-.655-.335-1.464-.502-2.428-.502-1.012 0-1.914.373-2.705 1.119-.792.746-1.188 1.703-1.188 2.872 0 1.252.33 2.25.991 2.996.667.74 1.56 1.11 2.679 1.11 1.056 0 1.92-.383 2.59-1.15a.186.186 0 0 0-.006-.249l-.208-.225a.098.098 0 0 0-.137-.008c-.564.49-1.207.734-1.927.734Zm7.607 0c-3.204 0-3.282-6.476-.106-6.476.671 0 1.262.413 1.773 1.237.035.057.1.09.167.086a.176.176 0 0 0 .156-.126l.395-1.364-.045-.053c-.655-.335-1.464-.502-2.428-.502-1.012 0-1.914.373-2.705 1.119-.792.746-1.188 1.703-1.188 2.872 0 1.252.33 2.25.991 2.996.667.74 1.56 1.11 2.678 1.11 1.057 0 1.92-.383 2.59-1.15a.186.186 0 0 0-.005-.249l-.208-.225a.098.098 0 0 0-.072-.032.1.1 0 0 0-.065.024c-.565.49-1.207.734-1.927.734Zm4.277-6.998c.122.722.183 1.792.183 3.21v1.277c-.006 1.418-.067 2.488-.183 3.21a.06.06 0 0 0 .01.044c.013.02.037.03.06.027.216-.031.495-.047.836-.047.348 0 .629.016.844.047a.064.064 0 0 0 .062-.027.061.061 0 0 0 .01-.043c-.116-.757-.175-1.827-.175-3.21v-.459c.131.006.253.02.366.044.113.024.215.047.304.07.09.024.175.066.259.124.089.053.16.094.214.124.06.023.125.079.196.167a3.5 3.5 0 0 0 .152.167c.036.03.086.103.152.22a9.852 9.852 0 0 1 .277.476l.143.265c.305.554.551 1 .74 1.338.257.46.767.71 1.3.7.106-.002.218-.003.334-.003.453 0 .77.018.955.053l.036-.053a14.81 14.81 0 0 1-1.187-1.445 18.397 18.397 0 0 0-1.098-1.41c-.357-.393-.658-.675-.902-.845-.238-.17-.565-.291-.982-.362v-.035c.196-.082.41-.376.643-.881.238-.505.443-.86.616-1.066.31-.376.646-.564 1.009-.564.45 0 .785.072 1.008.217a.152.152 0 0 0 .119.022.136.136 0 0 0 .099-.096l.327-1.196a.118.118 0 0 0-.084-.145 2.78 2.78 0 0 0-.72-.115c-.44 0-.877.15-1.312.45a4.02 4.02 0 0 0-1.062 1.083c-.113.17-.247.4-.402.687a9.8 9.8 0 0 1-.366.661 1.366 1.366 0 0 1-1.134.617v-.088c.024-1.498.082-2.568.175-3.21a.06.06 0 0 0-.01-.044.064.064 0 0 0-.062-.027 6.12 6.12 0 0 1-.844.047c-.342 0-.62-.016-.835-.047a.063.063 0 0 0-.062.027.06.06 0 0 0-.01.044Z" fill="#fff"/><path fill-rule="evenodd" clip-rule="evenodd" d="M69.01 14.9h.07c.102.34.278.599.528.775.255.176.556.264.901.264.567 0 1.025-.158 1.373-.475a.18.18 0 0 0 .048-.189l-.047-.146c-.033-.106-.15-.16-.258-.134a1.265 1.265 0 0 1-.295.037c-.255 0-.434-.044-.535-.132-.203-.182-.304-.652-.304-1.41 0-.2.01-.693.027-1.48l.027-1.243c0-1.95-1.006-2.925-3.018-2.925-.947 0-1.838.346-2.674 1.037a.148.148 0 0 0-.05.15l.256 1.013a.18.18 0 0 0 .163.136.185.185 0 0 0 .168-.084c.62-.961 1.205-1.442 1.95-1.442.768 0 1.397.357 1.625 1.128.089.282.134.617.134 1.005 0 .117-.042.188-.125.211l-1.706.38c-1.306.285-3.035 1.063-3.035 2.616 0 .652.203 1.14.607 1.463.757.595 2.053.643 2.928.273.34-.14.753-.417 1.241-.828Zm-1.483-2.785 1.554-.414-.072 2.15a.54.54 0 0 1-.258.467c-.717.534-1.865 1.08-2.66.37-.554-.493-.447-1.34.026-1.859.268-.294.738-.532 1.41-.714Zm7.419.15a1.52 1.52 0 0 1 .134-.009 6.95 6.95 0 0 0-.598.652c-.304.365-.658.84-1.063 1.428-.39.569-.75 1.036-1.084 1.402a.042.042 0 0 0-.004.053c.01.015.03.022.047.018.153-.03.44-.046.863-.046a24.053 24.053 0 0 1 .205.001h.036c.553.008 1.088-.256 1.346-.739.18-.337.406-.77.68-1.297.137-.276.241-.476.313-.6.077-.123.181-.258.312-.405a1.2 1.2 0 0 1 .473-.317c.179-.07.4-.123.661-.159v.467c-.006 1.261-.067 2.269-.183 3.024a.065.065 0 0 0 .01.047c.013.02.036.03.06.029l.845-.05c.39 0 .672.014.85.044a.052.052 0 0 0 .057-.033.048.048 0 0 0 .002-.024c-.124-.722-.186-1.79-.186-3.204v-1.313c.006-1.405.067-2.469.184-3.19a.065.065 0 0 0-.01-.047.067.067 0 0 0-.06-.03l-.837.051c-.31 0-.708-.009-1.196-.026a32.299 32.299 0 0 0-1.036-.027c-.625 0-1.145.065-1.562.194-.41.123-.714.3-.91.529-.197.229-.33.458-.402.687-.072.23-.107.493-.107.793 0 .605.19 1.107.571 1.507.387.393.872.59 1.455.59h.134Zm2.321-3.031v2.38h-1.464c-.5 0-.869-.154-1.107-.46-.238-.305-.357-.698-.357-1.18 0-.47.119-.82.357-1.048.238-.23.672-.344 1.303-.344.417 0 .732.044.947.132.214.082.321.256.321.52ZM24.42 18.045c.046.319.084.702.113 1.149.006 1.55-.218 3.322-.67 5.313-.107.458-.41.717-.91.775-.334.036-.506.168-.518.397l-.096 2.142c-.006.14.105.26.247.264a.264.264 0 0 0 .264-.198c.362-1.413 1.066-2.12 2.111-2.12h3.143c.464 0 .872.15 1.223.45.357.3.607.605.75.916.117.25.207.499.268.745a.26.26 0 0 0 .25.198.245.245 0 0 0 .246-.256l-.104-2.159c0-.205-.151-.332-.455-.379-.488-.088-.732-.384-.732-.89v-2.757c.006-1.63.067-2.824.183-3.583a.067.067 0 0 0-.015-.053.07.07 0 0 0-.064-.024 6.027 6.027 0 0 1-.836.047h-3.49a6.03 6.03 0 0 1-.836-.047.064.064 0 0 0-.062.027.062.062 0 0 0-.01.043Zm.762 7.017c-.232.006-.348-.064-.348-.211 0-.035.038-.241.116-.617.083-.376.184-1.01.303-1.903.125-.9.223-1.95.295-3.155 0-.082.039-.179.116-.29.077-.118.208-.177.393-.177h1.297c.321 0 .524.065.607.194.083.13.125.361.125.696v4.582c0 .335-.045.567-.134.696-.083.124-.283.185-.598.185h-2.172Zm12.69-1.093a.085.085 0 0 1-.018.028c-.618.654-1.433.889-2.48.889-1.918 0-2.603-1.701-2.428-3.322h4.972c.22 0 .33-.103.33-.308 0-1.878-1.332-3.41-3.3-3.41-2.23 0-3.61 2.117-3.61 4.15 0 1.187.268 2.088.815 2.74.667.793 1.64 1.207 2.908 1.207 1.199 0 2.372-.513 3.09-1.468a.585.585 0 0 1 .115-.103l.004-.003c.017-.012.02-.033.007-.05a.052.052 0 0 0-.011-.013 1.24 1.24 0 0 1-.176-.162 1.183 1.183 0 0 1-.124-.213.042.042 0 0 0-.029-.023.047.047 0 0 0-.053.029l-.012.032Zm-1.507-3.128h-3.366c0-1.166.66-2.273 1.9-2.273 1.066 0 1.725 1.12 1.725 2.018 0 .17-.087.256-.26.256Zm5.096-1.374-.035-.053v-1.313c-.006-.123-.045-.185-.117-.185a5.45 5.45 0 0 1-1.434.056.066.066 0 0 0-.06.029.063.063 0 0 0-.01.045c.104.68.156 1.84.156 3.483v4.82c0 1.582-.052 2.776-.157 3.58a.06.06 0 0 0 .01.043c.014.02.038.03.063.027.209-.03.478-.046.808-.046.335 0 .61.015.825.046a.064.064 0 0 0 .063-.027.061.061 0 0 0 .01-.042c-.105-.85-.157-2.044-.157-3.581v-.802c.5.264 1.103.396 1.812.396 1.19 0 2.133-.402 2.83-1.207.696-.805 1.044-1.85 1.044-3.137 0-1.022-.288-1.903-.866-2.643-.571-.74-1.345-1.11-2.32-1.11-.923 0-1.745.54-2.465 1.621Zm-.035 4.943v-3.947c1.181-2.828 4.07-1.512 4.07 1.374 0 .406-.032.793-.098 1.163a4.42 4.42 0 0 1-.348 1.084c-.16.353-.408.632-.74.837-.328.206-.724.309-1.188.309-.667-.006-1.232-.28-1.697-.82Zm15.349 1.407.85-.05a74.461 74.461 0 0 0 2.616.035c1.72 0 2.519-.616 2.58-2.238 0-1.148-.947-1.679-1.83-1.93V21.6c.761-.115 1.57-.885 1.57-1.665 0-.623-.204-1.102-.615-1.436-.41-.341-1.196-.511-2.357-.511-.232 0-.553.006-.964.017-.41.012-.744.018-1 .018-.389 0-.672-.015-.85-.045a.051.051 0 0 0-.057.034.048.048 0 0 0-.002.023c.136.879.204 1.959.204 3.24v1.242c0 1.332-.068 2.411-.203 3.238a.054.054 0 0 0 .002.026.056.056 0 0 0 .056.037Zm2.645-4.579h-1.045V19.22c0-.282.048-.455.143-.52.101-.064.401-.097.901-.097.548 0 .953.091 1.215.274.261.176.392.528.392 1.057 0 .376-.14.687-.42.934-.279.247-.675.37-1.187.37Zm-1.045 3.137v-2.52h1.214c.512 0 .914.161 1.205.485.292.323.438.725.438 1.207 0 1.092-.604 1.639-1.813 1.639-.44 0-.726-.05-.856-.15-.126-.106-.188-.326-.188-.661Z" fill="#fff"/><path d="M64.338 18.046c.123.722.184 1.792.184 3.21v1.277c-.006 1.418-.067 2.488-.184 3.21a.06.06 0 0 0 .01.044c.014.02.037.03.062.027.215-.031.493-.047.835-.047.347 0 .629.016.844.047a.063.063 0 0 0 .062-.027.06.06 0 0 0 .01-.043c-.123-.757-.184-1.827-.184-3.21v-.538h4.026v.537c-.006 1.414-.067 2.482-.182 3.204a.066.066 0 0 0 .015.054.07.07 0 0 0 .063.023 5.86 5.86 0 0 1 .827-.047c.348 0 .63.016.845.047a.064.064 0 0 0 .061-.027.061.061 0 0 0 .01-.043c-.116-.757-.175-1.827-.175-3.21v-1.278c.024-1.498.082-2.568.175-3.21a.06.06 0 0 0-.01-.044.064.064 0 0 0-.062-.027 6.031 6.031 0 0 1-.835.047c-.342 0-.621-.016-.837-.047a.07.07 0 0 0-.062.023.066.066 0 0 0-.015.054c.121.722.182 1.79.182 3.204v.035h-4.026v-.035c.03-1.498.09-2.568.184-3.21a.06.06 0 0 0-.01-.044.064.064 0 0 0-.062-.027 6.12 6.12 0 0 1-.844.047 6.02 6.02 0 0 1-.836-.047.063.063 0 0 0-.06.027.06.06 0 0 0-.01.044Z" fill="#fff"/><path fill-rule="evenodd" clip-rule="evenodd" d="M75.238 22.269a1.47 1.47 0 0 1 .134-.009 6.948 6.948 0 0 0-.598.652c-.304.364-.658.84-1.063 1.428-.39.568-.75 1.036-1.084 1.402a.043.043 0 0 0-.004.053c.01.015.029.022.047.018.152-.03.44-.046.863-.046.084 0 .164 0 .241.002.553.006 1.089-.257 1.346-.74.18-.337.406-.77.68-1.297.137-.276.242-.476.313-.6.077-.123.181-.258.312-.405.137-.147.295-.252.474-.317.178-.07.398-.123.66-.159v.467c-.006 1.261-.067 2.269-.183 3.024a.065.065 0 0 0 .01.046c.013.02.036.031.06.03l.845-.05c.39 0 .673.014.85.044a.05.05 0 0 0 .06-.047v-.005l-.001-.003v-.002c-.124-.722-.186-1.79-.186-3.204v-1.313c.006-1.405.067-2.469.184-3.19a.065.065 0 0 0-.01-.048.067.067 0 0 0-.06-.029l-.837.05c-.31 0-.708-.008-1.196-.026a32.369 32.369 0 0 0-1.036-.026c-.625 0-1.145.065-1.562.194-.41.123-.714.3-.91.529-.197.229-.33.458-.402.687a2.647 2.647 0 0 0-.107.793c0 .605.19 1.107.571 1.507.387.393.872.59 1.455.59h.134Zm2.321-3.031v2.379h-1.464c-.5 0-.869-.153-1.107-.458-.238-.306-.357-.7-.357-1.181 0-.47.119-.82.357-1.049.238-.229.673-.343 1.303-.343.417 0 .733.044.947.132.214.082.321.256.321.52Zm-22.651 4.763a.086.086 0 0 1-.017.028c-.618.655-1.434.89-2.48.89-1.919 0-2.603-1.702-2.429-3.323h4.973c.22 0 .33-.102.33-.308 0-1.877-1.332-3.41-3.3-3.41-2.23 0-3.61 2.118-3.61 4.15 0 1.187.268 2.088.815 2.74.667.793 1.64 1.208 2.908 1.208 1.199 0 2.384-.54 3.102-1.495a.7.7 0 0 1 .085-.065l.02-.014c.018-.012.02-.035.008-.053a.05.05 0 0 0-.005-.006v-.001l-.002-.001-.002-.002a1.627 1.627 0 0 1-.174-.172 1.417 1.417 0 0 1-.126-.205.043.043 0 0 0-.03-.022.048.048 0 0 0-.054.03l-.012.031Zm-1.507-3.127h-3.365c0-1.167.66-2.274 1.9-2.274 1.066 0 1.724 1.12 1.724 2.018 0 .17-.086.256-.258.256Z" fill="#fff"/><path d="M33.676 8.101c-.423 0-.713-.016-.87-.047 1.93 4.218 3.008 6.618 3.236 7.202-.266.626-.477.917-.973 1.546.566-.07 1.061.07 1.415.21.059-.187.1-.337.14-.483.148-.541.14-.832 1.11-2.976 1.235-2.722 2.092-4.555 2.569-5.5-.109.032-.347.048-.716.048-.325 0-.542-.016-.65-.047-.71 2.186-1.44 4.059-2.188 5.618h-.032c-1.117-2.637-1.86-4.51-2.228-5.618-.14.031-.412.047-.813.047Z" fill="#fff"/><path clip-rule="evenodd" d="M24.71 7.736c0-1.537-.058-2.733-.175-3.59a.061.061 0 0 1 .01-.042.064.064 0 0 1 .063-.027c.217.03.513.046.888.046.185 0 .616-.02 1.295-.061A31.068 31.068 0 0 1 28.059 4c1.637 0 4.102 1.205 4.04 4.124-.063 2.918-2.617 4.333-5.817 3.913.017.478.159 1.888.23 2.377.04.275.161.679.268 1.031.083.274.156.518.175.646a.06.06 0 0 1-.01.043.064.064 0 0 1-.063.027c-.217-.03-.704-.077-1.582-.074-.38 0-.677.016-.889.047-.133.02-.118.012-.092-.001.016-.008.035-.018.03-.026a.06.06 0 0 1-.01-.043c.032-.221.077-.372.125-.532.129-.428.286-1.277.247-3.381V7.736Zm1.572-2.168v5.694c2.536.775 4.26-1.51 4.331-2.698.071-1.188.071-4.145-3.983-3.595-.232.124-.348.323-.348.6Z" stroke="#466330" stroke-width=".361" stroke-linejoin="round" mask="url(#afa)"/><path d="M44.483 15.04c-3.203 0-3.3-6.476-.107-6.476.671 0 1.263.413 1.774 1.237.035.057.099.09.166.086a.175.175 0 0 0 .156-.126l.395-1.364-.045-.053c-.655-.335-1.464-.502-2.428-.502-1.012 0-1.914.373-2.705 1.119-.792.746-1.188 1.703-1.188 2.872 0 1.252.33 2.25.991 2.996.667.74 1.56 1.11 2.679 1.11 1.056 0 1.92-.383 2.59-1.15a.186.186 0 0 0-.006-.249l-.208-.225a.098.098 0 0 0-.137-.008c-.564.49-1.207.734-1.927.734Zm7.607 0c-3.204 0-3.282-6.476-.106-6.476.671 0 1.262.413 1.773 1.237.035.057.1.09.167.086a.176.176 0 0 0 .156-.126l.395-1.364-.045-.053c-.655-.335-1.464-.502-2.428-.502-1.012 0-1.914.373-2.705 1.119-.792.746-1.188 1.703-1.188 2.872 0 1.252.33 2.25.991 2.996.667.74 1.56 1.11 2.678 1.11 1.057 0 1.92-.383 2.59-1.15a.186.186 0 0 0-.005-.249l-.208-.225a.098.098 0 0 0-.072-.032.1.1 0 0 0-.065.024c-.565.49-1.207.734-1.927.734Zm4.277-6.998c.122.722.183 1.792.183 3.21v1.277c-.006 1.418-.067 2.488-.183 3.21a.06.06 0 0 0 .01.044c.013.02.037.03.06.027.216-.031.495-.047.836-.047.348 0 .629.016.844.047a.064.064 0 0 0 .062-.027.061.061 0 0 0 .01-.043c-.116-.757-.175-1.827-.175-3.21v-.459c.131.006.253.02.366.044.113.024.215.047.304.07.09.024.175.066.259.124.089.053.16.094.214.124.06.023.125.079.196.167a3.5 3.5 0 0 0 .152.167c.036.03.086.103.152.22a9.852 9.852 0 0 1 .277.476l.143.265c.305.554.551 1 .74 1.338.257.46.767.71 1.3.7.106-.002.218-.003.334-.003.453 0 .77.018.955.053l.036-.053a14.81 14.81 0 0 1-1.187-1.445 18.397 18.397 0 0 0-1.098-1.41c-.357-.393-.658-.675-.902-.845-.238-.17-.565-.291-.982-.362v-.035c.196-.082.41-.376.643-.881.238-.505.443-.86.616-1.066.31-.376.646-.564 1.009-.564.45 0 .785.072 1.008.217a.152.152 0 0 0 .119.022.136.136 0 0 0 .099-.096l.327-1.196a.118.118 0 0 0-.084-.145 2.78 2.78 0 0 0-.72-.115c-.44 0-.877.15-1.312.45a4.02 4.02 0 0 0-1.062 1.083c-.113.17-.247.4-.402.687a9.8 9.8 0 0 1-.366.661 1.366 1.366 0 0 1-1.134.617v-.088c.024-1.498.082-2.568.175-3.21a.06.06 0 0 0-.01-.044.064.064 0 0 0-.062-.027 6.12 6.12 0 0 1-.844.047c-.342 0-.62-.016-.835-.047a.063.063 0 0 0-.062.027.06.06 0 0 0-.01.044Z" stroke="#466330" stroke-width=".361" stroke-linejoin="round" mask="url(#afa)"/><path clip-rule="evenodd" d="M69.01 14.9h.07c.102.34.278.599.528.775.255.176.556.264.901.264.567 0 1.025-.158 1.373-.475a.18.18 0 0 0 .048-.189l-.047-.146c-.033-.106-.15-.16-.258-.134a1.265 1.265 0 0 1-.295.037c-.255 0-.434-.044-.535-.132-.203-.182-.304-.652-.304-1.41 0-.2.01-.693.027-1.48l.027-1.243c0-1.95-1.006-2.925-3.018-2.925-.947 0-1.838.346-2.674 1.037a.148.148 0 0 0-.05.15l.256 1.013a.18.18 0 0 0 .163.136.185.185 0 0 0 .168-.084c.62-.961 1.205-1.442 1.95-1.442.768 0 1.397.357 1.625 1.128.089.282.134.617.134 1.005 0 .117-.042.188-.125.211l-1.706.38c-1.306.285-3.035 1.063-3.035 2.616 0 .652.203 1.14.607 1.463.757.595 2.053.643 2.928.273.34-.14.753-.417 1.241-.828Zm-1.483-2.785 1.554-.414-.072 2.15a.54.54 0 0 1-.258.467c-.717.534-1.865 1.08-2.66.37-.554-.493-.447-1.34.026-1.859.268-.294.738-.532 1.41-.714Zm7.419.15a1.52 1.52 0 0 1 .134-.009 6.95 6.95 0 0 0-.598.652c-.304.365-.658.84-1.063 1.428-.39.569-.75 1.036-1.084 1.402a.042.042 0 0 0-.004.053c.01.015.03.022.047.018.153-.03.44-.046.863-.046a24.053 24.053 0 0 1 .205.001h.036c.553.008 1.088-.256 1.346-.739.18-.337.406-.77.68-1.297.137-.276.241-.476.313-.6.077-.123.181-.258.312-.405a1.2 1.2 0 0 1 .473-.317c.179-.07.4-.123.661-.159v.467c-.006 1.261-.067 2.269-.183 3.024a.065.065 0 0 0 .01.047c.013.02.036.03.06.029l.845-.05c.39 0 .672.014.85.044a.052.052 0 0 0 .057-.033.048.048 0 0 0 .002-.024c-.124-.722-.186-1.79-.186-3.204v-1.313c.006-1.405.067-2.469.184-3.19a.065.065 0 0 0-.01-.047.067.067 0 0 0-.06-.03l-.837.051c-.31 0-.708-.009-1.196-.026a32.299 32.299 0 0 0-1.036-.027c-.625 0-1.145.065-1.562.194-.41.123-.714.3-.91.529-.197.229-.33.458-.402.687-.072.23-.107.493-.107.793 0 .605.19 1.107.571 1.507.387.393.872.59 1.455.59h.134Zm2.321-3.031v2.38h-1.464c-.5 0-.869-.154-1.107-.46-.238-.305-.357-.698-.357-1.18 0-.47.119-.82.357-1.048.238-.23.672-.344 1.303-.344.417 0 .732.044.947.132.214.082.321.256.321.52ZM24.42 18.045c.046.319.084.702.113 1.149.006 1.55-.218 3.322-.67 5.313-.107.458-.41.717-.91.775-.334.036-.506.168-.518.397l-.096 2.142c-.006.14.105.26.247.264a.264.264 0 0 0 .264-.198c.362-1.413 1.066-2.12 2.111-2.12h3.143c.464 0 .872.15 1.223.45.357.3.607.605.75.916.117.25.207.499.268.745a.26.26 0 0 0 .25.198.245.245 0 0 0 .246-.256l-.104-2.159c0-.205-.151-.332-.455-.379-.488-.088-.732-.384-.732-.89v-2.757c.006-1.63.067-2.824.183-3.583a.067.067 0 0 0-.015-.053.07.07 0 0 0-.064-.024 6.027 6.027 0 0 1-.836.047h-3.49a6.03 6.03 0 0 1-.836-.047.064.064 0 0 0-.062.027.062.062 0 0 0-.01.043Zm.762 7.017c-.232.006-.348-.064-.348-.211 0-.035.038-.241.116-.617.083-.376.184-1.01.303-1.903.125-.9.223-1.95.295-3.155 0-.082.039-.179.116-.29.077-.118.208-.177.393-.177h1.297c.321 0 .524.065.607.194.083.13.125.361.125.696v4.582c0 .335-.045.567-.134.696-.083.124-.283.185-.598.185h-2.172Zm12.69-1.093a.085.085 0 0 1-.018.028c-.618.654-1.433.889-2.48.889-1.918 0-2.603-1.701-2.428-3.322h4.972c.22 0 .33-.103.33-.308 0-1.878-1.332-3.41-3.3-3.41-2.23 0-3.61 2.117-3.61 4.15 0 1.187.268 2.088.815 2.74.667.793 1.64 1.207 2.908 1.207 1.199 0 2.372-.513 3.09-1.468a.585.585 0 0 1 .115-.103l.004-.003c.017-.012.02-.033.007-.05a.052.052 0 0 0-.011-.013 1.24 1.24 0 0 1-.176-.162 1.183 1.183 0 0 1-.124-.213.042.042 0 0 0-.029-.023.047.047 0 0 0-.053.029l-.012.032Zm-1.507-3.128h-3.366c0-1.166.66-2.273 1.9-2.273 1.066 0 1.725 1.12 1.725 2.018 0 .17-.087.256-.26.256Zm5.096-1.374-.035-.053v-1.313c-.006-.123-.045-.185-.117-.185a5.45 5.45 0 0 1-1.434.056.066.066 0 0 0-.06.029.063.063 0 0 0-.01.045c.104.68.156 1.84.156 3.483v4.82c0 1.582-.052 2.776-.157 3.58a.06.06 0 0 0 .01.043c.014.02.038.03.063.027.209-.03.478-.046.808-.046.335 0 .61.015.825.046a.064.064 0 0 0 .063-.027.061.061 0 0 0 .01-.042c-.105-.85-.157-2.044-.157-3.581v-.802c.5.264 1.103.396 1.812.396 1.19 0 2.133-.402 2.83-1.207.696-.805 1.044-1.85 1.044-3.137 0-1.022-.288-1.903-.866-2.643-.571-.74-1.345-1.11-2.32-1.11-.923 0-1.745.54-2.465 1.621Zm-.035 4.943v-3.947c1.181-2.828 4.07-1.512 4.07 1.374 0 .406-.032.793-.098 1.163a4.42 4.42 0 0 1-.348 1.084c-.16.353-.408.632-.74.837-.328.206-.724.309-1.188.309-.667-.006-1.232-.28-1.697-.82Zm15.349 1.407.85-.05a74.461 74.461 0 0 0 2.616.035c1.72 0 2.519-.616 2.58-2.238 0-1.148-.947-1.679-1.83-1.93V21.6c.761-.115 1.57-.885 1.57-1.665 0-.623-.204-1.102-.615-1.436-.41-.341-1.196-.511-2.357-.511-.232 0-.553.006-.964.017-.41.012-.744.018-1 .018-.389 0-.672-.015-.85-.045a.051.051 0 0 0-.057.034.048.048 0 0 0-.002.023c.136.879.204 1.959.204 3.24v1.242c0 1.332-.068 2.411-.203 3.238a.054.054 0 0 0 .002.026.056.056 0 0 0 .056.037Zm2.645-4.579h-1.045V19.22c0-.282.048-.455.143-.52.101-.064.401-.097.901-.097.548 0 .953.091 1.215.274.261.176.392.528.392 1.057 0 .376-.14.687-.42.934-.279.247-.675.37-1.187.37Zm-1.045 3.137v-2.52h1.214c.512 0 .914.161 1.205.485.292.323.438.725.438 1.207 0 1.092-.604 1.639-1.813 1.639-.44 0-.726-.05-.856-.15-.126-.106-.188-.326-.188-.661Z" stroke="#466330" stroke-width=".361" stroke-linejoin="round" mask="url(#afa)"/><path d="M64.338 18.046c.123.722.184 1.792.184 3.21v1.277c-.006 1.418-.067 2.488-.184 3.21a.06.06 0 0 0 .01.044c.014.02.037.03.062.027.215-.031.493-.047.835-.047.347 0 .629.016.844.047a.063.063 0 0 0 .062-.027.06.06 0 0 0 .01-.043c-.123-.757-.184-1.827-.184-3.21v-.538h4.026v.537c-.006 1.414-.067 2.482-.182 3.204a.066.066 0 0 0 .015.054.07.07 0 0 0 .063.023 5.86 5.86 0 0 1 .827-.047c.348 0 .63.016.845.047a.064.064 0 0 0 .061-.027.061.061 0 0 0 .01-.043c-.116-.757-.175-1.827-.175-3.21v-1.278c.024-1.498.082-2.568.175-3.21a.06.06 0 0 0-.01-.044.064.064 0 0 0-.062-.027 6.031 6.031 0 0 1-.835.047c-.342 0-.621-.016-.837-.047a.07.07 0 0 0-.062.023.066.066 0 0 0-.015.054c.121.722.182 1.79.182 3.204v.035h-4.026v-.035c.03-1.498.09-2.568.184-3.21a.06.06 0 0 0-.01-.044.064.064 0 0 0-.062-.027 6.12 6.12 0 0 1-.844.047 6.02 6.02 0 0 1-.836-.047.063.063 0 0 0-.06.027.06.06 0 0 0-.01.044Z" stroke="#466330" stroke-width=".361" stroke-linejoin="round" mask="url(#afa)"/><path clip-rule="evenodd" d="M75.238 22.269a1.47 1.47 0 0 1 .134-.009 6.948 6.948 0 0 0-.598.652c-.304.364-.658.84-1.063 1.428-.39.568-.75 1.036-1.084 1.402a.043.043 0 0 0-.004.053c.01.015.029.022.047.018.152-.03.44-.046.863-.046.084 0 .164 0 .241.002.553.006 1.089-.257 1.346-.74.18-.337.406-.77.68-1.297.137-.276.242-.476.313-.6.077-.123.181-.258.312-.405.137-.147.295-.252.474-.317.178-.07.398-.123.66-.159v.467c-.006 1.261-.067 2.269-.183 3.024a.065.065 0 0 0 .01.046c.013.02.036.031.06.03l.845-.05c.39 0 .673.014.85.044a.05.05 0 0 0 .06-.047v-.005l-.001-.003v-.002c-.124-.722-.186-1.79-.186-3.204v-1.313c.006-1.405.067-2.469.184-3.19a.065.065 0 0 0-.01-.048.067.067 0 0 0-.06-.029l-.837.05c-.31 0-.708-.008-1.196-.026a32.369 32.369 0 0 0-1.036-.026c-.625 0-1.145.065-1.562.194-.41.123-.714.3-.91.529-.197.229-.33.458-.402.687a2.647 2.647 0 0 0-.107.793c0 .605.19 1.107.571 1.507.387.393.872.59 1.455.59h.134Zm2.321-3.031v2.379h-1.464c-.5 0-.869-.153-1.107-.458-.238-.306-.357-.7-.357-1.181 0-.47.119-.82.357-1.049.238-.229.673-.343 1.303-.343.417 0 .733.044.947.132.214.082.321.256.321.52Zm-22.651 4.763a.086.086 0 0 1-.017.028c-.618.655-1.434.89-2.48.89-1.919 0-2.603-1.702-2.429-3.323h4.973c.22 0 .33-.102.33-.308 0-1.877-1.332-3.41-3.3-3.41-2.23 0-3.61 2.118-3.61 4.15 0 1.187.268 2.088.815 2.74.667.793 1.64 1.208 2.908 1.208 1.199 0 2.384-.54 3.102-1.495a.7.7 0 0 1 .085-.065l.02-.014c.018-.012.02-.035.008-.053a.05.05 0 0 0-.005-.006v-.001l-.002-.001-.002-.002a1.627 1.627 0 0 1-.174-.172 1.417 1.417 0 0 1-.126-.205.043.043 0 0 0-.03-.022.048.048 0 0 0-.054.03l-.012.031Zm-1.507-3.127h-3.365c0-1.167.66-2.274 1.9-2.274 1.066 0 1.724 1.12 1.724 2.018 0 .17-.086.256-.258.256Z" stroke="#466330" stroke-width=".361" stroke-linejoin="round" mask="url(#afa)"/><path d="M33.676 8.101c-.423 0-.713-.016-.87-.047 1.93 4.218 3.008 6.618 3.236 7.202-.266.626-.477.917-.973 1.546.566-.07 1.061.07 1.415.21.059-.187.1-.337.14-.483.148-.541.14-.832 1.11-2.976 1.235-2.722 2.092-4.555 2.569-5.5-.109.032-.347.048-.716.048-.325 0-.542-.016-.65-.047-.71 2.186-1.44 4.059-2.188 5.618h-.032c-1.117-2.637-1.86-4.51-2.228-5.618-.14.031-.412.047-.813.047Z" stroke="#466330" stroke-width=".361" stroke-linejoin="round" mask="url(#afa)"/></symbol><symbol fill="none" viewBox="0 0 139 56" id="logo2" xmlns="http://www.w3.org/2000/svg"><g fill="#466330"><path d="M30.4 38.735C25.186 30.45 15.87 24.933 5.245 24.933h-.012v2.608h.012c10.17 0 19.024 5.553 23.604 13.749a10.957 10.957 0 0 0 1.551-2.555Z"/><path d="M26.874 43.188c-4.02-7.74-12.196-13.038-21.629-13.038h-.012v2.608h.012c8.46 0 15.785 4.783 19.34 11.753a11.192 11.192 0 0 0 2.289-1.323Z"/><path d="M21.836 45.295c-3.231-5.791-9.42-9.756-16.562-9.923.079.914.27 1.797.563 2.633a16.813 16.813 0 0 1 12.988 7.419h1.3c.582 0 1.154-.044 1.711-.129Zm-6.21.103c-2.085-2.369-5.01-4.043-8.335-4.607a11.192 11.192 0 0 0 8.335 4.607Z"/></g><path d="M30.938 37.168a10.56 10.56 0 0 1-.54 1.566 28.157 28.157 0 0 0-.721-1.091 10.15 10.15 0 0 1 1.261-.475Zm.349-5.345v2.678a12.39 12.39 0 0 0-3.06 1.225 29.439 29.439 0 0 0-1.792-1.984 15.048 15.048 0 0 1 4.852-1.919Zm0-5.294v2.646a17.495 17.495 0 0 0-6.791 2.773 29.665 29.665 0 0 0-2.175-1.672 20.134 20.134 0 0 1 8.966-3.747Z" fill="#466330"/><g fill="#C4A28F"><path d="M31.288 26.529v-4.02c0-.157-.003-.313-.01-.468a16.965 16.965 0 0 1-3.607 5.392 20.072 20.072 0 0 1 3.617-.904Zm-1.433-9.413c-.642 5.566-4.422 10.158-9.495 11.903a29.649 29.649 0 0 0-3.798-1.878c5.93-.386 10.742-5.413 10.742-11.713 0-.476-.028-.945-.081-1.405a11.087 11.087 0 0 1 2.633 3.093Z"/><path d="M24.067 12.22c.38.998.588 2.079.588 3.208 0 5.042-4.15 9.129-9.27 9.129-4.346 0-7.995-2.947-8.996-6.924a11.047 11.047 0 0 1 2.456-3.22c-.053.33-.08.67-.08 1.015 0 3.601 2.964 6.52 6.62 6.52 3.658 0 6.622-2.919 6.622-6.52a6.427 6.427 0 0 0-1.313-3.899c1.182.059 2.316.298 3.373.691Zm-18.632 8.2a11.7 11.7 0 0 0 4.09 4.816 30.266 30.266 0 0 0-4.278-.303 1.855 1.855 0 0 1-.014-.016v-2.408c0-.714.07-1.413.202-2.089Z"/><path fill-rule="evenodd" clip-rule="evenodd" d="M19.378 15.503c0 2.16-1.778 3.912-3.972 3.912s-3.973-1.751-3.973-3.912 1.779-3.913 3.973-3.913 3.972 1.752 3.972 3.913Zm-2.648 0c0 .72-.593 1.304-1.324 1.304a1.314 1.314 0 0 1-1.324-1.304c0-.72.592-1.304 1.324-1.304.731 0 1.324.584 1.324 1.304Z"/></g><path fill-rule="evenodd" clip-rule="evenodd" d="M19.19 5.833h-1.86C7.975 5.833.393 13.301.393 22.513v11.913c0 9.212 7.582 16.68 16.935 16.68h1.861c9.354 0 16.936-7.468 16.936-16.68V22.513c0-9.212-7.582-16.68-16.936-16.68ZM17.33 7.85c-8.224 0-14.89 6.564-14.89 14.663v11.913c0 8.099 6.666 14.663 14.89 14.663h1.86c8.223 0 14.889-6.565 14.889-14.663V22.513c0-8.099-6.666-14.663-14.889-14.663h-1.86Z" fill="#466330"/><mask id="aga" maskUnits="userSpaceOnUse" x="38.093" y="6" width="101" height="47" fill="#000"><path fill="#fff" d="M38.093 6h101v47h-101z"/><path fill-rule="evenodd" clip-rule="evenodd" d="M43.244 13.538c0-2.69-.103-4.783-.307-6.282a.107.107 0 0 1 .017-.074.112.112 0 0 1 .11-.048c.38.055.898.082 1.554.082.323 0 1.078-.036 2.266-.108C48.082 7.036 48.82 7 49.102 7c2.866 0 7.18 2.11 7.07 7.216-.11 5.107-4.579 7.583-10.179 6.85.03.835.278 3.302.402 4.158.07.482.283 1.188.47 1.805.145.48.273.906.305 1.13a.107.107 0 0 1-.017.076.112.112 0 0 1-.109.047c-.38-.054-1.233-.135-2.77-.129-.665 0-1.183.027-1.555.082-.233.034-.207.02-.16-.003.026-.014.06-.031.051-.044a.107.107 0 0 1-.017-.075c.055-.389.135-.652.219-.932.225-.75.5-2.234.432-5.918v-7.725Zm2.75-3.793v9.964c4.437 1.357 7.456-2.642 7.58-4.721.123-2.08.123-7.254-6.971-6.292-.407.216-.61.566-.61 1.049Z"/><path d="M77.845 26.321c-5.605 0-5.776-11.333-.187-11.333 1.175 0 2.21.721 3.103 2.164.062.1.174.158.292.15a.307.307 0 0 0 .272-.22l.691-2.387-.078-.093c-1.145-.586-2.562-.879-4.25-.879-1.77 0-3.348.653-4.733 1.958-1.385 1.306-2.078 2.982-2.078 5.027 0 2.19.578 3.938 1.735 5.243 1.166 1.296 2.728 1.943 4.686 1.943 1.849 0 3.36-.671 4.533-2.014a.325.325 0 0 0-.01-.435l-.363-.395a.171.171 0 0 0-.24-.012c-.988.855-2.113 1.283-3.373 1.283Zm13.314 0c-5.61 0-5.745-11.333-.188-11.333 1.175 0 2.21.721 3.104 2.164.062.1.174.158.292.15a.307.307 0 0 0 .272-.22l.691-2.387-.078-.093c-1.146-.586-2.562-.879-4.25-.879-1.77 0-3.348.653-4.733 1.958-1.385 1.306-2.078 2.982-2.078 5.027 0 2.19.578 3.938 1.734 5.243 1.167 1.296 2.729 1.943 4.687 1.943 1.849 0 3.36-.671 4.532-2.014a.325.325 0 0 0-.01-.435l-.362-.395a.171.171 0 0 0-.24-.012c-.989.855-2.113 1.283-3.373 1.283Zm7.483-12.248c.214 1.264.32 3.137.32 5.618v2.236c-.01 2.48-.117 4.353-.32 5.617a.105.105 0 0 0 .016.077.11.11 0 0 0 .108.047c.377-.055.864-.082 1.462-.082.608 0 1.1.027 1.477.082a.112.112 0 0 0 .109-.047.107.107 0 0 0 .017-.076c-.204-1.324-.306-3.197-.306-5.618v-.802c.229.01.442.036.64.077s.375.082.531.123c.157.041.308.113.454.216.156.093.281.165.374.216.105.041.219.139.344.293.125.144.214.241.266.293.062.051.151.18.265.385.125.196.203.324.235.386a31.51 31.51 0 0 1 .5.91c.533.97.965 1.75 1.296 2.341.45.807 1.343 1.243 2.275 1.226.185-.004.38-.005.584-.005.792 0 1.349.03 1.672.092l.062-.092c-.645-.679-1.338-1.522-2.077-2.53-.729-1.017-1.37-1.84-1.922-2.466-.625-.69-1.151-1.183-1.578-1.48-.417-.299-.989-.51-1.718-.633v-.062c.343-.143.718-.657 1.124-1.542.417-.884.776-1.506 1.078-1.865.542-.658 1.13-.987 1.766-.987.787 0 1.375.126 1.764.38.062.04.137.057.208.039a.236.236 0 0 0 .173-.168l.573-2.093a.21.21 0 0 0-.146-.255c-.488-.134-.908-.2-1.26-.2-.771 0-1.536.261-2.296.786a7.047 7.047 0 0 0-1.86 1.896c-.197.298-.432.7-.703 1.203-.26.504-.474.89-.64 1.156-.156.258-.406.5-.75.725-.333.216-.745.334-1.234.355v-.154c.041-2.62.143-4.494.306-5.619a.106.106 0 0 0-.017-.075.112.112 0 0 0-.109-.047 10.8 10.8 0 0 1-1.477.082 10.65 10.65 0 0 1-1.462-.082.11.11 0 0 0-.108.046.106.106 0 0 0-.016.077Z"/><path fill-rule="evenodd" clip-rule="evenodd" d="M120.766 26.075h.125c.177.596.484 1.048.922 1.357.448.308.974.462 1.578.462.992 0 1.793-.277 2.402-.831a.316.316 0 0 0 .084-.33l-.082-.258c-.059-.184-.261-.28-.452-.235a2.21 2.21 0 0 1-.515.066c-.448 0-.76-.077-.937-.231-.354-.32-.532-1.142-.532-2.468 0-.35.016-1.213.047-2.59.032-1.378.047-2.102.047-2.174 0-3.413-1.76-5.12-5.28-5.12-1.658 0-3.218.605-4.68 1.816a.26.26 0 0 0-.086.263l.445 1.771a.317.317 0 0 0 .285.238.323.323 0 0 0 .295-.147c1.086-1.682 2.109-2.522 3.413-2.522 1.344 0 2.444.625 2.843 1.974.156.493.234 1.079.234 1.757 0 .206-.073.33-.218.37l-2.984.664c-2.288.5-5.312 1.861-5.312 4.58 0 1.14.354 1.994 1.062 2.559 1.325 1.042 3.593 1.126 5.125.478.593-.247 1.317-.73 2.171-1.45Zm-2.593-4.873 2.718-.725-.125 3.763c0 .339-.151.611-.453.817-1.253.933-3.263 1.89-4.656.648-.967-.864-.78-2.347.047-3.254.469-.514 1.292-.93 2.469-1.25Zm12.982.262c.104-.01.182-.015.235-.015-.261.236-.61.616-1.047 1.14-.531.638-1.151 1.47-1.859 2.499-.682.995-1.315 1.813-1.898 2.454a.074.074 0 0 0-.006.092c.017.027.05.039.081.033.267-.054.77-.081 1.51-.081h.261l.099.002h.063c.967.012 1.904-.449 2.354-1.294.314-.59.711-1.346 1.191-2.27.24-.483.422-.833.547-1.049.136-.216.318-.452.547-.71.24-.256.516-.441.828-.554a4.993 4.993 0 0 1 1.156-.278v.817c-.01 2.207-.117 3.97-.321 5.292a.112.112 0 0 0 .018.081.118.118 0 0 0 .105.051l1.479-.088c.681 0 1.177.026 1.487.078a.09.09 0 0 0 .1-.058.096.096 0 0 0 .003-.041c-.216-1.264-.324-3.134-.324-5.608V19.66c.01-2.46.117-4.32.321-5.584a.116.116 0 0 0-.123-.133l-1.464.088c-.541 0-1.239-.015-2.093-.046a56.443 56.443 0 0 0-1.813-.046c-1.093 0-2.004.113-2.733.34-.719.215-1.25.524-1.594.925-.343.4-.578.801-.703 1.202a4.672 4.672 0 0 0-.187 1.388c0 1.059.333 1.938 1 2.637.677.689 1.525 1.033 2.546 1.033h.234Zm4.062-5.304v4.163h-2.562c-.875 0-1.521-.267-1.937-.802-.417-.535-.625-1.223-.625-2.066 0-.823.208-1.434.625-1.835.416-.401 1.177-.602 2.281-.602.729 0 1.281.077 1.656.232.375.144.562.447.562.91ZM42.735 31.58c.08.557.146 1.227.197 2.01.01 2.713-.38 5.813-1.172 9.297-.187.802-.718 1.255-1.593 1.357-.583.062-.885.293-.906.694l-.168 3.748a.446.446 0 0 0 .433.463.462.462 0 0 0 .462-.348c.633-2.472 1.865-3.709 3.694-3.709h5.5a3.2 3.2 0 0 1 2.14.787c.624.524 1.062 1.059 1.312 1.604.205.438.362.872.47 1.304.05.199.227.346.435.346a.43.43 0 0 0 .433-.448l-.182-3.778c0-.36-.266-.58-.797-.663-.854-.154-1.28-.673-1.28-1.557v-4.826c.01-2.852.116-4.942.32-6.27a.116.116 0 0 0-.027-.094.122.122 0 0 0-.111-.041c-.377.055-.865.082-1.464.082h-6.108c-.598 0-1.085-.027-1.462-.082a.112.112 0 0 0-.109.048.107.107 0 0 0-.017.075Zm1.333 12.279c-.406.01-.61-.113-.61-.37 0-.062.068-.422.204-1.08.145-.657.323-1.768.53-3.33.22-1.573.392-3.413.517-5.52 0-.145.067-.314.203-.51.135-.205.364-.308.687-.308h2.27c.562 0 .916.113 1.062.34.146.225.219.631.219 1.217v8.019c0 .586-.078.992-.234 1.218-.146.216-.495.324-1.047.324h-3.801Zm22.207-1.913a.149.149 0 0 1-.03.05c-1.082 1.144-2.51 1.554-4.341 1.554-3.357 0-4.554-2.977-4.25-5.813h8.702c.386 0 .578-.18.578-.54 0-3.285-2.33-5.967-5.774-5.967-3.902 0-6.318 3.706-6.318 7.263 0 2.076.468 3.654 1.426 4.795 1.167 1.388 2.87 2.113 5.089 2.113 2.098 0 4.151-.898 5.408-2.569a.922.922 0 0 1 .2-.18l.007-.005c.03-.022.034-.06.013-.09a.092.092 0 0 0-.02-.021 2.17 2.17 0 0 1-.309-.283 2.07 2.07 0 0 1-.215-.373.073.073 0 0 0-.052-.041.082.082 0 0 0-.093.05l-.021.057Zm-2.637-5.473h-5.89c0-2.042 1.155-3.979 3.327-3.979 1.864 0 3.016 1.96 3.016 3.532 0 .298-.151.447-.453.447Zm8.919-2.406-.063-.092v-2.298c-.01-.216-.078-.324-.203-.324-.762.14-1.599.173-2.51.098a.116.116 0 0 0-.105.05.111.111 0 0 0-.018.08c.183 1.189.274 3.22.274 6.095v8.434c0 2.77-.092 4.859-.276 6.267a.106.106 0 0 0 .018.074.112.112 0 0 0 .11.047 9.966 9.966 0 0 1 1.414-.081c.587 0 1.069.027 1.445.082a.113.113 0 0 0 .11-.048.108.108 0 0 0 .018-.074c-.184-1.488-.277-3.577-.277-6.267v-1.403c.875.463 1.933.694 3.172.694 2.083 0 3.734-.704 4.952-2.113 1.219-1.408 1.828-3.238 1.828-5.49 0-1.788-.505-3.33-1.515-4.625-1-1.296-2.354-1.943-4.062-1.943-1.615 0-3.052.946-4.312 2.837Zm-.063 8.65V35.81c2.068-4.948 7.124-2.646 7.124 2.405 0 .71-.057 1.388-.171 2.036a7.736 7.736 0 0 1-.61 1.896 3.292 3.292 0 0 1-1.296 1.465c-.573.36-1.266.54-2.078.54-1.167-.01-2.156-.488-2.969-1.434Zm26.862 2.463 1.488-.087a129.636 129.636 0 0 0 4.577.062c3.01 0 4.408-1.08 4.515-3.917 0-2.01-1.656-2.939-3.203-3.377v-.062c1.334-.203 2.75-1.55 2.75-2.915 0-1.09-.359-1.927-1.078-2.513-.719-.596-2.093-.894-4.124-.894-.407 0-.969.01-1.688.03-.718.021-1.301.031-1.749.031-.681 0-1.176-.026-1.486-.078a.09.09 0 0 0-.101.058.085.085 0 0 0-.004.04c.238 1.54.356 3.429.356 5.67v2.175c0 2.33-.118 4.22-.355 5.666a.093.093 0 0 0 .004.046.098.098 0 0 0 .098.066Zm4.628-8.013h-1.828v-3.532c0-.493.083-.796.25-.91.177-.112.703-.169 1.578-.169.958 0 1.666.16 2.125.478.458.308.687.925.687 1.85 0 .658-.245 1.203-.734 1.635-.49.432-1.182.648-2.078.648Zm-1.828 5.49v-4.411h2.125c.895 0 1.598.283 2.109.848.51.566.765 1.27.765 2.113 0 1.912-1.057 2.868-3.171 2.868-.771 0-1.271-.088-1.5-.262-.219-.185-.328-.57-.328-1.157Z"/><path d="M112.592 31.58c.214 1.264.321 3.136.321 5.617v2.236c-.01 2.481-.117 4.354-.321 5.618a.1.1 0 0 0 .017.077.11.11 0 0 0 .108.047 10.53 10.53 0 0 1 1.462-.082c.607 0 1.1.027 1.477.081a.108.108 0 0 0 .125-.123c-.214-1.324-.321-3.196-.321-5.618v-.94h7.045v.94c-.01 2.474-.116 4.343-.319 5.607a.117.117 0 0 0 .026.093.122.122 0 0 0 .111.041c.367-.054.85-.081 1.448-.081.608 0 1.1.027 1.477.081a.112.112 0 0 0 .109-.047.107.107 0 0 0 .017-.076c-.204-1.323-.306-3.196-.306-5.618v-2.236c.041-2.62.143-4.493.306-5.618a.105.105 0 0 0-.017-.075.113.113 0 0 0-.109-.048c-.377.055-.864.082-1.461.082-.6 0-1.088-.027-1.465-.082a.119.119 0 0 0-.136.135c.213 1.264.319 3.133.319 5.606v.062h-7.045v-.062c.051-2.62.158-4.493.322-5.618a.11.11 0 0 0-.126-.123c-.378.055-.87.082-1.477.082-.599 0-1.086-.027-1.463-.082a.11.11 0 0 0-.107.047.11.11 0 0 0-.017.077Z"/><path fill-rule="evenodd" clip-rule="evenodd" d="M131.666 38.97c.104-.01.183-.015.235-.015-.261.237-.61.617-1.047 1.141-.531.638-1.151 1.47-1.859 2.498-.683.996-1.315 1.814-1.898 2.455a.075.075 0 0 0-.007.092.08.08 0 0 0 .082.032c.267-.053.77-.08 1.51-.08.147 0 .288 0 .423.002.967.012 1.904-.449 2.355-1.294.314-.59.711-1.347 1.191-2.27.239-.484.421-.833.546-1.05.136-.215.318-.451.547-.708.24-.257.516-.442.828-.556a5.006 5.006 0 0 1 1.156-.277v.817c-.01 2.206-.117 3.97-.321 5.291a.117.117 0 0 0 .018.082.118.118 0 0 0 .105.051l1.479-.088c.681 0 1.177.026 1.487.078a.09.09 0 0 0 .1-.058.069.069 0 0 0 .004-.025v-.013l-.001-.003c-.216-1.265-.324-3.134-.324-5.608v-2.297c.01-2.46.117-4.32.321-5.585a.113.113 0 0 0-.019-.081.115.115 0 0 0-.103-.051l-1.465.088c-.541 0-1.239-.015-2.093-.046a56.69 56.69 0 0 0-1.812-.046c-1.094 0-2.005.113-2.734.339-.719.216-1.25.524-1.594.925-.344.401-.578.802-.703 1.203-.125.4-.187.864-.187 1.388 0 1.059.333 1.938.999 2.637.677.688 1.526 1.033 2.547 1.033h.234Zm4.062-5.304v4.164h-2.562c-.875 0-1.52-.268-1.937-.802-.417-.535-.625-1.224-.625-2.066 0-.823.208-1.434.625-1.835.417-.401 1.177-.602 2.281-.602.729 0 1.281.077 1.656.232.375.143.562.447.562.91ZM96.09 42.002a.147.147 0 0 1-.031.05c-1.081 1.145-2.509 1.555-4.34 1.555-3.357 0-4.555-2.977-4.25-5.813h8.702c.385 0 .578-.18.578-.54 0-3.285-2.331-5.968-5.774-5.968-3.903 0-6.318 3.706-6.318 7.263 0 2.077.467 3.655 1.426 4.796 1.166 1.388 2.87 2.112 5.088 2.112 2.098 0 4.172-.944 5.43-2.616.037-.036.098-.078.148-.113l.035-.024c.032-.022.036-.061.014-.093a.101.101 0 0 0-.009-.01l-.002-.003-.001-.001-.004-.004a2.88 2.88 0 0 1-.304-.3 2.479 2.479 0 0 1-.222-.359.074.074 0 0 0-.05-.038.083.083 0 0 0-.096.051l-.02.055Zm-2.638-5.473h-5.89c0-2.042 1.155-3.978 3.327-3.978 1.864 0 3.017 1.96 3.017 3.53 0 .299-.152.448-.454.448Z"/><path d="M58.933 14.177c-.74 0-1.248-.027-1.523-.083 3.377 7.381 5.265 11.583 5.663 12.604-.465 1.095-.835 1.605-1.702 2.705.99-.122 1.857.123 2.476.367.102-.327.174-.589.244-.844.26-.947.246-1.456 1.942-5.208 2.163-4.764 3.662-7.971 4.496-9.624-.19.056-.607.083-1.252.083-.569 0-.948-.027-1.138-.083-1.243 3.825-2.519 7.103-3.828 9.833h-.057c-1.954-4.615-3.253-7.893-3.899-9.833-.246.056-.72.083-1.422.083Z"/></mask><path fill-rule="evenodd" clip-rule="evenodd" d="M43.244 13.538c0-2.69-.103-4.783-.307-6.282a.107.107 0 0 1 .017-.074.112.112 0 0 1 .11-.048c.38.055.898.082 1.554.082.323 0 1.078-.036 2.266-.108C48.082 7.036 48.82 7 49.102 7c2.866 0 7.18 2.11 7.07 7.216-.11 5.107-4.579 7.583-10.179 6.85.03.835.278 3.302.402 4.158.07.482.283 1.188.47 1.805.145.48.273.906.305 1.13a.107.107 0 0 1-.017.076.112.112 0 0 1-.109.047c-.38-.054-1.233-.135-2.77-.129-.665 0-1.183.027-1.555.082-.233.034-.207.02-.16-.003.026-.014.06-.031.051-.044a.107.107 0 0 1-.017-.075c.055-.389.135-.652.219-.932.225-.75.5-2.234.432-5.918v-7.725Zm2.75-3.793v9.964c4.437 1.357 7.456-2.642 7.58-4.721.123-2.08.123-7.254-6.971-6.292-.407.216-.61.566-.61 1.049Z" fill="#466330"/><path d="M77.845 26.321c-5.605 0-5.776-11.333-.187-11.333 1.175 0 2.21.721 3.103 2.164.062.1.174.158.292.15a.307.307 0 0 0 .272-.22l.691-2.387-.078-.093c-1.145-.586-2.562-.879-4.25-.879-1.77 0-3.348.653-4.733 1.958-1.385 1.306-2.078 2.982-2.078 5.027 0 2.19.578 3.938 1.735 5.243 1.166 1.296 2.728 1.943 4.686 1.943 1.849 0 3.36-.671 4.533-2.014a.325.325 0 0 0-.01-.435l-.363-.395a.171.171 0 0 0-.24-.012c-.988.855-2.113 1.283-3.373 1.283Zm13.314 0c-5.61 0-5.745-11.333-.188-11.333 1.175 0 2.21.721 3.104 2.164.062.1.174.158.292.15a.307.307 0 0 0 .272-.22l.691-2.387-.078-.093c-1.146-.586-2.562-.879-4.25-.879-1.77 0-3.348.653-4.733 1.958-1.385 1.306-2.078 2.982-2.078 5.027 0 2.19.578 3.938 1.734 5.243 1.167 1.296 2.729 1.943 4.687 1.943 1.849 0 3.36-.671 4.532-2.014a.325.325 0 0 0-.01-.435l-.362-.395a.171.171 0 0 0-.24-.012c-.989.855-2.113 1.283-3.373 1.283Zm7.483-12.248c.214 1.264.32 3.137.32 5.618v2.236c-.01 2.48-.117 4.353-.32 5.617a.105.105 0 0 0 .016.077.11.11 0 0 0 .108.047c.377-.055.864-.082 1.462-.082.608 0 1.1.027 1.477.082a.112.112 0 0 0 .109-.047.107.107 0 0 0 .017-.076c-.204-1.324-.306-3.197-.306-5.618v-.802c.229.01.442.036.64.077s.375.082.531.123c.157.041.308.113.454.216.156.093.281.165.374.216.105.041.219.139.344.293.125.144.214.241.266.293.062.051.151.18.265.385.125.196.203.324.235.386a31.51 31.51 0 0 1 .5.91c.533.97.965 1.75 1.296 2.341.45.807 1.343 1.243 2.275 1.226.185-.004.38-.005.584-.005.792 0 1.349.03 1.672.092l.062-.092c-.645-.679-1.338-1.522-2.077-2.53-.729-1.017-1.37-1.84-1.922-2.466-.625-.69-1.151-1.183-1.578-1.48-.417-.299-.989-.51-1.718-.633v-.062c.343-.143.718-.657 1.124-1.542.417-.884.776-1.506 1.078-1.865.542-.658 1.13-.987 1.766-.987.787 0 1.375.126 1.764.38.062.04.137.057.208.039a.236.236 0 0 0 .173-.168l.573-2.093a.21.21 0 0 0-.146-.255c-.488-.134-.908-.2-1.26-.2-.771 0-1.536.261-2.296.786a7.047 7.047 0 0 0-1.86 1.896c-.197.298-.432.7-.703 1.203-.26.504-.474.89-.64 1.156-.156.258-.406.5-.75.725-.333.216-.745.334-1.234.355v-.154c.041-2.62.143-4.494.306-5.619a.106.106 0 0 0-.017-.075.112.112 0 0 0-.109-.047 10.8 10.8 0 0 1-1.477.082 10.65 10.65 0 0 1-1.462-.082.11.11 0 0 0-.108.046.106.106 0 0 0-.016.077Z" fill="#466330"/><path fill-rule="evenodd" clip-rule="evenodd" d="M120.766 26.075h.125c.177.596.484 1.048.922 1.357.448.308.974.462 1.578.462.992 0 1.793-.277 2.402-.831a.316.316 0 0 0 .084-.33l-.082-.258c-.059-.184-.261-.28-.452-.235a2.21 2.21 0 0 1-.515.066c-.448 0-.76-.077-.937-.231-.354-.32-.532-1.142-.532-2.468 0-.35.016-1.213.047-2.59.032-1.378.047-2.102.047-2.174 0-3.413-1.76-5.12-5.28-5.12-1.658 0-3.218.605-4.68 1.816a.26.26 0 0 0-.086.263l.445 1.771a.317.317 0 0 0 .285.238.323.323 0 0 0 .295-.147c1.086-1.682 2.109-2.522 3.413-2.522 1.344 0 2.444.625 2.843 1.974.156.493.234 1.079.234 1.757 0 .206-.073.33-.218.37l-2.984.664c-2.288.5-5.312 1.861-5.312 4.58 0 1.14.354 1.994 1.062 2.559 1.325 1.042 3.593 1.126 5.125.478.593-.247 1.317-.73 2.171-1.45Zm-2.593-4.873 2.718-.725-.125 3.763c0 .339-.151.611-.453.817-1.253.933-3.263 1.89-4.656.648-.967-.864-.78-2.347.047-3.254.469-.514 1.292-.93 2.469-1.25Zm12.982.262c.104-.01.182-.015.235-.015-.261.236-.61.616-1.047 1.14-.531.638-1.151 1.47-1.859 2.499-.682.995-1.315 1.813-1.898 2.454a.074.074 0 0 0-.006.092c.017.027.05.039.081.033.267-.054.77-.081 1.51-.081h.261l.099.002h.063c.967.012 1.904-.449 2.354-1.294.314-.59.711-1.346 1.191-2.27.24-.483.422-.833.547-1.049.136-.216.318-.452.547-.71.24-.256.516-.441.828-.554a4.993 4.993 0 0 1 1.156-.278v.817c-.01 2.207-.117 3.97-.321 5.292a.112.112 0 0 0 .018.081.118.118 0 0 0 .105.051l1.479-.088c.681 0 1.177.026 1.487.078a.09.09 0 0 0 .1-.058.096.096 0 0 0 .003-.041c-.216-1.264-.324-3.134-.324-5.608V19.66c.01-2.46.117-4.32.321-5.584a.116.116 0 0 0-.123-.133l-1.464.088c-.541 0-1.239-.015-2.093-.046a56.443 56.443 0 0 0-1.813-.046c-1.093 0-2.004.113-2.733.34-.719.215-1.25.524-1.594.925-.343.4-.578.801-.703 1.202a4.672 4.672 0 0 0-.187 1.388c0 1.059.333 1.938 1 2.637.677.689 1.525 1.033 2.546 1.033h.234Zm4.062-5.304v4.163h-2.562c-.875 0-1.521-.267-1.937-.802-.417-.535-.625-1.223-.625-2.066 0-.823.208-1.434.625-1.835.416-.401 1.177-.602 2.281-.602.729 0 1.281.077 1.656.232.375.144.562.447.562.91ZM42.735 31.58c.08.557.146 1.227.197 2.01.01 2.713-.38 5.813-1.172 9.297-.187.802-.718 1.255-1.593 1.357-.583.062-.885.293-.906.694l-.168 3.748a.446.446 0 0 0 .433.463.462.462 0 0 0 .462-.348c.633-2.472 1.865-3.709 3.694-3.709h5.5a3.2 3.2 0 0 1 2.14.787c.624.524 1.062 1.059 1.312 1.604.205.438.362.872.47 1.304.05.199.227.346.435.346a.43.43 0 0 0 .433-.448l-.182-3.778c0-.36-.266-.58-.797-.663-.854-.154-1.28-.673-1.28-1.557v-4.826c.01-2.852.116-4.942.32-6.27a.116.116 0 0 0-.027-.094.122.122 0 0 0-.111-.041c-.377.055-.865.082-1.464.082h-6.108c-.598 0-1.085-.027-1.462-.082a.112.112 0 0 0-.109.048.107.107 0 0 0-.017.075Zm1.333 12.279c-.406.01-.61-.113-.61-.37 0-.062.068-.422.204-1.08.145-.657.323-1.768.53-3.33.22-1.573.392-3.413.517-5.52 0-.145.067-.314.203-.51.135-.205.364-.308.687-.308h2.27c.562 0 .916.113 1.062.34.146.225.219.631.219 1.217v8.019c0 .586-.078.992-.234 1.218-.146.216-.495.324-1.047.324h-3.801Zm22.207-1.913a.149.149 0 0 1-.03.05c-1.082 1.144-2.51 1.554-4.341 1.554-3.357 0-4.554-2.977-4.25-5.813h8.702c.386 0 .578-.18.578-.54 0-3.285-2.33-5.967-5.774-5.967-3.902 0-6.318 3.706-6.318 7.263 0 2.076.468 3.654 1.426 4.795 1.167 1.388 2.87 2.113 5.089 2.113 2.098 0 4.151-.898 5.408-2.569a.922.922 0 0 1 .2-.18l.007-.005c.03-.022.034-.06.013-.09a.092.092 0 0 0-.02-.021 2.17 2.17 0 0 1-.309-.283 2.07 2.07 0 0 1-.215-.373.073.073 0 0 0-.052-.041.082.082 0 0 0-.093.05l-.021.057Zm-2.637-5.473h-5.89c0-2.042 1.155-3.979 3.327-3.979 1.864 0 3.016 1.96 3.016 3.532 0 .298-.151.447-.453.447Zm8.919-2.406-.063-.092v-2.298c-.01-.216-.078-.324-.203-.324-.762.14-1.599.173-2.51.098a.116.116 0 0 0-.105.05.111.111 0 0 0-.018.08c.183 1.189.274 3.22.274 6.095v8.434c0 2.77-.092 4.859-.276 6.267a.106.106 0 0 0 .018.074.112.112 0 0 0 .11.047 9.966 9.966 0 0 1 1.414-.081c.587 0 1.069.027 1.445.082a.113.113 0 0 0 .11-.048.108.108 0 0 0 .018-.074c-.184-1.488-.277-3.577-.277-6.267v-1.403c.875.463 1.933.694 3.172.694 2.083 0 3.734-.704 4.952-2.113 1.219-1.408 1.828-3.238 1.828-5.49 0-1.788-.505-3.33-1.515-4.625-1-1.296-2.354-1.943-4.062-1.943-1.615 0-3.052.946-4.312 2.837Zm-.063 8.65V35.81c2.068-4.948 7.124-2.646 7.124 2.405 0 .71-.057 1.388-.171 2.036a7.736 7.736 0 0 1-.61 1.896 3.292 3.292 0 0 1-1.296 1.465c-.573.36-1.266.54-2.078.54-1.167-.01-2.156-.488-2.969-1.434Zm26.862 2.463 1.488-.087a129.636 129.636 0 0 0 4.577.062c3.01 0 4.408-1.08 4.515-3.917 0-2.01-1.656-2.939-3.203-3.377v-.062c1.334-.203 2.75-1.55 2.75-2.915 0-1.09-.359-1.927-1.078-2.513-.719-.596-2.093-.894-4.124-.894-.407 0-.969.01-1.688.03-.718.021-1.301.031-1.749.031-.681 0-1.176-.026-1.486-.078a.09.09 0 0 0-.101.058.085.085 0 0 0-.004.04c.238 1.54.356 3.429.356 5.67v2.175c0 2.33-.118 4.22-.355 5.666a.093.093 0 0 0 .004.046.098.098 0 0 0 .098.066Zm4.628-8.013h-1.828v-3.532c0-.493.083-.796.25-.91.177-.112.703-.169 1.578-.169.958 0 1.666.16 2.125.478.458.308.687.925.687 1.85 0 .658-.245 1.203-.734 1.635-.49.432-1.182.648-2.078.648Zm-1.828 5.49v-4.411h2.125c.895 0 1.598.283 2.109.848.51.566.765 1.27.765 2.113 0 1.912-1.057 2.868-3.171 2.868-.771 0-1.271-.088-1.5-.262-.219-.185-.328-.57-.328-1.157Z" fill="#466330"/><path d="M112.592 31.58c.214 1.264.321 3.136.321 5.617v2.236c-.01 2.481-.117 4.354-.321 5.618a.1.1 0 0 0 .017.077.11.11 0 0 0 .108.047 10.53 10.53 0 0 1 1.462-.082c.607 0 1.1.027 1.477.081a.108.108 0 0 0 .125-.123c-.214-1.324-.321-3.196-.321-5.618v-.94h7.045v.94c-.01 2.474-.116 4.343-.319 5.607a.117.117 0 0 0 .026.093.122.122 0 0 0 .111.041c.367-.054.85-.081 1.448-.081.608 0 1.1.027 1.477.081a.112.112 0 0 0 .109-.047.107.107 0 0 0 .017-.076c-.204-1.323-.306-3.196-.306-5.618v-2.236c.041-2.62.143-4.493.306-5.618a.105.105 0 0 0-.017-.075.113.113 0 0 0-.109-.048c-.377.055-.864.082-1.461.082-.6 0-1.088-.027-1.465-.082a.119.119 0 0 0-.136.135c.213 1.264.319 3.133.319 5.606v.062h-7.045v-.062c.051-2.62.158-4.493.322-5.618a.11.11 0 0 0-.126-.123c-.378.055-.87.082-1.477.082-.599 0-1.086-.027-1.463-.082a.11.11 0 0 0-.107.047.11.11 0 0 0-.017.077Z" fill="#466330"/><path fill-rule="evenodd" clip-rule="evenodd" d="M131.666 38.97c.104-.01.183-.015.235-.015-.261.237-.61.617-1.047 1.141-.531.638-1.151 1.47-1.859 2.498-.683.996-1.315 1.814-1.898 2.455a.075.075 0 0 0-.007.092.08.08 0 0 0 .082.032c.267-.053.77-.08 1.51-.08.147 0 .288 0 .423.002.967.012 1.904-.449 2.355-1.294.314-.59.711-1.347 1.191-2.27.239-.484.421-.833.546-1.05.136-.215.318-.451.547-.708.24-.257.516-.442.828-.556a5.006 5.006 0 0 1 1.156-.277v.817c-.01 2.206-.117 3.97-.321 5.291a.117.117 0 0 0 .018.082.118.118 0 0 0 .105.051l1.479-.088c.681 0 1.177.026 1.487.078a.09.09 0 0 0 .1-.058.069.069 0 0 0 .004-.025v-.013l-.001-.003c-.216-1.265-.324-3.134-.324-5.608v-2.297c.01-2.46.117-4.32.321-5.585a.113.113 0 0 0-.019-.081.115.115 0 0 0-.103-.051l-1.465.088c-.541 0-1.239-.015-2.093-.046a56.69 56.69 0 0 0-1.812-.046c-1.094 0-2.005.113-2.734.339-.719.216-1.25.524-1.594.925-.344.401-.578.802-.703 1.203-.125.4-.187.864-.187 1.388 0 1.059.333 1.938.999 2.637.677.688 1.526 1.033 2.547 1.033h.234Zm4.062-5.304v4.164h-2.562c-.875 0-1.52-.268-1.937-.802-.417-.535-.625-1.224-.625-2.066 0-.823.208-1.434.625-1.835.417-.401 1.177-.602 2.281-.602.729 0 1.281.077 1.656.232.375.143.562.447.562.91ZM96.09 42.002a.147.147 0 0 1-.031.05c-1.081 1.145-2.509 1.555-4.34 1.555-3.357 0-4.555-2.977-4.25-5.813h8.702c.385 0 .578-.18.578-.54 0-3.285-2.331-5.968-5.774-5.968-3.903 0-6.318 3.706-6.318 7.263 0 2.077.467 3.655 1.426 4.796 1.166 1.388 2.87 2.112 5.088 2.112 2.098 0 4.172-.944 5.43-2.616.037-.036.098-.078.148-.113l.035-.024c.032-.022.036-.061.014-.093a.101.101 0 0 0-.009-.01l-.002-.003-.001-.001-.004-.004a2.88 2.88 0 0 1-.304-.3 2.479 2.479 0 0 1-.222-.359.074.074 0 0 0-.05-.038.083.083 0 0 0-.096.051l-.02.055Zm-2.638-5.473h-5.89c0-2.042 1.155-3.978 3.327-3.978 1.864 0 3.017 1.96 3.017 3.53 0 .299-.152.448-.454.448Z" fill="#466330"/><path d="M58.933 14.177c-.74 0-1.248-.027-1.523-.083 3.377 7.381 5.265 11.583 5.663 12.604-.465 1.095-.835 1.605-1.702 2.705.99-.122 1.857.123 2.476.367.102-.327.174-.589.244-.844.26-.947.246-1.456 1.942-5.208 2.163-4.764 3.662-7.971 4.496-9.624-.19.056-.607.083-1.252.083-.569 0-.948-.027-1.138-.083-1.243 3.825-2.519 7.103-3.828 9.833h-.057c-1.954-4.615-3.253-7.893-3.899-9.833-.246.056-.72.083-1.422.083Z" fill="#466330"/><path clip-rule="evenodd" d="M43.244 13.538c0-2.69-.103-4.783-.307-6.282a.107.107 0 0 1 .017-.074.112.112 0 0 1 .11-.048c.38.055.898.082 1.554.082.323 0 1.078-.036 2.266-.108C48.082 7.036 48.82 7 49.102 7c2.866 0 7.18 2.11 7.07 7.216-.11 5.107-4.579 7.583-10.179 6.85.03.835.278 3.302.402 4.158.07.482.283 1.188.47 1.805.145.48.273.906.305 1.13a.107.107 0 0 1-.017.076.112.112 0 0 1-.109.047c-.38-.054-1.233-.135-2.77-.129-.665 0-1.183.027-1.555.082-.233.034-.207.02-.16-.003.026-.014.06-.031.051-.044a.107.107 0 0 1-.017-.075c.055-.389.135-.652.219-.932.225-.75.5-2.234.432-5.918v-7.725Zm2.75-3.793v9.964c4.437 1.357 7.456-2.642 7.58-4.721.123-2.08.123-7.254-6.971-6.292-.407.216-.61.566-.61 1.049Z" stroke="#466330" stroke-width=".633" stroke-linejoin="round" mask="url(#aga)"/><path d="M77.845 26.321c-5.605 0-5.776-11.333-.187-11.333 1.175 0 2.21.721 3.103 2.164.062.1.174.158.292.15a.307.307 0 0 0 .272-.22l.691-2.387-.078-.093c-1.145-.586-2.562-.879-4.25-.879-1.77 0-3.348.653-4.733 1.958-1.385 1.306-2.078 2.982-2.078 5.027 0 2.19.578 3.938 1.735 5.243 1.166 1.296 2.728 1.943 4.686 1.943 1.849 0 3.36-.671 4.533-2.014a.325.325 0 0 0-.01-.435l-.363-.395a.171.171 0 0 0-.24-.012c-.988.855-2.113 1.283-3.373 1.283Zm13.314 0c-5.61 0-5.745-11.333-.188-11.333 1.175 0 2.21.721 3.104 2.164.062.1.174.158.292.15a.307.307 0 0 0 .272-.22l.691-2.387-.078-.093c-1.146-.586-2.562-.879-4.25-.879-1.77 0-3.348.653-4.733 1.958-1.385 1.306-2.078 2.982-2.078 5.027 0 2.19.578 3.938 1.734 5.243 1.167 1.296 2.729 1.943 4.687 1.943 1.849 0 3.36-.671 4.532-2.014a.325.325 0 0 0-.01-.435l-.362-.395a.171.171 0 0 0-.24-.012c-.989.855-2.113 1.283-3.373 1.283Zm7.483-12.248c.214 1.264.32 3.137.32 5.618v2.236c-.01 2.48-.117 4.353-.32 5.617a.105.105 0 0 0 .016.077.11.11 0 0 0 .108.047c.377-.055.864-.082 1.462-.082.608 0 1.1.027 1.477.082a.112.112 0 0 0 .109-.047.107.107 0 0 0 .017-.076c-.204-1.324-.306-3.197-.306-5.618v-.802c.229.01.442.036.64.077s.375.082.531.123c.157.041.308.113.454.216.156.093.281.165.374.216.105.041.219.139.344.293.125.144.214.241.266.293.062.051.151.18.265.385.125.196.203.324.235.386a31.51 31.51 0 0 1 .5.91c.533.97.965 1.75 1.296 2.341.45.807 1.343 1.243 2.275 1.226.185-.004.38-.005.584-.005.792 0 1.349.03 1.672.092l.062-.092c-.645-.679-1.338-1.522-2.077-2.53-.729-1.017-1.37-1.84-1.922-2.466-.625-.69-1.151-1.183-1.578-1.48-.417-.299-.989-.51-1.718-.633v-.062c.343-.143.718-.657 1.124-1.542.417-.884.776-1.506 1.078-1.865.542-.658 1.13-.987 1.766-.987.787 0 1.375.126 1.764.38.062.04.137.057.208.039a.236.236 0 0 0 .173-.168l.573-2.093a.21.21 0 0 0-.146-.255c-.488-.134-.908-.2-1.26-.2-.771 0-1.536.261-2.296.786a7.047 7.047 0 0 0-1.86 1.896c-.197.298-.432.7-.703 1.203-.26.504-.474.89-.64 1.156-.156.258-.406.5-.75.725-.333.216-.745.334-1.234.355v-.154c.041-2.62.143-4.494.306-5.619a.106.106 0 0 0-.017-.075.112.112 0 0 0-.109-.047 10.8 10.8 0 0 1-1.477.082 10.65 10.65 0 0 1-1.462-.082.11.11 0 0 0-.108.046.106.106 0 0 0-.016.077Z" stroke="#466330" stroke-width=".633" stroke-linejoin="round" mask="url(#aga)"/><path clip-rule="evenodd" d="M120.766 26.075h.125c.177.596.484 1.048.922 1.357.448.308.974.462 1.578.462.992 0 1.793-.277 2.402-.831a.316.316 0 0 0 .084-.33l-.082-.258c-.059-.184-.261-.28-.452-.235a2.21 2.21 0 0 1-.515.066c-.448 0-.76-.077-.937-.231-.354-.32-.532-1.142-.532-2.468 0-.35.016-1.213.047-2.59.032-1.378.047-2.102.047-2.174 0-3.413-1.76-5.12-5.28-5.12-1.658 0-3.218.605-4.68 1.816a.26.26 0 0 0-.086.263l.445 1.771a.317.317 0 0 0 .285.238.323.323 0 0 0 .295-.147c1.086-1.682 2.109-2.522 3.413-2.522 1.344 0 2.444.625 2.843 1.974.156.493.234 1.079.234 1.757 0 .206-.073.33-.218.37l-2.984.664c-2.288.5-5.312 1.861-5.312 4.58 0 1.14.354 1.994 1.062 2.559 1.325 1.042 3.593 1.126 5.125.478.593-.247 1.317-.73 2.171-1.45Zm-2.593-4.873 2.718-.725-.125 3.763c0 .339-.151.611-.453.817-1.253.933-3.263 1.89-4.656.648-.967-.864-.78-2.347.047-3.254.469-.514 1.292-.93 2.469-1.25Zm12.982.262c.104-.01.182-.015.235-.015-.261.236-.61.616-1.047 1.14-.531.638-1.151 1.47-1.859 2.499-.682.995-1.315 1.813-1.898 2.454a.074.074 0 0 0-.006.092c.017.027.05.039.081.033.267-.054.77-.081 1.51-.081h.261l.099.002h.063c.967.012 1.904-.449 2.354-1.294.314-.59.711-1.346 1.191-2.27.24-.483.422-.833.547-1.049.136-.216.318-.452.547-.71.24-.256.516-.441.828-.554a4.993 4.993 0 0 1 1.156-.278v.817c-.01 2.207-.117 3.97-.321 5.292a.112.112 0 0 0 .018.081.118.118 0 0 0 .105.051l1.479-.088c.681 0 1.177.026 1.487.078a.09.09 0 0 0 .1-.058.096.096 0 0 0 .003-.041c-.216-1.264-.324-3.134-.324-5.608V19.66c.01-2.46.117-4.32.321-5.584a.116.116 0 0 0-.123-.133l-1.464.088c-.541 0-1.239-.015-2.093-.046a56.443 56.443 0 0 0-1.813-.046c-1.093 0-2.004.113-2.733.34-.719.215-1.25.524-1.594.925-.343.4-.578.801-.703 1.202a4.672 4.672 0 0 0-.187 1.388c0 1.059.333 1.938 1 2.637.677.689 1.525 1.033 2.546 1.033h.234Zm4.062-5.304v4.163h-2.562c-.875 0-1.521-.267-1.937-.802-.417-.535-.625-1.223-.625-2.066 0-.823.208-1.434.625-1.835.416-.401 1.177-.602 2.281-.602.729 0 1.281.077 1.656.232.375.144.562.447.562.91ZM42.735 31.58c.08.557.146 1.227.197 2.01.01 2.713-.38 5.813-1.172 9.297-.187.802-.718 1.255-1.593 1.357-.583.062-.885.293-.906.694l-.168 3.748a.446.446 0 0 0 .433.463.462.462 0 0 0 .462-.348c.633-2.472 1.865-3.709 3.694-3.709h5.5a3.2 3.2 0 0 1 2.14.787c.624.524 1.062 1.059 1.312 1.604.205.438.362.872.47 1.304.05.199.227.346.435.346a.43.43 0 0 0 .433-.448l-.182-3.778c0-.36-.266-.58-.797-.663-.854-.154-1.28-.673-1.28-1.557v-4.826c.01-2.852.116-4.942.32-6.27a.116.116 0 0 0-.027-.094.122.122 0 0 0-.111-.041c-.377.055-.865.082-1.464.082h-6.108c-.598 0-1.085-.027-1.462-.082a.112.112 0 0 0-.109.048.107.107 0 0 0-.017.075Zm1.333 12.279c-.406.01-.61-.113-.61-.37 0-.062.068-.422.204-1.08.145-.657.323-1.768.53-3.33.22-1.573.392-3.413.517-5.52 0-.145.067-.314.203-.51.135-.205.364-.308.687-.308h2.27c.562 0 .916.113 1.062.34.146.225.219.631.219 1.217v8.019c0 .586-.078.992-.234 1.218-.146.216-.495.324-1.047.324h-3.801Zm22.207-1.913a.149.149 0 0 1-.03.05c-1.082 1.144-2.51 1.554-4.341 1.554-3.357 0-4.554-2.977-4.25-5.813h8.702c.386 0 .578-.18.578-.54 0-3.285-2.33-5.967-5.774-5.967-3.902 0-6.318 3.706-6.318 7.263 0 2.076.468 3.654 1.426 4.795 1.167 1.388 2.87 2.113 5.089 2.113 2.098 0 4.151-.898 5.408-2.569a.922.922 0 0 1 .2-.18l.007-.005c.03-.022.034-.06.013-.09a.092.092 0 0 0-.02-.021 2.17 2.17 0 0 1-.309-.283 2.07 2.07 0 0 1-.215-.373.073.073 0 0 0-.052-.041.082.082 0 0 0-.093.05l-.021.057Zm-2.637-5.473h-5.89c0-2.042 1.155-3.979 3.327-3.979 1.864 0 3.016 1.96 3.016 3.532 0 .298-.151.447-.453.447Zm8.919-2.406-.063-.092v-2.298c-.01-.216-.078-.324-.203-.324-.762.14-1.599.173-2.51.098a.116.116 0 0 0-.105.05.111.111 0 0 0-.018.08c.183 1.189.274 3.22.274 6.095v8.434c0 2.77-.092 4.859-.276 6.267a.106.106 0 0 0 .018.074.112.112 0 0 0 .11.047 9.966 9.966 0 0 1 1.414-.081c.587 0 1.069.027 1.445.082a.113.113 0 0 0 .11-.048.108.108 0 0 0 .018-.074c-.184-1.488-.277-3.577-.277-6.267v-1.403c.875.463 1.933.694 3.172.694 2.083 0 3.734-.704 4.952-2.113 1.219-1.408 1.828-3.238 1.828-5.49 0-1.788-.505-3.33-1.515-4.625-1-1.296-2.354-1.943-4.062-1.943-1.615 0-3.052.946-4.312 2.837Zm-.063 8.65V35.81c2.068-4.948 7.124-2.646 7.124 2.405 0 .71-.057 1.388-.171 2.036a7.736 7.736 0 0 1-.61 1.896 3.292 3.292 0 0 1-1.296 1.465c-.573.36-1.266.54-2.078.54-1.167-.01-2.156-.488-2.969-1.434Zm26.862 2.463 1.488-.087a129.636 129.636 0 0 0 4.577.062c3.01 0 4.408-1.08 4.515-3.917 0-2.01-1.656-2.939-3.203-3.377v-.062c1.334-.203 2.75-1.55 2.75-2.915 0-1.09-.359-1.927-1.078-2.513-.719-.596-2.093-.894-4.124-.894-.407 0-.969.01-1.688.03-.718.021-1.301.031-1.749.031-.681 0-1.176-.026-1.486-.078a.09.09 0 0 0-.101.058.085.085 0 0 0-.004.04c.238 1.54.356 3.429.356 5.67v2.175c0 2.33-.118 4.22-.355 5.666a.093.093 0 0 0 .004.046.098.098 0 0 0 .098.066Zm4.628-8.013h-1.828v-3.532c0-.493.083-.796.25-.91.177-.112.703-.169 1.578-.169.958 0 1.666.16 2.125.478.458.308.687.925.687 1.85 0 .658-.245 1.203-.734 1.635-.49.432-1.182.648-2.078.648Zm-1.828 5.49v-4.411h2.125c.895 0 1.598.283 2.109.848.51.566.765 1.27.765 2.113 0 1.912-1.057 2.868-3.171 2.868-.771 0-1.271-.088-1.5-.262-.219-.185-.328-.57-.328-1.157Z" stroke="#466330" stroke-width=".633" stroke-linejoin="round" mask="url(#aga)"/><path d="M112.592 31.58c.214 1.264.321 3.136.321 5.617v2.236c-.01 2.481-.117 4.354-.321 5.618a.1.1 0 0 0 .017.077.11.11 0 0 0 .108.047 10.53 10.53 0 0 1 1.462-.082c.607 0 1.1.027 1.477.081a.108.108 0 0 0 .125-.123c-.214-1.324-.321-3.196-.321-5.618v-.94h7.045v.94c-.01 2.474-.116 4.343-.319 5.607a.117.117 0 0 0 .026.093.122.122 0 0 0 .111.041c.367-.054.85-.081 1.448-.081.608 0 1.1.027 1.477.081a.112.112 0 0 0 .109-.047.107.107 0 0 0 .017-.076c-.204-1.323-.306-3.196-.306-5.618v-2.236c.041-2.62.143-4.493.306-5.618a.105.105 0 0 0-.017-.075.113.113 0 0 0-.109-.048c-.377.055-.864.082-1.461.082-.6 0-1.088-.027-1.465-.082a.119.119 0 0 0-.136.135c.213 1.264.319 3.133.319 5.606v.062h-7.045v-.062c.051-2.62.158-4.493.322-5.618a.11.11 0 0 0-.126-.123c-.378.055-.87.082-1.477.082-.599 0-1.086-.027-1.463-.082a.11.11 0 0 0-.107.047.11.11 0 0 0-.017.077Z" stroke="#466330" stroke-width=".633" stroke-linejoin="round" mask="url(#aga)"/><path clip-rule="evenodd" d="M131.666 38.97c.104-.01.183-.015.235-.015-.261.237-.61.617-1.047 1.141-.531.638-1.151 1.47-1.859 2.498-.683.996-1.315 1.814-1.898 2.455a.075.075 0 0 0-.007.092.08.08 0 0 0 .082.032c.267-.053.77-.08 1.51-.08.147 0 .288 0 .423.002.967.012 1.904-.449 2.355-1.294.314-.59.711-1.347 1.191-2.27.239-.484.421-.833.546-1.05.136-.215.318-.451.547-.708.24-.257.516-.442.828-.556a5.006 5.006 0 0 1 1.156-.277v.817c-.01 2.206-.117 3.97-.321 5.291a.117.117 0 0 0 .018.082.118.118 0 0 0 .105.051l1.479-.088c.681 0 1.177.026 1.487.078a.09.09 0 0 0 .1-.058.069.069 0 0 0 .004-.025v-.013l-.001-.003c-.216-1.265-.324-3.134-.324-5.608v-2.297c.01-2.46.117-4.32.321-5.585a.113.113 0 0 0-.019-.081.115.115 0 0 0-.103-.051l-1.465.088c-.541 0-1.239-.015-2.093-.046a56.69 56.69 0 0 0-1.812-.046c-1.094 0-2.005.113-2.734.339-.719.216-1.25.524-1.594.925-.344.401-.578.802-.703 1.203-.125.4-.187.864-.187 1.388 0 1.059.333 1.938.999 2.637.677.688 1.526 1.033 2.547 1.033h.234Zm4.062-5.304v4.164h-2.562c-.875 0-1.52-.268-1.937-.802-.417-.535-.625-1.224-.625-2.066 0-.823.208-1.434.625-1.835.417-.401 1.177-.602 2.281-.602.729 0 1.281.077 1.656.232.375.143.562.447.562.91ZM96.09 42.002a.147.147 0 0 1-.031.05c-1.081 1.145-2.509 1.555-4.34 1.555-3.357 0-4.555-2.977-4.25-5.813h8.702c.385 0 .578-.18.578-.54 0-3.285-2.331-5.968-5.774-5.968-3.903 0-6.318 3.706-6.318 7.263 0 2.077.467 3.655 1.426 4.796 1.166 1.388 2.87 2.112 5.088 2.112 2.098 0 4.172-.944 5.43-2.616.037-.036.098-.078.148-.113l.035-.024c.032-.022.036-.061.014-.093a.101.101 0 0 0-.009-.01l-.002-.003-.001-.001-.004-.004a2.88 2.88 0 0 1-.304-.3 2.479 2.479 0 0 1-.222-.359.074.074 0 0 0-.05-.038.083.083 0 0 0-.096.051l-.02.055Zm-2.638-5.473h-5.89c0-2.042 1.155-3.978 3.327-3.978 1.864 0 3.017 1.96 3.017 3.53 0 .299-.152.448-.454.448Z" stroke="#466330" stroke-width=".633" stroke-linejoin="round" mask="url(#aga)"/><path d="M58.933 14.177c-.74 0-1.248-.027-1.523-.083 3.377 7.381 5.265 11.583 5.663 12.604-.465 1.095-.835 1.605-1.702 2.705.99-.122 1.857.123 2.476.367.102-.327.174-.589.244-.844.26-.947.246-1.456 1.942-5.208 2.163-4.764 3.662-7.971 4.496-9.624-.19.056-.607.083-1.252.083-.569 0-.948-.027-1.138-.083-1.243 3.825-2.519 7.103-3.828 9.833h-.057c-1.954-4.615-3.253-7.893-3.899-9.833-.246.056-.72.083-1.422.083Z" stroke="#466330" stroke-width=".633" stroke-linejoin="round" mask="url(#aga)"/></symbol><symbol fill="none" viewBox="0 0 28 16" id="logoDesign" xmlns="http://www.w3.org/2000/svg"><path opacity=".8" fill-rule="evenodd" clip-rule="evenodd" d="m23 11-1-2c.022 0 .042 0 0 0 3.048-.075 4.049-1.657 4.049-3.5a3.6 3.6 0 0 0-3.512-3.536C18.108 2 19.307 8.381 19 7c-.565-.31-.892-1.343-1.686-1.54a12.176 12.176 0 0 0-6.629 0c-.794.2-1.12 1.23-1.686 1.54-.307 1.381.892-5-3.537-5.036A3.6 3.6 0 0 0 1.951 5.5c0 1.843 1 3.425 4.049 3.5-.044 0-.023 0 0 0l-1 2a5.6 5.6 0 0 1-5-5.522A5.52 5.52 0 0 1 5.463 0a5.187 5.187 0 0 1 4.845 3.475c.03.071.053.15.08.225a23.805 23.805 0 0 1 3.088-.657c.173-.027.348-.042.524-.043 1.226.104 2.436.338 3.612.7.027-.075.05-.155.08-.225A5.187 5.187 0 0 1 22.537 0 5.521 5.521 0 0 1 28 5.478 5.6 5.6 0 0 1 23 11Zm-1-2c-.048 0-.022 0 0 0ZM6 9c.022 0 .048 0 0 0Zm3.318 0a1.342 1.342 0 0 1 .627 1.691 1.069 1.069 0 1 1-.628-1.684L9.318 9ZM14 8.995c1.1 0 2 1.57 2 3.505 0 1.935-.9 3.5-2 3.5-1.076 0-1.952-1.492-2-3.355v-.3c.045-1.86.921-3.35 2-3.35Zm4.686.013a1.354 1.354 0 0 1 1.261 1.292 1.069 1.069 0 1 1-1.89.4 1.342 1.342 0 0 1 .626-1.693l.003.001Z" fill="#292929"/></symbol><symbol fill="none" viewBox="0 0 24 24" id="mail2" xmlns="http://www.w3.org/2000/svg"><g stroke-width="1.5"><path d="M2.25 4.75a.25.25 0 0 1 .25-.25h19a.25.25 0 0 1 .25.25V18.5a.25.25 0 0 1-.25.25h-19a.25.25 0 0 1-.25-.25V4.75Z" stroke="#466330"/><path d="M4.5 15.75H9" stroke="#FF8B49" stroke-linecap="round" stroke-linejoin="round"/></g></symbol><symbol fill="none" viewBox="0 0 20 20" id="profile" xmlns="http://www.w3.org/2000/svg"><g clip-path="url(#ala)" stroke="#292929" stroke-width="2" stroke-linecap="round" stroke-linejoin="round"><circle cx="9.999" cy="10" r="8.333"/><circle cx="10" cy="8.333" r="2.5"/><path d="M5 15.833c.975-1.49 2.849-2.5 5-2.5s4.025 1.01 5 2.5"/></g><defs><clipPath id="ala"><path fill="#fff" transform="matrix(-1 0 0 1 20 0)" d="M0 0h20v20H0z"/></clipPath></defs></symbol><symbol fill="none" viewBox="0 0 48 48" id="sIndividualOrder-icon-1" xmlns="http://www.w3.org/2000/svg"><path d="m33.902 16.985-4.443.928.781-4.59m3.662 3.662-1.83-1.83m1.83 1.83 7.81-7.811m-11.472 4.15 1.831 1.83m-1.83-1.83 7.81-7.811m-5.98 9.641 4.736-4.735m1-1 2.075-2.076m-1.83-1.83.854-.855a2.589 2.589 0 0 1 3.661 0v0a2.589 2.589 0 0 1 0 3.662l-.854.854M38.05 5.513l3.662 3.661M8.486 40.9H30.05m9.802-29.933V40.9h-6.077m3.178-34.413H11.197" stroke="#466330" stroke-linecap="round" stroke-linejoin="round"/><path d="M23.951 21.22h-9.923l5.016-7.388m4.907 7.388-4.907-7.388m4.907 7.388H37.38l-1.672-2.75m-16.663-4.638h10.192m-14.075 9.653v9.869h7.442m0 0v-9.869m0 9.869h13.104v-9.869M15.484 37.02h20.493m-20.493 0 1.43-1.428m-1.43 1.429 1.43 1.429m19.063-1.43-1.43-1.428m1.43 1.429-1.43 1.429m-15.53-28.285h10.892m-10.892 0 1.429-1.429m-1.43 1.43 1.43 1.428m9.463-1.429L28.48 8.736m1.429 1.43-1.429 1.428M5.743 11.57V7.129a2.742 2.742 0 0 1 2.742-2.742v0a2.742 2.742 0 0 1 2.743 2.742v31.03a2.742 2.742 0 0 1-2.743 2.742v0a2.742 2.742 0 0 1-2.742-2.742V14.022" stroke="#466330" stroke-linecap="round" stroke-linejoin="round"/><rect x="6.101" y="36.092" width="4.77" height="4.661" rx="2.33" stroke="#466330" stroke-linecap="round" stroke-linejoin="round"/></symbol><symbol fill="none" viewBox="0 0 48 48" id="sIndividualOrder-icon-2" xmlns="http://www.w3.org/2000/svg"><path d="M10 15v12m28-12v12m0 1.846V39H10V28.846M8.5 39h31" stroke="#466330" stroke-linecap="round"/><path d="M3 19 22.228 6.454a4 4 0 0 1 4.43.04l7.386 5.006M45 19l-9.13-6.5" stroke="#466330" stroke-linecap="round" stroke-linejoin="round"/><path stroke="#466330" stroke-linecap="round" d="m4.5 33.501 39-.001M10 39l4-5m16-19 2-5m-13 5-2-5"/><path d="m10 23 7.624-6.645a2 2 0 0 1 2.862.241L24.5 21.5M38 23l-6.891-6.486a2 2 0 0 0-2.956.237L24.5 21.5" stroke="#466330" stroke-linecap="round" stroke-linejoin="round"/><path d="m38 39-4-5m-23.5-3.5h27m-27-15h27m-13 23v-32" stroke="#466330" stroke-linecap="round"/></symbol><symbol fill="none" viewBox="0 0 25 24" id="shopping-cart" xmlns="http://www.w3.org/2000/svg"><path d="M4.75 6h16.351a.75.75 0 0 1 .738.884l-1.635 9a.75.75 0 0 1-.257.442c-.135.112-.771.474-.947.474H7.6c-.176 0-.653-.362-.788-.474a.75.75 0 0 1-.257-.442L4.18 2.865a.75.75 0 0 0-.737-.615H1.75" stroke="#292929" stroke-width="2" stroke-linecap="round" stroke-linejoin="round"/><path d="M7.6 24a1.8 1.8 0 1 0 0-3.6 1.8 1.8 0 0 0 0 3.6Zm10.8 0a1.8 1.8 0 1 0 0-3.6 1.8 1.8 0 0 0 0 3.6Z" fill="#292929"/></symbol><symbol fill="none" viewBox="0 0 16 16" id="telegram" xmlns="http://www.w3.org/2000/svg"><path d="m14.629 3.698-2.012 9.618c-.152.679-.548.848-1.11.528l-3.066-2.29-1.48 1.442c-.163.166-.3.305-.616.305l.22-3.165 5.683-5.204c.247-.223-.054-.347-.384-.123L4.839 9.29l-3.024-.959c-.658-.208-.67-.667.137-.986L13.78 2.727c.548-.208 1.027.124.849.971Z" fill="#000"/></symbol><symbol fill="none" viewBox="0 0 24 24" id="tg2" xmlns="http://www.w3.org/2000/svg"><path d="m13 15 2.5 1.5" stroke="#FF8B49" stroke-width="1.5" stroke-linecap="round" stroke-linejoin="round"/><path clip-rule="evenodd" d="M3.087 11.422c4.832-2.105 8.054-3.493 9.666-4.164 4.603-1.914 5.56-2.247 6.183-2.258.137-.002.443.032.642.193.168.136.214.32.236.449.022.129.05.423.028.652-.25 2.621-1.33 8.981-1.878 11.916-.233 1.242-.69 1.659-1.133 1.7-.963.088-1.693-.636-2.626-1.247-1.458-.957-2.283-1.552-3.698-2.485-1.637-1.079-.576-1.671.357-2.64.244-.253 4.484-4.11 4.566-4.46.01-.044.02-.208-.077-.294-.096-.086-.24-.056-.343-.033-.146.033-2.476 1.574-6.991 4.621-.661.454-1.26.675-1.797.664-.592-.013-1.73-.335-2.577-.61-1.038-.337-1.863-.516-1.791-1.089.037-.298.448-.603 1.233-.915Z" stroke="#466330" stroke-width="1.412"/></symbol><symbol fill="none" viewBox="0 0 24 24" id="whatsapp2" xmlns="http://www.w3.org/2000/svg"><path clip-rule="evenodd" d="M22 12c0 5.523-4.477 10-10 10a9.954 9.954 0 0 1-5.03-1.355L2 22l1.355-4.97A9.954 9.954 0 0 1 2 12C2 6.477 6.477 2 12 2s10 4.477 10 10ZM9.155 7.006c.19.008.4.017.6.459.136.302.366.866.549 1.315.134.33.244.598.272.654.067.132.111.287.022.465a7.69 7.69 0 0 0-.037.074c-.067.136-.116.236-.23.368l-.137.164a4.47 4.47 0 0 1-.262.3c-.134.133-.273.276-.117.542.156.265.69 1.134 1.483 1.837a6.894 6.894 0 0 0 1.966 1.237c.074.032.133.058.177.08.267.132.422.11.578-.067.155-.177.666-.774.843-1.04.178-.265.356-.221.6-.133.245.089 1.555.73 1.822.863.052.026.1.05.145.07.186.09.312.15.366.24.066.11.066.642-.156 1.26-.222.62-1.31 1.218-1.799 1.262l-.142.015c-.452.053-1.022.12-3.056-.679-2.505-.983-4.156-3.419-4.497-3.921l-.057-.083-.003-.004C7.94 12.09 7 10.839 7 9.544c0-1.221.603-1.862.88-2.156l.015-.015.038-.041A.98.98 0 0 1 8.643 7h.03c.167 0 .335 0 .482.006Z" stroke="#466330" stroke-width="1.5" stroke-linejoin="round"/><path clip-rule="evenodd" d="M9.188 7.006c.192.008.406.017.609.459.138.302.372.866.558 1.315.136.33.247.598.276.654.068.132.113.287.022.465l-.037.074a1.514 1.514 0 0 1-.233.368l-.14.164c-.092.11-.185.222-.266.3-.136.133-.277.276-.119.542.158.265.701 1.134 1.506 1.837a7.018 7.018 0 0 0 1.996 1.237c.075.032.136.058.18.08.271.132.429.11.587-.067.158-.177.676-.774.856-1.04.18-.265.361-.221.61-.133.248.089 1.578.73 1.849.863l.148.071c.189.09.316.15.37.239.068.11.068.642-.157 1.261-.226.62-1.33 1.217-1.827 1.261l-.144.015c-.459.053-1.038.12-3.104-.679-2.543-.983-4.22-3.419-4.565-3.921l-.058-.083-.003-.004C7.955 12.09 7 10.839 7 9.544c0-1.221.613-1.862.894-2.156l.015-.015.038-.041C8.195 7.066 8.488 7 8.67 7h.03c.17 0 .34 0 .489.006Z" stroke="#FF8B49" stroke-width="1.5" stroke-linejoin="round"/></symbol></svg>