<?xml version="1.0" encoding="utf-8"?><svg xmlns="http://www.w3.org/2000/svg" xmlns:xlink="http://www.w3.org/1999/xlink"><symbol viewBox="0 0 22 24" id="basket" xmlns="http://www.w3.org/2000/svg"><g clip-path="url(#aa)"><path d="M10.363 18.443a2.046 2.046 0 0 0-2.045 2.042 2.046 2.046 0 0 0 4.09 0 2.046 2.046 0 0 0-2.045-2.042Zm6.134 0a2.046 2.046 0 0 0-2.045 2.042 2.046 2.046 0 0 0 4.089 0 2.046 2.046 0 0 0-2.044-2.042Zm3.978-8.199L7.413 6.891a.614.614 0 0 0-.75.73L8.67 16.4h-.786L5.482 5.895a.613.613 0 0 0-.474-.464l-4.27-.882A.614.614 0 0 0 .489 5.75l3.885.802L6.797 17.15a.613.613 0 0 0 .598.477h12.07a.615.615 0 0 0 .607-.53l.858-6.175a.613.613 0 0 0-.455-.678Zm-8.14 3.91a.613.613 0 0 1-1.227 0v-2.696a.613.613 0 0 1 1.227 0v2.696Zm2.625 0a.613.613 0 0 1-1.227 0v-1.88a.613.613 0 0 1 1.227 0v1.88Zm2.625 0a.613.613 0 0 1-1.227 0v-1.226a.613.613 0 0 1 1.227 0v1.226Z"/></g><path fill-rule="evenodd" clip-rule="evenodd" d="M16.268 4.568a2.996 2.996 0 0 0-1.693-.523c-.627 0-1.21.193-1.693.523-.28-.843-.492-1.752-.492-2.383C12.39.98 13.37 0 14.575 0s2.185.98 2.185 2.185c0 .631-.212 1.54-.492 2.383Zm-4.722 2.274.024.006v-.011l-.024.005Zm4.972 1.217c-1.333-.33-2.766-.681-4.129-1.013a2.185 2.185 0 1 1 4.129 1.013Zm4.436 1.103c-.866-.217-2.155-.538-3.618-.9a2.995 2.995 0 0 0 .243-1.425c.87.18 1.762.45 2.308.765.596.344.969.928 1.067 1.56ZM9.869 6.439c-.36-.086-.706-.167-1.03-.243a2.19 2.19 0 0 1-.376-2.667 2.188 2.188 0 0 1 3.147-.7c.098.738.338 1.599.61 2.353a3.01 3.01 0 0 0-.449.774c-.628.113-1.305.278-1.902.483Zm10.124.075a3.43 3.43 0 0 1-.217.114c-.696-.295-1.587-.526-2.397-.672a3.01 3.01 0 0 0-.449-.774c.262-.727.494-1.553.599-2.273.095-.067.189-.128.278-.18a2.188 2.188 0 0 1 2.986.8 2.188 2.188 0 0 1-.8 2.985Z"/><defs><clipPath id="aa"><path transform="translate(0 3.064)" d="M0 0h20.936v20.936H0z"/></clipPath></defs></symbol><symbol viewBox="0 0 24 24" id="catalog" xmlns="http://www.w3.org/2000/svg"><rect x="1.999" y="4.8" width="20" height="2.4" rx="1.2"/><rect x="1.999" y="11" width="20" height="2.4" rx="1.2"/><rect x="1.999" y="17.2" width="20" height="2.4" rx="1.2"/></symbol><symbol viewBox="0 0 344.96 344.96" id="check" xmlns="http://www.w3.org/2000/svg"><g data-name="Слой 2"><path class="ccls-1" d="m321.85 86.24-40-23.11-23.1-40H212.5L172.48 0l-40 23.11H86.24l-23.11 40-40 23.1v46.21L0 172.48l23.11 40v46.21l40 23.11 23.11 40h46.21l40 23.1 40-23.11h46.21l23.11-40 40-23.11V212.5l23.11-40-23.11-40V86.24ZM156.91 243.07a16.79 16.79 0 0 1-23.34 0l-50.45-50.44a16.19 16.19 0 0 1 0-22.89l13.35-13.35a16.19 16.19 0 0 1 22.89 0l25.87 25.87 80.34-80.35a16.19 16.19 0 0 1 22.89 0l13.35 13.35a16.19 16.19 0 0 1 0 22.89Z" data-name="Capa 1"/></g></symbol><symbol viewBox="0 0 16 16" id="chevron-down" xmlns="http://www.w3.org/2000/svg"><path d="m12.69 5.309.714.667L8.69 10.69 3.976 5.976l.714-.667 4 4 4-4Z"/></symbol><symbol viewBox="0 0 24 24" id="chevron-left" xmlns="http://www.w3.org/2000/svg"><path d="M15 7.41 13.59 6l-6 6 6 6L15 16.59 10.42 12 15 7.41Z"/></symbol><symbol viewBox="0 0 16 16" id="chevron-right" xmlns="http://www.w3.org/2000/svg"><path d="m6 4 .667-.714L11.382 8l-4.715 4.714L6 12l4-4-4-4Z"/></symbol><symbol viewBox="0 0 16 16" id="chevron-right2" xmlns="http://www.w3.org/2000/svg"><path d="m5.333 4.667 1.333-1.38L11.38 8l-4.714 4.714-1.333-1.38L8.666 8 5.333 4.667Z"/></symbol><symbol viewBox="0 0 24 24" id="fb" xmlns="http://www.w3.org/2000/svg"><path d="M13.397 20.997v-8.196h2.765l.411-3.209h-3.176V7.548c0-.926.258-1.56 1.587-1.56h1.684v-2.86A22.108 22.108 0 0 0 14.201 3c-2.444 0-4.122 1.492-4.122 4.231v2.355H7.332v3.21h2.753v8.201h3.312Z"/></symbol><symbol viewBox="0 0 20 20" id="heart" xmlns="http://www.w3.org/2000/svg"><path d="m9.289 4.822.721.753.722-.753.93-.97a3.681 3.681 0 0 1 5.371 0c1.51 1.575 1.51 4.144 0 5.718l-7.021 7.319-.023-.024-.001.002-7.022-7.32c-1.51-1.574-1.51-4.143 0-5.717a3.681 3.681 0 0 1 5.37 0l.953.992Z"/></symbol><symbol viewBox="0 0 24 24" id="instagram" xmlns="http://www.w3.org/2000/svg"><path d="M11.999 7.377a4.624 4.624 0 1 0 0 9.248 4.624 4.624 0 0 0 0-9.248Zm0 7.627a3.004 3.004 0 1 1 0-6.008 3.004 3.004 0 0 1 0 6.008Zm4.807-6.719a1.078 1.078 0 1 0 0-2.156 1.078 1.078 0 0 0 0 2.156Z"/><path d="M20.533 6.11A4.605 4.605 0 0 0 17.9 3.48a6.607 6.607 0 0 0-2.186-.42c-.963-.042-1.268-.054-3.71-.054s-2.755 0-3.71.054a6.554 6.554 0 0 0-2.184.42 4.6 4.6 0 0 0-2.633 2.63 6.585 6.585 0 0 0-.419 2.186c-.043.962-.056 1.267-.056 3.71 0 2.442 0 2.753.056 3.71.015.748.156 1.486.419 2.187a4.61 4.61 0 0 0 2.634 2.632 6.583 6.583 0 0 0 2.185.45c.963.042 1.268.055 3.71.055s2.755 0 3.71-.055a6.616 6.616 0 0 0 2.186-.42 4.613 4.613 0 0 0 2.633-2.632c.263-.7.404-1.438.419-2.186.043-.962.056-1.267.056-3.71s0-2.753-.056-3.71a6.583 6.583 0 0 0-.421-2.217Zm-1.218 9.533a5.046 5.046 0 0 1-.311 1.688 2.987 2.987 0 0 1-1.712 1.71c-.535.2-1.1.305-1.67.312-.95.044-1.218.055-3.654.055-2.438 0-2.687 0-3.655-.055a4.961 4.961 0 0 1-1.67-.311 2.984 2.984 0 0 1-1.718-1.711 5.08 5.08 0 0 1-.311-1.67c-.043-.95-.053-1.217-.053-3.653 0-2.437 0-2.686.053-3.655a5.038 5.038 0 0 1 .311-1.687c.305-.79.93-1.41 1.719-1.712a5.01 5.01 0 0 1 1.669-.311c.95-.043 1.218-.055 3.655-.055s2.687 0 3.654.055a4.96 4.96 0 0 1 1.67.31 2.99 2.99 0 0 1 1.712 1.713 5.06 5.06 0 0 1 .311 1.669c.043.95.054 1.218.054 3.655 0 2.436 0 2.698-.043 3.654h-.011v-.001Z"/></symbol><symbol viewBox="0 0 28 16" id="logoDesign" xmlns="http://www.w3.org/2000/svg"><path fill-rule="evenodd" clip-rule="evenodd" d="m23 11-1-2c.022 0 .042 0 0 0 3.048-.075 4.049-1.657 4.049-3.5a3.6 3.6 0 0 0-3.512-3.536C18.108 2 19.307 8.381 19 7c-.565-.31-.892-1.343-1.686-1.54a12.176 12.176 0 0 0-6.629 0c-.794.2-1.12 1.23-1.686 1.54-.307 1.381.892-5-3.537-5.036A3.6 3.6 0 0 0 1.951 5.5c0 1.843 1 3.425 4.049 3.5-.044 0-.023 0 0 0l-1 2a5.6 5.6 0 0 1-5-5.522A5.52 5.52 0 0 1 5.463 0a5.187 5.187 0 0 1 4.845 3.475c.03.071.053.15.08.225a23.805 23.805 0 0 1 3.088-.657c.173-.027.348-.042.524-.043 1.226.104 2.436.338 3.612.7.027-.075.05-.155.08-.225A5.187 5.187 0 0 1 22.537 0 5.521 5.521 0 0 1 28 5.478 5.6 5.6 0 0 1 23 11Zm-1-2c-.048 0-.022 0 0 0ZM6 9c.022 0 .048 0 0 0Zm3.318 0a1.342 1.342 0 0 1 .627 1.691 1.069 1.069 0 1 1-.628-1.684L9.318 9ZM14 8.995c1.1 0 2 1.57 2 3.505 0 1.935-.9 3.5-2 3.5-1.076 0-1.952-1.492-2-3.355v-.3c.045-1.86.921-3.35 2-3.35Zm4.686.013a1.354 1.354 0 0 1 1.261 1.292 1.069 1.069 0 1 1-1.89.4 1.342 1.342 0 0 1 .626-1.693l.003.001Z"/></symbol><symbol viewBox="0 0 16 16" id="map-pin" xmlns="http://www.w3.org/2000/svg"><g stroke-width="1.5" stroke-linecap="round" stroke-linejoin="round"><path d="M8 8.5a2 2 0 1 0 0-4 2 2 0 0 0 0 4Z"/><path d="M13 6.5c0 4.5-5 8-5 8s-5-3.5-5-8a5 5 0 1 1 10 0Z"/></g></symbol><symbol viewBox="0 0 24 24" id="menu" xmlns="http://www.w3.org/2000/svg"><path d="M8 6a2 2 0 1 1-4 0 2 2 0 0 1 4 0Zm0 6a2 2 0 1 1-4 0 2 2 0 0 1 4 0Zm-2 8a2 2 0 1 0 0-4 2 2 0 0 0 0 4Zm8-14a2 2 0 1 1-4 0 2 2 0 0 1 4 0Zm-2 8a2 2 0 1 0 0-4 2 2 0 0 0 0 4Zm2 4a2 2 0 1 1-4 0 2 2 0 0 1 4 0Zm4-10a2 2 0 1 0 0-4 2 2 0 0 0 0 4Zm2 4a2 2 0 1 1-4 0 2 2 0 0 1 4 0Zm-2 8a2 2 0 1 0 0-4 2 2 0 0 0 0 4Z"/></symbol><symbol viewBox="0 0 20 20" id="profile" xmlns="http://www.w3.org/2000/svg"><g clip-path="url(#na)" stroke-width="1.5" stroke-linecap="round" stroke-linejoin="round"><circle cx="10" cy="10" r="8.333"/><circle cx="10" cy="8.333" r="2.5"/><path d="M5 15.833c.975-1.49 2.849-2.5 5-2.5s4.025 1.01 5 2.5"/></g><defs><clipPath id="na"><path transform="matrix(-1 0 0 1 20 0)" d="M0 0h20v20H0z"/></clipPath></defs></symbol><symbol viewBox="0 0 16 16" id="rateStar" xmlns="http://www.w3.org/2000/svg"><path d="M8 11.513 12.12 14l-1.094-4.687 3.64-3.153-4.793-.407L8 1.333l-1.874 4.42-4.793.407 3.64 3.153L3.88 14 8 11.513Z"/></symbol><symbol viewBox="0 0 24 24" id="rus" xmlns="http://www.w3.org/2000/svg"><rect x="3" y="3" width="8" height="8" rx="1"/><rect x="3" y="13" width="8" height="8" rx="1"/><rect x="13" y="3" width="8" height="8" rx="1"/><rect x="13" y="13" width="8" height="8" rx="1"/></symbol><symbol viewBox="0 0 20 20" id="search" xmlns="http://www.w3.org/2000/svg"><path d="M9.234 15.625c3.568 0 6.46-2.938 6.46-6.563 0-3.624-2.892-6.562-6.46-6.562-3.567 0-6.46 2.938-6.46 6.563 0 3.624 2.893 6.562 6.46 6.562Zm4.568-1.922 3.737 3.797" stroke-width="2" stroke-linecap="round" stroke-linejoin="round"/></symbol><symbol viewBox="0 0 25 24" id="shopping-cart" xmlns="http://www.w3.org/2000/svg"><path d="M4.75 6h16.351a.75.75 0 0 1 .738.884l-1.635 9a.75.75 0 0 1-.257.442c-.135.112-.771.474-.947.474H7.6c-.176 0-.653-.362-.788-.474a.75.75 0 0 1-.257-.442L4.18 2.865a.75.75 0 0 0-.737-.615H1.75M7.6 24a1.8 1.8 0 1 0 0-3.6 1.8 1.8 0 0 0 0 3.6Zm10.8 0a1.8 1.8 0 1 0 0-3.6 1.8 1.8 0 0 0 0 3.6Z"/></symbol><symbol viewBox="0 0 16 16" id="telegram" xmlns="http://www.w3.org/2000/svg"><path d="m14.629 3.698-2.012 9.618c-.152.679-.548.848-1.11.528l-3.066-2.29-1.48 1.442c-.163.166-.3.305-.616.305l.22-3.165 5.683-5.204c.247-.223-.054-.347-.384-.123L4.839 9.29l-3.024-.959c-.658-.208-.67-.667.137-.986L13.78 2.727c.548-.208 1.027.124.849.971Z"/></symbol><symbol viewBox="0 0 16 16" id="viber" xmlns="http://www.w3.org/2000/svg"><path d="M8 1.335c-1.071.013-3.374.19-4.662 1.37-.958.948-1.292 2.35-1.331 4.084-.033 1.728-.072 4.973 3.058 5.856v1.346s-.02.538.337.648c.438.14.688-.275 1.105-.72l.778-.879c2.142.178 3.782-.232 3.97-.293.435-.139 2.883-.451 3.283-3.696.41-3.351-.2-5.463-1.301-6.418h-.007c-.332-.306-1.668-1.279-4.652-1.29 0 0-.222-.014-.578-.008Zm.037.942a7.02 7.02 0 0 1 .488.011c2.527.007 3.732.767 4.017 1.023.927.794 1.405 2.697 1.055 5.495-.332 2.713-2.317 2.885-2.685 3.002-.156.05-1.6.406-3.42.289 0 0-1.356 1.634-1.78 2.055-.067.074-.146.095-.196.085-.071-.018-.093-.107-.089-.229l.013-2.233c-2.655-.733-2.498-3.5-2.47-4.946.033-1.446.304-2.628 1.113-3.43 1.088-.982 3.043-1.115 3.953-1.122Zm.2 1.446a.166.166 0 1 0 0 .332 3.136 3.136 0 0 1 2.242.883c.606.588.9 1.378.912 2.411 0 .092.074.167.167.167V7.51a.167.167 0 0 0 .168-.165 3.588 3.588 0 0 0-1.009-2.646c-.66-.645-1.496-.977-2.48-.977Zm-2.198.382a.523.523 0 0 0-.342.067H5.69a2.61 2.61 0 0 0-.637.523 1.003 1.003 0 0 0-.256.525.71.71 0 0 0 .026.302l.01.006c.172.504.396.988.67 1.444a8.48 8.48 0 0 0 1.29 1.762l.015.022.024.017.015.018.017.015c.532.505 1.127.94 1.769 1.295.734.4 1.18.588 1.447.667v.004c.078.024.15.034.221.034.228-.016.444-.109.613-.262a2.53 2.53 0 0 0 .517-.638v-.004c.128-.241.085-.469-.1-.623-.37-.323-.77-.61-1.195-.857-.285-.155-.574-.061-.69.095l-.25.315c-.129.156-.361.134-.361.134l-.007.004C7.093 8.527 6.63 6.772 6.63 6.772s-.022-.239.139-.36l.312-.252c.15-.122.254-.41.094-.695a7.498 7.498 0 0 0-.856-1.194.475.475 0 0 0-.28-.167Zm2.486.495c-.221 0-.221.334.003.334A2.098 2.098 0 0 1 10 5.572 1.94 1.94 0 0 1 10.5 7a.168.168 0 0 0 .167.165l.007.009a.169.169 0 0 0 .167-.167c.015-.662-.191-1.218-.595-1.663C9.84 4.9 9.273 4.65 8.549 4.6h-.024Zm.274.898c-.228-.006-.236.335-.01.341.55.029.816.306.851.877a.166.166 0 0 0 .165.163h.007a.168.168 0 0 0 .16-.178c-.039-.744-.445-1.164-1.166-1.202H8.8Z"/></symbol><symbol viewBox="0 0 24 24" id="vk" xmlns="http://www.w3.org/2000/svg"><path d="M21.579 6.855c.14-.465 0-.806-.662-.806h-2.193c-.558 0-.813.295-.953.619 0 0-1.115 2.719-2.695 4.482-.51.513-.743.675-1.021.675-.139 0-.341-.162-.341-.627V6.855c0-.558-.161-.806-.626-.806H9.642c-.348 0-.558.258-.558.504 0 .528.79.65.871 2.138v3.228c0 .707-.127.836-.407.836-.743 0-2.551-2.73-3.624-5.853-.209-.607-.42-.852-.98-.852H2.752c-.627 0-.752.295-.752.619 0 .582.743 3.462 3.461 7.27 1.812 2.602 4.363 4.012 6.687 4.012 1.393 0 1.565-.313 1.565-.853v-1.966c0-.626.133-.752.574-.752.324 0 .882.164 2.183 1.417 1.486 1.486 1.732 2.153 2.567 2.153h2.192c.626 0 .939-.313.759-.931-.197-.615-.907-1.51-1.849-2.57-.512-.603-1.277-1.253-1.51-1.578-.325-.42-.231-.604 0-.976.001 0 2.672-3.761 2.95-5.04Z"/></symbol><symbol viewBox="0 0 16 16" id="whatsapp" xmlns="http://www.w3.org/2000/svg"><path fill-rule="evenodd" clip-rule="evenodd" d="M14 8a6 6 0 0 1-9.018 5.187L2 14l.813-2.982A6 6 0 1 1 14 8ZM6.293 5.004c.114.004.24.01.36.275.082.181.22.52.33.789.08.198.146.359.163.392.04.08.066.173.013.28a6.11 6.11 0 0 0-.022.044.91.91 0 0 1-.138.22l-.082.099c-.055.066-.11.133-.158.18-.08.08-.163.166-.07.325.093.16.414.68.89 1.102.51.454.954.645 1.18.743.044.019.08.034.106.047.16.08.253.067.346-.04a8.7 8.7 0 0 0 .506-.624c.107-.159.214-.132.36-.08.147.054.933.439 1.093.519l.087.042c.112.054.188.09.22.143.04.067.04.385-.094.757-.133.372-.786.73-1.079.757a2.941 2.941 0 0 0-.085.009c-.271.031-.613.072-1.834-.408-1.503-.59-2.493-2.051-2.698-2.353l-.034-.05-.002-.002C5.564 8.055 5 7.304 5 6.527c0-.733.362-1.118.529-1.294l.008-.01.023-.024A.585.585 0 0 1 5.986 5h.018c.1 0 .2 0 .289.004Z"/></symbol></svg>