<svg width="38" height="35" viewBox="0 0 38 35" fill="none" xmlns="http://www.w3.org/2000/svg">
<path id="Vector" d="M37.4019 17.2823C37.3996 17.264 37.3966 17.2456 37.3931 17.2273L34.6418 3.05796C34.6391 3.04423 34.6361 3.03087 34.633 3.01751C34.3738 1.93446 33.0501 -0.0851023 29.9135 0.00381634L19.6669 0C19.5926 0 19.5184 0.00877768 19.446 0.0259508L10.9899 2.0436C10.7889 1.09565 9.94752 0.382007 8.94246 0.382007H2.59386C1.43919 0.382007 0.5 1.32348 0.5 2.48095V5.10729C0.5 5.63432 0.926006 6.06135 1.45176 6.06135C1.97751 6.06135 2.40351 5.63432 2.40351 5.10729V2.48095C2.40351 2.37753 2.49069 2.29013 2.59386 2.29013H8.94246C9.04563 2.29013 9.13281 2.37753 9.13281 2.48095V3.61895V18.5504V18.8324C9.13281 18.9359 9.04563 19.0233 8.94246 19.0233H2.59386C2.49069 19.0233 2.40351 18.9359 2.40351 18.8324V8.45071C2.40351 7.92369 1.97751 7.49665 1.45176 7.49665C0.926006 7.49665 0.5 7.92369 0.5 8.45071V18.8324C0.5 19.9899 1.43919 20.9314 2.59386 20.9314H8.94246C9.77544 20.9314 10.4946 20.4399 10.8315 19.7319L14.717 20.749L17.7055 26.0883L18.8194 33.9952C18.8723 34.3707 19.1422 34.6794 19.507 34.7809C19.5656 34.7974 20.3156 35.0004 21.3073 35C22.229 35 23.3597 34.8252 24.3392 34.1623C25.5103 33.3705 26.2031 32.0897 26.3988 30.356C26.4038 30.3121 26.4057 30.2678 26.4045 30.2236C26.4034 30.1743 26.2903 25.7105 26.4734 22.7472L29.3767 22.7815C29.3805 22.7815 29.3843 22.7815 29.3881 22.7815C29.9085 22.7815 30.3334 22.3617 30.3398 21.8385C30.3459 21.3119 29.9249 20.8795 29.3991 20.8734L25.6047 20.8287C25.0991 20.815 24.6936 21.1978 24.6461 21.6912C24.3735 24.5187 24.4835 29.5267 24.4999 30.2045C24.3624 31.3208 23.9524 32.1183 23.2816 32.5755C22.4273 33.1583 21.2909 33.1346 20.6083 33.0491L19.5648 25.6437C19.5485 25.5265 19.51 25.4132 19.4525 25.3102L16.1785 19.461C16.0521 19.2351 15.8389 19.0702 15.5888 19.0046L11.0359 17.8127V3.99371L19.7773 1.90813L29.9405 1.91156C32.222 1.8402 32.7208 3.2545 32.7786 3.45256L35.5185 17.5639C35.7085 19.0042 35.5444 20.072 35.056 20.5715C34.6376 20.9993 34.046 20.9371 34.0357 20.9367C33.9935 20.9306 33.9512 20.9272 33.9086 20.9268L32.7348 20.9131C32.731 20.9131 32.7272 20.9131 32.7234 20.9131C32.203 20.9131 31.7781 21.3329 31.7717 21.8561C31.7656 22.3827 32.1866 22.8151 32.7124 22.8212L33.8377 22.8345C33.9032 22.841 34.0011 22.8479 34.1233 22.8479C34.6391 22.8479 35.5897 22.7258 36.3801 21.9427C37.3455 20.9867 37.6889 19.419 37.4019 17.2823Z" fill="#C73843"/>
</svg>
