<svg width="38" height="35" viewBox="0 0 38 35" fill="none" xmlns="http://www.w3.org/2000/svg">
<path id="Vector" d="M36.3807 13.0582C35.4034 12.0896 34.1813 12.1327 33.838 12.1663L32.7126 12.1797C32.1872 12.1858 31.7658 12.6182 31.7719 13.1448C31.778 13.6714 32.2044 14.0802 32.7347 14.0878L33.9084 14.0741C33.951 14.0737 33.9933 14.0702 34.0355 14.0641C34.0409 14.063 34.6291 14.0061 35.0425 14.4156C35.5416 14.9098 35.7102 15.9822 35.5184 17.4369L32.7781 31.5494C32.7362 31.6948 32.2535 33.1613 29.9118 33.0884L19.7772 33.0923L11.0359 31.0071V17.187L15.5891 15.9955C15.8392 15.9303 16.0524 15.7654 16.1788 15.5391L19.4528 9.68959C19.5107 9.58617 19.5487 9.47359 19.5651 9.35605L20.6086 1.95141C21.2897 1.86669 22.4238 1.84379 23.2747 2.41966C23.95 2.87608 24.3619 3.67559 24.5001 4.79565C24.4838 5.47341 24.3737 10.4815 24.6463 13.3089C24.6939 13.8023 25.1115 14.1622 25.6049 14.1714L29.3994 14.1267C29.9251 14.1202 30.3462 13.6882 30.3401 13.1616C30.3336 12.635 29.8985 12.2148 29.3773 12.2186L26.4741 12.253C26.2913 9.28927 26.404 4.82618 26.4052 4.77657C26.4063 4.7323 26.4044 4.68841 26.3994 4.64415C26.2038 2.91043 25.5109 1.6297 24.3399 0.837833C22.3058 -0.537919 19.6207 0.187547 19.5076 0.219222C19.1429 0.320734 18.873 0.629467 18.8201 1.00498L17.7061 8.91184L14.7176 14.2511L10.8322 15.2682C10.4953 14.5602 9.77653 14.0687 8.94318 14.0687H2.59385C1.43919 14.0687 0.5 15.0102 0.5 16.1676V26.5493C0.5 27.0764 0.926004 27.5034 1.45175 27.5034C1.9775 27.5034 2.4035 27.0764 2.4035 26.5493V16.168C2.4035 16.0646 2.49068 15.9772 2.59385 15.9772H8.94242C9.04559 15.9772 9.13277 16.0646 9.13277 16.168V16.45V31.3814V32.5194C9.13277 32.6229 9.04559 32.7103 8.94242 32.7103H2.59385C2.49068 32.7103 2.4035 32.6229 2.4035 32.5194V29.8935C2.4035 29.3665 1.9775 28.9394 1.45175 28.9394C0.926004 28.9394 0.5 29.3665 0.5 29.8935V32.5194C0.5 33.6769 1.43919 34.6184 2.59385 34.6184H8.94242C9.94747 34.6184 10.7884 33.9047 10.9898 32.9568L19.4459 34.974C19.5179 34.9912 19.5921 35 19.6664 35L29.8848 34.9958C33.0495 35.0866 34.3736 33.0659 34.6332 31.9825C34.6363 31.9691 34.6393 31.9558 34.642 31.9421L37.3933 17.7728C37.3967 17.7544 37.3998 17.7361 37.4021 17.7178C37.6887 15.5815 37.3454 14.0138 36.3807 13.0582Z" fill="#6E9545"/>
</svg>
