<svg width="80" height="32" viewBox="0 0 80 32" fill="none" xmlns="http://www.w3.org/2000/svg">
<g id="Logotype">
<g id="Group 2025">
<g id="Intersect">
<path d="M17.3712 22.1341C14.3916 17.4002 9.06818 14.2473 2.99704 14.2473C2.99477 14.2473 2.9925 14.2473 2.99023 14.2473V15.7378C2.9925 15.7378 2.99477 15.7378 2.99704 15.7378C8.80854 15.7378 13.8675 18.9109 16.4851 23.5939C16.8437 23.1521 17.1431 22.6616 17.3712 22.1341Z" fill="white"/>
<path d="M15.3562 24.6788C13.0596 20.256 8.38731 17.2282 2.99693 17.2282C2.9947 17.2282 2.99247 17.2282 2.99023 17.2282V18.7187C2.99247 18.7187 2.9947 18.7187 2.99693 18.7187C7.83107 18.7187 12.017 21.452 14.0483 25.435C14.5162 25.234 14.9548 24.9793 15.3562 24.6788Z" fill="white"/>
<path d="M12.4777 25.8829C10.6311 22.5736 7.09498 20.3078 3.01331 20.2123C3.05831 20.7348 3.16825 21.2391 3.33515 21.7173C6.43932 21.9031 9.14454 23.5439 10.7567 25.9563H11.5001C11.8325 25.9563 12.159 25.9312 12.4777 25.8829Z" fill="white"/>
<path d="M8.92869 25.9415C7.73723 24.5879 6.06652 23.6312 4.16581 23.3091C5.24211 24.8007 6.96315 25.8096 8.92869 25.9415Z" fill="white"/>
</g>
<g id="Intersect_2">
<path d="M17.6787 21.239C17.5985 21.5471 17.4952 21.846 17.3706 22.134C17.2378 21.9229 17.1002 21.7149 16.9582 21.5102C17.1905 21.4047 17.4311 21.3139 17.6787 21.239Z" fill="white"/>
<path d="M17.8782 18.1848V19.6742C17.8782 19.6877 17.8781 19.7013 17.8781 19.7149C17.2581 19.8714 16.671 20.1087 16.1291 20.4148C15.8054 20.0216 15.4638 19.6433 15.1056 19.281C15.944 18.7661 16.8792 18.3899 17.8782 18.1848Z" fill="white"/>
<path d="M17.8782 15.1593V16.6712C16.463 16.9229 15.1467 17.473 13.9974 18.2561C13.5989 17.9192 13.1843 17.6003 12.7549 17.3007C14.2334 16.2028 15.9803 15.4497 17.8782 15.1593Z" fill="white"/>
</g>
<g id="Intersect_3">
<path d="M17.8788 15.1594V12.8621C17.8788 12.7727 17.8769 12.6837 17.8731 12.5951C17.386 13.7566 16.6813 14.8003 15.8119 15.6757C16.4754 15.4426 17.1665 15.2684 17.8788 15.1594Z" fill="#C4A28F"/>
<path d="M17.06 9.7807C16.6928 12.9613 14.5329 15.5853 11.6341 16.5822C10.9412 16.1756 10.2162 15.8165 9.46376 15.5093C12.8523 15.2886 15.6019 12.416 15.6019 8.81584C15.6019 8.54385 15.5862 8.27601 15.5557 8.01316C16.1608 8.50456 16.6723 9.10367 17.06 9.7807Z" fill="#C4A28F"/>
<path d="M13.7524 6.98296C13.9697 7.55319 14.0886 8.17084 14.0886 8.81583C14.0886 11.6969 11.7171 14.0325 8.79169 14.0325C6.30746 14.0325 4.22266 12.3482 3.65035 10.0759C4.00085 9.37954 4.47864 8.7563 5.05376 8.23573C5.02376 8.42476 5.00818 8.61851 5.00818 8.81583C5.00818 10.8737 6.70212 12.542 8.79169 12.542C10.8813 12.542 12.5752 10.8737 12.5752 8.81583C12.5752 7.98058 12.2962 7.20952 11.8249 6.58813C12.5004 6.62149 13.1483 6.75836 13.7524 6.98296Z" fill="#C4A28F"/>
<path d="M3.10523 11.6685C3.62348 12.795 4.43868 13.7452 5.44242 14.4203C4.64437 14.3064 3.82826 14.2474 2.99817 14.2473C2.99552 14.2443 2.99288 14.2413 2.99023 14.2382V12.8621C2.99023 12.454 3.02975 12.055 3.10523 11.6685Z" fill="#C4A28F"/>
<path fill-rule="evenodd" clip-rule="evenodd" d="M11.0731 8.85868C11.0731 10.0934 10.0568 11.0944 8.80303 11.0944C7.54928 11.0944 6.53292 10.0934 6.53292 8.85868C6.53292 7.62393 7.54928 6.62297 8.80303 6.62297C10.0568 6.62297 11.0731 7.62393 11.0731 8.85868ZM9.55973 8.85868C9.55973 9.27026 9.22094 9.60392 8.80303 9.60392C8.38511 9.60392 8.04633 9.27026 8.04633 8.85868C8.04633 8.4471 8.38511 8.11344 8.80303 8.11344C9.22094 8.11344 9.55973 8.4471 9.55973 8.85868Z" fill="#C4A28F"/>
</g>
<path id="Subtract" fill-rule="evenodd" clip-rule="evenodd" d="M10.9657 3.33325H9.90221C4.55742 3.33325 0.224609 7.60041 0.224609 12.8642V19.6721C0.224609 24.9359 4.55742 29.203 9.90221 29.203H10.9657C16.3105 29.203 20.6433 24.9359 20.6433 19.6721V12.8642C20.6433 7.60041 16.3105 3.33325 10.9657 3.33325ZM9.90207 4.48535C5.20335 4.48535 1.39429 8.2367 1.39429 12.8642V19.6721C1.39429 24.2996 5.20335 28.0509 9.90207 28.0509H10.9655C15.6643 28.0509 19.4733 24.2996 19.4733 19.6721V12.8642C19.4733 8.2367 15.6643 4.48535 10.9655 4.48535H9.90207Z" fill="white"/>
</g>
<g id="Union">
<mask id="path-5-outside-1_4904_42615" maskUnits="userSpaceOnUse" x="21.3389" y="3" width="59" height="28" fill="black">
<rect fill="white" x="21.3389" y="3" width="59" height="28"/>
<path fill-rule="evenodd" clip-rule="evenodd" d="M24.7108 7.73605C24.7108 6.19913 24.6524 5.00261 24.5355 4.14649C24.5334 4.13146 24.537 4.11639 24.5455 4.10377C24.5592 4.0835 24.5836 4.07305 24.608 4.07656C24.8251 4.10776 25.1213 4.12336 25.4964 4.12336C25.6809 4.12336 26.1124 4.1028 26.7909 4.06168C27.4753 4.02056 27.8979 4 28.0586 4C29.696 4 32.1614 5.20534 32.0987 8.12352C32.036 11.0417 29.4819 12.4569 26.282 12.0375C26.2994 12.5146 26.4408 13.9246 26.5115 14.4138C26.5513 14.6891 26.6733 15.0927 26.7799 15.4454C26.8628 15.7195 26.9363 15.9629 26.9547 16.0912C26.9569 16.1063 26.9533 16.1215 26.9447 16.1342C26.9311 16.1544 26.9068 16.1648 26.8825 16.1613C26.665 16.1301 26.1781 16.084 25.2998 16.0875C24.9195 16.0875 24.6234 16.1031 24.4113 16.1342C24.278 16.1537 24.293 16.146 24.3191 16.1326C24.3346 16.1246 24.354 16.1147 24.3489 16.1072C24.3403 16.0945 24.3368 16.0794 24.339 16.0644C24.3707 15.8426 24.416 15.6919 24.464 15.5321C24.5928 15.1039 24.7502 14.2553 24.7108 12.1506V7.73605ZM26.282 5.56844V11.2621C28.8179 12.0375 30.5428 9.75237 30.6135 8.56433C30.6842 7.3763 30.6842 4.41922 26.6302 4.96926C26.3981 5.09262 26.282 5.29235 26.282 5.56844Z"/>
<path d="M44.4831 15.0407C41.28 15.0407 41.1826 8.56433 44.376 8.56433C45.0473 8.56433 45.6385 8.97663 46.1495 9.80124C46.1847 9.85806 46.2488 9.89161 46.3161 9.88651C46.3895 9.88093 46.4516 9.83088 46.4718 9.76102L46.8667 8.39691L46.8221 8.34404C46.1674 8.00921 45.358 7.84179 44.3938 7.84179C43.3821 7.84179 42.4804 8.21481 41.6888 8.96085C40.8973 9.70688 40.5015 10.6644 40.5015 11.8334C40.5015 13.0846 40.8318 14.0832 41.4924 14.8293C42.159 15.5694 43.0517 15.9395 44.1706 15.9395C45.2269 15.9395 46.0902 15.5559 46.7605 14.7886C46.8232 14.7168 46.8194 14.6103 46.7548 14.5401L46.5475 14.3145C46.529 14.2944 46.5029 14.283 46.4754 14.283C46.4514 14.283 46.4283 14.2918 46.4103 14.3074C45.8456 14.7963 45.2032 15.0407 44.4831 15.0407Z"/>
<path d="M52.0909 15.0407C48.8857 15.0407 48.8083 8.56433 51.9838 8.56433C52.6552 8.56433 53.2464 8.97663 53.7573 9.80124C53.7925 9.85806 53.8567 9.89161 53.9239 9.88651C53.9973 9.88093 54.0595 9.83087 54.0797 9.76102L54.4745 8.39691L54.4299 8.34404C53.7752 8.00921 52.9658 7.84179 52.0017 7.84179C50.9899 7.84179 50.0882 8.21481 49.2967 8.96085C48.5051 9.70688 48.1094 10.6644 48.1094 11.8334C48.1094 13.0846 48.4397 14.0832 49.1003 14.8293C49.7669 15.5694 50.6596 15.9395 51.7785 15.9395C52.8348 15.9395 53.6981 15.5559 54.3684 14.7886C54.4311 14.7168 54.4272 14.6103 54.3627 14.5401L54.1553 14.3145C54.1369 14.2944 54.1107 14.283 54.0833 14.283C54.0593 14.283 54.0361 14.2918 54.0181 14.3074C53.4535 14.7963 52.8111 15.0407 52.0909 15.0407Z"/>
<path d="M56.3668 8.04173C56.4891 8.76406 56.5502 9.83409 56.5502 11.2518V12.5295C56.5443 13.9473 56.4831 15.0174 56.3666 15.7397C56.3641 15.755 56.3676 15.7704 56.3763 15.7833C56.3898 15.8033 56.4138 15.8136 56.4379 15.8101C56.6531 15.7789 56.9316 15.7633 57.2733 15.7633C57.6206 15.7633 57.902 15.7789 58.1175 15.8101C58.1417 15.8136 58.1658 15.8033 58.1794 15.7832C58.188 15.7704 58.1915 15.755 58.1892 15.7398C58.0726 14.9833 58.0143 13.9132 58.0143 12.5295V12.0713C58.1452 12.0772 58.2672 12.0918 58.3803 12.1153C58.4934 12.1388 58.5946 12.1623 58.6838 12.1858C58.7731 12.2093 58.8594 12.2505 58.9427 12.3092C59.032 12.3621 59.1034 12.4032 59.157 12.4326C59.2165 12.4561 59.282 12.5119 59.3534 12.6C59.4248 12.6822 59.4754 12.738 59.5051 12.7674C59.5409 12.7968 59.5914 12.8702 59.6569 12.9877C59.7283 13.0993 59.773 13.1727 59.7908 13.208C59.8087 13.2373 59.8563 13.3225 59.9337 13.4635C60.011 13.6045 60.0586 13.6926 60.0765 13.7278C60.3815 14.282 60.6284 14.7281 60.8171 15.066C61.0744 15.5265 61.5845 15.7758 62.1173 15.7662C62.2232 15.7642 62.3345 15.7633 62.4512 15.7633C62.9035 15.7633 63.2219 15.7809 63.4064 15.8162L63.4421 15.7633C63.0731 15.3756 62.6773 14.8939 62.2548 14.3182C61.8382 13.7367 61.4721 13.2667 61.1567 12.9084C60.7996 12.5148 60.4991 12.2328 60.255 12.0625C60.017 11.8921 59.6896 11.7717 59.273 11.7012V11.666C59.4694 11.5837 59.6837 11.29 59.9158 10.7848C60.1539 10.2796 60.3592 9.92423 60.5318 9.71863C60.8413 9.34267 61.1775 9.1547 61.5406 9.1547C61.9903 9.1547 62.3264 9.22704 62.5487 9.37173C62.5839 9.39467 62.6269 9.40432 62.6678 9.39422C62.7159 9.38234 62.7538 9.34569 62.7667 9.29842L63.0936 8.10212C63.1049 8.06099 63.093 8.01708 63.0625 7.98696C63.048 7.97266 63.03 7.9622 63.0103 7.95677C62.7315 7.88012 62.4916 7.84179 62.2905 7.84179C61.8501 7.84179 61.4126 7.99159 60.9781 8.29118C60.5496 8.59077 60.1955 8.95203 59.9158 9.37498C59.8027 9.54534 59.6688 9.77444 59.5141 10.0623C59.3653 10.3501 59.2433 10.5704 59.148 10.7231C59.0588 10.87 58.9159 11.008 58.7195 11.1373C58.5291 11.2606 58.294 11.3282 58.0143 11.3399V11.2518C58.0378 9.75442 58.0962 8.68423 58.1894 8.04124C58.1916 8.0261 58.1881 8.01098 58.1795 7.99826C58.1659 7.97809 58.1416 7.9677 58.1173 7.97122C57.9018 8.00242 57.6205 8.01802 57.2733 8.01802C56.9315 8.01802 56.6529 8.0024 56.4377 7.97115C56.4137 7.96766 56.3898 7.97793 56.3764 7.99783C56.3676 8.0108 56.3642 8.02636 56.3668 8.04173Z"/>
<path fill-rule="evenodd" clip-rule="evenodd" d="M69.0094 14.8998H69.0808C69.1819 15.2405 69.3575 15.4989 69.6075 15.6752C69.8634 15.8514 70.1639 15.9395 70.5091 15.9395C71.0762 15.9395 71.5338 15.7812 71.8818 15.4645C71.9343 15.4167 71.951 15.3427 71.9296 15.2755L71.883 15.1288C71.8495 15.0233 71.7337 14.9685 71.6248 14.9946C71.5209 15.0195 71.4228 15.0319 71.3304 15.0319C71.0745 15.0319 70.896 14.9879 70.7948 14.8998C70.5924 14.7177 70.4913 14.2477 70.4913 13.4899C70.4913 13.2902 70.5002 12.7968 70.518 12.0096C70.5359 11.2225 70.5448 10.8083 70.5448 10.7672C70.5448 8.81693 69.539 7.84179 67.5274 7.84179C66.5802 7.84179 65.6889 8.18765 64.8535 8.87935C64.8448 8.88662 64.8368 8.89492 64.8299 8.90397C64.8026 8.93996 64.7931 8.98619 64.8041 9.02985L65.0586 10.0419C65.0775 10.1172 65.1432 10.1719 65.2215 10.1776C65.289 10.1825 65.3535 10.15 65.3899 10.0936C66.0106 9.13284 66.5949 8.65244 67.3399 8.65244C68.1084 8.65244 68.7369 9.00947 68.9647 9.78031C69.054 10.0623 69.0986 10.3971 69.0986 10.7848C69.0986 10.9023 69.057 10.9728 68.9736 10.9963L67.2685 11.3752C65.9616 11.6609 64.2332 12.4389 64.2332 13.9922C64.2332 14.6442 64.4356 15.1318 64.8403 15.4549C65.5974 16.0505 66.8933 16.0982 67.7685 15.728C68.1077 15.5871 68.5213 15.311 69.0094 14.8998ZM67.5274 12.1153L69.0808 11.7012L69.0094 13.8512C69.0094 14.0451 68.9231 14.2007 68.7505 14.3182C68.0345 14.8516 66.8856 15.3986 66.0901 14.6883C65.5372 14.1946 65.6444 13.3473 66.1169 12.8291C66.3847 12.5354 66.8549 12.2974 67.5274 12.1153Z"/>
<path fill-rule="evenodd" clip-rule="evenodd" d="M74.946 12.2651C75.0055 12.2593 75.0501 12.2563 75.0799 12.2563C74.9311 12.3914 74.7317 12.6088 74.4817 12.9084C74.1782 13.2726 73.8242 13.7484 73.4195 14.3358C73.0296 14.9045 72.6682 15.3721 72.3352 15.7385C72.3219 15.7531 72.3203 15.7747 72.3313 15.791C72.3415 15.8061 72.3601 15.8131 72.3781 15.8095C72.5305 15.7787 72.818 15.7633 73.241 15.7633C73.2919 15.7633 73.3416 15.7635 73.3901 15.7638C73.409 15.7639 73.4277 15.7641 73.4462 15.7643L73.4823 15.7647C74.0351 15.7715 74.5705 15.5081 74.8278 15.0251C75.0072 14.6881 75.2341 14.2557 75.5084 13.7278C75.6452 13.4517 75.7494 13.252 75.8208 13.1287C75.8982 13.0053 76.0023 12.8702 76.1333 12.7233C76.2702 12.5765 76.4279 12.4707 76.6064 12.4061C76.785 12.3356 77.0052 12.2828 77.2671 12.2475V12.7145C77.2612 13.9752 77.2 14.983 77.0835 15.7381C77.081 15.7544 77.0847 15.7709 77.094 15.7846C77.1072 15.8041 77.1299 15.8153 77.1536 15.8139L77.9991 15.7633C78.3883 15.7633 78.6715 15.7782 78.8486 15.8081C78.8734 15.8123 78.8978 15.7984 78.9058 15.7749C78.9083 15.7673 78.909 15.7593 78.9076 15.7513C78.784 15.029 78.7222 13.9609 78.7222 12.5471V11.2342C78.7281 9.82908 78.7892 8.76543 78.9056 8.04326C78.9082 8.02689 78.9045 8.01035 78.8952 7.99656C78.8821 7.97711 78.8594 7.96603 78.8358 7.96746L77.9991 8.01802C77.6896 8.01802 77.2909 8.00921 76.8028 7.99159C76.3208 7.97396 75.9756 7.96515 75.7673 7.96515C75.1424 7.96515 74.6216 8.02977 74.205 8.15901C73.7943 8.28237 73.491 8.45859 73.2946 8.68769C73.0982 8.91679 72.9642 9.14589 72.8928 9.37498C72.8214 9.60408 72.7857 9.86843 72.7857 10.168C72.7857 10.7731 72.9761 11.2753 73.357 11.6748C73.7439 12.0684 74.2288 12.2651 74.812 12.2651H74.946ZM77.2671 9.234V11.6131H75.803C75.303 11.6131 74.9341 11.4604 74.696 11.1549C74.4579 10.8494 74.3389 10.4559 74.3389 9.97416C74.3389 9.50422 74.4579 9.1547 74.696 8.9256C74.9341 8.6965 75.3685 8.58195 75.9994 8.58195C76.416 8.58195 76.7314 8.62601 76.9457 8.71413C77.1599 8.79637 77.2671 8.96966 77.2671 9.234Z"/>
<path fill-rule="evenodd" clip-rule="evenodd" d="M24.4201 18.0453C24.4662 18.3638 24.5037 18.7466 24.5328 19.1938C24.5387 20.7446 24.3155 22.5157 23.8632 24.5071C23.7561 24.9653 23.4526 25.2238 22.9526 25.2825C22.6193 25.3178 22.4468 25.4499 22.4348 25.679L22.3391 27.8207C22.3328 27.9613 22.4437 28.0801 22.5862 28.0854C22.7105 28.09 22.8198 28.0055 22.8503 27.8866C23.2124 26.4736 23.916 25.7672 24.9613 25.7672H28.1037C28.5679 25.7672 28.9756 25.9169 29.3268 26.2165C29.6838 26.5161 29.9338 26.8216 30.0766 27.1329C30.194 27.3832 30.2836 27.6316 30.3454 27.8781C30.374 27.992 30.4752 28.0757 30.5941 28.0757C30.7352 28.0757 30.8477 27.9593 30.841 27.8201L30.7373 25.6614C30.7373 25.4558 30.5855 25.3295 30.282 25.2825C29.794 25.1944 29.5499 24.8978 29.5499 24.3926V21.6346C29.5558 20.0053 29.6168 18.811 29.7328 18.0516C29.7357 18.0325 29.7302 18.0134 29.7177 17.9985C29.7022 17.9802 29.6782 17.9714 29.6543 17.9749C29.439 18.0062 29.1602 18.0219 28.8179 18.0219H25.3273C24.9857 18.0219 24.7074 18.0063 24.4923 17.9751C24.468 17.9716 24.4437 17.982 24.4301 18.0021C24.4215 18.0148 24.418 18.0302 24.4201 18.0453ZM25.1818 25.0622C24.9497 25.0681 24.8336 24.9976 24.8336 24.8508C24.8336 24.8155 24.8723 24.6099 24.9497 24.234C25.033 23.858 25.1342 23.2236 25.2532 22.3307C25.3782 21.4319 25.4764 20.3804 25.5478 19.1762C25.5478 19.0939 25.5865 18.997 25.6639 18.8854C25.7413 18.7679 25.8722 18.7092 26.0567 18.7092H27.3538C27.6752 18.7092 27.8776 18.7738 27.9609 18.903C28.0442 19.0323 28.0859 19.2643 28.0859 19.5991V24.1811C28.0859 24.5159 28.0412 24.748 27.9519 24.8772C27.8686 25.0006 27.6692 25.0622 27.3538 25.0622H25.1818Z"/>
<path fill-rule="evenodd" clip-rule="evenodd" d="M37.8716 23.969C37.8677 23.9794 37.8617 23.989 37.854 23.9972C37.2364 24.6515 36.4206 24.886 35.3737 24.886C33.4557 24.886 32.7714 23.1848 32.9455 21.5641H37.918C38.1382 21.5641 38.2483 21.4613 38.2483 21.2557C38.2483 19.3784 36.9162 17.8457 34.9488 17.8457C32.7188 17.8457 31.3386 19.9635 31.3386 21.9958C31.3386 23.1825 31.6058 24.0842 32.1533 24.7362C32.8199 25.5292 33.7936 25.9434 35.0613 25.9434C36.2599 25.9434 37.4333 25.4304 38.1518 24.4755C38.1847 24.4317 38.2337 24.3959 38.2658 24.3724L38.2698 24.3695C38.2869 24.3569 38.2891 24.3356 38.2772 24.3182C38.2741 24.3136 38.2703 24.3096 38.2659 24.3062C38.2396 24.286 38.1418 24.2089 38.0895 24.1444C38.038 24.0808 37.9862 23.9743 37.9662 23.9313C37.9607 23.9194 37.9499 23.9107 37.937 23.9079C37.9144 23.9031 37.8916 23.9155 37.8836 23.9369L37.8716 23.969ZM36.3647 20.8415H32.9991C32.9991 19.6747 33.6589 18.5682 34.8999 18.5682C35.9652 18.5682 36.6236 19.6881 36.6236 20.586C36.6236 20.7564 36.5373 20.8415 36.3647 20.8415Z"/>
<path fill-rule="evenodd" clip-rule="evenodd" d="M41.4612 19.467L41.4255 19.4141V18.1012C41.4196 17.9778 41.3809 17.9161 41.3095 17.9161C40.8739 17.9964 40.3958 18.0151 39.8752 17.9723C39.8513 17.9703 39.8282 17.9813 39.8149 18.0009C39.8058 18.0144 39.8021 18.0304 39.8046 18.0464C39.9092 18.7256 39.9614 19.8864 39.9614 21.5288V26.3487C39.9614 27.9314 39.9089 29.1251 39.8038 29.9297C39.8018 29.9446 39.8054 29.9595 39.8139 29.972C39.8276 29.9924 39.8522 30.0028 39.8767 29.9992C40.0857 29.9681 40.355 29.9526 40.6846 29.9526C41.0203 29.9526 41.2955 29.9682 41.5102 29.9993C41.5348 30.0029 41.5594 29.9924 41.5731 29.9719C41.5816 29.9595 41.5852 29.9446 41.5834 29.9297C41.4781 29.0793 41.4255 27.8857 41.4255 26.3487V25.5469C41.9255 25.8112 42.5295 25.9434 43.2378 25.9434C44.4281 25.9434 45.3714 25.541 46.0677 24.7362C46.7641 23.9314 47.1122 22.8858 47.1122 21.5993C47.1122 20.5772 46.8236 19.6961 46.2463 18.9559C45.6749 18.2157 44.9012 17.8457 43.9252 17.8457C43.0027 17.8457 42.1814 18.3861 41.4612 19.467ZM41.4255 24.4102V20.4627C42.6071 17.6354 45.4964 18.9506 45.4964 21.8372C45.4964 22.2426 45.4637 22.6303 45.3982 23.0004C45.3327 23.3646 45.2167 23.7258 45.05 24.0842C44.8893 24.4366 44.6423 24.7156 44.3091 24.9212C43.9817 25.1268 43.5859 25.2297 43.1217 25.2297C42.4551 25.2238 41.8898 24.9506 41.4255 24.4102Z"/>
<path fill-rule="evenodd" clip-rule="evenodd" d="M56.775 25.8175L57.6251 25.7672C57.6846 25.7672 57.9108 25.773 58.3036 25.7848C58.7023 25.7965 59.3481 25.8024 60.2408 25.8024C61.9608 25.8024 62.7595 25.1856 62.8208 23.5643C62.8208 22.4156 61.8744 21.8853 60.9907 21.6346V21.5993C61.7525 21.4836 62.5619 20.7137 62.5619 19.934C62.5619 19.3113 62.3566 18.8325 61.9459 18.4977C61.5353 18.157 60.7497 17.9866 59.5891 17.9866C59.357 17.9866 59.0356 17.9925 58.6249 18.0043C58.2143 18.016 57.881 18.0219 57.6251 18.0219C57.2361 18.0219 56.9531 18.0069 56.7759 17.9771C56.7509 17.9729 56.7263 17.9869 56.7183 18.0106C56.7158 18.018 56.7151 18.0258 56.7163 18.0336C56.852 18.9126 56.9198 19.9925 56.9198 21.2733V22.5157C56.9198 23.8479 56.8521 24.9273 56.7167 25.7539C56.7152 25.7627 56.716 25.7716 56.7188 25.78C56.7268 25.8036 56.7498 25.819 56.775 25.8175ZM59.4195 21.2381H58.375V19.2202C58.375 18.9383 58.4226 18.765 58.5178 18.7004C58.619 18.6357 58.9195 18.6034 59.4195 18.6034C59.967 18.6034 60.3717 18.6945 60.6336 18.8766C60.8955 19.0528 61.0264 19.4053 61.0264 19.934C61.0264 20.3099 60.8865 20.6213 60.6068 20.868C60.3271 21.1147 59.9313 21.2381 59.4195 21.2381ZM58.375 24.3749V21.8549H59.5891C60.1009 21.8549 60.5027 22.0164 60.7943 22.3395C61.0859 22.6626 61.2317 23.065 61.2317 23.5467C61.2317 24.6393 60.6276 25.1856 59.4195 25.1856C58.9791 25.1856 58.6934 25.1357 58.5625 25.0358C58.4375 24.9301 58.375 24.7098 58.375 24.3749Z"/>
<path d="M64.3385 18.0456C64.4607 18.7679 64.5219 19.838 64.5219 21.2557V22.5333C64.516 23.9512 64.4548 25.0212 64.3383 25.7436C64.3358 25.7589 64.3393 25.7743 64.348 25.7872C64.3615 25.8072 64.3855 25.8175 64.4096 25.814C64.6248 25.7828 64.9032 25.7672 65.245 25.7672C65.5924 25.7672 65.8738 25.7828 66.0893 25.814C66.1134 25.8175 66.1375 25.8072 66.151 25.7872C66.1597 25.7743 66.1631 25.7588 66.1607 25.7436C66.0383 24.987 65.977 23.917 65.977 22.5333V21.9958H70.0033V22.5333C69.9974 23.9471 69.9365 25.015 69.8207 25.7373C69.8176 25.7564 69.823 25.7757 69.8356 25.7906C69.851 25.8088 69.875 25.8176 69.8988 25.814C70.1087 25.7828 70.3846 25.7672 70.7264 25.7672C71.0737 25.7672 71.3551 25.7828 71.5706 25.814C71.5947 25.8175 71.6189 25.8071 71.6325 25.7871C71.6411 25.7743 71.6446 25.7589 71.6423 25.7437C71.5257 24.9872 71.4674 23.9171 71.4674 22.5333V21.2557C71.4909 19.7583 71.5493 18.6881 71.6425 18.0451C71.6447 18.03 71.6412 18.0148 71.6326 18.0021C71.6189 17.982 71.5947 17.9716 71.5704 17.9751C71.3553 18.0063 71.0769 18.0219 70.7353 18.0219C70.3928 18.0219 70.1139 18.0062 69.8985 17.9748C69.8749 17.9714 69.851 17.9801 69.8357 17.9983C69.8231 18.0132 69.8177 18.0327 69.8209 18.052C69.9425 18.7742 70.0033 19.8421 70.0033 21.2557V21.2909H65.977V21.2557C66.0064 19.7583 66.0678 18.6881 66.1611 18.0451C66.1633 18.03 66.1598 18.0148 66.1512 18.0021C66.1376 17.982 66.1133 17.9716 66.089 17.9751C65.8735 18.0063 65.5922 18.0219 65.245 18.0219C64.9032 18.0219 64.6246 18.0063 64.4094 17.975C64.3855 17.9715 64.3615 17.9818 64.3481 18.0017C64.3393 18.0147 64.3359 18.0302 64.3385 18.0456Z"/>
<path fill-rule="evenodd" clip-rule="evenodd" d="M75.238 22.269C75.2975 22.2631 75.3422 22.2602 75.3719 22.2602C75.2231 22.3953 75.0238 22.6126 74.7738 22.9122C74.4703 23.2764 74.1162 23.7523 73.7115 24.3397C73.3215 24.9084 72.9601 25.3759 72.627 25.7424C72.6138 25.757 72.6122 25.7786 72.6232 25.7949C72.6334 25.81 72.652 25.817 72.67 25.8134C72.8223 25.7826 73.11 25.7672 73.5329 25.7672C73.6168 25.7672 73.6973 25.7676 73.7743 25.7686C74.3271 25.7754 74.8626 25.512 75.1199 25.029C75.2993 24.692 75.5262 24.2596 75.8005 23.7317C75.9373 23.4556 76.0415 23.2559 76.1129 23.1325C76.1903 23.0092 76.2944 22.8741 76.4254 22.7272C76.5622 22.5803 76.72 22.4746 76.8985 22.41C77.0771 22.3395 77.2973 22.2866 77.5591 22.2514V22.7184C77.5533 23.979 77.4921 24.9869 77.3756 25.742C77.3731 25.7583 77.3768 25.7748 77.3861 25.7885C77.3993 25.808 77.4219 25.8191 77.4457 25.8177L78.2912 25.7672C78.6804 25.7672 78.9636 25.7821 79.1407 25.812C79.1655 25.8162 79.1899 25.8023 79.1978 25.7788C79.1994 25.7742 79.2002 25.7695 79.2004 25.7647C79.2004 25.763 79.2004 25.7613 79.2003 25.7596L79.2 25.7574L79.1997 25.7552C79.0761 25.0328 79.0143 23.9647 79.0143 22.551V21.2381C79.0202 19.8329 79.0813 18.7693 79.1977 18.0471C79.2003 18.0307 79.1966 18.0142 79.1873 18.0004C79.1741 17.981 79.1515 17.9699 79.1279 17.9713L78.2912 18.0219C77.9817 18.0219 77.583 18.0131 77.0949 17.9954C76.6128 17.9778 76.2676 17.969 76.0593 17.969C75.4344 17.969 74.9137 18.0336 74.4971 18.1629C74.0864 18.2862 73.7829 18.4625 73.5865 18.6916C73.3901 18.9207 73.2562 19.1497 73.1847 19.3788C73.1133 19.6079 73.0776 19.8723 73.0776 20.1719C73.0776 20.7769 73.2681 21.2792 73.649 21.6786C74.0358 22.0722 74.5209 22.269 75.1041 22.269H75.238ZM77.5591 19.2379V21.617H76.095C75.5951 21.617 75.2261 21.4642 74.9881 21.1588C74.75 20.8533 74.631 20.4597 74.631 19.978C74.631 19.5081 74.75 19.1586 74.9881 18.9295C75.2261 18.7004 75.6606 18.5858 76.2915 18.5858C76.7081 18.5858 77.0235 18.6299 77.2378 18.718C77.452 18.8002 77.5591 18.9735 77.5591 19.2379Z"/>
<path fill-rule="evenodd" clip-rule="evenodd" d="M54.9084 24.0011C54.9045 24.0116 54.8985 24.0212 54.8909 24.0294C54.2733 24.6837 53.4574 24.9182 52.4106 24.9182C50.4925 24.9182 49.8083 23.217 49.9823 21.5963H54.9549C55.1751 21.5963 55.2852 21.4935 55.2852 21.2879C55.2852 19.4106 53.9531 17.8778 51.9856 17.8778C49.7557 17.8778 48.3754 19.9957 48.3754 22.028C48.3754 23.2146 48.6426 24.1163 49.1902 24.7684C49.8568 25.5614 50.8304 25.9756 52.0981 25.9756C53.2967 25.9756 54.4818 25.4357 55.2002 24.4808C55.2216 24.4598 55.2565 24.4358 55.2855 24.4159L55.3054 24.4022C55.3234 24.3896 55.3256 24.3674 55.3133 24.3493C55.3118 24.3471 55.3102 24.345 55.3083 24.343L55.3072 24.3419L55.3064 24.341L55.304 24.3388C55.2803 24.3184 55.1847 24.2346 55.1305 24.1674C55.0793 24.1039 55.0247 24.0029 55.0036 23.9623C54.9977 23.9511 54.9872 23.9429 54.9746 23.9403C54.9515 23.9354 54.9283 23.948 54.9201 23.9699L54.9084 24.0011ZM53.4015 20.8737H50.0359C50.0359 19.7069 50.6957 18.6004 51.9367 18.6004C53.0021 18.6004 53.6604 19.7202 53.6604 20.6182C53.6604 20.7885 53.5741 20.8737 53.4015 20.8737Z"/>
<path d="M33.6759 8.10138C33.2531 8.10138 32.9631 8.08546 32.8059 8.05363C34.7356 12.2717 35.8143 14.6725 36.042 15.2561C35.7763 15.8816 35.5646 16.1729 35.0695 16.8019C35.6353 16.732 36.1303 16.8718 36.484 17.0116C36.5426 16.8247 36.5836 16.6751 36.6236 16.5293C36.7719 15.9879 36.7638 15.6973 37.7332 13.553C38.9691 10.8312 39.8256 8.99804 40.3026 8.05363C40.1942 8.08546 39.9557 8.10138 39.5871 8.10138C39.2618 8.10138 39.045 8.08546 38.9366 8.05363C38.2265 10.2396 37.4974 12.1125 36.7494 13.6724H36.7169C35.6002 11.0354 34.8576 9.16252 34.489 8.05363C34.3481 8.08546 34.077 8.10138 33.6759 8.10138Z"/>
</mask>
<path fill-rule="evenodd" clip-rule="evenodd" d="M24.7108 7.73605C24.7108 6.19913 24.6524 5.00261 24.5355 4.14649C24.5334 4.13146 24.537 4.11639 24.5455 4.10377C24.5592 4.0835 24.5836 4.07305 24.608 4.07656C24.8251 4.10776 25.1213 4.12336 25.4964 4.12336C25.6809 4.12336 26.1124 4.1028 26.7909 4.06168C27.4753 4.02056 27.8979 4 28.0586 4C29.696 4 32.1614 5.20534 32.0987 8.12352C32.036 11.0417 29.4819 12.4569 26.282 12.0375C26.2994 12.5146 26.4408 13.9246 26.5115 14.4138C26.5513 14.6891 26.6733 15.0927 26.7799 15.4454C26.8628 15.7195 26.9363 15.9629 26.9547 16.0912C26.9569 16.1063 26.9533 16.1215 26.9447 16.1342C26.9311 16.1544 26.9068 16.1648 26.8825 16.1613C26.665 16.1301 26.1781 16.084 25.2998 16.0875C24.9195 16.0875 24.6234 16.1031 24.4113 16.1342C24.278 16.1537 24.293 16.146 24.3191 16.1326C24.3346 16.1246 24.354 16.1147 24.3489 16.1072C24.3403 16.0945 24.3368 16.0794 24.339 16.0644C24.3707 15.8426 24.416 15.6919 24.464 15.5321C24.5928 15.1039 24.7502 14.2553 24.7108 12.1506V7.73605ZM26.282 5.56844V11.2621C28.8179 12.0375 30.5428 9.75237 30.6135 8.56433C30.6842 7.3763 30.6842 4.41922 26.6302 4.96926C26.3981 5.09262 26.282 5.29235 26.282 5.56844Z" fill="white"/>
<path d="M44.4831 15.0407C41.28 15.0407 41.1826 8.56433 44.376 8.56433C45.0473 8.56433 45.6385 8.97663 46.1495 9.80124C46.1847 9.85806 46.2488 9.89161 46.3161 9.88651C46.3895 9.88093 46.4516 9.83088 46.4718 9.76102L46.8667 8.39691L46.8221 8.34404C46.1674 8.00921 45.358 7.84179 44.3938 7.84179C43.3821 7.84179 42.4804 8.21481 41.6888 8.96085C40.8973 9.70688 40.5015 10.6644 40.5015 11.8334C40.5015 13.0846 40.8318 14.0832 41.4924 14.8293C42.159 15.5694 43.0517 15.9395 44.1706 15.9395C45.2269 15.9395 46.0902 15.5559 46.7605 14.7886C46.8232 14.7168 46.8194 14.6103 46.7548 14.5401L46.5475 14.3145C46.529 14.2944 46.5029 14.283 46.4754 14.283C46.4514 14.283 46.4283 14.2918 46.4103 14.3074C45.8456 14.7963 45.2032 15.0407 44.4831 15.0407Z" fill="white"/>
<path d="M52.0909 15.0407C48.8857 15.0407 48.8083 8.56433 51.9838 8.56433C52.6552 8.56433 53.2464 8.97663 53.7573 9.80124C53.7925 9.85806 53.8567 9.89161 53.9239 9.88651C53.9973 9.88093 54.0595 9.83087 54.0797 9.76102L54.4745 8.39691L54.4299 8.34404C53.7752 8.00921 52.9658 7.84179 52.0017 7.84179C50.9899 7.84179 50.0882 8.21481 49.2967 8.96085C48.5051 9.70688 48.1094 10.6644 48.1094 11.8334C48.1094 13.0846 48.4397 14.0832 49.1003 14.8293C49.7669 15.5694 50.6596 15.9395 51.7785 15.9395C52.8348 15.9395 53.6981 15.5559 54.3684 14.7886C54.4311 14.7168 54.4272 14.6103 54.3627 14.5401L54.1553 14.3145C54.1369 14.2944 54.1107 14.283 54.0833 14.283C54.0593 14.283 54.0361 14.2918 54.0181 14.3074C53.4535 14.7963 52.8111 15.0407 52.0909 15.0407Z" fill="white"/>
<path d="M56.3668 8.04173C56.4891 8.76406 56.5502 9.83409 56.5502 11.2518V12.5295C56.5443 13.9473 56.4831 15.0174 56.3666 15.7397C56.3641 15.755 56.3676 15.7704 56.3763 15.7833C56.3898 15.8033 56.4138 15.8136 56.4379 15.8101C56.6531 15.7789 56.9316 15.7633 57.2733 15.7633C57.6206 15.7633 57.902 15.7789 58.1175 15.8101C58.1417 15.8136 58.1658 15.8033 58.1794 15.7832C58.188 15.7704 58.1915 15.755 58.1892 15.7398C58.0726 14.9833 58.0143 13.9132 58.0143 12.5295V12.0713C58.1452 12.0772 58.2672 12.0918 58.3803 12.1153C58.4934 12.1388 58.5946 12.1623 58.6838 12.1858C58.7731 12.2093 58.8594 12.2505 58.9427 12.3092C59.032 12.3621 59.1034 12.4032 59.157 12.4326C59.2165 12.4561 59.282 12.5119 59.3534 12.6C59.4248 12.6822 59.4754 12.738 59.5051 12.7674C59.5409 12.7968 59.5914 12.8702 59.6569 12.9877C59.7283 13.0993 59.773 13.1727 59.7908 13.208C59.8087 13.2373 59.8563 13.3225 59.9337 13.4635C60.011 13.6045 60.0586 13.6926 60.0765 13.7278C60.3815 14.282 60.6284 14.7281 60.8171 15.066C61.0744 15.5265 61.5845 15.7758 62.1173 15.7662C62.2232 15.7642 62.3345 15.7633 62.4512 15.7633C62.9035 15.7633 63.2219 15.7809 63.4064 15.8162L63.4421 15.7633C63.0731 15.3756 62.6773 14.8939 62.2548 14.3182C61.8382 13.7367 61.4721 13.2667 61.1567 12.9084C60.7996 12.5148 60.4991 12.2328 60.255 12.0625C60.017 11.8921 59.6896 11.7717 59.273 11.7012V11.666C59.4694 11.5837 59.6837 11.29 59.9158 10.7848C60.1539 10.2796 60.3592 9.92423 60.5318 9.71863C60.8413 9.34267 61.1775 9.1547 61.5406 9.1547C61.9903 9.1547 62.3264 9.22704 62.5487 9.37173C62.5839 9.39467 62.6269 9.40432 62.6678 9.39422C62.7159 9.38234 62.7538 9.34569 62.7667 9.29842L63.0936 8.10212C63.1049 8.06099 63.093 8.01708 63.0625 7.98696C63.048 7.97266 63.03 7.9622 63.0103 7.95677C62.7315 7.88012 62.4916 7.84179 62.2905 7.84179C61.8501 7.84179 61.4126 7.99159 60.9781 8.29118C60.5496 8.59077 60.1955 8.95203 59.9158 9.37498C59.8027 9.54534 59.6688 9.77444 59.5141 10.0623C59.3653 10.3501 59.2433 10.5704 59.148 10.7231C59.0588 10.87 58.9159 11.008 58.7195 11.1373C58.5291 11.2606 58.294 11.3282 58.0143 11.3399V11.2518C58.0378 9.75442 58.0962 8.68423 58.1894 8.04124C58.1916 8.0261 58.1881 8.01098 58.1795 7.99826C58.1659 7.97809 58.1416 7.9677 58.1173 7.97122C57.9018 8.00242 57.6205 8.01802 57.2733 8.01802C56.9315 8.01802 56.6529 8.0024 56.4377 7.97115C56.4137 7.96766 56.3898 7.97793 56.3764 7.99783C56.3676 8.0108 56.3642 8.02636 56.3668 8.04173Z" fill="white"/>
<path fill-rule="evenodd" clip-rule="evenodd" d="M69.0094 14.8998H69.0808C69.1819 15.2405 69.3575 15.4989 69.6075 15.6752C69.8634 15.8514 70.1639 15.9395 70.5091 15.9395C71.0762 15.9395 71.5338 15.7812 71.8818 15.4645C71.9343 15.4167 71.951 15.3427 71.9296 15.2755L71.883 15.1288C71.8495 15.0233 71.7337 14.9685 71.6248 14.9946C71.5209 15.0195 71.4228 15.0319 71.3304 15.0319C71.0745 15.0319 70.896 14.9879 70.7948 14.8998C70.5924 14.7177 70.4913 14.2477 70.4913 13.4899C70.4913 13.2902 70.5002 12.7968 70.518 12.0096C70.5359 11.2225 70.5448 10.8083 70.5448 10.7672C70.5448 8.81693 69.539 7.84179 67.5274 7.84179C66.5802 7.84179 65.6889 8.18765 64.8535 8.87935C64.8448 8.88662 64.8368 8.89492 64.8299 8.90397C64.8026 8.93996 64.7931 8.98619 64.8041 9.02985L65.0586 10.0419C65.0775 10.1172 65.1432 10.1719 65.2215 10.1776C65.289 10.1825 65.3535 10.15 65.3899 10.0936C66.0106 9.13284 66.5949 8.65244 67.3399 8.65244C68.1084 8.65244 68.7369 9.00947 68.9647 9.78031C69.054 10.0623 69.0986 10.3971 69.0986 10.7848C69.0986 10.9023 69.057 10.9728 68.9736 10.9963L67.2685 11.3752C65.9616 11.6609 64.2332 12.4389 64.2332 13.9922C64.2332 14.6442 64.4356 15.1318 64.8403 15.4549C65.5974 16.0505 66.8933 16.0982 67.7685 15.728C68.1077 15.5871 68.5213 15.311 69.0094 14.8998ZM67.5274 12.1153L69.0808 11.7012L69.0094 13.8512C69.0094 14.0451 68.9231 14.2007 68.7505 14.3182C68.0345 14.8516 66.8856 15.3986 66.0901 14.6883C65.5372 14.1946 65.6444 13.3473 66.1169 12.8291C66.3847 12.5354 66.8549 12.2974 67.5274 12.1153Z" fill="white"/>
<path fill-rule="evenodd" clip-rule="evenodd" d="M74.946 12.2651C75.0055 12.2593 75.0501 12.2563 75.0799 12.2563C74.9311 12.3914 74.7317 12.6088 74.4817 12.9084C74.1782 13.2726 73.8242 13.7484 73.4195 14.3358C73.0296 14.9045 72.6682 15.3721 72.3352 15.7385C72.3219 15.7531 72.3203 15.7747 72.3313 15.791C72.3415 15.8061 72.3601 15.8131 72.3781 15.8095C72.5305 15.7787 72.818 15.7633 73.241 15.7633C73.2919 15.7633 73.3416 15.7635 73.3901 15.7638C73.409 15.7639 73.4277 15.7641 73.4462 15.7643L73.4823 15.7647C74.0351 15.7715 74.5705 15.5081 74.8278 15.0251C75.0072 14.6881 75.2341 14.2557 75.5084 13.7278C75.6452 13.4517 75.7494 13.252 75.8208 13.1287C75.8982 13.0053 76.0023 12.8702 76.1333 12.7233C76.2702 12.5765 76.4279 12.4707 76.6064 12.4061C76.785 12.3356 77.0052 12.2828 77.2671 12.2475V12.7145C77.2612 13.9752 77.2 14.983 77.0835 15.7381C77.081 15.7544 77.0847 15.7709 77.094 15.7846C77.1072 15.8041 77.1299 15.8153 77.1536 15.8139L77.9991 15.7633C78.3883 15.7633 78.6715 15.7782 78.8486 15.8081C78.8734 15.8123 78.8978 15.7984 78.9058 15.7749C78.9083 15.7673 78.909 15.7593 78.9076 15.7513C78.784 15.029 78.7222 13.9609 78.7222 12.5471V11.2342C78.7281 9.82908 78.7892 8.76543 78.9056 8.04326C78.9082 8.02689 78.9045 8.01035 78.8952 7.99656C78.8821 7.97711 78.8594 7.96603 78.8358 7.96746L77.9991 8.01802C77.6896 8.01802 77.2909 8.00921 76.8028 7.99159C76.3208 7.97396 75.9756 7.96515 75.7673 7.96515C75.1424 7.96515 74.6216 8.02977 74.205 8.15901C73.7943 8.28237 73.491 8.45859 73.2946 8.68769C73.0982 8.91679 72.9642 9.14589 72.8928 9.37498C72.8214 9.60408 72.7857 9.86843 72.7857 10.168C72.7857 10.7731 72.9761 11.2753 73.357 11.6748C73.7439 12.0684 74.2288 12.2651 74.812 12.2651H74.946ZM77.2671 9.234V11.6131H75.803C75.303 11.6131 74.9341 11.4604 74.696 11.1549C74.4579 10.8494 74.3389 10.4559 74.3389 9.97416C74.3389 9.50422 74.4579 9.1547 74.696 8.9256C74.9341 8.6965 75.3685 8.58195 75.9994 8.58195C76.416 8.58195 76.7314 8.62601 76.9457 8.71413C77.1599 8.79637 77.2671 8.96966 77.2671 9.234Z" fill="white"/>
<path fill-rule="evenodd" clip-rule="evenodd" d="M24.4201 18.0453C24.4662 18.3638 24.5037 18.7466 24.5328 19.1938C24.5387 20.7446 24.3155 22.5157 23.8632 24.5071C23.7561 24.9653 23.4526 25.2238 22.9526 25.2825C22.6193 25.3178 22.4468 25.4499 22.4348 25.679L22.3391 27.8207C22.3328 27.9613 22.4437 28.0801 22.5862 28.0854C22.7105 28.09 22.8198 28.0055 22.8503 27.8866C23.2124 26.4736 23.916 25.7672 24.9613 25.7672H28.1037C28.5679 25.7672 28.9756 25.9169 29.3268 26.2165C29.6838 26.5161 29.9338 26.8216 30.0766 27.1329C30.194 27.3832 30.2836 27.6316 30.3454 27.8781C30.374 27.992 30.4752 28.0757 30.5941 28.0757C30.7352 28.0757 30.8477 27.9593 30.841 27.8201L30.7373 25.6614C30.7373 25.4558 30.5855 25.3295 30.282 25.2825C29.794 25.1944 29.5499 24.8978 29.5499 24.3926V21.6346C29.5558 20.0053 29.6168 18.811 29.7328 18.0516C29.7357 18.0325 29.7302 18.0134 29.7177 17.9985C29.7022 17.9802 29.6782 17.9714 29.6543 17.9749C29.439 18.0062 29.1602 18.0219 28.8179 18.0219H25.3273C24.9857 18.0219 24.7074 18.0063 24.4923 17.9751C24.468 17.9716 24.4437 17.982 24.4301 18.0021C24.4215 18.0148 24.418 18.0302 24.4201 18.0453ZM25.1818 25.0622C24.9497 25.0681 24.8336 24.9976 24.8336 24.8508C24.8336 24.8155 24.8723 24.6099 24.9497 24.234C25.033 23.858 25.1342 23.2236 25.2532 22.3307C25.3782 21.4319 25.4764 20.3804 25.5478 19.1762C25.5478 19.0939 25.5865 18.997 25.6639 18.8854C25.7413 18.7679 25.8722 18.7092 26.0567 18.7092H27.3538C27.6752 18.7092 27.8776 18.7738 27.9609 18.903C28.0442 19.0323 28.0859 19.2643 28.0859 19.5991V24.1811C28.0859 24.5159 28.0412 24.748 27.9519 24.8772C27.8686 25.0006 27.6692 25.0622 27.3538 25.0622H25.1818Z" fill="white"/>
<path fill-rule="evenodd" clip-rule="evenodd" d="M37.8716 23.969C37.8677 23.9794 37.8617 23.989 37.854 23.9972C37.2364 24.6515 36.4206 24.886 35.3737 24.886C33.4557 24.886 32.7714 23.1848 32.9455 21.5641H37.918C38.1382 21.5641 38.2483 21.4613 38.2483 21.2557C38.2483 19.3784 36.9162 17.8457 34.9488 17.8457C32.7188 17.8457 31.3386 19.9635 31.3386 21.9958C31.3386 23.1825 31.6058 24.0842 32.1533 24.7362C32.8199 25.5292 33.7936 25.9434 35.0613 25.9434C36.2599 25.9434 37.4333 25.4304 38.1518 24.4755C38.1847 24.4317 38.2337 24.3959 38.2658 24.3724L38.2698 24.3695C38.2869 24.3569 38.2891 24.3356 38.2772 24.3182C38.2741 24.3136 38.2703 24.3096 38.2659 24.3062C38.2396 24.286 38.1418 24.2089 38.0895 24.1444C38.038 24.0808 37.9862 23.9743 37.9662 23.9313C37.9607 23.9194 37.9499 23.9107 37.937 23.9079C37.9144 23.9031 37.8916 23.9155 37.8836 23.9369L37.8716 23.969ZM36.3647 20.8415H32.9991C32.9991 19.6747 33.6589 18.5682 34.8999 18.5682C35.9652 18.5682 36.6236 19.6881 36.6236 20.586C36.6236 20.7564 36.5373 20.8415 36.3647 20.8415Z" fill="white"/>
<path fill-rule="evenodd" clip-rule="evenodd" d="M41.4612 19.467L41.4255 19.4141V18.1012C41.4196 17.9778 41.3809 17.9161 41.3095 17.9161C40.8739 17.9964 40.3958 18.0151 39.8752 17.9723C39.8513 17.9703 39.8282 17.9813 39.8149 18.0009C39.8058 18.0144 39.8021 18.0304 39.8046 18.0464C39.9092 18.7256 39.9614 19.8864 39.9614 21.5288V26.3487C39.9614 27.9314 39.9089 29.1251 39.8038 29.9297C39.8018 29.9446 39.8054 29.9595 39.8139 29.972C39.8276 29.9924 39.8522 30.0028 39.8767 29.9992C40.0857 29.9681 40.355 29.9526 40.6846 29.9526C41.0203 29.9526 41.2955 29.9682 41.5102 29.9993C41.5348 30.0029 41.5594 29.9924 41.5731 29.9719C41.5816 29.9595 41.5852 29.9446 41.5834 29.9297C41.4781 29.0793 41.4255 27.8857 41.4255 26.3487V25.5469C41.9255 25.8112 42.5295 25.9434 43.2378 25.9434C44.4281 25.9434 45.3714 25.541 46.0677 24.7362C46.7641 23.9314 47.1122 22.8858 47.1122 21.5993C47.1122 20.5772 46.8236 19.6961 46.2463 18.9559C45.6749 18.2157 44.9012 17.8457 43.9252 17.8457C43.0027 17.8457 42.1814 18.3861 41.4612 19.467ZM41.4255 24.4102V20.4627C42.6071 17.6354 45.4964 18.9506 45.4964 21.8372C45.4964 22.2426 45.4637 22.6303 45.3982 23.0004C45.3327 23.3646 45.2167 23.7258 45.05 24.0842C44.8893 24.4366 44.6423 24.7156 44.3091 24.9212C43.9817 25.1268 43.5859 25.2297 43.1217 25.2297C42.4551 25.2238 41.8898 24.9506 41.4255 24.4102Z" fill="white"/>
<path fill-rule="evenodd" clip-rule="evenodd" d="M56.775 25.8175L57.6251 25.7672C57.6846 25.7672 57.9108 25.773 58.3036 25.7848C58.7023 25.7965 59.3481 25.8024 60.2408 25.8024C61.9608 25.8024 62.7595 25.1856 62.8208 23.5643C62.8208 22.4156 61.8744 21.8853 60.9907 21.6346V21.5993C61.7525 21.4836 62.5619 20.7137 62.5619 19.934C62.5619 19.3113 62.3566 18.8325 61.9459 18.4977C61.5353 18.157 60.7497 17.9866 59.5891 17.9866C59.357 17.9866 59.0356 17.9925 58.6249 18.0043C58.2143 18.016 57.881 18.0219 57.6251 18.0219C57.2361 18.0219 56.9531 18.0069 56.7759 17.9771C56.7509 17.9729 56.7263 17.9869 56.7183 18.0106C56.7158 18.018 56.7151 18.0258 56.7163 18.0336C56.852 18.9126 56.9198 19.9925 56.9198 21.2733V22.5157C56.9198 23.8479 56.8521 24.9273 56.7167 25.7539C56.7152 25.7627 56.716 25.7716 56.7188 25.78C56.7268 25.8036 56.7498 25.819 56.775 25.8175ZM59.4195 21.2381H58.375V19.2202C58.375 18.9383 58.4226 18.765 58.5178 18.7004C58.619 18.6357 58.9195 18.6034 59.4195 18.6034C59.967 18.6034 60.3717 18.6945 60.6336 18.8766C60.8955 19.0528 61.0264 19.4053 61.0264 19.934C61.0264 20.3099 60.8865 20.6213 60.6068 20.868C60.3271 21.1147 59.9313 21.2381 59.4195 21.2381ZM58.375 24.3749V21.8549H59.5891C60.1009 21.8549 60.5027 22.0164 60.7943 22.3395C61.0859 22.6626 61.2317 23.065 61.2317 23.5467C61.2317 24.6393 60.6276 25.1856 59.4195 25.1856C58.9791 25.1856 58.6934 25.1357 58.5625 25.0358C58.4375 24.9301 58.375 24.7098 58.375 24.3749Z" fill="white"/>
<path d="M64.3385 18.0456C64.4607 18.7679 64.5219 19.838 64.5219 21.2557V22.5333C64.516 23.9512 64.4548 25.0212 64.3383 25.7436C64.3358 25.7589 64.3393 25.7743 64.348 25.7872C64.3615 25.8072 64.3855 25.8175 64.4096 25.814C64.6248 25.7828 64.9032 25.7672 65.245 25.7672C65.5924 25.7672 65.8738 25.7828 66.0893 25.814C66.1134 25.8175 66.1375 25.8072 66.151 25.7872C66.1597 25.7743 66.1631 25.7588 66.1607 25.7436C66.0383 24.987 65.977 23.917 65.977 22.5333V21.9958H70.0033V22.5333C69.9974 23.9471 69.9365 25.015 69.8207 25.7373C69.8176 25.7564 69.823 25.7757 69.8356 25.7906C69.851 25.8088 69.875 25.8176 69.8988 25.814C70.1087 25.7828 70.3846 25.7672 70.7264 25.7672C71.0737 25.7672 71.3551 25.7828 71.5706 25.814C71.5947 25.8175 71.6189 25.8071 71.6325 25.7871C71.6411 25.7743 71.6446 25.7589 71.6423 25.7437C71.5257 24.9872 71.4674 23.9171 71.4674 22.5333V21.2557C71.4909 19.7583 71.5493 18.6881 71.6425 18.0451C71.6447 18.03 71.6412 18.0148 71.6326 18.0021C71.6189 17.982 71.5947 17.9716 71.5704 17.9751C71.3553 18.0063 71.0769 18.0219 70.7353 18.0219C70.3928 18.0219 70.1139 18.0062 69.8985 17.9748C69.8749 17.9714 69.851 17.9801 69.8357 17.9983C69.8231 18.0132 69.8177 18.0327 69.8209 18.052C69.9425 18.7742 70.0033 19.8421 70.0033 21.2557V21.2909H65.977V21.2557C66.0064 19.7583 66.0678 18.6881 66.1611 18.0451C66.1633 18.03 66.1598 18.0148 66.1512 18.0021C66.1376 17.982 66.1133 17.9716 66.089 17.9751C65.8735 18.0063 65.5922 18.0219 65.245 18.0219C64.9032 18.0219 64.6246 18.0063 64.4094 17.975C64.3855 17.9715 64.3615 17.9818 64.3481 18.0017C64.3393 18.0147 64.3359 18.0302 64.3385 18.0456Z" fill="white"/>
<path fill-rule="evenodd" clip-rule="evenodd" d="M75.238 22.269C75.2975 22.2631 75.3422 22.2602 75.3719 22.2602C75.2231 22.3953 75.0238 22.6126 74.7738 22.9122C74.4703 23.2764 74.1162 23.7523 73.7115 24.3397C73.3215 24.9084 72.9601 25.3759 72.627 25.7424C72.6138 25.757 72.6122 25.7786 72.6232 25.7949C72.6334 25.81 72.652 25.817 72.67 25.8134C72.8223 25.7826 73.11 25.7672 73.5329 25.7672C73.6168 25.7672 73.6973 25.7676 73.7743 25.7686C74.3271 25.7754 74.8626 25.512 75.1199 25.029C75.2993 24.692 75.5262 24.2596 75.8005 23.7317C75.9373 23.4556 76.0415 23.2559 76.1129 23.1325C76.1903 23.0092 76.2944 22.8741 76.4254 22.7272C76.5622 22.5803 76.72 22.4746 76.8985 22.41C77.0771 22.3395 77.2973 22.2866 77.5591 22.2514V22.7184C77.5533 23.979 77.4921 24.9869 77.3756 25.742C77.3731 25.7583 77.3768 25.7748 77.3861 25.7885C77.3993 25.808 77.4219 25.8191 77.4457 25.8177L78.2912 25.7672C78.6804 25.7672 78.9636 25.7821 79.1407 25.812C79.1655 25.8162 79.1899 25.8023 79.1978 25.7788C79.1994 25.7742 79.2002 25.7695 79.2004 25.7647C79.2004 25.763 79.2004 25.7613 79.2003 25.7596L79.2 25.7574L79.1997 25.7552C79.0761 25.0328 79.0143 23.9647 79.0143 22.551V21.2381C79.0202 19.8329 79.0813 18.7693 79.1977 18.0471C79.2003 18.0307 79.1966 18.0142 79.1873 18.0004C79.1741 17.981 79.1515 17.9699 79.1279 17.9713L78.2912 18.0219C77.9817 18.0219 77.583 18.0131 77.0949 17.9954C76.6128 17.9778 76.2676 17.969 76.0593 17.969C75.4344 17.969 74.9137 18.0336 74.4971 18.1629C74.0864 18.2862 73.7829 18.4625 73.5865 18.6916C73.3901 18.9207 73.2562 19.1497 73.1847 19.3788C73.1133 19.6079 73.0776 19.8723 73.0776 20.1719C73.0776 20.7769 73.2681 21.2792 73.649 21.6786C74.0358 22.0722 74.5209 22.269 75.1041 22.269H75.238ZM77.5591 19.2379V21.617H76.095C75.5951 21.617 75.2261 21.4642 74.9881 21.1588C74.75 20.8533 74.631 20.4597 74.631 19.978C74.631 19.5081 74.75 19.1586 74.9881 18.9295C75.2261 18.7004 75.6606 18.5858 76.2915 18.5858C76.7081 18.5858 77.0235 18.6299 77.2378 18.718C77.452 18.8002 77.5591 18.9735 77.5591 19.2379Z" fill="white"/>
<path fill-rule="evenodd" clip-rule="evenodd" d="M54.9084 24.0011C54.9045 24.0116 54.8985 24.0212 54.8909 24.0294C54.2733 24.6837 53.4574 24.9182 52.4106 24.9182C50.4925 24.9182 49.8083 23.217 49.9823 21.5963H54.9549C55.1751 21.5963 55.2852 21.4935 55.2852 21.2879C55.2852 19.4106 53.9531 17.8778 51.9856 17.8778C49.7557 17.8778 48.3754 19.9957 48.3754 22.028C48.3754 23.2146 48.6426 24.1163 49.1902 24.7684C49.8568 25.5614 50.8304 25.9756 52.0981 25.9756C53.2967 25.9756 54.4818 25.4357 55.2002 24.4808C55.2216 24.4598 55.2565 24.4358 55.2855 24.4159L55.3054 24.4022C55.3234 24.3896 55.3256 24.3674 55.3133 24.3493C55.3118 24.3471 55.3102 24.345 55.3083 24.343L55.3072 24.3419L55.3064 24.341L55.304 24.3388C55.2803 24.3184 55.1847 24.2346 55.1305 24.1674C55.0793 24.1039 55.0247 24.0029 55.0036 23.9623C54.9977 23.9511 54.9872 23.9429 54.9746 23.9403C54.9515 23.9354 54.9283 23.948 54.9201 23.9699L54.9084 24.0011ZM53.4015 20.8737H50.0359C50.0359 19.7069 50.6957 18.6004 51.9367 18.6004C53.0021 18.6004 53.6604 19.7202 53.6604 20.6182C53.6604 20.7885 53.5741 20.8737 53.4015 20.8737Z" fill="white"/>
<path d="M33.6759 8.10138C33.2531 8.10138 32.9631 8.08546 32.8059 8.05363C34.7356 12.2717 35.8143 14.6725 36.042 15.2561C35.7763 15.8816 35.5646 16.1729 35.0695 16.8019C35.6353 16.732 36.1303 16.8718 36.484 17.0116C36.5426 16.8247 36.5836 16.6751 36.6236 16.5293C36.7719 15.9879 36.7638 15.6973 37.7332 13.553C38.9691 10.8312 39.8256 8.99804 40.3026 8.05363C40.1942 8.08546 39.9557 8.10138 39.5871 8.10138C39.2618 8.10138 39.045 8.08546 38.9366 8.05363C38.2265 10.2396 37.4974 12.1125 36.7494 13.6724H36.7169C35.6002 11.0354 34.8576 9.16252 34.489 8.05363C34.3481 8.08546 34.077 8.10138 33.6759 8.10138Z" fill="white"/>
<path fill-rule="evenodd" clip-rule="evenodd" d="M24.7108 7.73605C24.7108 6.19913 24.6524 5.00261 24.5355 4.14649C24.5334 4.13146 24.537 4.11639 24.5455 4.10377C24.5592 4.0835 24.5836 4.07305 24.608 4.07656C24.8251 4.10776 25.1213 4.12336 25.4964 4.12336C25.6809 4.12336 26.1124 4.1028 26.7909 4.06168C27.4753 4.02056 27.8979 4 28.0586 4C29.696 4 32.1614 5.20534 32.0987 8.12352C32.036 11.0417 29.4819 12.4569 26.282 12.0375C26.2994 12.5146 26.4408 13.9246 26.5115 14.4138C26.5513 14.6891 26.6733 15.0927 26.7799 15.4454C26.8628 15.7195 26.9363 15.9629 26.9547 16.0912C26.9569 16.1063 26.9533 16.1215 26.9447 16.1342C26.9311 16.1544 26.9068 16.1648 26.8825 16.1613C26.665 16.1301 26.1781 16.084 25.2998 16.0875C24.9195 16.0875 24.6234 16.1031 24.4113 16.1342C24.278 16.1537 24.293 16.146 24.3191 16.1326C24.3346 16.1246 24.354 16.1147 24.3489 16.1072C24.3403 16.0945 24.3368 16.0794 24.339 16.0644C24.3707 15.8426 24.416 15.6919 24.464 15.5321C24.5928 15.1039 24.7502 14.2553 24.7108 12.1506V7.73605ZM26.282 5.56844V11.2621C28.8179 12.0375 30.5428 9.75237 30.6135 8.56433C30.6842 7.3763 30.6842 4.41922 26.6302 4.96926C26.3981 5.09262 26.282 5.29235 26.282 5.56844Z" stroke="#466330" stroke-width="0.3615" stroke-linejoin="round" mask="url(#path-5-outside-1_4904_42615)"/>
<path d="M44.4831 15.0407C41.28 15.0407 41.1826 8.56433 44.376 8.56433C45.0473 8.56433 45.6385 8.97663 46.1495 9.80124C46.1847 9.85806 46.2488 9.89161 46.3161 9.88651C46.3895 9.88093 46.4516 9.83088 46.4718 9.76102L46.8667 8.39691L46.8221 8.34404C46.1674 8.00921 45.358 7.84179 44.3938 7.84179C43.3821 7.84179 42.4804 8.21481 41.6888 8.96085C40.8973 9.70688 40.5015 10.6644 40.5015 11.8334C40.5015 13.0846 40.8318 14.0832 41.4924 14.8293C42.159 15.5694 43.0517 15.9395 44.1706 15.9395C45.2269 15.9395 46.0902 15.5559 46.7605 14.7886C46.8232 14.7168 46.8194 14.6103 46.7548 14.5401L46.5475 14.3145C46.529 14.2944 46.5029 14.283 46.4754 14.283C46.4514 14.283 46.4283 14.2918 46.4103 14.3074C45.8456 14.7963 45.2032 15.0407 44.4831 15.0407Z" stroke="#466330" stroke-width="0.3615" stroke-linejoin="round" mask="url(#path-5-outside-1_4904_42615)"/>
<path d="M52.0909 15.0407C48.8857 15.0407 48.8083 8.56433 51.9838 8.56433C52.6552 8.56433 53.2464 8.97663 53.7573 9.80124C53.7925 9.85806 53.8567 9.89161 53.9239 9.88651C53.9973 9.88093 54.0595 9.83087 54.0797 9.76102L54.4745 8.39691L54.4299 8.34404C53.7752 8.00921 52.9658 7.84179 52.0017 7.84179C50.9899 7.84179 50.0882 8.21481 49.2967 8.96085C48.5051 9.70688 48.1094 10.6644 48.1094 11.8334C48.1094 13.0846 48.4397 14.0832 49.1003 14.8293C49.7669 15.5694 50.6596 15.9395 51.7785 15.9395C52.8348 15.9395 53.6981 15.5559 54.3684 14.7886C54.4311 14.7168 54.4272 14.6103 54.3627 14.5401L54.1553 14.3145C54.1369 14.2944 54.1107 14.283 54.0833 14.283C54.0593 14.283 54.0361 14.2918 54.0181 14.3074C53.4535 14.7963 52.8111 15.0407 52.0909 15.0407Z" stroke="#466330" stroke-width="0.3615" stroke-linejoin="round" mask="url(#path-5-outside-1_4904_42615)"/>
<path d="M56.3668 8.04173C56.4891 8.76406 56.5502 9.83409 56.5502 11.2518V12.5295C56.5443 13.9473 56.4831 15.0174 56.3666 15.7397C56.3641 15.755 56.3676 15.7704 56.3763 15.7833C56.3898 15.8033 56.4138 15.8136 56.4379 15.8101C56.6531 15.7789 56.9316 15.7633 57.2733 15.7633C57.6206 15.7633 57.902 15.7789 58.1175 15.8101C58.1417 15.8136 58.1658 15.8033 58.1794 15.7832C58.188 15.7704 58.1915 15.755 58.1892 15.7398C58.0726 14.9833 58.0143 13.9132 58.0143 12.5295V12.0713C58.1452 12.0772 58.2672 12.0918 58.3803 12.1153C58.4934 12.1388 58.5946 12.1623 58.6838 12.1858C58.7731 12.2093 58.8594 12.2505 58.9427 12.3092C59.032 12.3621 59.1034 12.4032 59.157 12.4326C59.2165 12.4561 59.282 12.5119 59.3534 12.6C59.4248 12.6822 59.4754 12.738 59.5051 12.7674C59.5409 12.7968 59.5914 12.8702 59.6569 12.9877C59.7283 13.0993 59.773 13.1727 59.7908 13.208C59.8087 13.2373 59.8563 13.3225 59.9337 13.4635C60.011 13.6045 60.0586 13.6926 60.0765 13.7278C60.3815 14.282 60.6284 14.7281 60.8171 15.066C61.0744 15.5265 61.5845 15.7758 62.1173 15.7662C62.2232 15.7642 62.3345 15.7633 62.4512 15.7633C62.9035 15.7633 63.2219 15.7809 63.4064 15.8162L63.4421 15.7633C63.0731 15.3756 62.6773 14.8939 62.2548 14.3182C61.8382 13.7367 61.4721 13.2667 61.1567 12.9084C60.7996 12.5148 60.4991 12.2328 60.255 12.0625C60.017 11.8921 59.6896 11.7717 59.273 11.7012V11.666C59.4694 11.5837 59.6837 11.29 59.9158 10.7848C60.1539 10.2796 60.3592 9.92423 60.5318 9.71863C60.8413 9.34267 61.1775 9.1547 61.5406 9.1547C61.9903 9.1547 62.3264 9.22704 62.5487 9.37173C62.5839 9.39467 62.6269 9.40432 62.6678 9.39422C62.7159 9.38234 62.7538 9.34569 62.7667 9.29842L63.0936 8.10212C63.1049 8.06099 63.093 8.01708 63.0625 7.98696C63.048 7.97266 63.03 7.9622 63.0103 7.95677C62.7315 7.88012 62.4916 7.84179 62.2905 7.84179C61.8501 7.84179 61.4126 7.99159 60.9781 8.29118C60.5496 8.59077 60.1955 8.95203 59.9158 9.37498C59.8027 9.54534 59.6688 9.77444 59.5141 10.0623C59.3653 10.3501 59.2433 10.5704 59.148 10.7231C59.0588 10.87 58.9159 11.008 58.7195 11.1373C58.5291 11.2606 58.294 11.3282 58.0143 11.3399V11.2518C58.0378 9.75442 58.0962 8.68423 58.1894 8.04124C58.1916 8.0261 58.1881 8.01098 58.1795 7.99826C58.1659 7.97809 58.1416 7.9677 58.1173 7.97122C57.9018 8.00242 57.6205 8.01802 57.2733 8.01802C56.9315 8.01802 56.6529 8.0024 56.4377 7.97115C56.4137 7.96766 56.3898 7.97793 56.3764 7.99783C56.3676 8.0108 56.3642 8.02636 56.3668 8.04173Z" stroke="#466330" stroke-width="0.3615" stroke-linejoin="round" mask="url(#path-5-outside-1_4904_42615)"/>
<path fill-rule="evenodd" clip-rule="evenodd" d="M69.0094 14.8998H69.0808C69.1819 15.2405 69.3575 15.4989 69.6075 15.6752C69.8634 15.8514 70.1639 15.9395 70.5091 15.9395C71.0762 15.9395 71.5338 15.7812 71.8818 15.4645C71.9343 15.4167 71.951 15.3427 71.9296 15.2755L71.883 15.1288C71.8495 15.0233 71.7337 14.9685 71.6248 14.9946C71.5209 15.0195 71.4228 15.0319 71.3304 15.0319C71.0745 15.0319 70.896 14.9879 70.7948 14.8998C70.5924 14.7177 70.4913 14.2477 70.4913 13.4899C70.4913 13.2902 70.5002 12.7968 70.518 12.0096C70.5359 11.2225 70.5448 10.8083 70.5448 10.7672C70.5448 8.81693 69.539 7.84179 67.5274 7.84179C66.5802 7.84179 65.6889 8.18765 64.8535 8.87935C64.8448 8.88662 64.8368 8.89492 64.8299 8.90397C64.8026 8.93996 64.7931 8.98619 64.8041 9.02985L65.0586 10.0419C65.0775 10.1172 65.1432 10.1719 65.2215 10.1776C65.289 10.1825 65.3535 10.15 65.3899 10.0936C66.0106 9.13284 66.5949 8.65244 67.3399 8.65244C68.1084 8.65244 68.7369 9.00947 68.9647 9.78031C69.054 10.0623 69.0986 10.3971 69.0986 10.7848C69.0986 10.9023 69.057 10.9728 68.9736 10.9963L67.2685 11.3752C65.9616 11.6609 64.2332 12.4389 64.2332 13.9922C64.2332 14.6442 64.4356 15.1318 64.8403 15.4549C65.5974 16.0505 66.8933 16.0982 67.7685 15.728C68.1077 15.5871 68.5213 15.311 69.0094 14.8998ZM67.5274 12.1153L69.0808 11.7012L69.0094 13.8512C69.0094 14.0451 68.9231 14.2007 68.7505 14.3182C68.0345 14.8516 66.8856 15.3986 66.0901 14.6883C65.5372 14.1946 65.6444 13.3473 66.1169 12.8291C66.3847 12.5354 66.8549 12.2974 67.5274 12.1153Z" stroke="#466330" stroke-width="0.3615" stroke-linejoin="round" mask="url(#path-5-outside-1_4904_42615)"/>
<path fill-rule="evenodd" clip-rule="evenodd" d="M74.946 12.2651C75.0055 12.2593 75.0501 12.2563 75.0799 12.2563C74.9311 12.3914 74.7317 12.6088 74.4817 12.9084C74.1782 13.2726 73.8242 13.7484 73.4195 14.3358C73.0296 14.9045 72.6682 15.3721 72.3352 15.7385C72.3219 15.7531 72.3203 15.7747 72.3313 15.791C72.3415 15.8061 72.3601 15.8131 72.3781 15.8095C72.5305 15.7787 72.818 15.7633 73.241 15.7633C73.2919 15.7633 73.3416 15.7635 73.3901 15.7638C73.409 15.7639 73.4277 15.7641 73.4462 15.7643L73.4823 15.7647C74.0351 15.7715 74.5705 15.5081 74.8278 15.0251C75.0072 14.6881 75.2341 14.2557 75.5084 13.7278C75.6452 13.4517 75.7494 13.252 75.8208 13.1287C75.8982 13.0053 76.0023 12.8702 76.1333 12.7233C76.2702 12.5765 76.4279 12.4707 76.6064 12.4061C76.785 12.3356 77.0052 12.2828 77.2671 12.2475V12.7145C77.2612 13.9752 77.2 14.983 77.0835 15.7381C77.081 15.7544 77.0847 15.7709 77.094 15.7846C77.1072 15.8041 77.1299 15.8153 77.1536 15.8139L77.9991 15.7633C78.3883 15.7633 78.6715 15.7782 78.8486 15.8081C78.8734 15.8123 78.8978 15.7984 78.9058 15.7749C78.9083 15.7673 78.909 15.7593 78.9076 15.7513C78.784 15.029 78.7222 13.9609 78.7222 12.5471V11.2342C78.7281 9.82908 78.7892 8.76543 78.9056 8.04326C78.9082 8.02689 78.9045 8.01035 78.8952 7.99656C78.8821 7.97711 78.8594 7.96603 78.8358 7.96746L77.9991 8.01802C77.6896 8.01802 77.2909 8.00921 76.8028 7.99159C76.3208 7.97396 75.9756 7.96515 75.7673 7.96515C75.1424 7.96515 74.6216 8.02977 74.205 8.15901C73.7943 8.28237 73.491 8.45859 73.2946 8.68769C73.0982 8.91679 72.9642 9.14589 72.8928 9.37498C72.8214 9.60408 72.7857 9.86843 72.7857 10.168C72.7857 10.7731 72.9761 11.2753 73.357 11.6748C73.7439 12.0684 74.2288 12.2651 74.812 12.2651H74.946ZM77.2671 9.234V11.6131H75.803C75.303 11.6131 74.9341 11.4604 74.696 11.1549C74.4579 10.8494 74.3389 10.4559 74.3389 9.97416C74.3389 9.50422 74.4579 9.1547 74.696 8.9256C74.9341 8.6965 75.3685 8.58195 75.9994 8.58195C76.416 8.58195 76.7314 8.62601 76.9457 8.71413C77.1599 8.79637 77.2671 8.96966 77.2671 9.234Z" stroke="#466330" stroke-width="0.3615" stroke-linejoin="round" mask="url(#path-5-outside-1_4904_42615)"/>
<path fill-rule="evenodd" clip-rule="evenodd" d="M24.4201 18.0453C24.4662 18.3638 24.5037 18.7466 24.5328 19.1938C24.5387 20.7446 24.3155 22.5157 23.8632 24.5071C23.7561 24.9653 23.4526 25.2238 22.9526 25.2825C22.6193 25.3178 22.4468 25.4499 22.4348 25.679L22.3391 27.8207C22.3328 27.9613 22.4437 28.0801 22.5862 28.0854C22.7105 28.09 22.8198 28.0055 22.8503 27.8866C23.2124 26.4736 23.916 25.7672 24.9613 25.7672H28.1037C28.5679 25.7672 28.9756 25.9169 29.3268 26.2165C29.6838 26.5161 29.9338 26.8216 30.0766 27.1329C30.194 27.3832 30.2836 27.6316 30.3454 27.8781C30.374 27.992 30.4752 28.0757 30.5941 28.0757C30.7352 28.0757 30.8477 27.9593 30.841 27.8201L30.7373 25.6614C30.7373 25.4558 30.5855 25.3295 30.282 25.2825C29.794 25.1944 29.5499 24.8978 29.5499 24.3926V21.6346C29.5558 20.0053 29.6168 18.811 29.7328 18.0516C29.7357 18.0325 29.7302 18.0134 29.7177 17.9985C29.7022 17.9802 29.6782 17.9714 29.6543 17.9749C29.439 18.0062 29.1602 18.0219 28.8179 18.0219H25.3273C24.9857 18.0219 24.7074 18.0063 24.4923 17.9751C24.468 17.9716 24.4437 17.982 24.4301 18.0021C24.4215 18.0148 24.418 18.0302 24.4201 18.0453ZM25.1818 25.0622C24.9497 25.0681 24.8336 24.9976 24.8336 24.8508C24.8336 24.8155 24.8723 24.6099 24.9497 24.234C25.033 23.858 25.1342 23.2236 25.2532 22.3307C25.3782 21.4319 25.4764 20.3804 25.5478 19.1762C25.5478 19.0939 25.5865 18.997 25.6639 18.8854C25.7413 18.7679 25.8722 18.7092 26.0567 18.7092H27.3538C27.6752 18.7092 27.8776 18.7738 27.9609 18.903C28.0442 19.0323 28.0859 19.2643 28.0859 19.5991V24.1811C28.0859 24.5159 28.0412 24.748 27.9519 24.8772C27.8686 25.0006 27.6692 25.0622 27.3538 25.0622H25.1818Z" stroke="#466330" stroke-width="0.3615" stroke-linejoin="round" mask="url(#path-5-outside-1_4904_42615)"/>
<path fill-rule="evenodd" clip-rule="evenodd" d="M37.8716 23.969C37.8677 23.9794 37.8617 23.989 37.854 23.9972C37.2364 24.6515 36.4206 24.886 35.3737 24.886C33.4557 24.886 32.7714 23.1848 32.9455 21.5641H37.918C38.1382 21.5641 38.2483 21.4613 38.2483 21.2557C38.2483 19.3784 36.9162 17.8457 34.9488 17.8457C32.7188 17.8457 31.3386 19.9635 31.3386 21.9958C31.3386 23.1825 31.6058 24.0842 32.1533 24.7362C32.8199 25.5292 33.7936 25.9434 35.0613 25.9434C36.2599 25.9434 37.4333 25.4304 38.1518 24.4755C38.1847 24.4317 38.2337 24.3959 38.2658 24.3724L38.2698 24.3695C38.2869 24.3569 38.2891 24.3356 38.2772 24.3182C38.2741 24.3136 38.2703 24.3096 38.2659 24.3062C38.2396 24.286 38.1418 24.2089 38.0895 24.1444C38.038 24.0808 37.9862 23.9743 37.9662 23.9313C37.9607 23.9194 37.9499 23.9107 37.937 23.9079C37.9144 23.9031 37.8916 23.9155 37.8836 23.9369L37.8716 23.969ZM36.3647 20.8415H32.9991C32.9991 19.6747 33.6589 18.5682 34.8999 18.5682C35.9652 18.5682 36.6236 19.6881 36.6236 20.586C36.6236 20.7564 36.5373 20.8415 36.3647 20.8415Z" stroke="#466330" stroke-width="0.3615" stroke-linejoin="round" mask="url(#path-5-outside-1_4904_42615)"/>
<path fill-rule="evenodd" clip-rule="evenodd" d="M41.4612 19.467L41.4255 19.4141V18.1012C41.4196 17.9778 41.3809 17.9161 41.3095 17.9161C40.8739 17.9964 40.3958 18.0151 39.8752 17.9723C39.8513 17.9703 39.8282 17.9813 39.8149 18.0009C39.8058 18.0144 39.8021 18.0304 39.8046 18.0464C39.9092 18.7256 39.9614 19.8864 39.9614 21.5288V26.3487C39.9614 27.9314 39.9089 29.1251 39.8038 29.9297C39.8018 29.9446 39.8054 29.9595 39.8139 29.972C39.8276 29.9924 39.8522 30.0028 39.8767 29.9992C40.0857 29.9681 40.355 29.9526 40.6846 29.9526C41.0203 29.9526 41.2955 29.9682 41.5102 29.9993C41.5348 30.0029 41.5594 29.9924 41.5731 29.9719C41.5816 29.9595 41.5852 29.9446 41.5834 29.9297C41.4781 29.0793 41.4255 27.8857 41.4255 26.3487V25.5469C41.9255 25.8112 42.5295 25.9434 43.2378 25.9434C44.4281 25.9434 45.3714 25.541 46.0677 24.7362C46.7641 23.9314 47.1122 22.8858 47.1122 21.5993C47.1122 20.5772 46.8236 19.6961 46.2463 18.9559C45.6749 18.2157 44.9012 17.8457 43.9252 17.8457C43.0027 17.8457 42.1814 18.3861 41.4612 19.467ZM41.4255 24.4102V20.4627C42.6071 17.6354 45.4964 18.9506 45.4964 21.8372C45.4964 22.2426 45.4637 22.6303 45.3982 23.0004C45.3327 23.3646 45.2167 23.7258 45.05 24.0842C44.8893 24.4366 44.6423 24.7156 44.3091 24.9212C43.9817 25.1268 43.5859 25.2297 43.1217 25.2297C42.4551 25.2238 41.8898 24.9506 41.4255 24.4102Z" stroke="#466330" stroke-width="0.3615" stroke-linejoin="round" mask="url(#path-5-outside-1_4904_42615)"/>
<path fill-rule="evenodd" clip-rule="evenodd" d="M56.775 25.8175L57.6251 25.7672C57.6846 25.7672 57.9108 25.773 58.3036 25.7848C58.7023 25.7965 59.3481 25.8024 60.2408 25.8024C61.9608 25.8024 62.7595 25.1856 62.8208 23.5643C62.8208 22.4156 61.8744 21.8853 60.9907 21.6346V21.5993C61.7525 21.4836 62.5619 20.7137 62.5619 19.934C62.5619 19.3113 62.3566 18.8325 61.9459 18.4977C61.5353 18.157 60.7497 17.9866 59.5891 17.9866C59.357 17.9866 59.0356 17.9925 58.6249 18.0043C58.2143 18.016 57.881 18.0219 57.6251 18.0219C57.2361 18.0219 56.9531 18.0069 56.7759 17.9771C56.7509 17.9729 56.7263 17.9869 56.7183 18.0106C56.7158 18.018 56.7151 18.0258 56.7163 18.0336C56.852 18.9126 56.9198 19.9925 56.9198 21.2733V22.5157C56.9198 23.8479 56.8521 24.9273 56.7167 25.7539C56.7152 25.7627 56.716 25.7716 56.7188 25.78C56.7268 25.8036 56.7498 25.819 56.775 25.8175ZM59.4195 21.2381H58.375V19.2202C58.375 18.9383 58.4226 18.765 58.5178 18.7004C58.619 18.6357 58.9195 18.6034 59.4195 18.6034C59.967 18.6034 60.3717 18.6945 60.6336 18.8766C60.8955 19.0528 61.0264 19.4053 61.0264 19.934C61.0264 20.3099 60.8865 20.6213 60.6068 20.868C60.3271 21.1147 59.9313 21.2381 59.4195 21.2381ZM58.375 24.3749V21.8549H59.5891C60.1009 21.8549 60.5027 22.0164 60.7943 22.3395C61.0859 22.6626 61.2317 23.065 61.2317 23.5467C61.2317 24.6393 60.6276 25.1856 59.4195 25.1856C58.9791 25.1856 58.6934 25.1357 58.5625 25.0358C58.4375 24.9301 58.375 24.7098 58.375 24.3749Z" stroke="#466330" stroke-width="0.3615" stroke-linejoin="round" mask="url(#path-5-outside-1_4904_42615)"/>
<path d="M64.3385 18.0456C64.4607 18.7679 64.5219 19.838 64.5219 21.2557V22.5333C64.516 23.9512 64.4548 25.0212 64.3383 25.7436C64.3358 25.7589 64.3393 25.7743 64.348 25.7872C64.3615 25.8072 64.3855 25.8175 64.4096 25.814C64.6248 25.7828 64.9032 25.7672 65.245 25.7672C65.5924 25.7672 65.8738 25.7828 66.0893 25.814C66.1134 25.8175 66.1375 25.8072 66.151 25.7872C66.1597 25.7743 66.1631 25.7588 66.1607 25.7436C66.0383 24.987 65.977 23.917 65.977 22.5333V21.9958H70.0033V22.5333C69.9974 23.9471 69.9365 25.015 69.8207 25.7373C69.8176 25.7564 69.823 25.7757 69.8356 25.7906C69.851 25.8088 69.875 25.8176 69.8988 25.814C70.1087 25.7828 70.3846 25.7672 70.7264 25.7672C71.0737 25.7672 71.3551 25.7828 71.5706 25.814C71.5947 25.8175 71.6189 25.8071 71.6325 25.7871C71.6411 25.7743 71.6446 25.7589 71.6423 25.7437C71.5257 24.9872 71.4674 23.9171 71.4674 22.5333V21.2557C71.4909 19.7583 71.5493 18.6881 71.6425 18.0451C71.6447 18.03 71.6412 18.0148 71.6326 18.0021C71.6189 17.982 71.5947 17.9716 71.5704 17.9751C71.3553 18.0063 71.0769 18.0219 70.7353 18.0219C70.3928 18.0219 70.1139 18.0062 69.8985 17.9748C69.8749 17.9714 69.851 17.9801 69.8357 17.9983C69.8231 18.0132 69.8177 18.0327 69.8209 18.052C69.9425 18.7742 70.0033 19.8421 70.0033 21.2557V21.2909H65.977V21.2557C66.0064 19.7583 66.0678 18.6881 66.1611 18.0451C66.1633 18.03 66.1598 18.0148 66.1512 18.0021C66.1376 17.982 66.1133 17.9716 66.089 17.9751C65.8735 18.0063 65.5922 18.0219 65.245 18.0219C64.9032 18.0219 64.6246 18.0063 64.4094 17.975C64.3855 17.9715 64.3615 17.9818 64.3481 18.0017C64.3393 18.0147 64.3359 18.0302 64.3385 18.0456Z" stroke="#466330" stroke-width="0.3615" stroke-linejoin="round" mask="url(#path-5-outside-1_4904_42615)"/>
<path fill-rule="evenodd" clip-rule="evenodd" d="M75.238 22.269C75.2975 22.2631 75.3422 22.2602 75.3719 22.2602C75.2231 22.3953 75.0238 22.6126 74.7738 22.9122C74.4703 23.2764 74.1162 23.7523 73.7115 24.3397C73.3215 24.9084 72.9601 25.3759 72.627 25.7424C72.6138 25.757 72.6122 25.7786 72.6232 25.7949C72.6334 25.81 72.652 25.817 72.67 25.8134C72.8223 25.7826 73.11 25.7672 73.5329 25.7672C73.6168 25.7672 73.6973 25.7676 73.7743 25.7686C74.3271 25.7754 74.8626 25.512 75.1199 25.029C75.2993 24.692 75.5262 24.2596 75.8005 23.7317C75.9373 23.4556 76.0415 23.2559 76.1129 23.1325C76.1903 23.0092 76.2944 22.8741 76.4254 22.7272C76.5622 22.5803 76.72 22.4746 76.8985 22.41C77.0771 22.3395 77.2973 22.2866 77.5591 22.2514V22.7184C77.5533 23.979 77.4921 24.9869 77.3756 25.742C77.3731 25.7583 77.3768 25.7748 77.3861 25.7885C77.3993 25.808 77.4219 25.8191 77.4457 25.8177L78.2912 25.7672C78.6804 25.7672 78.9636 25.7821 79.1407 25.812C79.1655 25.8162 79.1899 25.8023 79.1978 25.7788C79.1994 25.7742 79.2002 25.7695 79.2004 25.7647C79.2004 25.763 79.2004 25.7613 79.2003 25.7596L79.2 25.7574L79.1997 25.7552C79.0761 25.0328 79.0143 23.9647 79.0143 22.551V21.2381C79.0202 19.8329 79.0813 18.7693 79.1977 18.0471C79.2003 18.0307 79.1966 18.0142 79.1873 18.0004C79.1741 17.981 79.1515 17.9699 79.1279 17.9713L78.2912 18.0219C77.9817 18.0219 77.583 18.0131 77.0949 17.9954C76.6128 17.9778 76.2676 17.969 76.0593 17.969C75.4344 17.969 74.9137 18.0336 74.4971 18.1629C74.0864 18.2862 73.7829 18.4625 73.5865 18.6916C73.3901 18.9207 73.2562 19.1497 73.1847 19.3788C73.1133 19.6079 73.0776 19.8723 73.0776 20.1719C73.0776 20.7769 73.2681 21.2792 73.649 21.6786C74.0358 22.0722 74.5209 22.269 75.1041 22.269H75.238ZM77.5591 19.2379V21.617H76.095C75.5951 21.617 75.2261 21.4642 74.9881 21.1588C74.75 20.8533 74.631 20.4597 74.631 19.978C74.631 19.5081 74.75 19.1586 74.9881 18.9295C75.2261 18.7004 75.6606 18.5858 76.2915 18.5858C76.7081 18.5858 77.0235 18.6299 77.2378 18.718C77.452 18.8002 77.5591 18.9735 77.5591 19.2379Z" stroke="#466330" stroke-width="0.3615" stroke-linejoin="round" mask="url(#path-5-outside-1_4904_42615)"/>
<path fill-rule="evenodd" clip-rule="evenodd" d="M54.9084 24.0011C54.9045 24.0116 54.8985 24.0212 54.8909 24.0294C54.2733 24.6837 53.4574 24.9182 52.4106 24.9182C50.4925 24.9182 49.8083 23.217 49.9823 21.5963H54.9549C55.1751 21.5963 55.2852 21.4935 55.2852 21.2879C55.2852 19.4106 53.9531 17.8778 51.9856 17.8778C49.7557 17.8778 48.3754 19.9957 48.3754 22.028C48.3754 23.2146 48.6426 24.1163 49.1902 24.7684C49.8568 25.5614 50.8304 25.9756 52.0981 25.9756C53.2967 25.9756 54.4818 25.4357 55.2002 24.4808C55.2216 24.4598 55.2565 24.4358 55.2855 24.4159L55.3054 24.4022C55.3234 24.3896 55.3256 24.3674 55.3133 24.3493C55.3118 24.3471 55.3102 24.345 55.3083 24.343L55.3072 24.3419L55.3064 24.341L55.304 24.3388C55.2803 24.3184 55.1847 24.2346 55.1305 24.1674C55.0793 24.1039 55.0247 24.0029 55.0036 23.9623C54.9977 23.9511 54.9872 23.9429 54.9746 23.9403C54.9515 23.9354 54.9283 23.948 54.9201 23.9699L54.9084 24.0011ZM53.4015 20.8737H50.0359C50.0359 19.7069 50.6957 18.6004 51.9367 18.6004C53.0021 18.6004 53.6604 19.7202 53.6604 20.6182C53.6604 20.7885 53.5741 20.8737 53.4015 20.8737Z" stroke="#466330" stroke-width="0.3615" stroke-linejoin="round" mask="url(#path-5-outside-1_4904_42615)"/>
<path d="M33.6759 8.10138C33.2531 8.10138 32.9631 8.08546 32.8059 8.05363C34.7356 12.2717 35.8143 14.6725 36.042 15.2561C35.7763 15.8816 35.5646 16.1729 35.0695 16.8019C35.6353 16.732 36.1303 16.8718 36.484 17.0116C36.5426 16.8247 36.5836 16.6751 36.6236 16.5293C36.7719 15.9879 36.7638 15.6973 37.7332 13.553C38.9691 10.8312 39.8256 8.99804 40.3026 8.05363C40.1942 8.08546 39.9557 8.10138 39.5871 8.10138C39.2618 8.10138 39.045 8.08546 38.9366 8.05363C38.2265 10.2396 37.4974 12.1125 36.7494 13.6724H36.7169C35.6002 11.0354 34.8576 9.16252 34.489 8.05363C34.3481 8.08546 34.077 8.10138 33.6759 8.10138Z" stroke="#466330" stroke-width="0.3615" stroke-linejoin="round" mask="url(#path-5-outside-1_4904_42615)"/>
</g>
</g>
</svg>
