<svg width="139" height="56" viewBox="0 0 139 56" fill="none" xmlns="http://www.w3.org/2000/svg">
<g id="Logotype">
<g id="Group 2025">
<g id="Intersect">
<path d="M30.4002 38.7348C25.1858 30.4505 15.8698 24.933 5.24532 24.933C5.24134 24.933 5.23737 24.933 5.2334 24.933V27.5413C5.23737 27.5413 5.24134 27.5413 5.24532 27.5413C15.4154 27.5413 24.2686 33.0943 28.8494 41.2896C29.477 40.5164 30.0009 39.658 30.4002 38.7348Z" fill="#466330"/>
<path d="M26.8738 43.1881C22.8549 35.4482 14.6783 30.1496 5.24512 30.1496C5.24121 30.1496 5.2373 30.1496 5.2334 30.1496V32.7579C5.2373 32.7579 5.24121 32.7579 5.24512 32.7579C13.7049 32.7579 21.0302 37.5412 24.585 44.5114C25.4038 44.1596 26.1714 43.7139 26.8738 43.1881Z" fill="#466330"/>
<path d="M21.8364 45.2953C18.6049 39.504 12.4167 35.5389 5.27377 35.3718C5.35253 36.2862 5.54493 37.1686 5.83701 38.0054C11.2693 38.3306 16.0034 41.2021 18.8248 45.4236H20.1257C20.7074 45.4236 21.2787 45.3798 21.8364 45.2953Z" fill="#466330"/>
<path d="M15.6257 45.3979C13.5406 43.029 10.6169 41.3547 7.29066 40.7911C9.17418 43.4014 12.186 45.167 15.6257 45.3979Z" fill="#466330"/>
</g>
<g id="Intersect_2">
<path d="M30.938 37.1682C30.7976 37.7074 30.6168 38.2306 30.3989 38.7345C30.1663 38.3651 29.9256 38.0011 29.677 37.6429C30.0836 37.4583 30.5046 37.2994 30.938 37.1682Z" fill="#466330"/>
<path d="M31.2871 31.8234V34.4298C31.2871 34.4536 31.287 34.4774 31.2868 34.5011C30.2019 34.775 29.1746 35.1903 28.2262 35.7259C27.6596 35.0379 27.0619 34.3758 26.435 33.7418C27.9022 32.8407 29.5388 32.1823 31.2871 31.8234Z" fill="#466330"/>
<path d="M31.2871 26.5288V29.1746C28.8106 29.6151 26.507 30.5777 24.4958 31.9481C23.7984 31.3586 23.0728 30.8006 22.3213 30.2762C24.9088 28.355 27.9657 27.0371 31.2871 26.5288Z" fill="#466330"/>
</g>
<g id="Intersect_3">
<path d="M31.2884 26.529V22.5088C31.2884 22.3522 31.2851 22.1965 31.2785 22.0415C30.426 24.0741 29.1927 25.9006 27.6713 27.4325C28.8325 27.0246 30.0418 26.7198 31.2884 26.529Z" fill="#C4A28F"/>
<path d="M29.8555 17.1163C29.2129 22.6823 25.433 27.2743 20.3602 29.0189C19.1475 28.3074 17.8788 27.6789 16.5621 27.1414C22.492 26.7551 27.3038 21.7281 27.3038 15.4278C27.3038 14.9518 27.2764 14.4831 27.223 14.0231C28.2819 14.883 29.177 15.9315 29.8555 17.1163Z" fill="#C4A28F"/>
<path d="M24.0672 12.2202C24.4475 13.2181 24.6555 14.299 24.6555 15.4278C24.6555 20.4697 20.5054 24.5569 15.3859 24.5569C11.0385 24.5569 7.39015 21.6095 6.3886 17.633C7.00197 16.4143 7.8381 15.3236 8.84457 14.4126C8.79206 14.7434 8.76481 15.0824 8.76481 15.4278C8.76481 19.0291 11.7292 21.9486 15.3859 21.9486C19.0427 21.9486 22.0071 19.0291 22.0071 15.4278C22.0071 13.9661 21.5188 12.6167 20.694 11.5293C21.8762 11.5877 23.01 11.8272 24.0672 12.2202Z" fill="#C4A28F"/>
<path d="M5.43464 20.42C6.34158 22.3912 7.76818 24.0541 9.52472 25.2356C8.12813 25.0362 6.69995 24.933 5.24729 24.9329C5.24265 24.9276 5.23802 24.9223 5.2334 24.9169V22.5088C5.2334 21.7946 5.30256 21.0963 5.43464 20.42Z" fill="#C4A28F"/>
<path fill-rule="evenodd" clip-rule="evenodd" d="M19.3785 15.5028C19.3785 17.6636 17.5998 19.4152 15.4058 19.4152C13.2117 19.4152 11.4331 17.6636 11.4331 15.5028C11.4331 13.3419 13.2117 11.5903 15.4058 11.5903C17.5998 11.5903 19.3785 13.3419 19.3785 15.5028ZM16.73 15.5028C16.73 16.223 16.1371 16.8069 15.4058 16.8069C14.6744 16.8069 14.0816 16.223 14.0816 15.5028C14.0816 14.7825 14.6744 14.1986 15.4058 14.1986C16.1371 14.1986 16.73 14.7825 16.73 15.5028Z" fill="#C4A28F"/>
</g>
<path id="Subtract" fill-rule="evenodd" clip-rule="evenodd" d="M19.1904 5.83337H17.3293C7.97597 5.83337 0.393555 13.3009 0.393555 22.5126V34.4263C0.393555 43.6379 7.97597 51.1055 17.3293 51.1055H19.1904C28.5438 51.1055 36.1262 43.6379 36.1262 34.4263V22.5126C36.1262 13.3009 28.5438 5.83337 19.1904 5.83337ZM17.3291 7.84955C9.10636 7.84955 2.4405 14.4144 2.4405 22.5126V34.4263C2.4405 42.5245 9.10636 49.0893 17.3291 49.0893H19.1902C27.4129 49.0893 34.0788 42.5244 34.0788 34.4263V22.5126C34.0788 14.4144 27.4129 7.84955 19.1902 7.84955H17.3291Z" fill="#466330"/>
</g>
<g id="Union">
<mask id="path-5-outside-1_4904_101746" maskUnits="userSpaceOnUse" x="38.0928" y="6" width="101" height="47" fill="black">
<rect fill="white" x="38.0928" y="6" width="101" height="47"/>
<path fill-rule="evenodd" clip-rule="evenodd" d="M43.2437 13.5381C43.2437 10.8485 43.1414 8.75457 42.9368 7.25636C42.9332 7.23005 42.9395 7.20369 42.9544 7.1816C42.9783 7.14613 43.021 7.12784 43.0638 7.13399C43.4437 7.18858 43.962 7.21588 44.6185 7.21588C44.9414 7.21588 45.6965 7.1799 46.8838 7.10794C48.0816 7.03598 48.821 7 49.1023 7C51.9677 7 56.2822 9.10934 56.1725 14.2162C56.0627 19.323 51.5931 21.7995 45.9933 21.0656C46.0237 21.9005 46.2712 24.368 46.395 25.2242C46.4646 25.7059 46.6781 26.4122 46.8646 27.0294C47.0096 27.5091 47.1383 27.935 47.1705 28.1596C47.1743 28.1861 47.1681 28.2126 47.1531 28.2348C47.1292 28.2702 47.0867 28.2884 47.0441 28.2823C46.6635 28.2276 45.8114 28.147 44.2744 28.1532C43.609 28.1532 43.0907 28.1804 42.7195 28.2348C42.4862 28.269 42.5124 28.2555 42.5582 28.232C42.5853 28.2181 42.6192 28.2007 42.6103 28.1875C42.5954 28.1654 42.5892 28.139 42.5929 28.1126C42.6485 27.7245 42.7278 27.4609 42.8118 27.1812C43.0371 26.4319 43.3126 24.9467 43.2437 21.2635V13.5381ZM45.9933 9.74477V19.7087C50.4311 21.0656 53.4496 17.0666 53.5734 14.9876C53.6971 12.9085 53.6971 7.73363 46.6026 8.6962C46.1964 8.91208 45.9933 9.26161 45.9933 9.74477Z"/>
<path d="M77.8452 26.3213C72.2397 26.3213 72.0693 14.9876 77.6577 14.9876C78.8326 14.9876 79.8672 15.7091 80.7613 17.1522C80.8229 17.2516 80.9352 17.3103 81.0529 17.3014C81.1813 17.2916 81.29 17.204 81.3254 17.0818L82.0165 14.6946L81.9384 14.6021C80.7927 14.0161 79.3762 13.7231 77.6889 13.7231C75.9184 13.7231 74.3404 14.3759 72.9552 15.6815C71.57 16.987 70.8774 18.6627 70.8774 20.7084C70.8774 22.8981 71.4554 24.6457 72.6115 25.9512C73.778 27.2465 75.3403 27.8942 77.2984 27.8942C79.1469 27.8942 80.6576 27.2228 81.8307 25.8801C81.9404 25.7544 81.9336 25.5681 81.8207 25.4452L81.4579 25.0504C81.4256 25.0152 81.3798 24.9952 81.3317 24.9952C81.2898 24.9952 81.2493 25.0106 81.2177 25.0379C80.2296 25.8935 79.1054 26.3213 77.8452 26.3213Z"/>
<path d="M91.1589 26.3213C85.5497 26.3213 85.4142 14.9876 90.9714 14.9876C92.1464 14.9876 93.1809 15.7091 94.075 17.1522C94.1367 17.2516 94.2489 17.3103 94.3667 17.3014C94.4951 17.2916 94.6038 17.204 94.6392 17.0818L95.3302 14.6946L95.2521 14.6021C94.1064 14.0161 92.6899 13.7231 91.0027 13.7231C89.2321 13.7231 87.6542 14.3759 86.269 15.6815C84.8837 16.987 84.1911 18.6627 84.1911 20.7084C84.1911 22.8981 84.7692 24.6457 85.9253 25.9512C87.0918 27.2465 88.654 27.8942 90.6121 27.8942C92.4606 27.8942 93.9714 27.2228 95.1444 25.8801C95.2542 25.7544 95.2474 25.5681 95.1345 25.4452L94.7716 25.0504C94.7393 25.0152 94.6935 24.9952 94.6455 24.9952C94.6035 24.9952 94.563 25.0106 94.5315 25.0379C93.5434 25.8935 92.4192 26.3213 91.1589 26.3213Z"/>
<path d="M98.6416 14.073C98.8556 15.3371 98.9626 17.2097 98.9626 19.6907V21.9266C98.9523 24.4078 98.8452 26.2804 98.6413 27.5445C98.6369 27.5713 98.643 27.5983 98.6582 27.6208C98.6818 27.6558 98.7239 27.6739 98.7661 27.6677C99.1427 27.6131 99.63 27.5858 100.228 27.5858C100.836 27.5858 101.328 27.6131 101.705 27.6677C101.748 27.6738 101.79 27.6557 101.814 27.6206C101.829 27.5982 101.835 27.5713 101.831 27.5447C101.627 26.2208 101.525 24.3481 101.525 21.9266V21.1248C101.754 21.135 101.967 21.1607 102.165 21.2019C102.363 21.243 102.54 21.2841 102.696 21.3252C102.853 21.3663 103.004 21.4383 103.15 21.5411C103.306 21.6336 103.431 21.7056 103.524 21.757C103.629 21.7981 103.743 21.8958 103.868 22.05C103.993 22.1939 104.082 22.2915 104.134 22.3429C104.196 22.3943 104.285 22.5228 104.399 22.7284C104.524 22.9238 104.602 23.0523 104.634 23.1139C104.665 23.1653 104.748 23.3144 104.884 23.5611C105.019 23.8078 105.102 23.962 105.134 24.0237C105.667 24.9936 106.099 25.7742 106.43 26.3654C106.88 27.1715 107.773 27.6077 108.705 27.5908C108.89 27.5874 109.085 27.5858 109.289 27.5858C110.081 27.5858 110.638 27.6166 110.961 27.6783L111.023 27.5858C110.378 26.9073 109.685 26.0643 108.946 25.0569C108.217 24.0391 107.576 23.2167 107.024 22.5897C106.399 21.9009 105.873 21.4075 105.446 21.1093C105.029 20.8112 104.457 20.6005 103.728 20.4771V20.4154C104.071 20.2715 104.446 19.7575 104.852 18.8734C105.269 17.9893 105.628 17.3674 105.93 17.0076C106.472 16.3497 107.06 16.0207 107.696 16.0207C108.483 16.0207 109.071 16.1473 109.46 16.4005C109.522 16.4407 109.597 16.4576 109.668 16.4399C109.753 16.4191 109.819 16.355 109.841 16.2722L110.414 14.1787C110.433 14.1067 110.412 14.0299 110.359 13.9772C110.334 13.9522 110.302 13.9339 110.268 13.9244C109.78 13.7902 109.36 13.7231 109.008 13.7231C108.237 13.7231 107.472 13.9853 106.712 14.5096C105.962 15.0338 105.342 15.6661 104.852 16.4062C104.655 16.7043 104.42 17.1053 104.149 17.609C103.889 18.1127 103.675 18.4982 103.509 18.7655C103.353 19.0225 103.103 19.2641 102.759 19.4902C102.426 19.7061 102.014 19.8243 101.525 19.8449V19.6907C101.566 17.0702 101.668 15.1974 101.831 14.0722C101.835 14.0457 101.829 14.0192 101.814 13.9969C101.79 13.9617 101.748 13.9435 101.705 13.9496C101.328 14.0042 100.836 14.0315 100.228 14.0315C99.6298 14.0315 99.1424 14.0042 98.7658 13.9495C98.7238 13.9434 98.6819 13.9614 98.6584 13.9962C98.6431 14.0189 98.6371 14.0461 98.6416 14.073Z"/>
<path fill-rule="evenodd" clip-rule="evenodd" d="M120.766 26.0746H120.891C121.068 26.6708 121.375 27.1232 121.813 27.4315C122.261 27.74 122.787 27.8942 123.391 27.8942C124.383 27.8942 125.184 27.617 125.793 27.0628C125.885 26.9793 125.914 26.8497 125.877 26.7321L125.795 26.4754C125.736 26.2908 125.534 26.1948 125.343 26.2405C125.161 26.2841 124.99 26.3059 124.828 26.3059C124.38 26.3059 124.068 26.2288 123.891 26.0746C123.537 25.7559 123.359 24.9335 123.359 23.6074C123.359 23.2579 123.375 22.3943 123.406 21.0168C123.438 19.6393 123.453 18.9145 123.453 18.8426C123.453 15.4296 121.693 13.7231 118.173 13.7231C116.515 13.7231 114.955 14.3284 113.493 15.5389C113.478 15.5516 113.464 15.5661 113.452 15.5819C113.404 15.6449 113.388 15.7258 113.407 15.8022L113.852 17.5734C113.885 17.705 114 17.8008 114.137 17.8108C114.256 17.8195 114.368 17.7624 114.432 17.6639C115.518 15.9825 116.541 15.1418 117.845 15.1418C119.189 15.1418 120.289 15.7666 120.688 17.1155C120.844 17.609 120.922 18.1949 120.922 18.8734C120.922 19.079 120.849 19.2024 120.704 19.2435L117.72 19.9066C115.432 20.4067 112.408 21.7681 112.408 24.4863C112.408 25.6274 112.762 26.4806 113.47 27.046C114.795 28.0884 117.063 28.1719 118.595 27.5241C119.188 27.2773 119.912 26.7942 120.766 26.0746ZM118.173 21.2019L120.891 20.4771L120.766 24.2396C120.766 24.5788 120.615 24.8513 120.313 25.0569C119.06 25.9903 117.05 26.9476 115.657 25.7045C114.69 24.8405 114.877 23.3578 115.704 22.4509C116.173 21.9369 116.996 21.5205 118.173 21.2019Z"/>
<path fill-rule="evenodd" clip-rule="evenodd" d="M131.155 21.464C131.259 21.4537 131.337 21.4486 131.39 21.4486C131.129 21.685 130.78 22.0654 130.343 22.5897C129.812 23.227 129.192 24.0597 128.484 25.0877C127.802 26.0829 127.169 26.9011 126.586 27.5424C126.563 27.568 126.56 27.6058 126.58 27.6343C126.597 27.6607 126.63 27.673 126.661 27.6666C126.928 27.6127 127.431 27.5858 128.171 27.5858C128.261 27.5858 128.348 27.5861 128.432 27.5867C128.465 27.5869 128.498 27.5872 128.531 27.5875L128.594 27.5882C129.561 27.6001 130.498 27.1392 130.948 26.294C131.262 25.7042 131.659 24.9475 132.139 24.0237C132.379 23.5406 132.561 23.191 132.686 22.9752C132.822 22.7593 133.004 22.5228 133.233 22.2658C133.473 22.0088 133.749 21.8238 134.061 21.7107C134.373 21.5874 134.759 21.4948 135.217 21.4332V22.2504C135.207 24.4566 135.1 26.2203 134.896 27.5417C134.891 27.5702 134.898 27.5991 134.914 27.6231C134.937 27.6573 134.977 27.6767 135.019 27.6743L136.498 27.5858C137.179 27.5858 137.675 27.6119 137.985 27.6642C138.028 27.6716 138.071 27.6473 138.085 27.6061C138.089 27.5927 138.09 27.5787 138.088 27.5649C137.872 26.3007 137.764 24.4315 137.764 21.9574V19.6598C137.774 17.2009 137.881 15.3395 138.085 14.0757C138.089 14.0471 138.083 14.0181 138.066 13.994C138.043 13.96 138.004 13.9406 137.962 13.9431L136.498 14.0315C135.957 14.0315 135.259 14.0161 134.405 13.9853C133.561 13.9544 132.957 13.939 132.592 13.939C131.499 13.939 130.588 14.0521 129.859 14.2783C129.14 14.4941 128.609 14.8025 128.265 15.2035C127.922 15.6044 127.687 16.0053 127.562 16.4062C127.437 16.8071 127.375 17.2697 127.375 17.794C127.375 18.8529 127.708 19.7318 128.375 20.4309C129.052 21.1196 129.9 21.464 130.921 21.464H131.155ZM135.217 16.1595V20.3229H132.655C131.78 20.3229 131.134 20.0556 130.718 19.5211C130.301 18.9865 130.093 18.2977 130.093 17.4548C130.093 16.6324 130.301 16.0207 130.718 15.6198C131.134 15.2189 131.895 15.0184 132.999 15.0184C133.728 15.0184 134.28 15.0955 134.655 15.2497C135.03 15.3936 135.217 15.6969 135.217 16.1595Z"/>
<path fill-rule="evenodd" clip-rule="evenodd" d="M42.735 31.5793C42.8156 32.1367 42.8813 32.8066 42.9321 33.5892C42.9425 36.3031 42.552 39.4025 41.7604 42.8874C41.5729 43.6893 41.0417 44.1416 40.1669 44.2444C39.5836 44.3061 39.2816 44.5374 39.2607 44.9383L39.0932 48.6862C39.0822 48.9323 39.2763 49.1401 39.5256 49.1494C39.7431 49.1575 39.9344 49.0097 39.9878 48.8015C40.6214 46.3288 41.8528 45.0925 43.682 45.0925H49.1813C49.9936 45.0925 50.7071 45.3546 51.3216 45.8789C51.9465 46.4032 52.3839 46.9378 52.6339 47.4826C52.8393 47.9205 52.9961 48.3552 53.1043 48.7867C53.1542 48.986 53.3313 49.1326 53.5394 49.1326C53.7864 49.1326 53.9833 48.9288 53.9716 48.6852L53.79 44.9075C53.79 44.5477 53.5244 44.3266 52.9932 44.2444C52.1392 44.0902 51.7121 43.5711 51.7121 42.687V37.8605C51.7224 35.0094 51.8291 32.9193 52.0322 31.5904C52.0373 31.5569 52.0276 31.5234 52.0057 31.4974C51.9787 31.4654 51.9366 31.45 51.8949 31.456C51.5181 31.5109 51.0301 31.5383 50.4311 31.5383H44.3225C43.7248 31.5383 43.2377 31.511 42.8612 31.4564C42.8187 31.4502 42.7762 31.4684 42.7524 31.5037C42.7373 31.526 42.7312 31.5529 42.735 31.5793ZM44.0679 43.8589C43.6617 43.8692 43.4586 43.7458 43.4586 43.4888C43.4586 43.4271 43.5263 43.0673 43.6617 42.4094C43.8075 41.7515 43.9846 40.6413 44.1929 39.0787C44.4116 37.5058 44.5835 35.6657 44.7085 33.5583C44.7085 33.4144 44.7762 33.2448 44.9116 33.0495C45.047 32.8439 45.2761 32.7411 45.5989 32.7411H47.8689C48.4314 32.7411 48.7855 32.8541 48.9313 33.0803C49.0771 33.3065 49.15 33.7125 49.15 34.2985V42.3169C49.15 42.9029 49.0719 43.3089 48.9157 43.5351C48.7698 43.751 48.4209 43.8589 47.8689 43.8589H44.0679Z"/>
<path fill-rule="evenodd" clip-rule="evenodd" d="M66.275 41.9457C66.2682 41.9639 66.2577 41.9808 66.2443 41.9951C65.1635 43.1402 63.7357 43.5505 61.9038 43.5505C58.5472 43.5505 57.3497 40.5733 57.6544 37.7372H66.3563C66.7417 37.7372 66.9343 37.5572 66.9343 37.1974C66.9343 33.9123 64.6032 31.2299 61.1601 31.2299C57.2577 31.2299 54.8423 34.9361 54.8423 38.4927C54.8423 40.5693 55.3099 42.1473 56.2681 43.2884C57.4346 44.6762 59.1385 45.4009 61.357 45.4009C63.4545 45.4009 65.508 44.5032 66.7654 42.8321C66.823 42.7555 66.9087 42.6928 66.9648 42.6517L66.9718 42.6466C67.0018 42.6246 67.0056 42.5873 66.9849 42.5568C66.9794 42.5488 66.9728 42.5418 66.965 42.5358C66.9191 42.5005 66.7479 42.3656 66.6564 42.2527C66.5663 42.1413 66.4757 41.9551 66.4407 41.8797C66.431 41.8589 66.4121 41.8437 66.3895 41.8389C66.3499 41.8305 66.3101 41.8521 66.296 41.8896L66.275 41.9457ZM63.6379 36.4727H57.7481C57.7481 34.4308 58.9028 32.4943 61.0746 32.4943C62.9389 32.4943 64.091 34.4541 64.091 36.0255C64.091 36.3236 63.94 36.4727 63.6379 36.4727Z"/>
<path fill-rule="evenodd" clip-rule="evenodd" d="M72.5569 34.0672L72.4944 33.9747V31.6771C72.484 31.4612 72.4163 31.3533 72.2913 31.3533C71.5291 31.4937 70.6924 31.5265 69.7814 31.4515C69.7396 31.4481 69.6991 31.4672 69.6758 31.5016C69.6599 31.5252 69.6535 31.5532 69.6578 31.5813C69.8408 32.7698 69.9323 34.8012 69.9323 37.6755V46.1102C69.9323 48.88 69.8403 50.9689 69.6564 52.3769C69.6529 52.4031 69.6592 52.4291 69.674 52.451C69.6981 52.4866 69.741 52.5049 69.7839 52.4985C70.1497 52.4442 70.6209 52.417 71.1977 52.417C71.7852 52.417 72.2668 52.4443 72.6426 52.4988C72.6856 52.505 72.7286 52.4866 72.7528 52.4509C72.7675 52.4291 72.7739 52.403 72.7706 52.377C72.5865 50.8889 72.4944 48.7999 72.4944 46.1102V44.707C73.3693 45.1696 74.4265 45.4009 75.6659 45.4009C77.7489 45.4009 79.3997 44.6967 80.6183 43.2884C81.8369 41.88 82.4462 40.0502 82.4462 37.7988C82.4462 36.0101 81.941 34.4681 80.9308 33.1728C79.9309 31.8775 78.5769 31.2299 76.8688 31.2299C75.2545 31.2299 73.8172 32.1757 72.5569 34.0672ZM72.4944 42.7178V35.8096C74.5622 30.8619 79.6185 33.1636 79.6185 38.2152C79.6185 38.9245 79.5612 39.603 79.4466 40.2506C79.332 40.888 79.1289 41.5202 78.8373 42.1473C78.5561 42.7641 78.1239 43.2524 77.5406 43.6122C76.9678 43.972 76.2752 44.1519 75.4628 44.1519C74.2963 44.1416 73.3068 43.6636 72.4944 42.7178Z"/>
<path fill-rule="evenodd" clip-rule="evenodd" d="M99.356 45.1806L100.844 45.0925C100.948 45.0925 101.344 45.1028 102.031 45.1233C102.729 45.1439 103.859 45.1542 105.421 45.1542C108.431 45.1542 109.829 44.0748 109.936 41.2375C109.936 39.2273 108.28 38.2994 106.733 37.8605V37.7988C108.067 37.5964 109.483 36.2489 109.483 34.8844C109.483 33.7948 109.124 32.9569 108.405 32.371C107.686 31.7747 106.312 31.4766 104.281 31.4766C103.874 31.4766 103.312 31.4869 102.593 31.5075C101.875 31.528 101.292 31.5383 100.844 31.5383C100.163 31.5383 99.6676 31.5122 99.3576 31.4599C99.3139 31.4525 99.2708 31.477 99.2568 31.5185C99.2524 31.5315 99.2512 31.5452 99.2533 31.5588C99.4907 33.0971 99.6095 34.9869 99.6095 37.2283V39.4025C99.6095 41.7339 99.491 43.6228 99.254 45.0693C99.2514 45.0847 99.2527 45.1002 99.2577 45.115C99.2717 45.1563 99.312 45.1832 99.356 45.1806ZM103.984 37.1666H102.156V33.6354C102.156 33.142 102.239 32.8387 102.406 32.7256C102.583 32.6126 103.109 32.556 103.984 32.556C104.942 32.556 105.65 32.7154 106.109 33.034C106.567 33.3424 106.796 33.9592 106.796 34.8844C106.796 35.5424 106.551 36.0872 106.062 36.519C105.572 36.9507 104.88 37.1666 103.984 37.1666ZM102.156 42.6562V38.246H104.281C105.176 38.246 105.879 38.5287 106.39 39.0941C106.9 39.6595 107.155 40.3637 107.155 41.2067C107.155 43.1187 106.098 44.0748 103.984 44.0748C103.213 44.0748 102.713 43.9874 102.484 43.8126C102.265 43.6276 102.156 43.2421 102.156 42.6562Z"/>
<path d="M112.592 31.5798C112.806 32.8439 112.913 34.7164 112.913 37.1974V39.4334C112.903 41.9145 112.796 43.7872 112.592 45.0513C112.587 45.078 112.593 45.105 112.609 45.1276C112.632 45.1626 112.674 45.1806 112.717 45.1745C113.093 45.1198 113.58 45.0925 114.179 45.0925C114.786 45.0925 115.279 45.1198 115.656 45.1745C115.698 45.1806 115.74 45.1626 115.764 45.1276C115.779 45.1051 115.785 45.078 115.781 45.0512C115.567 43.7273 115.46 41.8547 115.46 39.4334V38.4927H122.505V39.4334C122.495 41.9074 122.389 43.7763 122.186 45.0403C122.181 45.0737 122.19 45.1075 122.212 45.1335C122.239 45.1654 122.281 45.1807 122.323 45.1745C122.69 45.1198 123.173 45.0925 123.771 45.0925C124.379 45.0925 124.871 45.1198 125.248 45.1745C125.291 45.1806 125.333 45.1625 125.357 45.1274C125.372 45.1049 125.378 45.0781 125.374 45.0515C125.17 43.7276 125.068 41.8549 125.068 39.4334V37.1974C125.109 34.577 125.211 32.7041 125.374 31.5789C125.378 31.5524 125.372 31.526 125.357 31.5037C125.333 31.4684 125.29 31.4502 125.248 31.4564C124.871 31.511 124.384 31.5383 123.787 31.5383C123.187 31.5383 122.699 31.5108 122.322 31.4559C122.281 31.4499 122.239 31.4652 122.212 31.4969C122.19 31.5232 122.181 31.5572 122.186 31.5909C122.399 32.8549 122.505 34.7237 122.505 37.1974V37.2591H115.46V37.1974C115.511 34.577 115.618 32.7041 115.782 31.5789C115.786 31.5524 115.779 31.526 115.764 31.5037C115.74 31.4684 115.698 31.4502 115.656 31.4564C115.278 31.511 114.786 31.5383 114.179 31.5383C113.58 31.5383 113.093 31.5109 112.716 31.4563C112.674 31.4502 112.632 31.4681 112.609 31.5029C112.594 31.5256 112.588 31.5529 112.592 31.5798Z"/>
<path fill-rule="evenodd" clip-rule="evenodd" d="M131.666 38.9708C131.77 38.9605 131.849 38.9553 131.901 38.9553C131.64 39.1918 131.291 39.5721 130.854 40.0964C130.323 40.7338 129.703 41.5665 128.995 42.5945C128.312 43.5896 127.68 44.4079 127.097 45.0492C127.074 45.0748 127.071 45.1125 127.09 45.1411C127.108 45.1674 127.141 45.1798 127.172 45.1734C127.439 45.1195 127.942 45.0925 128.682 45.0925C128.829 45.0925 128.97 45.0933 129.105 45.095C130.072 45.1069 131.009 44.646 131.46 43.8008C131.774 43.211 132.171 42.4543 132.651 41.5305C132.89 41.0473 133.072 40.6978 133.197 40.4819C133.333 40.266 133.515 40.0296 133.744 39.7726C133.984 39.5156 134.26 39.3306 134.572 39.2175C134.885 39.0941 135.27 39.0016 135.728 38.9399V39.7572C135.718 41.9633 135.611 43.7271 135.407 45.0484C135.403 45.077 135.409 45.1058 135.425 45.1298C135.448 45.164 135.488 45.1835 135.53 45.181L137.009 45.0925C137.69 45.0925 138.186 45.1187 138.496 45.171C138.539 45.1783 138.582 45.154 138.596 45.1128C138.599 45.1048 138.6 45.0966 138.6 45.0883C138.601 45.0853 138.6 45.0823 138.6 45.0794L138.6 45.0754L138.599 45.0716C138.383 43.8074 138.275 41.9383 138.275 39.4642V37.1666C138.285 34.7076 138.392 32.8463 138.596 31.5825C138.6 31.5538 138.594 31.5249 138.577 31.5007C138.555 31.4667 138.515 31.4473 138.474 31.4498L137.009 31.5383C136.468 31.5383 135.77 31.5229 134.916 31.492C134.072 31.4612 133.468 31.4458 133.104 31.4458C132.01 31.4458 131.099 31.5589 130.37 31.785C129.651 32.0009 129.12 32.3093 128.776 32.7102C128.432 33.1111 128.198 33.5121 128.073 33.913C127.948 34.3139 127.886 34.7765 127.886 35.3008C127.886 36.3596 128.219 37.2386 128.885 37.9376C129.562 38.6264 130.411 38.9708 131.432 38.9708H131.666ZM135.728 33.6663V37.8297H133.166C132.291 37.8297 131.646 37.5624 131.229 37.0278C130.812 36.4933 130.604 35.8045 130.604 34.9615C130.604 34.1391 130.812 33.5275 131.229 33.1266C131.646 32.7256 132.406 32.5252 133.51 32.5252C134.239 32.5252 134.791 32.6023 135.166 32.7565C135.541 32.9004 135.728 33.2037 135.728 33.6663Z"/>
<path fill-rule="evenodd" clip-rule="evenodd" d="M96.0895 42.002C96.0827 42.0203 96.0722 42.0372 96.0588 42.0514C94.978 43.1965 93.5502 43.6068 91.7183 43.6068C88.3617 43.6068 87.1642 40.6297 87.4689 37.7935H96.1708C96.5561 37.7935 96.7488 37.6136 96.7488 37.2538C96.7488 33.9686 94.4177 31.2862 90.9746 31.2862C87.0722 31.2862 84.6567 34.9924 84.6567 38.5491C84.6567 40.6256 85.1244 42.2036 86.0826 43.3447C87.2491 44.7325 88.953 45.4572 91.1715 45.4572C93.269 45.4572 95.3429 44.5125 96.6002 42.8414C96.6375 42.8047 96.6987 42.7627 96.7494 42.7279L96.7842 42.7039C96.8157 42.6818 96.8196 42.6429 96.7981 42.6112C96.7955 42.6074 96.7925 42.6037 96.7894 42.6003L96.7874 42.5982L96.7859 42.5968L96.7817 42.5929C96.7404 42.5572 96.5731 42.4105 96.4782 42.293C96.3885 42.1819 96.2931 42.0052 96.256 41.934C96.2458 41.9143 96.2273 41.9001 96.2054 41.8955C96.165 41.8869 96.1243 41.909 96.11 41.9472L96.0895 42.002ZM93.4524 36.529H87.5626C87.5626 34.4871 88.7173 32.5507 90.8891 32.5507C92.7534 32.5507 93.9055 34.5104 93.9055 36.0818C93.9055 36.38 93.7544 36.529 93.4524 36.529Z"/>
<path d="M58.9326 14.1774C58.1927 14.1774 57.6852 14.1496 57.4101 14.0938C60.7871 21.4754 62.6749 25.6769 63.0733 26.6982C62.6083 27.7928 62.2377 28.3026 61.3714 29.4034C62.3615 29.2811 63.2279 29.5257 63.8467 29.7703C63.9493 29.4433 64.0211 29.1814 64.091 28.9262C64.3506 27.9788 64.3365 27.4703 66.0329 23.7177C68.1957 18.9545 69.6945 15.7466 70.5293 14.0938C70.3396 14.1496 69.9222 14.1774 69.2771 14.1774C68.708 14.1774 68.3285 14.1496 68.1388 14.0938C66.8961 17.9193 65.6203 21.1969 64.3112 23.9266H64.2543C62.3002 19.312 61.0006 16.0344 60.3555 14.0938C60.1089 14.1496 59.6346 14.1774 58.9326 14.1774Z"/>
</mask>
<path fill-rule="evenodd" clip-rule="evenodd" d="M43.2437 13.5381C43.2437 10.8485 43.1414 8.75457 42.9368 7.25636C42.9332 7.23005 42.9395 7.20369 42.9544 7.1816C42.9783 7.14613 43.021 7.12784 43.0638 7.13399C43.4437 7.18858 43.962 7.21588 44.6185 7.21588C44.9414 7.21588 45.6965 7.1799 46.8838 7.10794C48.0816 7.03598 48.821 7 49.1023 7C51.9677 7 56.2822 9.10934 56.1725 14.2162C56.0627 19.323 51.5931 21.7995 45.9933 21.0656C46.0237 21.9005 46.2712 24.368 46.395 25.2242C46.4646 25.7059 46.6781 26.4122 46.8646 27.0294C47.0096 27.5091 47.1383 27.935 47.1705 28.1596C47.1743 28.1861 47.1681 28.2126 47.1531 28.2348C47.1292 28.2702 47.0867 28.2884 47.0441 28.2823C46.6635 28.2276 45.8114 28.147 44.2744 28.1532C43.609 28.1532 43.0907 28.1804 42.7195 28.2348C42.4862 28.269 42.5124 28.2555 42.5582 28.232C42.5853 28.2181 42.6192 28.2007 42.6103 28.1875C42.5954 28.1654 42.5892 28.139 42.5929 28.1126C42.6485 27.7245 42.7278 27.4609 42.8118 27.1812C43.0371 26.4319 43.3126 24.9467 43.2437 21.2635V13.5381ZM45.9933 9.74477V19.7087C50.4311 21.0656 53.4496 17.0666 53.5734 14.9876C53.6971 12.9085 53.6971 7.73363 46.6026 8.6962C46.1964 8.91208 45.9933 9.26161 45.9933 9.74477Z" fill="#466330"/>
<path d="M77.8452 26.3213C72.2397 26.3213 72.0693 14.9876 77.6577 14.9876C78.8326 14.9876 79.8672 15.7091 80.7613 17.1522C80.8229 17.2516 80.9352 17.3103 81.0529 17.3014C81.1813 17.2916 81.29 17.204 81.3254 17.0818L82.0165 14.6946L81.9384 14.6021C80.7927 14.0161 79.3762 13.7231 77.6889 13.7231C75.9184 13.7231 74.3404 14.3759 72.9552 15.6815C71.57 16.987 70.8774 18.6627 70.8774 20.7084C70.8774 22.8981 71.4554 24.6457 72.6115 25.9512C73.778 27.2465 75.3403 27.8942 77.2984 27.8942C79.1469 27.8942 80.6576 27.2228 81.8307 25.8801C81.9404 25.7544 81.9336 25.5681 81.8207 25.4452L81.4579 25.0504C81.4256 25.0152 81.3798 24.9952 81.3317 24.9952C81.2898 24.9952 81.2493 25.0106 81.2177 25.0379C80.2296 25.8935 79.1054 26.3213 77.8452 26.3213Z" fill="#466330"/>
<path d="M91.1589 26.3213C85.5497 26.3213 85.4142 14.9876 90.9714 14.9876C92.1464 14.9876 93.1809 15.7091 94.075 17.1522C94.1367 17.2516 94.2489 17.3103 94.3667 17.3014C94.4951 17.2916 94.6038 17.204 94.6392 17.0818L95.3302 14.6946L95.2521 14.6021C94.1064 14.0161 92.6899 13.7231 91.0027 13.7231C89.2321 13.7231 87.6542 14.3759 86.269 15.6815C84.8837 16.987 84.1911 18.6627 84.1911 20.7084C84.1911 22.8981 84.7692 24.6457 85.9253 25.9512C87.0918 27.2465 88.654 27.8942 90.6121 27.8942C92.4606 27.8942 93.9714 27.2228 95.1444 25.8801C95.2542 25.7544 95.2474 25.5681 95.1345 25.4452L94.7716 25.0504C94.7393 25.0152 94.6935 24.9952 94.6455 24.9952C94.6035 24.9952 94.563 25.0106 94.5315 25.0379C93.5434 25.8935 92.4192 26.3213 91.1589 26.3213Z" fill="#466330"/>
<path d="M98.6416 14.073C98.8556 15.3371 98.9626 17.2097 98.9626 19.6907V21.9266C98.9523 24.4078 98.8452 26.2804 98.6413 27.5445C98.6369 27.5713 98.643 27.5983 98.6582 27.6208C98.6818 27.6558 98.7239 27.6739 98.7661 27.6677C99.1427 27.6131 99.63 27.5858 100.228 27.5858C100.836 27.5858 101.328 27.6131 101.705 27.6677C101.748 27.6738 101.79 27.6557 101.814 27.6206C101.829 27.5982 101.835 27.5713 101.831 27.5447C101.627 26.2208 101.525 24.3481 101.525 21.9266V21.1248C101.754 21.135 101.967 21.1607 102.165 21.2019C102.363 21.243 102.54 21.2841 102.696 21.3252C102.853 21.3663 103.004 21.4383 103.15 21.5411C103.306 21.6336 103.431 21.7056 103.524 21.757C103.629 21.7981 103.743 21.8958 103.868 22.05C103.993 22.1939 104.082 22.2915 104.134 22.3429C104.196 22.3943 104.285 22.5228 104.399 22.7284C104.524 22.9238 104.602 23.0523 104.634 23.1139C104.665 23.1653 104.748 23.3144 104.884 23.5611C105.019 23.8078 105.102 23.962 105.134 24.0237C105.667 24.9936 106.099 25.7742 106.43 26.3654C106.88 27.1715 107.773 27.6077 108.705 27.5908C108.89 27.5874 109.085 27.5858 109.289 27.5858C110.081 27.5858 110.638 27.6166 110.961 27.6783L111.023 27.5858C110.378 26.9073 109.685 26.0643 108.946 25.0569C108.217 24.0391 107.576 23.2167 107.024 22.5897C106.399 21.9009 105.873 21.4075 105.446 21.1093C105.029 20.8112 104.457 20.6005 103.728 20.4771V20.4154C104.071 20.2715 104.446 19.7575 104.852 18.8734C105.269 17.9893 105.628 17.3674 105.93 17.0076C106.472 16.3497 107.06 16.0207 107.696 16.0207C108.483 16.0207 109.071 16.1473 109.46 16.4005C109.522 16.4407 109.597 16.4576 109.668 16.4399C109.753 16.4191 109.819 16.355 109.841 16.2722L110.414 14.1787C110.433 14.1067 110.412 14.0299 110.359 13.9772C110.334 13.9522 110.302 13.9339 110.268 13.9244C109.78 13.7902 109.36 13.7231 109.008 13.7231C108.237 13.7231 107.472 13.9853 106.712 14.5096C105.962 15.0338 105.342 15.6661 104.852 16.4062C104.655 16.7043 104.42 17.1053 104.149 17.609C103.889 18.1127 103.675 18.4982 103.509 18.7655C103.353 19.0225 103.103 19.2641 102.759 19.4902C102.426 19.7061 102.014 19.8243 101.525 19.8449V19.6907C101.566 17.0702 101.668 15.1974 101.831 14.0722C101.835 14.0457 101.829 14.0192 101.814 13.9969C101.79 13.9617 101.748 13.9435 101.705 13.9496C101.328 14.0042 100.836 14.0315 100.228 14.0315C99.6298 14.0315 99.1424 14.0042 98.7658 13.9495C98.7238 13.9434 98.6819 13.9614 98.6584 13.9962C98.6431 14.0189 98.6371 14.0461 98.6416 14.073Z" fill="#466330"/>
<path fill-rule="evenodd" clip-rule="evenodd" d="M120.766 26.0746H120.891C121.068 26.6708 121.375 27.1232 121.813 27.4315C122.261 27.74 122.787 27.8942 123.391 27.8942C124.383 27.8942 125.184 27.617 125.793 27.0628C125.885 26.9793 125.914 26.8497 125.877 26.7321L125.795 26.4754C125.736 26.2908 125.534 26.1948 125.343 26.2405C125.161 26.2841 124.99 26.3059 124.828 26.3059C124.38 26.3059 124.068 26.2288 123.891 26.0746C123.537 25.7559 123.359 24.9335 123.359 23.6074C123.359 23.2579 123.375 22.3943 123.406 21.0168C123.438 19.6393 123.453 18.9145 123.453 18.8426C123.453 15.4296 121.693 13.7231 118.173 13.7231C116.515 13.7231 114.955 14.3284 113.493 15.5389C113.478 15.5516 113.464 15.5661 113.452 15.5819C113.404 15.6449 113.388 15.7258 113.407 15.8022L113.852 17.5734C113.885 17.705 114 17.8008 114.137 17.8108C114.256 17.8195 114.368 17.7624 114.432 17.6639C115.518 15.9825 116.541 15.1418 117.845 15.1418C119.189 15.1418 120.289 15.7666 120.688 17.1155C120.844 17.609 120.922 18.1949 120.922 18.8734C120.922 19.079 120.849 19.2024 120.704 19.2435L117.72 19.9066C115.432 20.4067 112.408 21.7681 112.408 24.4863C112.408 25.6274 112.762 26.4806 113.47 27.046C114.795 28.0884 117.063 28.1719 118.595 27.5241C119.188 27.2773 119.912 26.7942 120.766 26.0746ZM118.173 21.2019L120.891 20.4771L120.766 24.2396C120.766 24.5788 120.615 24.8513 120.313 25.0569C119.06 25.9903 117.05 26.9476 115.657 25.7045C114.69 24.8405 114.877 23.3578 115.704 22.4509C116.173 21.9369 116.996 21.5205 118.173 21.2019Z" fill="#466330"/>
<path fill-rule="evenodd" clip-rule="evenodd" d="M131.155 21.464C131.259 21.4537 131.337 21.4486 131.39 21.4486C131.129 21.685 130.78 22.0654 130.343 22.5897C129.812 23.227 129.192 24.0597 128.484 25.0877C127.802 26.0829 127.169 26.9011 126.586 27.5424C126.563 27.568 126.56 27.6058 126.58 27.6343C126.597 27.6607 126.63 27.673 126.661 27.6666C126.928 27.6127 127.431 27.5858 128.171 27.5858C128.261 27.5858 128.348 27.5861 128.432 27.5867C128.465 27.5869 128.498 27.5872 128.531 27.5875L128.594 27.5882C129.561 27.6001 130.498 27.1392 130.948 26.294C131.262 25.7042 131.659 24.9475 132.139 24.0237C132.379 23.5406 132.561 23.191 132.686 22.9752C132.822 22.7593 133.004 22.5228 133.233 22.2658C133.473 22.0088 133.749 21.8238 134.061 21.7107C134.373 21.5874 134.759 21.4948 135.217 21.4332V22.2504C135.207 24.4566 135.1 26.2203 134.896 27.5417C134.891 27.5702 134.898 27.5991 134.914 27.6231C134.937 27.6573 134.977 27.6767 135.019 27.6743L136.498 27.5858C137.179 27.5858 137.675 27.6119 137.985 27.6642C138.028 27.6716 138.071 27.6473 138.085 27.6061C138.089 27.5927 138.09 27.5787 138.088 27.5649C137.872 26.3007 137.764 24.4315 137.764 21.9574V19.6598C137.774 17.2009 137.881 15.3395 138.085 14.0757C138.089 14.0471 138.083 14.0181 138.066 13.994C138.043 13.96 138.004 13.9406 137.962 13.9431L136.498 14.0315C135.957 14.0315 135.259 14.0161 134.405 13.9853C133.561 13.9544 132.957 13.939 132.592 13.939C131.499 13.939 130.588 14.0521 129.859 14.2783C129.14 14.4941 128.609 14.8025 128.265 15.2035C127.922 15.6044 127.687 16.0053 127.562 16.4062C127.437 16.8071 127.375 17.2697 127.375 17.794C127.375 18.8529 127.708 19.7318 128.375 20.4309C129.052 21.1196 129.9 21.464 130.921 21.464H131.155ZM135.217 16.1595V20.3229H132.655C131.78 20.3229 131.134 20.0556 130.718 19.5211C130.301 18.9865 130.093 18.2977 130.093 17.4548C130.093 16.6324 130.301 16.0207 130.718 15.6198C131.134 15.2189 131.895 15.0184 132.999 15.0184C133.728 15.0184 134.28 15.0955 134.655 15.2497C135.03 15.3936 135.217 15.6969 135.217 16.1595Z" fill="#466330"/>
<path fill-rule="evenodd" clip-rule="evenodd" d="M42.735 31.5793C42.8156 32.1367 42.8813 32.8066 42.9321 33.5892C42.9425 36.3031 42.552 39.4025 41.7604 42.8874C41.5729 43.6893 41.0417 44.1416 40.1669 44.2444C39.5836 44.3061 39.2816 44.5374 39.2607 44.9383L39.0932 48.6862C39.0822 48.9323 39.2763 49.1401 39.5256 49.1494C39.7431 49.1575 39.9344 49.0097 39.9878 48.8015C40.6214 46.3288 41.8528 45.0925 43.682 45.0925H49.1813C49.9936 45.0925 50.7071 45.3546 51.3216 45.8789C51.9465 46.4032 52.3839 46.9378 52.6339 47.4826C52.8393 47.9205 52.9961 48.3552 53.1043 48.7867C53.1542 48.986 53.3313 49.1326 53.5394 49.1326C53.7864 49.1326 53.9833 48.9288 53.9716 48.6852L53.79 44.9075C53.79 44.5477 53.5244 44.3266 52.9932 44.2444C52.1392 44.0902 51.7121 43.5711 51.7121 42.687V37.8605C51.7224 35.0094 51.8291 32.9193 52.0322 31.5904C52.0373 31.5569 52.0276 31.5234 52.0057 31.4974C51.9787 31.4654 51.9366 31.45 51.8949 31.456C51.5181 31.5109 51.0301 31.5383 50.4311 31.5383H44.3225C43.7248 31.5383 43.2377 31.511 42.8612 31.4564C42.8187 31.4502 42.7762 31.4684 42.7524 31.5037C42.7373 31.526 42.7312 31.5529 42.735 31.5793ZM44.0679 43.8589C43.6617 43.8692 43.4586 43.7458 43.4586 43.4888C43.4586 43.4271 43.5263 43.0673 43.6617 42.4094C43.8075 41.7515 43.9846 40.6413 44.1929 39.0787C44.4116 37.5058 44.5835 35.6657 44.7085 33.5583C44.7085 33.4144 44.7762 33.2448 44.9116 33.0495C45.047 32.8439 45.2761 32.7411 45.5989 32.7411H47.8689C48.4314 32.7411 48.7855 32.8541 48.9313 33.0803C49.0771 33.3065 49.15 33.7125 49.15 34.2985V42.3169C49.15 42.9029 49.0719 43.3089 48.9157 43.5351C48.7698 43.751 48.4209 43.8589 47.8689 43.8589H44.0679Z" fill="#466330"/>
<path fill-rule="evenodd" clip-rule="evenodd" d="M66.275 41.9457C66.2682 41.9639 66.2577 41.9808 66.2443 41.9951C65.1635 43.1402 63.7357 43.5505 61.9038 43.5505C58.5472 43.5505 57.3497 40.5733 57.6544 37.7372H66.3563C66.7417 37.7372 66.9343 37.5572 66.9343 37.1974C66.9343 33.9123 64.6032 31.2299 61.1601 31.2299C57.2577 31.2299 54.8423 34.9361 54.8423 38.4927C54.8423 40.5693 55.3099 42.1473 56.2681 43.2884C57.4346 44.6762 59.1385 45.4009 61.357 45.4009C63.4545 45.4009 65.508 44.5032 66.7654 42.8321C66.823 42.7555 66.9087 42.6928 66.9648 42.6517L66.9718 42.6466C67.0018 42.6246 67.0056 42.5873 66.9849 42.5568C66.9794 42.5488 66.9728 42.5418 66.965 42.5358C66.9191 42.5005 66.7479 42.3656 66.6564 42.2527C66.5663 42.1413 66.4757 41.9551 66.4407 41.8797C66.431 41.8589 66.4121 41.8437 66.3895 41.8389C66.3499 41.8305 66.3101 41.8521 66.296 41.8896L66.275 41.9457ZM63.6379 36.4727H57.7481C57.7481 34.4308 58.9028 32.4943 61.0746 32.4943C62.9389 32.4943 64.091 34.4541 64.091 36.0255C64.091 36.3236 63.94 36.4727 63.6379 36.4727Z" fill="#466330"/>
<path fill-rule="evenodd" clip-rule="evenodd" d="M72.5569 34.0672L72.4944 33.9747V31.6771C72.484 31.4612 72.4163 31.3533 72.2913 31.3533C71.5291 31.4937 70.6924 31.5265 69.7814 31.4515C69.7396 31.4481 69.6991 31.4672 69.6758 31.5016C69.6599 31.5252 69.6535 31.5532 69.6578 31.5813C69.8408 32.7698 69.9323 34.8012 69.9323 37.6755V46.1102C69.9323 48.88 69.8403 50.9689 69.6564 52.3769C69.6529 52.4031 69.6592 52.4291 69.674 52.451C69.6981 52.4866 69.741 52.5049 69.7839 52.4985C70.1497 52.4442 70.6209 52.417 71.1977 52.417C71.7852 52.417 72.2668 52.4443 72.6426 52.4988C72.6856 52.505 72.7286 52.4866 72.7528 52.4509C72.7675 52.4291 72.7739 52.403 72.7706 52.377C72.5865 50.8889 72.4944 48.7999 72.4944 46.1102V44.707C73.3693 45.1696 74.4265 45.4009 75.6659 45.4009C77.7489 45.4009 79.3997 44.6967 80.6183 43.2884C81.8369 41.88 82.4462 40.0502 82.4462 37.7988C82.4462 36.0101 81.941 34.4681 80.9308 33.1728C79.9309 31.8775 78.5769 31.2299 76.8688 31.2299C75.2545 31.2299 73.8172 32.1757 72.5569 34.0672ZM72.4944 42.7178V35.8096C74.5622 30.8619 79.6185 33.1636 79.6185 38.2152C79.6185 38.9245 79.5612 39.603 79.4466 40.2506C79.332 40.888 79.1289 41.5202 78.8373 42.1473C78.5561 42.7641 78.1239 43.2524 77.5406 43.6122C76.9678 43.972 76.2752 44.1519 75.4628 44.1519C74.2963 44.1416 73.3068 43.6636 72.4944 42.7178Z" fill="#466330"/>
<path fill-rule="evenodd" clip-rule="evenodd" d="M99.356 45.1806L100.844 45.0925C100.948 45.0925 101.344 45.1028 102.031 45.1233C102.729 45.1439 103.859 45.1542 105.421 45.1542C108.431 45.1542 109.829 44.0748 109.936 41.2375C109.936 39.2273 108.28 38.2994 106.733 37.8605V37.7988C108.067 37.5964 109.483 36.2489 109.483 34.8844C109.483 33.7948 109.124 32.9569 108.405 32.371C107.686 31.7747 106.312 31.4766 104.281 31.4766C103.874 31.4766 103.312 31.4869 102.593 31.5075C101.875 31.528 101.292 31.5383 100.844 31.5383C100.163 31.5383 99.6676 31.5122 99.3576 31.4599C99.3139 31.4525 99.2708 31.477 99.2568 31.5185C99.2524 31.5315 99.2512 31.5452 99.2533 31.5588C99.4907 33.0971 99.6095 34.9869 99.6095 37.2283V39.4025C99.6095 41.7339 99.491 43.6228 99.254 45.0693C99.2514 45.0847 99.2527 45.1002 99.2577 45.115C99.2717 45.1563 99.312 45.1832 99.356 45.1806ZM103.984 37.1666H102.156V33.6354C102.156 33.142 102.239 32.8387 102.406 32.7256C102.583 32.6126 103.109 32.556 103.984 32.556C104.942 32.556 105.65 32.7154 106.109 33.034C106.567 33.3424 106.796 33.9592 106.796 34.8844C106.796 35.5424 106.551 36.0872 106.062 36.519C105.572 36.9507 104.88 37.1666 103.984 37.1666ZM102.156 42.6562V38.246H104.281C105.176 38.246 105.879 38.5287 106.39 39.0941C106.9 39.6595 107.155 40.3637 107.155 41.2067C107.155 43.1187 106.098 44.0748 103.984 44.0748C103.213 44.0748 102.713 43.9874 102.484 43.8126C102.265 43.6276 102.156 43.2421 102.156 42.6562Z" fill="#466330"/>
<path d="M112.592 31.5798C112.806 32.8439 112.913 34.7164 112.913 37.1974V39.4334C112.903 41.9145 112.796 43.7872 112.592 45.0513C112.587 45.078 112.593 45.105 112.609 45.1276C112.632 45.1626 112.674 45.1806 112.717 45.1745C113.093 45.1198 113.58 45.0925 114.179 45.0925C114.786 45.0925 115.279 45.1198 115.656 45.1745C115.698 45.1806 115.74 45.1626 115.764 45.1276C115.779 45.1051 115.785 45.078 115.781 45.0512C115.567 43.7273 115.46 41.8547 115.46 39.4334V38.4927H122.505V39.4334C122.495 41.9074 122.389 43.7763 122.186 45.0403C122.181 45.0737 122.19 45.1075 122.212 45.1335C122.239 45.1654 122.281 45.1807 122.323 45.1745C122.69 45.1198 123.173 45.0925 123.771 45.0925C124.379 45.0925 124.871 45.1198 125.248 45.1745C125.291 45.1806 125.333 45.1625 125.357 45.1274C125.372 45.1049 125.378 45.0781 125.374 45.0515C125.17 43.7276 125.068 41.8549 125.068 39.4334V37.1974C125.109 34.577 125.211 32.7041 125.374 31.5789C125.378 31.5524 125.372 31.526 125.357 31.5037C125.333 31.4684 125.29 31.4502 125.248 31.4564C124.871 31.511 124.384 31.5383 123.787 31.5383C123.187 31.5383 122.699 31.5108 122.322 31.4559C122.281 31.4499 122.239 31.4652 122.212 31.4969C122.19 31.5232 122.181 31.5572 122.186 31.5909C122.399 32.8549 122.505 34.7237 122.505 37.1974V37.2591H115.46V37.1974C115.511 34.577 115.618 32.7041 115.782 31.5789C115.786 31.5524 115.779 31.526 115.764 31.5037C115.74 31.4684 115.698 31.4502 115.656 31.4564C115.278 31.511 114.786 31.5383 114.179 31.5383C113.58 31.5383 113.093 31.5109 112.716 31.4563C112.674 31.4502 112.632 31.4681 112.609 31.5029C112.594 31.5256 112.588 31.5529 112.592 31.5798Z" fill="#466330"/>
<path fill-rule="evenodd" clip-rule="evenodd" d="M131.666 38.9708C131.77 38.9605 131.849 38.9553 131.901 38.9553C131.64 39.1918 131.291 39.5721 130.854 40.0964C130.323 40.7338 129.703 41.5665 128.995 42.5945C128.312 43.5896 127.68 44.4079 127.097 45.0492C127.074 45.0748 127.071 45.1125 127.09 45.1411C127.108 45.1674 127.141 45.1798 127.172 45.1734C127.439 45.1195 127.942 45.0925 128.682 45.0925C128.829 45.0925 128.97 45.0933 129.105 45.095C130.072 45.1069 131.009 44.646 131.46 43.8008C131.774 43.211 132.171 42.4543 132.651 41.5305C132.89 41.0473 133.072 40.6978 133.197 40.4819C133.333 40.266 133.515 40.0296 133.744 39.7726C133.984 39.5156 134.26 39.3306 134.572 39.2175C134.885 39.0941 135.27 39.0016 135.728 38.9399V39.7572C135.718 41.9633 135.611 43.7271 135.407 45.0484C135.403 45.077 135.409 45.1058 135.425 45.1298C135.448 45.164 135.488 45.1835 135.53 45.181L137.009 45.0925C137.69 45.0925 138.186 45.1187 138.496 45.171C138.539 45.1783 138.582 45.154 138.596 45.1128C138.599 45.1048 138.6 45.0966 138.6 45.0883C138.601 45.0853 138.6 45.0823 138.6 45.0794L138.6 45.0754L138.599 45.0716C138.383 43.8074 138.275 41.9383 138.275 39.4642V37.1666C138.285 34.7076 138.392 32.8463 138.596 31.5825C138.6 31.5538 138.594 31.5249 138.577 31.5007C138.555 31.4667 138.515 31.4473 138.474 31.4498L137.009 31.5383C136.468 31.5383 135.77 31.5229 134.916 31.492C134.072 31.4612 133.468 31.4458 133.104 31.4458C132.01 31.4458 131.099 31.5589 130.37 31.785C129.651 32.0009 129.12 32.3093 128.776 32.7102C128.432 33.1111 128.198 33.5121 128.073 33.913C127.948 34.3139 127.886 34.7765 127.886 35.3008C127.886 36.3596 128.219 37.2386 128.885 37.9376C129.562 38.6264 130.411 38.9708 131.432 38.9708H131.666ZM135.728 33.6663V37.8297H133.166C132.291 37.8297 131.646 37.5624 131.229 37.0278C130.812 36.4933 130.604 35.8045 130.604 34.9615C130.604 34.1391 130.812 33.5275 131.229 33.1266C131.646 32.7256 132.406 32.5252 133.51 32.5252C134.239 32.5252 134.791 32.6023 135.166 32.7565C135.541 32.9004 135.728 33.2037 135.728 33.6663Z" fill="#466330"/>
<path fill-rule="evenodd" clip-rule="evenodd" d="M96.0895 42.002C96.0827 42.0203 96.0722 42.0372 96.0588 42.0514C94.978 43.1965 93.5502 43.6068 91.7183 43.6068C88.3617 43.6068 87.1642 40.6297 87.4689 37.7935H96.1708C96.5561 37.7935 96.7488 37.6136 96.7488 37.2538C96.7488 33.9686 94.4177 31.2862 90.9746 31.2862C87.0722 31.2862 84.6567 34.9924 84.6567 38.5491C84.6567 40.6256 85.1244 42.2036 86.0826 43.3447C87.2491 44.7325 88.953 45.4572 91.1715 45.4572C93.269 45.4572 95.3429 44.5125 96.6002 42.8414C96.6375 42.8047 96.6987 42.7627 96.7494 42.7279L96.7842 42.7039C96.8157 42.6818 96.8196 42.6429 96.7981 42.6112C96.7955 42.6074 96.7925 42.6037 96.7894 42.6003L96.7874 42.5982L96.7859 42.5968L96.7817 42.5929C96.7404 42.5572 96.5731 42.4105 96.4782 42.293C96.3885 42.1819 96.2931 42.0052 96.256 41.934C96.2458 41.9143 96.2273 41.9001 96.2054 41.8955C96.165 41.8869 96.1243 41.909 96.11 41.9472L96.0895 42.002ZM93.4524 36.529H87.5626C87.5626 34.4871 88.7173 32.5507 90.8891 32.5507C92.7534 32.5507 93.9055 34.5104 93.9055 36.0818C93.9055 36.38 93.7544 36.529 93.4524 36.529Z" fill="#466330"/>
<path d="M58.9326 14.1774C58.1927 14.1774 57.6852 14.1496 57.4101 14.0938C60.7871 21.4754 62.6749 25.6769 63.0733 26.6982C62.6083 27.7928 62.2377 28.3026 61.3714 29.4034C62.3615 29.2811 63.2279 29.5257 63.8467 29.7703C63.9493 29.4433 64.0211 29.1814 64.091 28.9262C64.3506 27.9788 64.3365 27.4703 66.0329 23.7177C68.1957 18.9545 69.6945 15.7466 70.5293 14.0938C70.3396 14.1496 69.9222 14.1774 69.2771 14.1774C68.708 14.1774 68.3285 14.1496 68.1388 14.0938C66.8961 17.9193 65.6203 21.1969 64.3112 23.9266H64.2543C62.3002 19.312 61.0006 16.0344 60.3555 14.0938C60.1089 14.1496 59.6346 14.1774 58.9326 14.1774Z" fill="#466330"/>
<path fill-rule="evenodd" clip-rule="evenodd" d="M43.2437 13.5381C43.2437 10.8485 43.1414 8.75457 42.9368 7.25636C42.9332 7.23005 42.9395 7.20369 42.9544 7.1816C42.9783 7.14613 43.021 7.12784 43.0638 7.13399C43.4437 7.18858 43.962 7.21588 44.6185 7.21588C44.9414 7.21588 45.6965 7.1799 46.8838 7.10794C48.0816 7.03598 48.821 7 49.1023 7C51.9677 7 56.2822 9.10934 56.1725 14.2162C56.0627 19.323 51.5931 21.7995 45.9933 21.0656C46.0237 21.9005 46.2712 24.368 46.395 25.2242C46.4646 25.7059 46.6781 26.4122 46.8646 27.0294C47.0096 27.5091 47.1383 27.935 47.1705 28.1596C47.1743 28.1861 47.1681 28.2126 47.1531 28.2348C47.1292 28.2702 47.0867 28.2884 47.0441 28.2823C46.6635 28.2276 45.8114 28.147 44.2744 28.1532C43.609 28.1532 43.0907 28.1804 42.7195 28.2348C42.4862 28.269 42.5124 28.2555 42.5582 28.232C42.5853 28.2181 42.6192 28.2007 42.6103 28.1875C42.5954 28.1654 42.5892 28.139 42.5929 28.1126C42.6485 27.7245 42.7278 27.4609 42.8118 27.1812C43.0371 26.4319 43.3126 24.9467 43.2437 21.2635V13.5381ZM45.9933 9.74477V19.7087C50.4311 21.0656 53.4496 17.0666 53.5734 14.9876C53.6971 12.9085 53.6971 7.73363 46.6026 8.6962C46.1964 8.91208 45.9933 9.26161 45.9933 9.74477Z" stroke="#466330" stroke-width="0.632625" stroke-linejoin="round" mask="url(#path-5-outside-1_4904_101746)"/>
<path d="M77.8452 26.3213C72.2397 26.3213 72.0693 14.9876 77.6577 14.9876C78.8326 14.9876 79.8672 15.7091 80.7613 17.1522C80.8229 17.2516 80.9352 17.3103 81.0529 17.3014C81.1813 17.2916 81.29 17.204 81.3254 17.0818L82.0165 14.6946L81.9384 14.6021C80.7927 14.0161 79.3762 13.7231 77.6889 13.7231C75.9184 13.7231 74.3404 14.3759 72.9552 15.6815C71.57 16.987 70.8774 18.6627 70.8774 20.7084C70.8774 22.8981 71.4554 24.6457 72.6115 25.9512C73.778 27.2465 75.3403 27.8942 77.2984 27.8942C79.1469 27.8942 80.6576 27.2228 81.8307 25.8801C81.9404 25.7544 81.9336 25.5681 81.8207 25.4452L81.4579 25.0504C81.4256 25.0152 81.3798 24.9952 81.3317 24.9952C81.2898 24.9952 81.2493 25.0106 81.2177 25.0379C80.2296 25.8935 79.1054 26.3213 77.8452 26.3213Z" stroke="#466330" stroke-width="0.632625" stroke-linejoin="round" mask="url(#path-5-outside-1_4904_101746)"/>
<path d="M91.1589 26.3213C85.5497 26.3213 85.4142 14.9876 90.9714 14.9876C92.1464 14.9876 93.1809 15.7091 94.075 17.1522C94.1367 17.2516 94.2489 17.3103 94.3667 17.3014C94.4951 17.2916 94.6038 17.204 94.6392 17.0818L95.3302 14.6946L95.2521 14.6021C94.1064 14.0161 92.6899 13.7231 91.0027 13.7231C89.2321 13.7231 87.6542 14.3759 86.269 15.6815C84.8837 16.987 84.1911 18.6627 84.1911 20.7084C84.1911 22.8981 84.7692 24.6457 85.9253 25.9512C87.0918 27.2465 88.654 27.8942 90.6121 27.8942C92.4606 27.8942 93.9714 27.2228 95.1444 25.8801C95.2542 25.7544 95.2474 25.5681 95.1345 25.4452L94.7716 25.0504C94.7393 25.0152 94.6935 24.9952 94.6455 24.9952C94.6035 24.9952 94.563 25.0106 94.5315 25.0379C93.5434 25.8935 92.4192 26.3213 91.1589 26.3213Z" stroke="#466330" stroke-width="0.632625" stroke-linejoin="round" mask="url(#path-5-outside-1_4904_101746)"/>
<path d="M98.6416 14.073C98.8556 15.3371 98.9626 17.2097 98.9626 19.6907V21.9266C98.9523 24.4078 98.8452 26.2804 98.6413 27.5445C98.6369 27.5713 98.643 27.5983 98.6582 27.6208C98.6818 27.6558 98.7239 27.6739 98.7661 27.6677C99.1427 27.6131 99.63 27.5858 100.228 27.5858C100.836 27.5858 101.328 27.6131 101.705 27.6677C101.748 27.6738 101.79 27.6557 101.814 27.6206C101.829 27.5982 101.835 27.5713 101.831 27.5447C101.627 26.2208 101.525 24.3481 101.525 21.9266V21.1248C101.754 21.135 101.967 21.1607 102.165 21.2019C102.363 21.243 102.54 21.2841 102.696 21.3252C102.853 21.3663 103.004 21.4383 103.15 21.5411C103.306 21.6336 103.431 21.7056 103.524 21.757C103.629 21.7981 103.743 21.8958 103.868 22.05C103.993 22.1939 104.082 22.2915 104.134 22.3429C104.196 22.3943 104.285 22.5228 104.399 22.7284C104.524 22.9238 104.602 23.0523 104.634 23.1139C104.665 23.1653 104.748 23.3144 104.884 23.5611C105.019 23.8078 105.102 23.962 105.134 24.0237C105.667 24.9936 106.099 25.7742 106.43 26.3654C106.88 27.1715 107.773 27.6077 108.705 27.5908C108.89 27.5874 109.085 27.5858 109.289 27.5858C110.081 27.5858 110.638 27.6166 110.961 27.6783L111.023 27.5858C110.378 26.9073 109.685 26.0643 108.946 25.0569C108.217 24.0391 107.576 23.2167 107.024 22.5897C106.399 21.9009 105.873 21.4075 105.446 21.1093C105.029 20.8112 104.457 20.6005 103.728 20.4771V20.4154C104.071 20.2715 104.446 19.7575 104.852 18.8734C105.269 17.9893 105.628 17.3674 105.93 17.0076C106.472 16.3497 107.06 16.0207 107.696 16.0207C108.483 16.0207 109.071 16.1473 109.46 16.4005C109.522 16.4407 109.597 16.4576 109.668 16.4399C109.753 16.4191 109.819 16.355 109.841 16.2722L110.414 14.1787C110.433 14.1067 110.412 14.0299 110.359 13.9772C110.334 13.9522 110.302 13.9339 110.268 13.9244C109.78 13.7902 109.36 13.7231 109.008 13.7231C108.237 13.7231 107.472 13.9853 106.712 14.5096C105.962 15.0338 105.342 15.6661 104.852 16.4062C104.655 16.7043 104.42 17.1053 104.149 17.609C103.889 18.1127 103.675 18.4982 103.509 18.7655C103.353 19.0225 103.103 19.2641 102.759 19.4902C102.426 19.7061 102.014 19.8243 101.525 19.8449V19.6907C101.566 17.0702 101.668 15.1974 101.831 14.0722C101.835 14.0457 101.829 14.0192 101.814 13.9969C101.79 13.9617 101.748 13.9435 101.705 13.9496C101.328 14.0042 100.836 14.0315 100.228 14.0315C99.6298 14.0315 99.1424 14.0042 98.7658 13.9495C98.7238 13.9434 98.6819 13.9614 98.6584 13.9962C98.6431 14.0189 98.6371 14.0461 98.6416 14.073Z" stroke="#466330" stroke-width="0.632625" stroke-linejoin="round" mask="url(#path-5-outside-1_4904_101746)"/>
<path fill-rule="evenodd" clip-rule="evenodd" d="M120.766 26.0746H120.891C121.068 26.6708 121.375 27.1232 121.813 27.4315C122.261 27.74 122.787 27.8942 123.391 27.8942C124.383 27.8942 125.184 27.617 125.793 27.0628C125.885 26.9793 125.914 26.8497 125.877 26.7321L125.795 26.4754C125.736 26.2908 125.534 26.1948 125.343 26.2405C125.161 26.2841 124.99 26.3059 124.828 26.3059C124.38 26.3059 124.068 26.2288 123.891 26.0746C123.537 25.7559 123.359 24.9335 123.359 23.6074C123.359 23.2579 123.375 22.3943 123.406 21.0168C123.438 19.6393 123.453 18.9145 123.453 18.8426C123.453 15.4296 121.693 13.7231 118.173 13.7231C116.515 13.7231 114.955 14.3284 113.493 15.5389C113.478 15.5516 113.464 15.5661 113.452 15.5819C113.404 15.6449 113.388 15.7258 113.407 15.8022L113.852 17.5734C113.885 17.705 114 17.8008 114.137 17.8108C114.256 17.8195 114.368 17.7624 114.432 17.6639C115.518 15.9825 116.541 15.1418 117.845 15.1418C119.189 15.1418 120.289 15.7666 120.688 17.1155C120.844 17.609 120.922 18.1949 120.922 18.8734C120.922 19.079 120.849 19.2024 120.704 19.2435L117.72 19.9066C115.432 20.4067 112.408 21.7681 112.408 24.4863C112.408 25.6274 112.762 26.4806 113.47 27.046C114.795 28.0884 117.063 28.1719 118.595 27.5241C119.188 27.2773 119.912 26.7942 120.766 26.0746ZM118.173 21.2019L120.891 20.4771L120.766 24.2396C120.766 24.5788 120.615 24.8513 120.313 25.0569C119.06 25.9903 117.05 26.9476 115.657 25.7045C114.69 24.8405 114.877 23.3578 115.704 22.4509C116.173 21.9369 116.996 21.5205 118.173 21.2019Z" stroke="#466330" stroke-width="0.632625" stroke-linejoin="round" mask="url(#path-5-outside-1_4904_101746)"/>
<path fill-rule="evenodd" clip-rule="evenodd" d="M131.155 21.464C131.259 21.4537 131.337 21.4486 131.39 21.4486C131.129 21.685 130.78 22.0654 130.343 22.5897C129.812 23.227 129.192 24.0597 128.484 25.0877C127.802 26.0829 127.169 26.9011 126.586 27.5424C126.563 27.568 126.56 27.6058 126.58 27.6343C126.597 27.6607 126.63 27.673 126.661 27.6666C126.928 27.6127 127.431 27.5858 128.171 27.5858C128.261 27.5858 128.348 27.5861 128.432 27.5867C128.465 27.5869 128.498 27.5872 128.531 27.5875L128.594 27.5882C129.561 27.6001 130.498 27.1392 130.948 26.294C131.262 25.7042 131.659 24.9475 132.139 24.0237C132.379 23.5406 132.561 23.191 132.686 22.9752C132.822 22.7593 133.004 22.5228 133.233 22.2658C133.473 22.0088 133.749 21.8238 134.061 21.7107C134.373 21.5874 134.759 21.4948 135.217 21.4332V22.2504C135.207 24.4566 135.1 26.2203 134.896 27.5417C134.891 27.5702 134.898 27.5991 134.914 27.6231C134.937 27.6573 134.977 27.6767 135.019 27.6743L136.498 27.5858C137.179 27.5858 137.675 27.6119 137.985 27.6642C138.028 27.6716 138.071 27.6473 138.085 27.6061C138.089 27.5927 138.09 27.5787 138.088 27.5649C137.872 26.3007 137.764 24.4315 137.764 21.9574V19.6598C137.774 17.2009 137.881 15.3395 138.085 14.0757C138.089 14.0471 138.083 14.0181 138.066 13.994C138.043 13.96 138.004 13.9406 137.962 13.9431L136.498 14.0315C135.957 14.0315 135.259 14.0161 134.405 13.9853C133.561 13.9544 132.957 13.939 132.592 13.939C131.499 13.939 130.588 14.0521 129.859 14.2783C129.14 14.4941 128.609 14.8025 128.265 15.2035C127.922 15.6044 127.687 16.0053 127.562 16.4062C127.437 16.8071 127.375 17.2697 127.375 17.794C127.375 18.8529 127.708 19.7318 128.375 20.4309C129.052 21.1196 129.9 21.464 130.921 21.464H131.155ZM135.217 16.1595V20.3229H132.655C131.78 20.3229 131.134 20.0556 130.718 19.5211C130.301 18.9865 130.093 18.2977 130.093 17.4548C130.093 16.6324 130.301 16.0207 130.718 15.6198C131.134 15.2189 131.895 15.0184 132.999 15.0184C133.728 15.0184 134.28 15.0955 134.655 15.2497C135.03 15.3936 135.217 15.6969 135.217 16.1595Z" stroke="#466330" stroke-width="0.632625" stroke-linejoin="round" mask="url(#path-5-outside-1_4904_101746)"/>
<path fill-rule="evenodd" clip-rule="evenodd" d="M42.735 31.5793C42.8156 32.1367 42.8813 32.8066 42.9321 33.5892C42.9425 36.3031 42.552 39.4025 41.7604 42.8874C41.5729 43.6893 41.0417 44.1416 40.1669 44.2444C39.5836 44.3061 39.2816 44.5374 39.2607 44.9383L39.0932 48.6862C39.0822 48.9323 39.2763 49.1401 39.5256 49.1494C39.7431 49.1575 39.9344 49.0097 39.9878 48.8015C40.6214 46.3288 41.8528 45.0925 43.682 45.0925H49.1813C49.9936 45.0925 50.7071 45.3546 51.3216 45.8789C51.9465 46.4032 52.3839 46.9378 52.6339 47.4826C52.8393 47.9205 52.9961 48.3552 53.1043 48.7867C53.1542 48.986 53.3313 49.1326 53.5394 49.1326C53.7864 49.1326 53.9833 48.9288 53.9716 48.6852L53.79 44.9075C53.79 44.5477 53.5244 44.3266 52.9932 44.2444C52.1392 44.0902 51.7121 43.5711 51.7121 42.687V37.8605C51.7224 35.0094 51.8291 32.9193 52.0322 31.5904C52.0373 31.5569 52.0276 31.5234 52.0057 31.4974C51.9787 31.4654 51.9366 31.45 51.8949 31.456C51.5181 31.5109 51.0301 31.5383 50.4311 31.5383H44.3225C43.7248 31.5383 43.2377 31.511 42.8612 31.4564C42.8187 31.4502 42.7762 31.4684 42.7524 31.5037C42.7373 31.526 42.7312 31.5529 42.735 31.5793ZM44.0679 43.8589C43.6617 43.8692 43.4586 43.7458 43.4586 43.4888C43.4586 43.4271 43.5263 43.0673 43.6617 42.4094C43.8075 41.7515 43.9846 40.6413 44.1929 39.0787C44.4116 37.5058 44.5835 35.6657 44.7085 33.5583C44.7085 33.4144 44.7762 33.2448 44.9116 33.0495C45.047 32.8439 45.2761 32.7411 45.5989 32.7411H47.8689C48.4314 32.7411 48.7855 32.8541 48.9313 33.0803C49.0771 33.3065 49.15 33.7125 49.15 34.2985V42.3169C49.15 42.9029 49.0719 43.3089 48.9157 43.5351C48.7698 43.751 48.4209 43.8589 47.8689 43.8589H44.0679Z" stroke="#466330" stroke-width="0.632625" stroke-linejoin="round" mask="url(#path-5-outside-1_4904_101746)"/>
<path fill-rule="evenodd" clip-rule="evenodd" d="M66.275 41.9457C66.2682 41.9639 66.2577 41.9808 66.2443 41.9951C65.1635 43.1402 63.7357 43.5505 61.9038 43.5505C58.5472 43.5505 57.3497 40.5733 57.6544 37.7372H66.3563C66.7417 37.7372 66.9343 37.5572 66.9343 37.1974C66.9343 33.9123 64.6032 31.2299 61.1601 31.2299C57.2577 31.2299 54.8423 34.9361 54.8423 38.4927C54.8423 40.5693 55.3099 42.1473 56.2681 43.2884C57.4346 44.6762 59.1385 45.4009 61.357 45.4009C63.4545 45.4009 65.508 44.5032 66.7654 42.8321C66.823 42.7555 66.9087 42.6928 66.9648 42.6517L66.9718 42.6466C67.0018 42.6246 67.0056 42.5873 66.9849 42.5568C66.9794 42.5488 66.9728 42.5418 66.965 42.5358C66.9191 42.5005 66.7479 42.3656 66.6564 42.2527C66.5663 42.1413 66.4757 41.9551 66.4407 41.8797C66.431 41.8589 66.4121 41.8437 66.3895 41.8389C66.3499 41.8305 66.3101 41.8521 66.296 41.8896L66.275 41.9457ZM63.6379 36.4727H57.7481C57.7481 34.4308 58.9028 32.4943 61.0746 32.4943C62.9389 32.4943 64.091 34.4541 64.091 36.0255C64.091 36.3236 63.94 36.4727 63.6379 36.4727Z" stroke="#466330" stroke-width="0.632625" stroke-linejoin="round" mask="url(#path-5-outside-1_4904_101746)"/>
<path fill-rule="evenodd" clip-rule="evenodd" d="M72.5569 34.0672L72.4944 33.9747V31.6771C72.484 31.4612 72.4163 31.3533 72.2913 31.3533C71.5291 31.4937 70.6924 31.5265 69.7814 31.4515C69.7396 31.4481 69.6991 31.4672 69.6758 31.5016C69.6599 31.5252 69.6535 31.5532 69.6578 31.5813C69.8408 32.7698 69.9323 34.8012 69.9323 37.6755V46.1102C69.9323 48.88 69.8403 50.9689 69.6564 52.3769C69.6529 52.4031 69.6592 52.4291 69.674 52.451C69.6981 52.4866 69.741 52.5049 69.7839 52.4985C70.1497 52.4442 70.6209 52.417 71.1977 52.417C71.7852 52.417 72.2668 52.4443 72.6426 52.4988C72.6856 52.505 72.7286 52.4866 72.7528 52.4509C72.7675 52.4291 72.7739 52.403 72.7706 52.377C72.5865 50.8889 72.4944 48.7999 72.4944 46.1102V44.707C73.3693 45.1696 74.4265 45.4009 75.6659 45.4009C77.7489 45.4009 79.3997 44.6967 80.6183 43.2884C81.8369 41.88 82.4462 40.0502 82.4462 37.7988C82.4462 36.0101 81.941 34.4681 80.9308 33.1728C79.9309 31.8775 78.5769 31.2299 76.8688 31.2299C75.2545 31.2299 73.8172 32.1757 72.5569 34.0672ZM72.4944 42.7178V35.8096C74.5622 30.8619 79.6185 33.1636 79.6185 38.2152C79.6185 38.9245 79.5612 39.603 79.4466 40.2506C79.332 40.888 79.1289 41.5202 78.8373 42.1473C78.5561 42.7641 78.1239 43.2524 77.5406 43.6122C76.9678 43.972 76.2752 44.1519 75.4628 44.1519C74.2963 44.1416 73.3068 43.6636 72.4944 42.7178Z" stroke="#466330" stroke-width="0.632625" stroke-linejoin="round" mask="url(#path-5-outside-1_4904_101746)"/>
<path fill-rule="evenodd" clip-rule="evenodd" d="M99.356 45.1806L100.844 45.0925C100.948 45.0925 101.344 45.1028 102.031 45.1233C102.729 45.1439 103.859 45.1542 105.421 45.1542C108.431 45.1542 109.829 44.0748 109.936 41.2375C109.936 39.2273 108.28 38.2994 106.733 37.8605V37.7988C108.067 37.5964 109.483 36.2489 109.483 34.8844C109.483 33.7948 109.124 32.9569 108.405 32.371C107.686 31.7747 106.312 31.4766 104.281 31.4766C103.874 31.4766 103.312 31.4869 102.593 31.5075C101.875 31.528 101.292 31.5383 100.844 31.5383C100.163 31.5383 99.6676 31.5122 99.3576 31.4599C99.3139 31.4525 99.2708 31.477 99.2568 31.5185C99.2524 31.5315 99.2512 31.5452 99.2533 31.5588C99.4907 33.0971 99.6095 34.9869 99.6095 37.2283V39.4025C99.6095 41.7339 99.491 43.6228 99.254 45.0693C99.2514 45.0847 99.2527 45.1002 99.2577 45.115C99.2717 45.1563 99.312 45.1832 99.356 45.1806ZM103.984 37.1666H102.156V33.6354C102.156 33.142 102.239 32.8387 102.406 32.7256C102.583 32.6126 103.109 32.556 103.984 32.556C104.942 32.556 105.65 32.7154 106.109 33.034C106.567 33.3424 106.796 33.9592 106.796 34.8844C106.796 35.5424 106.551 36.0872 106.062 36.519C105.572 36.9507 104.88 37.1666 103.984 37.1666ZM102.156 42.6562V38.246H104.281C105.176 38.246 105.879 38.5287 106.39 39.0941C106.9 39.6595 107.155 40.3637 107.155 41.2067C107.155 43.1187 106.098 44.0748 103.984 44.0748C103.213 44.0748 102.713 43.9874 102.484 43.8126C102.265 43.6276 102.156 43.2421 102.156 42.6562Z" stroke="#466330" stroke-width="0.632625" stroke-linejoin="round" mask="url(#path-5-outside-1_4904_101746)"/>
<path d="M112.592 31.5798C112.806 32.8439 112.913 34.7164 112.913 37.1974V39.4334C112.903 41.9145 112.796 43.7872 112.592 45.0513C112.587 45.078 112.593 45.105 112.609 45.1276C112.632 45.1626 112.674 45.1806 112.717 45.1745C113.093 45.1198 113.58 45.0925 114.179 45.0925C114.786 45.0925 115.279 45.1198 115.656 45.1745C115.698 45.1806 115.74 45.1626 115.764 45.1276C115.779 45.1051 115.785 45.078 115.781 45.0512C115.567 43.7273 115.46 41.8547 115.46 39.4334V38.4927H122.505V39.4334C122.495 41.9074 122.389 43.7763 122.186 45.0403C122.181 45.0737 122.19 45.1075 122.212 45.1335C122.239 45.1654 122.281 45.1807 122.323 45.1745C122.69 45.1198 123.173 45.0925 123.771 45.0925C124.379 45.0925 124.871 45.1198 125.248 45.1745C125.291 45.1806 125.333 45.1625 125.357 45.1274C125.372 45.1049 125.378 45.0781 125.374 45.0515C125.17 43.7276 125.068 41.8549 125.068 39.4334V37.1974C125.109 34.577 125.211 32.7041 125.374 31.5789C125.378 31.5524 125.372 31.526 125.357 31.5037C125.333 31.4684 125.29 31.4502 125.248 31.4564C124.871 31.511 124.384 31.5383 123.787 31.5383C123.187 31.5383 122.699 31.5108 122.322 31.4559C122.281 31.4499 122.239 31.4652 122.212 31.4969C122.19 31.5232 122.181 31.5572 122.186 31.5909C122.399 32.8549 122.505 34.7237 122.505 37.1974V37.2591H115.46V37.1974C115.511 34.577 115.618 32.7041 115.782 31.5789C115.786 31.5524 115.779 31.526 115.764 31.5037C115.74 31.4684 115.698 31.4502 115.656 31.4564C115.278 31.511 114.786 31.5383 114.179 31.5383C113.58 31.5383 113.093 31.5109 112.716 31.4563C112.674 31.4502 112.632 31.4681 112.609 31.5029C112.594 31.5256 112.588 31.5529 112.592 31.5798Z" stroke="#466330" stroke-width="0.632625" stroke-linejoin="round" mask="url(#path-5-outside-1_4904_101746)"/>
<path fill-rule="evenodd" clip-rule="evenodd" d="M131.666 38.9708C131.77 38.9605 131.849 38.9553 131.901 38.9553C131.64 39.1918 131.291 39.5721 130.854 40.0964C130.323 40.7338 129.703 41.5665 128.995 42.5945C128.312 43.5896 127.68 44.4079 127.097 45.0492C127.074 45.0748 127.071 45.1125 127.09 45.1411C127.108 45.1674 127.141 45.1798 127.172 45.1734C127.439 45.1195 127.942 45.0925 128.682 45.0925C128.829 45.0925 128.97 45.0933 129.105 45.095C130.072 45.1069 131.009 44.646 131.46 43.8008C131.774 43.211 132.171 42.4543 132.651 41.5305C132.89 41.0473 133.072 40.6978 133.197 40.4819C133.333 40.266 133.515 40.0296 133.744 39.7726C133.984 39.5156 134.26 39.3306 134.572 39.2175C134.885 39.0941 135.27 39.0016 135.728 38.9399V39.7572C135.718 41.9633 135.611 43.7271 135.407 45.0484C135.403 45.077 135.409 45.1058 135.425 45.1298C135.448 45.164 135.488 45.1835 135.53 45.181L137.009 45.0925C137.69 45.0925 138.186 45.1187 138.496 45.171C138.539 45.1783 138.582 45.154 138.596 45.1128C138.599 45.1048 138.6 45.0966 138.6 45.0883C138.601 45.0853 138.6 45.0823 138.6 45.0794L138.6 45.0754L138.599 45.0716C138.383 43.8074 138.275 41.9383 138.275 39.4642V37.1666C138.285 34.7076 138.392 32.8463 138.596 31.5825C138.6 31.5538 138.594 31.5249 138.577 31.5007C138.555 31.4667 138.515 31.4473 138.474 31.4498L137.009 31.5383C136.468 31.5383 135.77 31.5229 134.916 31.492C134.072 31.4612 133.468 31.4458 133.104 31.4458C132.01 31.4458 131.099 31.5589 130.37 31.785C129.651 32.0009 129.12 32.3093 128.776 32.7102C128.432 33.1111 128.198 33.5121 128.073 33.913C127.948 34.3139 127.886 34.7765 127.886 35.3008C127.886 36.3596 128.219 37.2386 128.885 37.9376C129.562 38.6264 130.411 38.9708 131.432 38.9708H131.666ZM135.728 33.6663V37.8297H133.166C132.291 37.8297 131.646 37.5624 131.229 37.0278C130.812 36.4933 130.604 35.8045 130.604 34.9615C130.604 34.1391 130.812 33.5275 131.229 33.1266C131.646 32.7256 132.406 32.5252 133.51 32.5252C134.239 32.5252 134.791 32.6023 135.166 32.7565C135.541 32.9004 135.728 33.2037 135.728 33.6663Z" stroke="#466330" stroke-width="0.632625" stroke-linejoin="round" mask="url(#path-5-outside-1_4904_101746)"/>
<path fill-rule="evenodd" clip-rule="evenodd" d="M96.0895 42.002C96.0827 42.0203 96.0722 42.0372 96.0588 42.0514C94.978 43.1965 93.5502 43.6068 91.7183 43.6068C88.3617 43.6068 87.1642 40.6297 87.4689 37.7935H96.1708C96.5561 37.7935 96.7488 37.6136 96.7488 37.2538C96.7488 33.9686 94.4177 31.2862 90.9746 31.2862C87.0722 31.2862 84.6567 34.9924 84.6567 38.5491C84.6567 40.6256 85.1244 42.2036 86.0826 43.3447C87.2491 44.7325 88.953 45.4572 91.1715 45.4572C93.269 45.4572 95.3429 44.5125 96.6002 42.8414C96.6375 42.8047 96.6987 42.7627 96.7494 42.7279L96.7842 42.7039C96.8157 42.6818 96.8196 42.6429 96.7981 42.6112C96.7955 42.6074 96.7925 42.6037 96.7894 42.6003L96.7874 42.5982L96.7859 42.5968L96.7817 42.5929C96.7404 42.5572 96.5731 42.4105 96.4782 42.293C96.3885 42.1819 96.2931 42.0052 96.256 41.934C96.2458 41.9143 96.2273 41.9001 96.2054 41.8955C96.165 41.8869 96.1243 41.909 96.11 41.9472L96.0895 42.002ZM93.4524 36.529H87.5626C87.5626 34.4871 88.7173 32.5507 90.8891 32.5507C92.7534 32.5507 93.9055 34.5104 93.9055 36.0818C93.9055 36.38 93.7544 36.529 93.4524 36.529Z" stroke="#466330" stroke-width="0.632625" stroke-linejoin="round" mask="url(#path-5-outside-1_4904_101746)"/>
<path d="M58.9326 14.1774C58.1927 14.1774 57.6852 14.1496 57.4101 14.0938C60.7871 21.4754 62.6749 25.6769 63.0733 26.6982C62.6083 27.7928 62.2377 28.3026 61.3714 29.4034C62.3615 29.2811 63.2279 29.5257 63.8467 29.7703C63.9493 29.4433 64.0211 29.1814 64.091 28.9262C64.3506 27.9788 64.3365 27.4703 66.0329 23.7177C68.1957 18.9545 69.6945 15.7466 70.5293 14.0938C70.3396 14.1496 69.9222 14.1774 69.2771 14.1774C68.708 14.1774 68.3285 14.1496 68.1388 14.0938C66.8961 17.9193 65.6203 21.1969 64.3112 23.9266H64.2543C62.3002 19.312 61.0006 16.0344 60.3555 14.0938C60.1089 14.1496 59.6346 14.1774 58.9326 14.1774Z" stroke="#466330" stroke-width="0.632625" stroke-linejoin="round" mask="url(#path-5-outside-1_4904_101746)"/>
</g>
</g>
</svg>
