<svg width="48" height="48" viewBox="0 0 48 48" fill="none" xmlns="http://www.w3.org/2000/svg">
<path d="M33.9018 16.9849L29.4593 17.9125L30.2404 13.3236M33.9018 16.9849L32.0711 15.1543M33.9018 16.9849L41.7127 9.17402M30.2404 13.3236L32.0711 15.1543M30.2404 13.3236L38.0513 5.51266M32.0711 15.1543L36.8065 10.4189M37.8073 9.41811L39.882 7.34334M38.0513 5.51266L38.9057 4.65836C39.9167 3.6473 41.556 3.6473 42.567 4.65836V4.65836C43.5781 5.66941 43.5781 7.30866 42.567 8.31971L41.7127 9.17402M38.0513 5.51266L41.7127 9.17402" stroke="#466330" stroke-linecap="round" stroke-linejoin="round"/>
<path d="M8.48633 40.9007H24.1685H28.0891H30.0494M39.8507 10.9669V40.9007H35.5394H33.7745M36.9527 6.48828H11.1972" stroke="#466330" stroke-linecap="round" stroke-linejoin="round"/>
<path d="M23.9515 21.2201H14.0283L19.0438 13.832M23.9515 21.2201L19.0438 13.832M23.9515 21.2201H37.3792L35.7074 18.4698M19.0438 13.832H29.2361M15.161 23.4851V33.3539H22.603M22.603 33.3539V23.4851M22.603 33.3539H35.7074V23.4851" stroke="#466330" stroke-linecap="round" stroke-linejoin="round"/>
<path d="M15.4844 37.0208H35.9766M15.4844 37.0208L16.9134 35.5918M15.4844 37.0208L16.9134 38.4498M35.9766 37.0208L34.5476 35.5918M35.9766 37.0208L34.5476 38.4498" stroke="#466330" stroke-linecap="round" stroke-linejoin="round"/>
<path d="M19.0166 10.1653H29.909M19.0166 10.1653L20.4456 8.73633M19.0166 10.1653L20.4456 11.5943M29.909 10.1653L28.48 8.73633M29.909 10.1653L28.48 11.5943" stroke="#466330" stroke-linecap="round" stroke-linejoin="round"/>
<path d="M5.74316 11.5699V7.12891C5.74316 5.61444 6.97089 4.38672 8.48536 4.38672V4.38672C9.99983 4.38672 11.2276 5.61444 11.2276 7.12891V38.159C11.2276 39.6735 9.99983 40.9012 8.48536 40.9012V40.9012C6.97089 40.9012 5.74316 39.6735 5.74316 38.159V14.0216" stroke="#466330" stroke-linecap="round" stroke-linejoin="round"/>
<rect x="6.10059" y="36.0918" width="4.77018" height="4.66073" rx="2.33036" stroke="#466330" stroke-linecap="round" stroke-linejoin="round"/>
</svg>
