<svg width="24" height="24" viewBox="0 0 24 24" fill="none" xmlns="http://www.w3.org/2000/svg">
<path fill-rule="evenodd" clip-rule="evenodd" d="M3.08653 11.4217C7.91836 9.31656 11.1403 7.92872 12.7525 7.25819C17.3554 5.34367 18.3118 5.0111 18.9352 5.00012C19.0724 4.9977 19.3789 5.03168 19.5775 5.19282C19.7452 5.32888 19.7913 5.51268 19.8134 5.64168C19.8355 5.77068 19.863 6.06454 19.8411 6.29416C19.5917 8.91499 18.5124 15.275 17.9633 18.2104C17.731 19.4525 17.2735 19.8689 16.8306 19.9097C15.8681 19.9983 15.1372 19.2736 14.2049 18.6625C12.7461 17.7063 11.922 17.111 10.506 16.1779C8.8696 15.0995 9.93043 14.5068 10.863 13.5382C11.1071 13.2847 15.348 9.42727 15.43 9.07735C15.4403 9.03358 15.4498 8.87045 15.3529 8.78431C15.256 8.69817 15.113 8.72763 15.0098 8.75106C14.8634 8.78426 12.533 10.3246 8.0185 13.372C7.35702 13.8262 6.75787 14.0475 6.22105 14.0359C5.62925 14.0232 4.49087 13.7013 3.6446 13.4262C2.60662 13.0888 1.78165 12.9104 1.85348 12.3374C1.8909 12.039 2.30191 11.7337 3.08653 11.4217Z" fill="#229ED9"/>
</svg>
