<svg width="24" height="24" viewBox="0 0 24 24" fill="none" xmlns="http://www.w3.org/2000/svg">
<path fill-rule="evenodd" clip-rule="evenodd" d="M22 12C22 17.5228 17.5228 22 12 22C10.1661 22 8.44744 21.5063 6.96976 20.6446L2 22L3.35539 17.0302C2.49368 15.5526 2 13.8339 2 12C2 6.47715 6.47715 2 12 2C17.5228 2 22 6.47715 22 12ZM9.15456 7.00617C9.34437 7.01392 9.55455 7.02287 9.75434 7.46453C9.89091 7.76688 10.1209 8.33082 10.3039 8.77976C10.4384 9.10967 10.5477 9.37761 10.5759 9.43379C10.6426 9.56643 10.687 9.72134 10.5981 9.89852C10.5849 9.92472 10.5727 9.94947 10.5611 9.97312C10.4942 10.109 10.4451 10.2088 10.3319 10.3408C10.2871 10.3928 10.2408 10.4489 10.1944 10.505C10.1029 10.6158 10.0114 10.7265 9.93196 10.8055C9.79829 10.9377 9.65944 11.0813 9.81488 11.3468C9.97052 11.6123 10.5054 12.4807 11.2977 13.1838C12.1489 13.9392 12.8884 14.2587 13.2639 14.4209C13.3377 14.4528 13.3974 14.4786 13.4411 14.5004C13.7078 14.6331 13.8633 14.611 14.0187 14.4338C14.1744 14.2568 14.6848 13.6595 14.8624 13.394C15.0403 13.1285 15.2179 13.1727 15.4622 13.2612C15.7066 13.3497 17.017 13.9916 17.2835 14.1242C17.3355 14.15 17.384 14.1733 17.429 14.1949C17.6152 14.2843 17.7409 14.3446 17.7946 14.4338C17.8611 14.5448 17.8611 15.0755 17.639 15.6949C17.417 16.3144 16.3287 16.9119 15.84 16.9561C15.793 16.9603 15.7462 16.9658 15.6982 16.9714C15.2464 17.0242 14.6762 17.0909 12.6415 16.2923C10.1371 15.3094 8.486 12.8733 8.14532 12.3707C8.11748 12.3296 8.09834 12.3013 8.08827 12.288L8.08503 12.2836C7.94045 12.0912 7 10.8395 7 9.54436C7 8.32265 7.60331 7.68227 7.88092 7.3876L7.89488 7.37278C7.90854 7.35826 7.9213 7.34464 7.93303 7.33189C8.17718 7.06642 8.46588 7 8.64369 7L8.67253 7C8.84048 6.99998 9.00754 6.99996 9.15456 7.00617Z" stroke="#466330" stroke-width="1.5" stroke-linejoin="round"/>
<path fill-rule="evenodd" clip-rule="evenodd" d="M9.18771 7.00617C9.38043 7.01392 9.59385 7.02287 9.79672 7.46453C9.93539 7.76688 10.1689 8.33082 10.3548 8.77977C10.4913 9.10967 10.6023 9.37762 10.6309 9.4338C10.6987 9.56643 10.7437 9.72134 10.6534 9.89852C10.6401 9.92473 10.6277 9.94947 10.6159 9.97313C10.548 10.1091 10.4981 10.2088 10.3832 10.3408C10.3377 10.3928 10.2906 10.4489 10.2436 10.505C10.1506 10.6158 10.0577 10.7266 9.97706 10.8055C9.84135 10.9377 9.70035 11.0813 9.85818 11.3468C10.0162 11.6123 10.5593 12.4807 11.3639 13.1838C12.2281 13.9392 12.979 14.2587 13.3603 14.4209C13.4352 14.4528 13.4958 14.4786 13.5402 14.5004C13.811 14.6331 13.9689 14.611 14.1267 14.4338C14.2847 14.2568 14.803 13.6595 14.9834 13.394C15.1639 13.1285 15.3443 13.1727 15.5924 13.2612C15.8405 13.3497 17.1711 13.9916 17.4417 14.1242C17.4945 14.15 17.5438 14.1733 17.5895 14.195C17.7785 14.2843 17.9061 14.3446 17.9607 14.4338C18.0282 14.5448 18.0282 15.0755 17.8026 15.695C17.5772 16.3144 16.4722 16.912 15.976 16.9561C15.9283 16.9604 15.8808 16.9658 15.832 16.9714C15.3733 17.0243 14.7943 17.0909 12.7283 16.2923C10.1853 15.3095 8.50886 12.8733 8.16294 12.3707C8.13467 12.3296 8.11524 12.3013 8.10501 12.288L8.10172 12.2837C7.95492 12.0912 7 10.8395 7 9.54436C7 8.32266 7.61259 7.68227 7.89448 7.3876L7.90865 7.37278C7.92251 7.35826 7.93547 7.34464 7.94739 7.33189C8.19529 7.06642 8.48843 7 8.66898 7L8.69826 7C8.8688 6.99998 9.03843 6.99996 9.18771 7.00617Z" stroke="#FF8B49" stroke-width="1.5" stroke-linejoin="round"/>
</svg>
