<svg width="24" height="24" viewBox="0 0 24 24" fill="none" xmlns="http://www.w3.org/2000/svg">
<path fill-rule="evenodd" clip-rule="evenodd" d="M10.8174 2.0772C1.58477 3.25016 -1.26031 15.1743 6.4632 20.3265C13.4782 25.006 22.9141 19.2372 21.9287 10.8714C21.2822 5.38308 16.2356 1.38887 10.8174 2.0772ZM12.7895 3.46533C19.2112 4.06797 22.7246 11.3856 19.1539 16.7212C15.461 22.2396 7.18815 21.7098 4.27798 15.7685C1.34461 9.77976 6.14443 2.84168 12.7895 3.46533ZM11.6765 7.27992C10.7237 7.59296 10.6316 8.62622 11.5201 9.03396C12.3845 9.43062 13.3545 8.61386 12.9673 7.81535C12.7663 7.4009 12.122 7.1336 11.6765 7.27992ZM11.6961 10.3523C11.4085 10.4167 11.2396 10.5 11.1128 10.6401L10.9736 10.7939V13.4392V16.0845L11.0626 16.2163C11.4464 16.7849 12.8326 16.6763 13.0029 16.0643C13.0756 15.8031 13.0563 10.9835 12.9818 10.7977C12.8497 10.4681 12.194 10.2409 11.6961 10.3523Z" fill="#8B9298"/>
</svg>
