<svg width="28" height="16" viewBox="0 0 28 16" fill="none" xmlns="http://www.w3.org/2000/svg">
<path id="logo" opacity="0.8" fill-rule="evenodd" clip-rule="evenodd" d="M23 11.0002L22 9.00024C22.022 9.00024 22.042 9.00024 22 9.00024C25.048 8.92524 26.049 7.34324 26.049 5.50024C26.0328 4.57164 25.6583 3.68524 25.0038 3.02628C24.3493 2.36732 23.4655 1.98681 22.537 1.96424C18.108 2.00024 19.307 8.38124 19 7.00024C18.435 6.69024 18.108 5.65724 17.314 5.46024C15.1469 4.84716 12.8521 4.84716 10.685 5.46024C9.891 5.66024 9.565 6.69024 8.999 7.00024C8.692 8.38124 9.891 2.00024 5.462 1.96424C4.5337 1.98706 3.65012 2.36769 2.99585 3.02662C2.34158 3.68555 1.96722 4.57181 1.951 5.50024C1.951 7.34324 2.951 8.92524 6 9.00024C5.956 9.00024 5.977 9.00024 6 9.00024L5 11.0002C3.63443 10.8531 2.37054 10.2093 1.44867 9.19119C0.526795 8.17307 0.0112292 6.85167 0 5.47824C0.0109325 4.03136 0.589538 2.64661 1.61127 1.62208C2.633 0.597544 4.01615 0.0151439 5.463 0.000244141C6.52993 0.0108208 7.56766 0.350171 8.43469 0.972038C9.30173 1.59391 9.95588 2.46803 10.308 3.47524C10.338 3.54624 10.361 3.62524 10.388 3.70024C11.4017 3.41314 12.4333 3.19366 13.476 3.04324C13.6493 3.01553 13.8245 3.00116 14 3.00024C15.2256 3.10371 16.4365 3.33839 17.612 3.70024C17.639 3.62524 17.662 3.54524 17.692 3.47524C18.0441 2.46803 18.6983 1.59391 19.5653 0.972038C20.4323 0.350171 21.4701 0.0108208 22.537 0.000244141C23.9838 0.0154005 25.3668 0.597881 26.3885 1.62236C27.4101 2.64684 27.9888 4.03144 28 5.47824C27.9888 6.85167 27.4732 8.17307 26.5513 9.19119C25.6295 10.2093 24.3656 10.8531 23 11.0002ZM22 9.00024C21.952 9.00024 21.978 9.00024 22 9.00024V9.00024ZM6 9.00024C6.022 9.00024 6.048 9.00024 6 9.00024V9.00024ZM9.318 9.00024C9.61388 9.15387 9.842 9.41213 9.9579 9.72472C10.0738 10.0373 10.0692 10.3819 9.945 10.6912C9.83006 10.8451 9.67579 10.9652 9.49841 11.0388C9.32102 11.1125 9.12706 11.137 8.93694 11.1097C8.74681 11.0825 8.56753 11.0045 8.41795 10.8841C8.26837 10.7636 8.15402 10.605 8.08691 10.4251C8.0198 10.2451 8.00241 10.0504 8.03658 9.86139C8.07074 9.67238 8.1552 9.49607 8.28107 9.351C8.40693 9.20592 8.56956 9.09743 8.75185 9.03695C8.93415 8.97646 9.12937 8.96619 9.317 9.00724L9.318 9.00024ZM14 8.99524C15.1 8.99524 16 10.5652 16 12.5002C16 14.4352 15.1 16.0002 14 16.0002C12.924 16.0002 12.048 14.5082 12 12.6452V12.3452C12.045 10.4842 12.921 8.99524 14 8.99524ZM18.686 9.00824C19.0183 9.0308 19.3306 9.17505 19.5633 9.41341C19.7959 9.65176 19.9325 9.96749 19.947 10.3002C20.0558 10.4436 20.1266 10.6121 20.1529 10.7902C20.1792 10.9682 20.16 11.15 20.0972 11.3187C20.0344 11.4874 19.93 11.6374 19.7937 11.7549C19.6574 11.8724 19.4936 11.9536 19.3175 11.9909C19.1414 12.0281 18.9588 12.0203 18.7865 11.9681C18.6143 11.9159 18.458 11.821 18.3323 11.6922C18.2065 11.5635 18.1154 11.405 18.0672 11.2316C18.0191 11.0582 18.0156 10.8754 18.057 10.7002C17.9321 10.3907 17.9271 10.0458 18.0428 9.73278C18.1586 9.41975 18.3868 9.16107 18.683 9.00724L18.686 9.00824Z" fill="#292929"/>
</svg>
