<svg width="32" height="32" viewBox="0 0 32 32" fill="none" xmlns="http://www.w3.org/2000/svg">
<path d="M19.1904 7.0625C20.5678 7.43294 21.8237 8.15879 22.8322 9.16735C23.8408 10.1759 24.5667 11.4318 24.9371 12.8092" stroke="white" stroke-width="1.5" stroke-linecap="round" stroke-linejoin="round"/>
<path d="M18.3496 10.2025C19.176 10.4248 19.9296 10.8603 20.5347 11.4654C21.1398 12.0706 21.5754 12.8241 21.7976 13.6505" stroke="white" stroke-width="1.5" stroke-linecap="round" stroke-linejoin="round"/>
<path d="M12.3921 15.6766C13.2349 17.3996 14.6316 18.7899 16.3585 19.6249C16.4848 19.6848 16.6246 19.7107 16.764 19.7002C16.9034 19.6896 17.0377 19.6429 17.1536 19.5647L19.6963 17.8692C19.8087 17.7942 19.9381 17.7485 20.0727 17.7361C20.2073 17.7238 20.3429 17.7452 20.4671 17.7984L25.224 19.8371C25.3856 19.9057 25.5205 20.025 25.6084 20.177C25.6963 20.329 25.7324 20.5054 25.7113 20.6797C25.561 21.8562 24.9869 22.9376 24.0967 23.7213C23.2065 24.5051 22.0611 24.9374 20.875 24.9375C17.2117 24.9375 13.6984 23.4823 11.1081 20.8919C8.51774 18.3016 7.0625 14.7883 7.0625 11.125C7.06256 9.93893 7.49495 8.79355 8.27869 7.90332C9.06244 7.01309 10.1438 6.43906 11.3203 6.2887C11.4946 6.26761 11.671 6.30373 11.823 6.39163C11.975 6.47952 12.0943 6.61443 12.1629 6.77602L14.2034 11.5371C14.2562 11.6602 14.2777 11.7945 14.266 11.928C14.2543 12.0614 14.2098 12.1899 14.1364 12.3021L12.4468 14.8837C12.3699 14.9999 12.3244 15.134 12.3148 15.2729C12.3053 15.4119 12.3319 15.551 12.3921 15.6766Z" fill="white"/>
</svg>
