<svg width="25" height="24" viewBox="0 0 25 24" fill="none" xmlns="http://www.w3.org/2000/svg">
<g id="ShoppingCartSimple">
<g id="ShoppingCartSimple_2">
<path id="Vector" d="M4.75 6H21.1014C21.2113 6 21.3198 6.02413 21.4193 6.07068C21.5188 6.11724 21.6068 6.18508 21.6772 6.26941C21.7476 6.35374 21.7986 6.45251 21.8266 6.55872C21.8546 6.66494 21.859 6.77601 21.8393 6.88409L20.2039 15.8841C20.1725 16.0569 20.0814 16.2132 19.9466 16.3258C19.8117 16.4383 19.1757 16.8 19 16.8H7.6C7.42443 16.8 6.94678 16.4384 6.81195 16.3259C6.67713 16.2135 6.58603 16.0573 6.55453 15.8845L4.18041 2.86545C4.14892 2.69273 4.05782 2.53652 3.92299 2.42406C3.78817 2.3116 3.61816 2.25 3.44258 2.25H1.75" stroke="#292929" stroke-width="2" stroke-linecap="round" stroke-linejoin="round"/>
<path id="Vector_2" d="M7.5998 24.0004C8.59392 24.0004 9.3998 23.1945 9.3998 22.2004C9.3998 21.2063 8.59392 20.4004 7.5998 20.4004C6.60569 20.4004 5.7998 21.2063 5.7998 22.2004C5.7998 23.1945 6.60569 24.0004 7.5998 24.0004Z" fill="#292929"/>
<path id="Vector_3" d="M18.3996 24.0004C19.3937 24.0004 20.1996 23.1945 20.1996 22.2004C20.1996 21.2063 19.3937 20.4004 18.3996 20.4004C17.4055 20.4004 16.5996 21.2063 16.5996 22.2004C16.5996 23.1945 17.4055 24.0004 18.3996 24.0004Z" fill="#292929"/>
</g>
</g>
</svg>
