<svg width="24" height="24" viewBox="0 0 24 24" fill="none" xmlns="http://www.w3.org/2000/svg">
<g id="Socials/thumbs-up">
<path id="Vector (Stroke)" fill-rule="evenodd" clip-rule="evenodd" d="M10.4576 0.445396C10.578 0.17455 10.8466 0 11.143 0C12.0239 0 12.8687 0.349935 13.4916 0.972824C14.1145 1.59571 14.4644 2.44053 14.4644 3.32143V6H18.562C18.9176 5.99664 19.2698 6.0703 19.5943 6.21594C19.9202 6.36221 20.2104 6.5776 20.4448 6.84716C20.6792 7.11673 20.8522 7.43404 20.9518 7.77711C21.0514 8.12017 21.0753 8.48079 21.0216 8.83398L19.8388 16.5482C19.8387 16.5486 19.8389 16.5478 19.8388 16.5482C19.7495 17.1353 19.4509 17.6717 18.9984 18.0563C18.5467 18.4403 17.9718 18.6485 17.3791 18.6429H5.143C4.48943 18.6429 3.86263 18.3832 3.40048 17.9211C2.93834 17.4589 2.67871 16.8321 2.67871 16.1786V10.1786C2.67871 9.525 2.93834 8.8982 3.40048 8.43606C3.86263 7.97392 4.48943 7.71429 5.143 7.71429H7.22702L10.4576 0.445396ZM8.46443 8.62345V17.1429H17.3915C17.624 17.1455 17.8497 17.064 18.0269 16.9134C18.2041 16.7628 18.3209 16.5532 18.3558 16.3233L19.5386 8.60888C19.5386 8.609 19.5387 8.60876 19.5386 8.60888C19.5595 8.47079 19.5503 8.32945 19.5113 8.19532C19.4723 8.06108 19.4046 7.93692 19.3129 7.83143C19.2212 7.72595 19.1076 7.64167 18.9801 7.58443C18.8526 7.5272 18.7141 7.49837 18.5743 7.49995L18.5659 7.50005L13.7144 7.5C13.3002 7.5 12.9644 7.16421 12.9644 6.75V3.32143C12.9644 2.83836 12.7725 2.37507 12.4309 2.03348C12.2003 1.80287 11.9142 1.64048 11.604 1.55931L8.46443 8.62345ZM6.96443 17.1429V9.21429H5.143C4.88725 9.21429 4.64198 9.31588 4.46114 9.49672C4.2803 9.67756 4.17871 9.92283 4.17871 10.1786V16.1786C4.17871 16.4343 4.2803 16.6796 4.46114 16.8604C4.64198 17.0413 4.88725 17.1429 5.143 17.1429H6.96443Z" fill="#292929"/>
</g>
</svg>
