<svg width="24" height="24" viewBox="0 0 24 24" fill="none" xmlns="http://www.w3.org/2000/svg">
<path fill-rule="evenodd" clip-rule="evenodd" d="M13.7144 6.00002V9.42859H18.5659C18.8143 9.42578 19.0605 9.47702 19.2872 9.57878C19.5139 9.68053 19.7158 9.83036 19.8789 10.0179C20.0419 10.2054 20.1623 10.4262 20.2316 10.6648C20.3009 10.9035 20.3174 11.1543 20.2801 11.4L19.0973 19.1143C19.0353 19.5231 18.8277 19.8957 18.5126 20.1635C18.1976 20.4312 17.7964 20.5761 17.383 20.5714H7.71443H7.52997L7.52997 11.1429H7.71443L11.143 3.42859C11.825 3.42859 12.479 3.69951 12.9613 4.18174C13.4435 4.66398 13.7144 5.31803 13.7144 6.00002ZM6.52997 11.1429H5.143C4.68834 11.1429 4.2523 11.3235 3.93081 11.645C3.60932 11.9665 3.42871 12.4025 3.42871 12.8572V18.8572C3.42871 19.3118 3.60932 19.7479 3.93081 20.0693C4.2523 20.3908 4.68834 20.5714 5.143 20.5714H6.52997L6.52997 11.1429Z" fill="#F98442"/>
</svg>
