<svg width="16" height="16" viewBox="0 0 16 16" fill="none" xmlns="http://www.w3.org/2000/svg">
<g id="icon/Social/WhatsApp">
<path id="Subtract" fill-rule="evenodd" clip-rule="evenodd" d="M14 8C14 11.3137 11.3137 14 8 14C6.89964 14 5.86846 13.7038 4.98185 13.1868L2 14L2.81323 11.0181C2.29621 10.1315 2 9.10036 2 8C2 4.68629 4.68629 2 8 2C11.3137 2 14 4.68629 14 8ZM6.29274 5.0037C6.40662 5.00835 6.53273 5.01372 6.65261 5.27872C6.73455 5.46013 6.87252 5.79849 6.98236 6.06786C7.06307 6.2658 7.12862 6.42657 7.14553 6.46028C7.18557 6.53986 7.21218 6.6328 7.15884 6.73911C7.15095 6.75483 7.14364 6.76968 7.13666 6.78387C7.09653 6.86543 7.06707 6.92529 6.99916 7.00446C6.97226 7.03569 6.94445 7.06936 6.91666 7.103C6.86173 7.16949 6.80685 7.23593 6.75917 7.2833C6.67898 7.36264 6.59566 7.44879 6.68893 7.60807C6.78231 7.76735 7.10322 8.28839 7.57864 8.71028C8.08935 9.16354 8.53305 9.35523 8.75835 9.45256C8.80259 9.47168 8.83842 9.48715 8.86467 9.50026C9.0247 9.57984 9.11797 9.56659 9.21123 9.46029C9.30461 9.3541 9.61089 8.99568 9.71746 8.8364C9.82415 8.67711 9.93072 8.7036 10.0773 8.7567C10.2239 8.80979 11.0102 9.19493 11.1701 9.27451C11.2013 9.29001 11.2304 9.304 11.2574 9.31696C11.3691 9.37058 11.4445 9.40677 11.4768 9.46029C11.5167 9.52686 11.5167 9.84531 11.3834 10.217C11.2502 10.5886 10.5972 10.9472 10.304 10.9737C10.2758 10.9762 10.2477 10.9795 10.2189 10.9829C9.94785 11.0145 9.60572 11.0546 8.38493 10.5754C6.88224 9.98567 5.8916 8.52399 5.68719 8.2224C5.67049 8.19775 5.65901 8.1808 5.65296 8.17278L5.65102 8.17019C5.56427 8.05473 5 7.30371 5 6.52661C5 5.79359 5.36199 5.40936 5.52855 5.23256L5.53693 5.22367C5.54512 5.21496 5.55278 5.20679 5.55982 5.19914C5.70631 5.03985 5.87953 5 5.98622 5L6.00352 5C6.10429 4.99999 6.20453 4.99998 6.29274 5.0037Z" fill="#2DB10F"/>
</g>
</svg>
