<svg width="360" height="209" viewBox="0 0 360 209" fill="none" xmlns="http://www.w3.org/2000/svg">
<g opacity="0.5">
<path d="M231.221 182.465C146.848 86.4349 -3.89323 22.4768 -175.807 22.4768C-175.871 22.4768 -175.936 22.4768 -176 22.4769V52.712C-175.936 52.712 -175.871 52.712 -175.807 52.712C-11.2453 52.712 132.008 117.081 206.129 212.079C216.284 203.117 224.76 193.166 231.221 182.465Z" fill="#466330"/>
<path d="M174.162 234.087C109.132 144.366 -23.173 82.9469 -175.81 82.9469C-175.874 82.9469 -175.937 82.9469 -176 82.9469V113.182C-175.937 113.182 -175.874 113.182 -175.81 113.182C-38.9237 113.182 79.6076 168.628 137.127 249.425C150.375 245.348 162.796 240.181 174.162 234.087Z" fill="#466330"/>
<path d="M92.6523 258.513C40.3634 191.38 -59.7674 145.418 -175.347 143.481C-174.072 154.08 -170.959 164.31 -166.233 174.01C-78.3335 177.779 -1.73074 211.065 43.9209 260H64.9719C74.3842 260 83.6283 259.492 92.6523 258.513Z" fill="#466330"/>
<path d="M-7.84299 259.701C-41.581 232.242 -88.8899 212.834 -142.712 206.301C-112.235 236.559 -63.5005 257.025 -7.84299 259.701Z" fill="#466330"/>
<path d="M191.779 182.465C276.152 86.4349 426.893 22.4768 598.807 22.4768C598.871 22.4768 598.936 22.4768 599 22.4769V52.712C598.936 52.712 598.871 52.712 598.807 52.712C434.245 52.712 290.992 117.081 216.871 212.079C206.716 203.117 198.24 193.166 191.779 182.465Z" fill="#466330"/>
<path d="M248.838 234.087C313.868 144.366 446.173 82.9469 598.81 82.9469C598.874 82.9469 598.937 82.9469 599 82.9469V113.182C598.937 113.182 598.874 113.182 598.81 113.182C461.924 113.182 343.392 168.628 285.873 249.425C272.625 245.348 260.204 240.181 248.838 234.087Z" fill="#466330"/>
<path d="M330.348 258.513C382.637 191.38 482.767 145.418 598.347 143.481C597.072 154.08 593.959 164.31 589.233 174.01C501.334 177.779 424.731 211.065 379.079 260H358.028C348.616 260 339.372 259.492 330.348 258.513Z" fill="#466330"/>
<path d="M430.843 259.701C464.581 232.242 511.89 212.834 565.712 206.301C535.235 236.559 486.501 257.025 430.843 259.701Z" fill="#466330"/>
<path d="M-29.4212 42.1815C82.8013 -19.8621 261.336 -11.0747 358.489 52.8821C358.546 52.9103 383.073 67.7165 383.13 67.7447L361.543 93.574C361.486 93.5458 345.054 79.9743 344.998 79.9462C222.468 18.9693 91.6281 15.7998 4.08971 62.5003C-5.94977 52.9487 -21.9666 52.7001 -29.4212 42.1815Z" fill="#466330"/>
<path d="M39.8446 90.4462C116.604 53.6472 226.742 57.1095 331.063 106.861C325.193 115.781 317.842 123.55 309.283 130.128C228.921 94.3467 146.809 89.2792 84.11 112.746L65.267 103.369C56.8419 99.1762 47.4852 95.3424 39.8446 90.4462Z" fill="#466330"/>
<path d="M129.269 136.276C171.721 126.726 222.728 130.427 273.82 148.554C233.038 162.063 180.284 158.673 129.269 136.276Z" fill="#466330"/>
</g>
</svg>
