<svg width="1280" height="323" viewBox="0 0 1280 323" fill="none" xmlns="http://www.w3.org/2000/svg">
<g opacity="0.5">
<path d="M733 343.411C574.704 163.095 291.895 42.9999 -30.6382 42.9999C-30.7588 42.9999 -30.8794 43 -31 43V99.7729C-30.8794 99.7729 -30.7588 99.7728 -30.6382 99.7728C278.101 99.7728 546.862 220.639 685.924 399.018C704.976 382.189 720.878 363.505 733 343.411Z" fill="#466330"/>
<path d="M625.95 440.342C503.944 271.873 255.723 156.545 -30.6442 156.545C-30.7628 156.545 -30.8814 156.545 -31 156.545V213.318C-30.8814 213.318 -30.7628 213.318 -30.6442 213.318C226.173 213.318 448.553 317.43 556.466 469.144C581.322 461.487 604.625 451.786 625.95 440.342Z" fill="#466330"/>
<path d="M473.026 486.208C374.926 360.152 187.067 273.849 -29.7743 270.211C-27.3833 290.113 -21.5426 309.321 -12.6759 327.536C152.235 334.613 295.952 397.114 381.6 489H421.094C438.753 489 456.096 488.046 473.026 486.208Z" fill="#466330"/>
<path d="M284.484 488.439C221.187 436.879 132.43 400.436 31.4533 388.168C88.6322 444.985 180.064 483.413 284.484 488.439Z" fill="#466330"/>
<path d="M659 343.411C817.296 163.095 1100.11 42.9999 1422.64 42.9999C1422.76 42.9999 1422.88 43 1423 43V99.7729C1422.88 99.7729 1422.76 99.7728 1422.64 99.7728C1113.9 99.7728 845.138 220.639 706.076 399.018C687.024 382.189 671.122 363.505 659 343.411Z" fill="#466330"/>
<path d="M766.05 440.342C888.056 271.873 1136.28 156.545 1422.64 156.545C1422.76 156.545 1422.88 156.545 1423 156.545V213.318C1422.88 213.318 1422.76 213.318 1422.64 213.318C1165.83 213.318 943.447 317.43 835.534 469.144C810.678 461.487 787.375 451.786 766.05 440.342Z" fill="#466330"/>
<path d="M918.974 486.208C1017.07 360.152 1204.93 273.849 1421.77 270.211C1419.38 290.113 1413.54 309.321 1404.68 327.536C1239.77 334.613 1096.05 397.114 1010.4 489H970.906C953.247 489 935.904 488.046 918.974 486.208Z" fill="#466330"/>
<path d="M1107.52 488.439C1170.81 436.879 1259.57 400.436 1360.55 388.168C1303.37 444.985 1211.94 483.413 1107.52 488.439Z" fill="#466330"/>
<path d="M244.001 79.9996C454.545 -36.5004 789.5 -20.0001 971.77 100.092C971.876 100.145 1017.89 127.947 1018 128L977.5 176.5C977.393 176.447 946.565 150.964 946.459 150.911C716.578 36.4138 471.105 30.4624 306.872 118.152C288.036 100.217 257.987 99.7505 244.001 79.9996Z" fill="#466330"/>
<path d="M373.952 170.627C517.963 101.529 724.595 108.03 920.316 201.449C909.302 218.198 895.511 232.787 879.454 245.138C728.684 177.951 574.631 168.436 457 212.5L421.648 194.892C405.841 187.019 388.287 179.82 373.952 170.627Z" fill="#466330"/>
<path d="M541.725 256.682C621.37 238.75 717.066 245.7 812.921 279.737C736.408 305.103 637.434 298.737 541.725 256.682Z" fill="#466330"/>
</g>
</svg>
