<svg width="248" height="255" viewBox="0 0 248 255" fill="none" xmlns="http://www.w3.org/2000/svg">
<g opacity="0.8">
<path d="M230.996 -23.3516C240.304 -2.03453 245.953 21.2681 247.131 45.8286C252.393 155.537 166.449 248.8 55.1687 254.137C-39.3293 258.67 -121.71 198.339 -147.63 112.857C-135.569 85.699 -118.533 61.095 -97.6063 40.223C-98.4024 47.4759 -98.641 54.8819 -98.2806 62.3958C-94.522 140.759 -27.0392 201.194 52.4465 197.382C131.932 193.569 193.321 126.953 189.563 48.5898C188.037 16.7845 176.014 -12.0676 156.952 -34.8694C182.71 -34.8316 207.604 -30.8018 230.996 -23.3516Z" fill="#FFDF39"/>
<path fill-rule="evenodd" clip-rule="evenodd" d="M132.503 52.9619C134.759 99.9797 97.9253 139.95 50.2338 142.237C2.54241 144.524 -37.9473 108.263 -40.2024 61.2455C-42.4576 14.2277 -5.62416 -25.7421 42.0673 -28.0296C89.7587 -30.317 130.248 5.9441 132.503 52.9619ZM74.9349 55.7231C75.6866 71.3957 63.4088 84.719 47.5116 85.4815C31.6145 86.244 18.118 74.1569 17.3662 58.4843C16.6145 42.8117 28.8923 29.4884 44.7894 28.726C60.6866 27.9635 74.1832 40.0505 74.9349 55.7231Z" fill="#FFDF39"/>
</g>
</svg>
