<svg width="154" height="78" viewBox="0 0 154 78" fill="none" xmlns="http://www.w3.org/2000/svg">
<path d="M62.063 75.5372C61.916 74.0984 62.0229 72.6113 62.418 71.1345C64.1825 64.5378 71.0281 60.6435 77.7079 62.4364C83.3804 63.9589 87.1093 69.093 87.0244 74.6466C85.7975 76.0264 84.3248 77.1605 82.6927 78C82.877 77.5856 83.0313 77.1515 83.1521 76.6997C84.4125 71.9877 81.5664 67.1298 76.7951 65.8491C72.0238 64.5684 67.1341 67.3501 65.8737 72.062C65.3621 73.9745 65.527 75.911 66.2226 77.6226C64.7004 77.1322 63.305 76.4217 62.063 75.5372Z" fill="#5A7C3B"/>
<path d="M84.0372 75.5372C83.8903 74.0984 83.9972 72.6113 84.3922 71.1345C86.1568 64.5378 93.0023 60.6435 99.6822 62.4364C105.355 63.9589 109.083 69.093 108.999 74.6466C107.772 76.0264 106.299 77.1605 104.667 78C104.851 77.5856 105.005 77.1515 105.126 76.6997C106.387 71.9877 103.541 67.1298 98.7693 65.8491C93.998 64.5684 89.1083 67.3501 87.8479 72.062C87.3363 73.9745 87.5012 75.911 88.1968 77.6226C86.6747 77.1322 85.2792 76.4217 84.0372 75.5372Z" fill="#5A7C3B"/>
<path d="M107.063 45.5372C106.916 44.0984 107.023 42.6113 107.418 41.1345C109.183 34.5378 116.028 30.6435 122.708 32.4364C128.38 33.9589 132.109 39.093 132.024 44.6466C130.798 46.0264 129.325 47.1605 127.693 48C127.877 47.5856 128.031 47.1515 128.152 46.6997C129.413 41.9877 126.566 37.1298 121.795 35.8491C117.024 34.5684 112.134 37.3501 110.874 42.062C110.362 43.9745 110.527 45.911 111.223 47.6226C109.7 47.1322 108.305 46.4217 107.063 45.5372Z" fill="#5A7C3B"/>
<path d="M129.037 45.5372C128.89 44.0984 128.997 42.6113 129.392 41.1345C131.157 34.5378 138.002 30.6435 144.682 32.4364C150.355 33.9589 154.083 39.093 153.999 44.6466C152.772 46.0264 151.299 47.1605 149.667 48C149.851 47.5856 150.005 47.1515 150.126 46.6997C151.387 41.9877 148.541 37.1298 143.769 35.8491C138.998 34.5684 134.108 37.3501 132.848 42.062C132.336 43.9745 132.501 45.911 133.197 47.6226C131.675 47.1322 130.279 46.4217 129.037 45.5372Z" fill="#5A7C3B"/>
<path d="M0.063009 13.5372C-0.0839667 12.0984 0.0229316 10.6113 0.41797 9.1345C2.18255 2.53776 9.0281 -1.35651 15.7079 0.436401C21.3804 1.95893 25.1093 7.09304 25.0244 12.6466C23.7975 14.0264 22.3248 15.1605 20.6927 16C20.877 15.5856 21.0313 15.1515 21.1521 14.6997C22.4125 9.98773 19.5664 5.12976 14.7951 3.8491C10.0238 2.56845 5.13407 5.35007 3.87366 10.062C3.36209 11.9745 3.52701 13.911 4.22256 15.6226C2.70044 15.1322 1.30495 14.4217 0.063009 13.5372Z" fill="#5A7C3B"/>
<path d="M22.0372 13.5372C21.8903 12.0984 21.9972 10.6113 22.3922 9.1345C24.1568 2.53776 31.0023 -1.35651 37.6822 0.436401C43.3546 1.95893 47.0835 7.09304 46.9986 12.6466C45.7717 14.0264 44.299 15.1605 42.667 16C42.8513 15.5856 43.0055 15.1515 43.1263 14.6997C44.3868 9.98773 41.5406 5.12976 36.7693 3.8491C31.998 2.56845 27.1083 5.35007 25.8479 10.062C25.3363 11.9745 25.5012 13.911 26.1968 15.6226C24.6747 15.1322 23.2792 14.4217 22.0372 13.5372Z" fill="#5A7C3B"/>
</svg>
